<svg width="66" height="24" viewBox="0 0 66 24" fill="none" xmlns="http://www.w3.org/2000/svg">
<path d="M25.54 17C25.4467 17 25.3673 16.972 25.302 16.916C25.246 16.8507 25.218 16.7713 25.218 16.678V7.536C25.218 7.43333 25.246 7.354 25.302 7.298C25.3673 7.23267 25.4467 7.2 25.54 7.2H26.254C26.3567 7.2 26.436 7.23267 26.492 7.298C26.5573 7.354 26.59 7.43333 26.59 7.536V11.4H31.406V7.536C31.406 7.43333 31.434 7.354 31.49 7.298C31.5553 7.23267 31.6347 7.2 31.728 7.2H32.442C32.5447 7.2 32.624 7.23267 32.68 7.298C32.7453 7.354 32.778 7.43333 32.778 7.536V16.678C32.778 16.7713 32.7453 16.8507 32.68 16.916C32.6147 16.972 32.5353 17 32.442 17H31.728C31.6347 17 31.5553 16.972 31.49 16.916C31.434 16.8507 31.406 16.7713 31.406 16.678V12.66H26.59V16.678C26.59 16.7713 26.5573 16.8507 26.492 16.916C26.4267 16.972 26.3473 17 26.254 17H25.54ZM37.2201 17.14C36.7628 17.14 36.3381 17.0467 35.9461 16.86C35.5541 16.6733 35.2415 16.4213 35.0081 16.104C34.7841 15.7773 34.6721 15.418 34.6721 15.026C34.6721 14.41 34.9241 13.906 35.4281 13.514C35.9415 13.1127 36.6321 12.8513 37.5001 12.73L39.5861 12.436V12.03C39.5861 11.078 39.0401 10.602 37.9481 10.602C37.5375 10.602 37.2015 10.6907 36.9401 10.868C36.6788 11.036 36.4828 11.2367 36.3521 11.47C36.3241 11.554 36.2868 11.6147 36.2401 11.652C36.2028 11.6893 36.1468 11.708 36.0721 11.708H35.4701C35.3861 11.708 35.3115 11.68 35.2461 11.624C35.1901 11.5587 35.1621 11.484 35.1621 11.4C35.1715 11.176 35.2741 10.924 35.4701 10.644C35.6755 10.3547 35.9881 10.1073 36.4081 9.902C36.8281 9.68733 37.3461 9.58 37.9621 9.58C39.0075 9.58 39.7588 9.82733 40.2161 10.322C40.6735 10.8073 40.9021 11.414 40.9021 12.142V16.678C40.9021 16.7713 40.8695 16.8507 40.8041 16.916C40.7481 16.972 40.6735 17 40.5801 17H39.9361C39.8428 17 39.7635 16.972 39.6981 16.916C39.6421 16.8507 39.6141 16.7713 39.6141 16.678V16.076C39.4088 16.3747 39.1101 16.6267 38.7181 16.832C38.3261 17.0373 37.8268 17.14 37.2201 17.14ZM37.5141 16.09C38.1208 16.09 38.6155 15.894 38.9981 15.502C39.3901 15.1007 39.5861 14.5267 39.5861 13.78V13.388L37.9621 13.626C37.2995 13.7193 36.8001 13.878 36.4641 14.102C36.1281 14.3167 35.9601 14.592 35.9601 14.928C35.9601 15.3013 36.1141 15.5907 36.4221 15.796C36.7301 15.992 37.0941 16.09 37.5141 16.09ZM45.6088 17.14C44.9274 17.14 44.3627 17.0327 43.9147 16.818C43.4761 16.6033 43.1541 16.342 42.9487 16.034C42.7527 15.726 42.6501 15.4227 42.6407 15.124V15.096C42.6407 15.0213 42.6687 14.9607 42.7247 14.914C42.7807 14.8673 42.8461 14.844 42.9207 14.844H43.5787C43.7467 14.844 43.8587 14.9327 43.9147 15.11C44.0174 15.4647 44.2181 15.7167 44.5167 15.866C44.8247 16.006 45.2261 16.076 45.7207 16.076C46.1967 16.076 46.5887 15.978 46.8967 15.782C47.2047 15.586 47.3588 15.2967 47.3588 14.914C47.3588 14.522 47.2467 14.2327 47.0227 14.046C46.8081 13.85 46.4721 13.752 46.0147 13.752H45.2447C45.1607 13.752 45.0907 13.724 45.0347 13.668C44.9787 13.612 44.9507 13.5373 44.9507 13.444V13.066C44.9507 12.9727 44.9787 12.898 45.0347 12.842C45.0907 12.786 45.1607 12.758 45.2447 12.758H45.9308C46.7241 12.758 47.1207 12.4453 47.1207 11.82C47.1207 11.484 46.9994 11.204 46.7567 10.98C46.5234 10.756 46.1407 10.644 45.6088 10.644C45.0954 10.644 44.7221 10.7327 44.4887 10.91C44.2647 11.078 44.1014 11.3487 43.9987 11.722C43.9614 11.8153 43.9147 11.8853 43.8587 11.932C43.8121 11.9693 43.7421 11.988 43.6487 11.988H43.0187C42.9347 11.988 42.8647 11.9647 42.8087 11.918C42.7527 11.862 42.7247 11.7967 42.7247 11.722C42.7341 11.3393 42.8461 10.9847 43.0607 10.658C43.2754 10.3313 43.5974 10.07 44.0267 9.874C44.4561 9.678 44.9834 9.58 45.6088 9.58C46.2621 9.58 46.7987 9.68267 47.2187 9.888C47.6387 10.0933 47.9421 10.35 48.1288 10.658C48.3154 10.966 48.4087 11.288 48.4087 11.624C48.4087 12.0067 48.3434 12.3193 48.2127 12.562C48.0914 12.7953 47.8674 12.9913 47.5407 13.15C47.9421 13.2993 48.2267 13.5327 48.3948 13.85C48.5721 14.1673 48.6607 14.5547 48.6607 15.012C48.6607 15.6933 48.3807 16.2207 47.8207 16.594C47.2607 16.958 46.5234 17.14 45.6088 17.14ZM52.4288 17.14C51.9715 17.14 51.5468 17.0467 51.1548 16.86C50.7628 16.6733 50.4501 16.4213 50.2168 16.104C49.9928 15.7773 49.8808 15.418 49.8808 15.026C49.8808 14.41 50.1328 13.906 50.6368 13.514C51.1501 13.1127 51.8408 12.8513 52.7088 12.73L54.7948 12.436V12.03C54.7948 11.078 54.2488 10.602 53.1568 10.602C52.7461 10.602 52.4101 10.6907 52.1488 10.868C51.8875 11.036 51.6915 11.2367 51.5608 11.47C51.5328 11.554 51.4955 11.6147 51.4488 11.652C51.4115 11.6893 51.3555 11.708 51.2808 11.708H50.6788C50.5948 11.708 50.5201 11.68 50.4548 11.624C50.3988 11.5587 50.3708 11.484 50.3708 11.4C50.3801 11.176 50.4828 10.924 50.6788 10.644C50.8841 10.3547 51.1968 10.1073 51.6168 9.902C52.0368 9.68733 52.5548 9.58 53.1708 9.58C54.2161 9.58 54.9675 9.82733 55.4248 10.322C55.8821 10.8073 56.1108 11.414 56.1108 12.142V16.678C56.1108 16.7713 56.0781 16.8507 56.0128 16.916C55.9568 16.972 55.8821 17 55.7888 17H55.1448C55.0515 17 54.9721 16.972 54.9068 16.916C54.8508 16.8507 54.8228 16.7713 54.8228 16.678V16.076C54.6175 16.3747 54.3188 16.6267 53.9268 16.832C53.5348 17.0373 53.0355 17.14 52.4288 17.14ZM52.7228 16.09C53.3295 16.09 53.8241 15.894 54.2068 15.502C54.5988 15.1007 54.7948 14.5267 54.7948 13.78V13.388L53.1708 13.626C52.5081 13.7193 52.0088 13.878 51.6728 14.102C51.3368 14.3167 51.1688 14.592 51.1688 14.928C51.1688 15.3013 51.3228 15.5907 51.6308 15.796C51.9388 15.992 52.3028 16.09 52.7228 16.09ZM57.8634 18.54C57.7701 18.54 57.6908 18.5073 57.6254 18.442C57.5694 18.386 57.5414 18.3113 57.5414 18.218V16.202C57.5414 16.1087 57.5694 16.034 57.6254 15.978C57.6908 15.9127 57.7701 15.88 57.8634 15.88H57.9334C58.3254 15.8707 58.6194 15.544 58.8154 14.9C59.0208 14.256 59.1234 13.234 59.1234 11.834V10.042C59.1234 9.94867 59.1514 9.874 59.2074 9.818C59.2728 9.75267 59.3521 9.72 59.4454 9.72H63.9114C64.0048 9.72 64.0794 9.75267 64.1354 9.818C64.2008 9.874 64.2334 9.94867 64.2334 10.042V15.852H64.8914C64.9848 15.852 65.0594 15.8847 65.1154 15.95C65.1808 16.006 65.2134 16.0807 65.2134 16.174V18.218C65.2134 18.3113 65.1808 18.386 65.1154 18.442C65.0594 18.5073 64.9848 18.54 64.8914 18.54H64.2334C64.1401 18.54 64.0608 18.5073 63.9954 18.442C63.9394 18.386 63.9114 18.3113 63.9114 18.218V17H58.8434V18.218C58.8434 18.3113 58.8108 18.386 58.7454 18.442C58.6894 18.5073 58.6148 18.54 58.5214 18.54H57.8634ZM62.9314 15.852V10.84H60.3974V11.988C60.3974 13.8547 60.1314 15.152 59.5994 15.88L62.9314 15.852Z" fill="black" fill-opacity="0.87"/>
<path d="M17.835 3.86961L16.055 2.09961L6.16504 11.9996L16.065 21.8996L17.835 20.1296L9.70504 11.9996L17.835 3.86961Z" fill="black" fill-opacity="0.54"/>
</svg>
