<svg width="194" height="135" viewBox="0 0 194 135" fill="none" xmlns="http://www.w3.org/2000/svg">
<path d="M9.63204 130C-5.51714 107.636 -2.27657 73.8662 15.7014 61.8555C40.2674 45.4442 9.34893 19.6191 51.7755 1.97712C69.4349 -5.36613 90.0285 10.0611 107.936 10.73C123.982 11.3297 140.581 -2.25828 156.872 4.03639C167.767 7.66006 180.506 20.2011 179.695 32.36C179.275 38.6426 169.957 53.8715 183.457 67.1782C201.881 85.3376 192.309 111.311 183.678 129.718C183.679 129.716 9.63204 130 9.63204 130Z" fill="#F2EDF4"/>
<path d="M97 135C145.601 135 185 132.761 185 130C185 127.239 145.601 125 97 125C48.3989 125 9 127.239 9 130C9 132.761 48.3989 135 97 135Z" fill="#DAF7FF"/>
<path d="M132.529 92.5381C140.536 84.5306 140.536 71.5478 132.529 63.5403C124.521 55.5328 111.538 55.5328 103.531 63.5403C95.5233 71.5478 95.5233 84.5306 103.531 92.5381C111.538 100.546 124.521 100.546 132.529 92.5381Z" fill="#F7CA15"/>
<path d="M132.85 76.9162L118.807 67.762C118.003 67.2377 116.939 67.8144 116.939 68.7742V87.3061C116.939 88.2659 118.004 88.8425 118.807 88.3183L132.85 79.1641C133.662 78.635 133.662 77.4453 132.85 76.9162Z" fill="#8C63A9"/>
<path d="M109.702 67.562H112.883C113.364 67.562 113.754 67.9516 113.754 68.4323V87.5868C113.754 88.0675 113.364 88.4571 112.883 88.4571H109.702C109.222 88.4571 108.832 88.0675 108.832 87.5868V68.4323C108.832 67.9516 109.222 67.562 109.702 67.562Z" fill="#8C63A9"/>
<path d="M74.7185 129.352H49.5673C48.7164 129.352 48.2341 128.378 48.7495 127.701L49.9093 126.178C50.7819 125.032 52.3886 124.326 54.1275 124.326H69.9333C71.5399 124.326 73.0425 124.929 73.9522 125.938L75.4823 127.636C76.0791 128.297 75.6097 129.352 74.7185 129.352Z" fill="#77BED0"/>
<path d="M64.9787 111.575H59.5435V127.314H64.9787V111.575Z" fill="#77BED0"/>
<path d="M76.3068 26.3376V68.1059H48.4723V27.0425C48.4602 26.8046 48.4537 26.565 48.4537 26.3255C48.4537 18.6359 54.6883 12.4014 62.3787 12.4014C70.0682 12.4014 76.3028 18.6351 76.3028 26.3255V26.3376H76.3068Z" fill="#F7CA15"/>
<path d="M76.2965 65.3394H48.4717V67.2242H76.2965V65.3394Z" fill="#FCF0BE"/>
<path d="M78.8312 65.2548V85.3142V93.7329H78.8151C78.8151 93.7466 78.8151 93.7628 78.8127 93.7781C78.515 102.716 71.1731 109.871 62.1624 109.871C53.1517 109.871 45.8122 102.717 45.5154 93.7781C45.513 93.762 45.513 93.7458 45.513 93.7329H45.4678V85.3707V65.2548H43.5096V92.7877C43.4934 93.1062 43.4854 93.428 43.4854 93.7491C43.4854 104.064 51.8476 112.426 62.1632 112.426C72.4781 112.426 80.8411 104.064 80.8411 93.7491V93.7329H80.8468V65.2548H78.8312Z" fill="#77BED0"/>
<path d="M77.7449 67.1907V92.9201H77.7401V92.9338C77.7401 98.8305 74.4639 103.961 69.6327 106.606C67.4155 107.82 64.8701 108.511 62.1633 108.511C53.5608 108.511 46.5874 101.536 46.5874 92.9338C46.5874 92.6653 46.593 92.3975 46.6076 92.1321V67.1907H77.7449Z" fill="#77BED0"/>
<path d="M78.9362 66.4984H81.6623V58.9904H78.9362C77.4521 58.9904 76.2488 60.1937 76.2488 61.6769V63.8111C76.2496 65.2959 77.4521 66.4984 78.9362 66.4984Z" fill="#77BED0"/>
<path d="M45.784 66.4984H43.0579V58.9904H45.784C47.268 58.9904 48.4706 60.1937 48.4706 61.6769V63.8111C48.4706 65.2959 47.268 66.4984 45.784 66.4984Z" fill="#77BED0"/>
<path d="M35.9257 58.082V66.7749C35.9257 66.7951 35.9257 66.8153 35.9273 66.8346C35.937 67.1903 36.037 67.5226 36.2055 67.8097C36.562 68.4203 37.2226 68.83 37.9799 68.83H43.5128V56.027H37.9799C37.2226 56.027 36.562 56.4367 36.2055 57.0473C36.037 57.3352 35.937 57.6683 35.9273 58.024C35.9257 58.0425 35.9257 58.0627 35.9257 58.082Z" fill="#F7CA15"/>
<path d="M35.9279 58.023H43.5166V57.0463H36.2061C36.0375 57.3342 35.9375 57.6673 35.9279 58.023Z" fill="#FCF0BE"/>
<path d="M35.945 59.9796H43.5168V59.0037H35.945V59.9796Z" fill="#FCF0BE"/>
<path d="M35.945 61.9379H43.5168V60.9619H35.945V61.9379Z" fill="#FCF0BE"/>
<path d="M35.945 63.8945H43.5168V62.9186H35.945V63.8945Z" fill="#FCF0BE"/>
<path d="M35.945 65.8524H43.5168V64.8765H35.945V65.8524Z" fill="#FCF0BE"/>
<path d="M35.9276 66.8346C35.9373 67.1903 36.0373 67.5226 36.2059 67.8097H43.5164V66.8346H35.9276Z" fill="#FCF0BE"/>
<path d="M64.7579 72.5859C64.7579 74.0175 63.5973 75.1781 62.1657 75.1781C60.7341 75.1781 59.5735 74.0175 59.5735 72.5859C59.5735 71.1543 60.7341 69.9937 62.1657 69.9937C63.5973 69.9937 64.7579 71.1543 64.7579 72.5859Z" fill="#FCF0BE"/>
<path d="M69.7956 91.0065H46.6051V92.088H69.7956V91.0065Z" fill="#77BED0"/>
<path d="M76.3069 48.1849V67.1903H69.9917C70.0223 55.3228 76.0722 48.3245 76.0722 48.3245L76.3069 48.1849Z" fill="#FCF0BE"/>
<path d="M77.745 67.1903V92.9197H77.7402V92.9334C77.7402 98.8301 74.464 103.96 69.6328 106.605C69.7699 95.1982 69.978 76.5978 69.9909 68.1049C69.9917 67.8177 69.9917 67.5427 69.9917 67.2798V67.1895H77.745V67.1903Z" fill="#77BED0"/>
<path d="M77.7305 91.0065H69.8094V92.088H77.7305V91.0065Z" fill="#77BED0"/>
<path d="M61.2888 16.4088L53.4269 24.2109L54.3921 25.1836L62.254 17.3815L61.2888 16.4088Z" fill="#77BED0"/>
<path d="M67.128 16.4375L53.0699 30.4955L54.0389 31.4644L68.0969 17.4064L67.128 16.4375Z" fill="#77BED0"/>
<path d="M58.2201 16.2977L57.2867 17.301L65.0188 24.4935L65.9521 23.4901L58.2201 16.2977Z" fill="#77BED0"/>
<path d="M54.7154 20.4365L53.7748 21.433L63.3948 30.5133L64.3354 29.5168L54.7154 20.4365Z" fill="#77BED0"/>
<path d="M53.1008 26.4159L52.1439 27.3967L61.1409 36.1738L62.0978 35.1929L53.1008 26.4159Z" fill="#77BED0"/>
<path d="M86.1062 10.7287L77.5763 18.0957C77.0431 18.5562 76.2374 18.4973 75.7769 17.9642C75.3163 17.4311 75.3752 16.6253 75.9083 16.1648L84.4383 8.79785C84.9714 8.33732 85.7772 8.39619 86.2377 8.92932C86.6982 9.46244 86.6394 10.2682 86.1062 10.7287Z" fill="#F7CA15"/>
<path d="M88.6705 19.194L80.1196 22.7525C79.5372 22.9945 78.8686 22.7194 78.6258 22.1363L78.5637 21.9863C78.321 21.404 78.5968 20.7353 79.1799 20.4926L87.7309 16.9341C88.3132 16.6913 88.9818 16.9672 89.2246 17.5495L89.2867 17.6995C89.5287 18.2827 89.2528 18.9513 88.6705 19.194Z" fill="#F7CA15"/>
<path d="M41.9886 33.8555L32.5013 33.1183C31.8552 33.0683 31.3721 32.5037 31.4221 31.8569L31.435 31.6907C31.485 31.0447 32.0496 30.5616 32.6965 30.6116L42.1838 31.3488C42.8299 31.3988 43.313 31.9634 43.263 32.6102L43.2501 32.7763C43.2001 33.4224 42.6355 33.9055 41.9886 33.8555Z" fill="#F7CA15"/>
<path d="M43.0631 39.5938L35.6784 42.6739C35.1872 42.8788 34.9549 43.4426 35.1598 43.9338L35.1905 44.008C35.3953 44.4992 35.9591 44.7314 36.4503 44.5266L43.835 41.4464C44.3261 41.2415 44.5584 40.6778 44.3536 40.1866L44.3229 40.1124C44.1189 39.6212 43.5543 39.3889 43.0631 39.5938Z" fill="#F7CA15"/>
<path d="M42.6546 37.7825L30.4153 39.7424C29.7298 39.8521 29.0845 39.3851 28.9748 38.6995C28.8651 38.014 29.3321 37.3695 30.0177 37.259L42.257 35.2983C42.9425 35.1887 43.5877 35.6548 43.6974 36.3412C43.8071 37.0276 43.3401 37.6728 42.6546 37.7825Z" fill="#F7CA15"/>
<path d="M163.488 69.4216H155.669C153.65 20.9074 83.3234 20.8453 81.2773 69.4216H73.457C75.8194 10.524 161.147 10.5667 163.488 69.4216Z" fill="#8C63A9"/>
<path d="M155.68 69.3484C144.045 69.3589 145.917 47.5572 130.495 40.3226C118.384 33.9073 102.14 38.7522 95.5234 50.7552C92.6134 57.51 88.0226 69.2443 81.288 69.3484C83.3342 20.7728 153.661 20.8341 155.68 69.3484Z" fill="#77BED0"/>
<path d="M163.489 69.3798H155.669V95.0713H163.489V69.3798Z" fill="#8C63A9"/>
<path d="M155.652 82.1603V96.236H163.473V90.5072C162.669 90.0281 161.805 89.6764 160.898 89.4667L161.135 88.3053C161.68 85.6429 159.963 83.0434 157.301 82.4982L155.652 82.1603Z" fill="#8C63A9"/>
<path d="M153.383 123.504L153.673 123.564C156.508 124.145 159.519 123.303 162.068 121.217L164.181 119.488L167.966 101.78L166.675 99.0153C165.181 95.8174 162.63 93.6551 159.623 93.0397L153.383 123.504Z" fill="#8C63A9"/>
<path d="M160.08 91.9272L153.327 124.899C152.782 127.562 150.18 129.279 147.519 128.734L139.036 126.996C136.373 126.451 134.658 123.85 135.204 121.188L141.956 88.2163C142.501 85.5539 145.1 83.8384 147.762 84.3836L156.245 86.1209C158.908 86.6653 160.625 89.2648 160.08 91.9272Z" fill="#77BED0"/>
<path d="M152.079 85.267L143.353 127.88L139.034 126.995C136.371 126.45 134.657 123.849 135.202 121.186L141.954 88.2149C142.499 85.5525 145.098 83.837 147.76 84.3822L152.079 85.267Z" fill="#8C63A9"/>
<path d="M81.2736 69.3562H73.4534V95.0486H81.2736V69.3562Z" fill="#8C63A9"/>
<path d="M81.2736 82.1603V96.236H73.4534V90.5072C74.2567 90.0281 75.1205 89.6764 76.0278 89.4667L75.7907 88.3053C75.2455 85.6429 76.9634 83.0434 79.625 82.4982L81.2736 82.1603Z" fill="#8C63A9"/>
<path d="M83.5582 123.481L83.2679 123.541C80.4329 124.121 77.4221 123.279 74.8726 121.194L72.7595 119.464L68.9744 101.756L70.2664 98.9912C71.761 95.7932 74.312 93.6317 77.3188 93.0155L83.5582 123.481Z" fill="#8C63A9"/>
<path d="M76.8623 91.903L83.6147 124.875C84.1599 127.538 86.7618 129.255 89.4234 128.71L97.9066 126.972C100.569 126.427 102.284 123.826 101.738 121.163L94.9861 88.1913C94.4409 85.5289 91.8422 83.8134 89.1798 84.3586L80.6966 86.0959C78.0342 86.6419 76.3171 89.2414 76.8623 91.903Z" fill="#77BED0"/>
<path d="M84.8618 85.2435L93.5886 127.856L97.9076 126.971C100.57 126.426 102.285 123.825 101.739 121.163L94.9871 88.1906C94.4419 85.5282 91.8432 83.8127 89.1808 84.3579L84.8618 85.2435Z" fill="#8C63A9"/>
<path d="M172.703 127.152C173.501 130.502 176.352 128.66 175.755 130.776C175.712 130.933 175.563 131.037 175.401 131.042L173.727 131.106C173.565 131.112 173.406 131.066 173.273 130.974C172.389 130.37 171.79 129.518 169.883 129.415C169.897 128.6 169.86 127.437 170.129 127.022L172.703 127.152Z" fill="#8C63A9"/>
<path d="M168.291 103.649C168.291 103.649 173.16 111.075 173.832 113.385C174.504 115.694 173.098 119.608 173.352 127.496C171.83 127.891 169.802 127.551 169.802 127.551C169.802 127.551 168.581 117.658 170.017 115.322C167.865 112.038 162.459 104.868 162.459 104.868L168.291 103.649Z" fill="#77BED0"/>
<path d="M165.591 128.232C166.83 129.918 169.922 128.921 169.798 131.184C165.111 131.11 163.163 131.119 163.163 131.119C163.174 130.599 163.279 129.366 163.391 128.884L165.591 128.232Z" fill="#8C63A9"/>
<path d="M167.044 102.148C167.044 102.148 168.596 114.263 168.238 116.641C167.88 119.02 166.769 120.882 166.731 128.773C165.195 129.111 162.849 129.415 162.849 129.415C162.849 129.415 161.859 119.897 163.894 117.276C163.317 113.393 160.569 103.624 160.569 103.624L167.044 102.148Z" fill="#77BED0"/>
<path d="M174.997 96.8144L176.889 94.6924C176.931 94.6464 176.989 94.6198 177.051 94.619L178.609 94.6101C178.653 94.6093 178.791 94.8553 178.761 94.8884L177.426 96.0748C177.419 96.0812 177.412 96.0869 177.403 96.0893L175.113 96.9386C175.064 96.9531 174.962 96.8531 174.997 96.8144Z" fill="#C4204A"/>
<path d="M175.141 96.9571L176.945 94.9561C176.986 94.9101 177.045 94.8835 177.106 94.8827L178.713 94.8536C178.757 94.8528 178.781 94.9053 178.751 94.9383L177.482 96.3385C177.475 96.3449 177.468 96.3506 177.459 96.353L175.194 97.0394C175.144 97.0539 175.107 96.995 175.141 96.9571Z" fill="#F7CA15"/>
<path d="M171.579 98.7813L172.883 98.1418C172.883 98.1418 174.169 96.84 174.36 96.5488C174.647 96.4037 175.188 96.0391 175.31 96.0254C175.432 96.0117 175.681 96.0488 175.681 96.0488L175.077 96.736C175.077 96.736 175.363 96.7932 175.729 96.5601C176.095 96.3278 176.741 95.7044 177.058 95.8254C177.17 95.9246 177.17 95.9246 177.17 95.9246C177.17 95.9246 177.37 95.7108 177.558 95.7907C177.746 95.8705 177.371 96.8093 176.308 97.8054C176.237 98.0716 175.887 98.5378 175.887 98.5378L173.737 99.2927L171.579 98.7813Z" fill="#F37A50"/>
<path d="M177.238 95.2578C177.161 95.3344 177.052 95.3481 176.993 95.2892C176.934 95.2303 176.948 95.1206 177.024 95.044C177.101 94.9674 177.211 94.9537 177.269 95.0126C177.328 95.0714 177.315 95.1811 177.238 95.2578Z" fill="#C4204A"/>
<path d="M165.506 89.1921C165.893 89.6938 162.862 90.239 162.456 89.1969C162.049 88.1549 162.747 85.2885 162.747 85.2885L165.51 85.8748C165.511 85.8748 165.003 88.5396 165.506 89.1921Z" fill="#F37A50"/>
<path d="M162.143 82.9479C161.911 85.165 163.133 87.1104 164.875 87.2927C166.616 87.4758 168.216 85.8264 168.448 83.6092C168.681 81.392 167.458 79.4467 165.717 79.2644C163.976 79.0821 162.376 80.7315 162.143 82.9479Z" fill="#F37A50"/>
<path d="M167.42 84.2628C167.482 84.4345 167.671 84.5233 167.842 84.462C168.014 84.4007 168.103 84.2111 168.041 84.0402C167.98 83.8684 167.79 83.7796 167.619 83.8409C167.448 83.9022 167.359 84.091 167.42 84.2628Z" fill="black"/>
<path d="M165.256 83.7902C165.323 83.9757 165.527 84.0725 165.714 84.0055C165.899 83.9386 165.996 83.7345 165.929 83.5482C165.862 83.3627 165.658 83.2659 165.472 83.3329C165.286 83.3998 165.189 83.6047 165.256 83.7902Z" fill="black"/>
<path d="M166.79 84.1945C166.86 84.7139 166.957 85.3535 166.957 85.3535C166.957 85.3535 166.616 85.7132 166.05 85.4648C166.333 85.4744 166.641 85.4204 166.688 85.0583C166.735 84.6961 166.79 84.1945 166.79 84.1945Z" fill="#DE623C"/>
<path d="M167.517 83.5097C167.554 83.5323 167.602 83.5347 167.642 83.5129C167.646 83.5105 167.783 83.4403 167.912 83.4895C168.004 83.5242 168.076 83.6137 168.129 83.7549C168.153 83.8202 168.226 83.8541 168.291 83.8291C168.357 83.8049 168.391 83.7315 168.366 83.6662C168.286 83.4516 168.162 83.3129 167.999 83.2516C167.76 83.1621 167.531 83.2847 167.521 83.2903C167.46 83.3242 167.437 83.4008 167.47 83.4621C167.483 83.4823 167.499 83.4984 167.517 83.5097Z" fill="#201D40"/>
<path d="M165.871 83.149C165.829 83.1579 165.783 83.145 165.751 83.1103C165.748 83.1071 165.642 82.9958 165.504 82.9998C165.406 83.0023 165.309 83.0627 165.213 83.1789C165.168 83.2329 165.088 83.2402 165.034 83.1958C164.98 83.1515 164.973 83.0716 165.018 83.0176C165.163 82.8418 165.326 82.7506 165.5 82.7466C165.755 82.7409 165.931 82.9321 165.939 82.9402C165.985 82.9918 165.981 83.0724 165.93 83.1192C165.913 83.1345 165.892 83.1442 165.871 83.149Z" fill="#201D40"/>
<path d="M162.791 84.3563C163.937 83.3957 163.62 81.9286 163.62 81.9286C164.177 81.9649 164.333 82.2029 164.333 82.2029C164.78 81.6891 164.671 81.2052 164.671 81.2052C165.877 81.0737 166.23 81.9262 167.15 82.4295C168.41 83.1183 170.22 83.0296 170.819 81.4262C170.906 81.1939 170.685 80.9697 170.45 81.0487C170.232 81.1221 169.961 81.156 169.658 81.0656C169.658 81.0656 170.026 80.8229 170.16 80.3865C170.233 80.1454 169.984 79.9373 169.755 80.0429C169.412 80.201 168.832 80.2809 167.952 79.8574C167.367 79.576 166.221 78.2073 165.288 78.1629C164.527 78.1266 163.791 78.5855 163.31 79.3953C163.31 79.3953 161.493 79.1025 160.791 81.0003C160.102 82.865 162.685 85.7452 162.685 85.7452C162.685 85.7452 162.745 84.8394 162.791 84.3563Z" fill="#201D40"/>
<path d="M166.65 86.3123C166.721 86.2655 166.704 86.1566 166.621 86.1365C166.409 86.0848 166.062 85.9921 165.744 85.8727C165.424 85.7534 165.103 85.5953 164.91 85.4953C164.834 85.4557 164.749 85.5267 164.772 85.609C164.845 85.8622 165.035 86.276 165.525 86.4591C166.012 86.6414 166.429 86.455 166.65 86.3123Z" fill="white"/>
<path d="M163.608 83.0509C163.981 83.4187 164.039 83.9647 163.737 84.2704C163.437 84.576 162.89 84.5252 162.516 84.1566C162.143 83.7889 162.085 83.2428 162.386 82.9372C162.687 82.6315 163.234 82.6831 163.608 83.0509Z" fill="#F37A50"/>
<path d="M162.99 84.1225C163.222 84.1225 163.41 83.9398 163.41 83.7144C163.41 83.489 163.222 83.3063 162.99 83.3063C162.758 83.3063 162.57 83.489 162.57 83.7144C162.57 83.9398 162.758 84.1225 162.99 84.1225Z" fill="white"/>
<path d="M163.466 84.708L163.448 84.7169C163.364 84.758 163.263 84.7226 163.223 84.6395L162.901 83.9781C162.86 83.8942 162.895 83.7934 162.978 83.7531L162.997 83.7442C163.081 83.7031 163.181 83.7386 163.222 83.8216L163.544 84.483C163.585 84.5661 163.55 84.6669 163.466 84.708Z" fill="white"/>
<path d="M168.874 104.538C166.713 104.98 162.826 105.741 160.771 104.939C159.993 103.822 159.796 97.5078 159.796 97.5078C159.571 91.0079 160.351 90.0433 162.108 87.8656C162.845 88.2043 164.692 88.4931 165.504 88.4995C165.504 88.4995 167.343 91.0531 167.702 92.9073C168.065 94.7873 168.106 98.1304 168.14 100.046C168.179 102.173 168.599 103.199 168.874 104.538Z" fill="#F7CA15"/>
<path d="M161.853 89.8394C160.588 92.3009 160.874 95.0262 164.551 100.392C167.126 100.167 167.631 98.0217 167.631 98.0217C167.631 98.0217 166.923 95.3577 166.005 92.0065C165.085 88.6546 162.406 88.7618 161.853 89.8394Z" fill="#8C63A9"/>
<path d="M173.092 97.5078L167.58 97.9474C167.58 97.9474 165.216 97.5159 164.551 100.392C165.734 101.313 168.789 101.659 173.798 99.7992C173.268 99.0773 173.092 97.5078 173.092 97.5078Z" fill="#8C63A9"/>
<path d="M31.5613 129.601H31.6097C32.0009 129.601 32.3186 129.284 32.3186 128.892V116.774H30.8532V128.892C30.8523 129.283 31.1701 129.601 31.5613 129.601Z" fill="#8C63A9"/>
<path d="M26.4199 129.601H26.4683C26.8595 129.601 27.1773 129.284 27.1773 128.892V116.774H25.7118V128.892C25.711 129.283 26.028 129.601 26.4199 129.601Z" fill="#8C63A9"/>
<path d="M18.9641 128.915C18.9641 129.294 19.2924 129.601 19.6973 129.601C20.1021 129.601 20.4304 129.294 20.4304 128.915V116.774H18.9649V128.915H18.9641Z" fill="#8C63A9"/>
<path d="M14.5307 129.601H14.579C14.9702 129.601 15.288 129.284 15.288 128.892V116.774H13.8225V128.892C13.8225 129.283 14.1395 129.601 14.5307 129.601Z" fill="#8C63A9"/>
<path d="M22.663 97.5068V112.957C22.663 113.133 22.8057 113.276 22.9816 113.276H32.5609C33.5271 113.276 34.311 114.059 34.311 115.026C34.311 115.992 33.5279 116.776 32.5609 116.776H22.663H20.9128C19.9466 116.776 19.1626 115.993 19.1626 115.026V113.276V97.5076C19.1626 96.5414 19.9457 95.7574 20.9128 95.7574C21.879 95.7566 22.663 96.5398 22.663 97.5068Z" fill="#8C63A9"/>
<path d="M13.3392 113.558H20.9126L20.9126 95.7565H13.3392L13.3392 113.558Z" fill="#8C63A9"/>
<path d="M15.0886 97.5072V112.957C15.0886 113.133 15.2314 113.276 15.4072 113.276H24.9865C25.9528 113.276 26.7367 114.059 26.7367 115.026C26.7367 115.992 25.9536 116.776 24.9865 116.776H15.0886H13.3385C12.3722 116.776 11.5883 115.993 11.5883 115.026V113.276V97.508C11.5883 96.5418 12.3714 95.7578 13.3385 95.7578C14.3055 95.757 15.0886 96.5402 15.0886 97.5072Z" fill="#8C63A9"/>
<path d="M27.0377 95.1045C28.9678 95.6908 29.9284 99.7542 30.7502 104.008C31.8608 105.465 33.0513 106.266 34.7918 107.984C33.6126 108.251 32.3641 107.938 32.3641 107.938C32.3641 107.938 29.1573 107.966 27.7668 104.934C27.4482 104.24 27.3402 102.844 27.1595 102.224C27.0813 100.279 27.0377 95.1045 27.0377 95.1045Z" fill="#77BED0"/>
<path d="M38.3291 127.505L40.068 127.945L40.7777 126.397C40.7035 126.342 40.5898 125.313 40.5204 124.53L37.7145 124.917C37.8516 125.707 38.0839 126.741 38.3291 127.505Z" fill="#F37A50"/>
<path d="M41.397 128.418C41.397 128.418 41.9979 127.408 42.76 127.344C42.76 127.344 44.1973 127.426 44.7014 128.031C44.8595 128.221 44.799 128.626 44.7361 128.885C44.6973 129.047 44.5594 129.223 44.1344 129.356C43.5069 129.554 42.6608 129.675 41.101 129.271C39.2306 128.786 38.9314 128.985 38.2402 128.763C37.524 128.532 37.7538 127.656 37.949 126.803C37.9506 126.803 38.4725 127.847 41.397 128.418Z" fill="#201D40"/>
<path d="M40.825 126.245C40.825 126.245 41.6597 126.751 42.7518 127.002C43.3623 127.142 44.9907 127.458 44.7286 128.543C44.6899 128.705 44.552 128.881 44.1269 129.015C43.4994 129.213 42.6534 129.334 41.0935 128.93C39.2232 128.445 38.9247 128.644 38.2327 128.421C37.5165 128.191 37.8472 127.196 38.0424 126.344C38.0601 126.56 38.1601 127.129 39.4603 127.637C39.8482 127.788 39.5313 126.078 40.825 126.245Z" fill="#2C2858"/>
<path d="M40.5818 127.553C40.6439 127.549 40.6996 127.505 40.7149 127.441C40.8471 126.911 41.3956 126.873 41.419 126.871C41.5004 126.866 41.5626 126.797 41.5585 126.715C41.5545 126.634 41.4851 126.572 41.4045 126.576C41.1319 126.589 40.5778 126.773 40.4294 127.37C40.41 127.449 40.4576 127.528 40.5366 127.549C40.552 127.553 40.5673 127.554 40.5818 127.553Z" fill="#494C7F"/>
<path d="M41.2673 127.828C41.3294 127.824 41.3851 127.78 41.4004 127.716C41.5327 127.185 42.0811 127.147 42.1045 127.145C42.186 127.141 42.2481 127.071 42.2441 126.991C42.24 126.909 42.1707 126.847 42.09 126.851C41.8174 126.864 41.2633 127.048 41.1149 127.645C41.0956 127.724 41.1431 127.804 41.2222 127.824C41.2375 127.828 41.2528 127.829 41.2673 127.828Z" fill="#494C7F"/>
<path d="M31.5379 128.16L33.2414 128.722L34.0584 127.226C33.9882 127.167 33.7438 126.079 33.7293 125.293L31.1064 125.534C31.1879 126.333 31.3468 127.38 31.5379 128.16Z" fill="#F37A50"/>
<path d="M28.7108 108.771C32.5943 109.48 38.1094 111.995 38.6538 112.568C39.7773 113.75 40.3282 117.815 40.8581 125.056L37.4593 125.282C36.2051 119.626 35.0244 117.16 34.8316 114.863C34.8316 114.863 31.8531 115.068 27.3719 113.339C25.1628 112.487 22.8609 111.492 23.5231 109.496C24.0506 107.906 25.0079 108.094 28.7108 108.771Z" fill="#201D40"/>
<path d="M24.3677 109.109C27.5939 109.442 31.8976 113.134 32.4412 113.706C33.5647 114.888 33.7067 118.924 34.2366 126.166L30.8539 126.478C30.3063 122.726 28.7053 118.428 28.7101 115.674C28.7101 115.674 25.6824 115.018 20.9964 113.963C18.4332 113.387 17.6638 112.99 17.1734 111.315C17.0064 110.746 16.7806 109.427 17.0363 109.132C18.1679 107.83 21.3134 108.793 24.3677 109.109Z" fill="#2C2858"/>
<path d="M34.5344 129.286C34.5344 129.286 35.2054 128.32 35.9692 128.31C35.9692 128.31 37.3976 128.493 37.8581 129.132C38.0025 129.333 37.9138 129.733 37.8331 129.987C37.7823 130.146 37.6331 130.311 37.2 130.415C36.5604 130.568 35.7071 130.629 34.1803 130.116C32.3486 129.5 32.0365 129.679 31.3631 129.408C30.6646 129.127 30.9558 128.27 31.2106 127.432C31.2098 127.432 31.6566 128.511 34.5344 129.286Z" fill="#201D40"/>
<path d="M34.117 127.079C34.117 127.079 34.9139 127.642 35.9858 127.97C36.585 128.153 38.1868 128.582 37.8489 129.647C37.7981 129.806 37.6489 129.971 37.2158 130.075C36.5762 130.227 35.7228 130.289 34.1961 129.776C32.3644 129.16 32.0523 129.339 31.3788 129.068C30.6804 128.787 31.0804 127.818 31.3353 126.981C31.3377 127.198 31.3974 127.772 32.658 128.371C33.0347 128.55 32.8387 126.821 34.117 127.079Z" fill="#2C2858"/>
<path d="M33.4963 128.423C33.5585 128.419 33.6141 128.375 33.6294 128.312C33.7617 127.781 34.3101 127.743 34.3335 127.741C34.415 127.737 34.4771 127.667 34.4731 127.586C34.469 127.504 34.3997 127.442 34.319 127.446C34.0464 127.459 33.4923 127.643 33.3439 128.24C33.3246 128.319 33.3721 128.399 33.4512 128.419C33.4657 128.423 33.481 128.424 33.4963 128.423Z" fill="#494C7F"/>
<path d="M34.1816 128.698C34.2438 128.694 34.2994 128.65 34.3147 128.587C34.447 128.056 34.9954 128.018 35.0188 128.016C35.1003 128.011 35.1624 127.942 35.1584 127.861C35.1543 127.779 35.085 127.717 35.0043 127.721C34.7317 127.734 34.1776 127.918 34.0292 128.515C34.0099 128.594 34.0574 128.674 34.1373 128.694C34.151 128.697 34.1663 128.699 34.1816 128.698Z" fill="#494C7F"/>
<path d="M22.2368 91.8522H22.2385L23.5257 91.8562L23.8169 94.8969L22.3143 95.6905L20.7117 94.9057L20.9714 91.8562L22.2368 91.8522Z" fill="#DE623C"/>
<path d="M22.0683 91.4964C20.9585 91.8875 20.0358 90.5648 20.0358 90.5648C19.3116 90.6059 19.2737 89.8841 19.2737 89.8841C18.9196 89.8567 18.3986 89.6002 18.3986 88.9356C18.3986 88.3734 18.9293 88.2807 18.8567 87.6387C18.7978 87.1233 18.1606 85.9715 19.7455 85.5167C19.7455 85.5167 19.5753 84.573 20.4899 84.1334C21.611 83.5947 22.0627 84.2399 22.6095 84.2512C23.2201 84.2641 24.346 83.4527 24.8081 84.7569C24.8081 84.7569 25.6389 84.5908 26.1535 85.1077C26.6325 85.5884 26.5858 86.3514 26.4067 86.6684C26.4067 86.6684 27.1197 86.7458 27.4133 87.3394C27.6093 87.7379 27.5673 88.3186 27.2076 88.6759C26.9785 88.9033 26.7285 88.9759 26.7285 88.9759C26.468 89.0808 26.6132 89.8091 26.4059 90.0026C26.0736 90.3132 25.6929 90.5648 25.2985 90.785L22.0683 91.4964Z" fill="#2C2858"/>
<path d="M19.8465 89.8422C20.0586 91.9642 21.8443 93.6886 23.5106 93.5224C25.1769 93.3555 26.0931 91.3609 25.881 89.2389C25.6689 87.1169 24.1461 85.532 22.479 85.699C20.8127 85.8651 19.6343 87.7201 19.8465 89.8422Z" fill="#F37A50"/>
<path d="M25.017 90.0089C25.0686 90.1614 25.2339 90.2428 25.3864 90.1912C25.5388 90.1396 25.6203 89.9742 25.5686 89.8218C25.517 89.6694 25.3517 89.5879 25.1992 89.6395C25.0468 89.6911 24.9653 89.8565 25.017 90.0089Z" fill="black"/>
<path d="M22.7702 90.0534C22.8258 90.2187 23.0049 90.3066 23.1702 90.251C23.3348 90.1953 23.4235 90.0163 23.3678 89.8509C23.3122 89.6864 23.1331 89.5977 22.9678 89.6533C22.8024 89.7098 22.7137 89.8888 22.7702 90.0534Z" fill="black"/>
<path d="M24.1008 90.0671C24.3928 90.4744 24.7622 90.9713 24.7622 90.9713C24.7622 90.9713 24.6356 91.4286 24.0452 91.4729C24.2887 91.3536 24.5251 91.1697 24.4017 90.843C24.2791 90.5164 24.1008 90.0671 24.1008 90.0671Z" fill="#DE623C"/>
<path d="M22.3772 89.6857C22.3667 89.6825 22.3563 89.6785 22.3458 89.6728C22.2756 89.6333 22.2514 89.5446 22.2909 89.4744C22.399 89.2841 22.716 88.955 23.1426 89.076C23.2201 89.0994 23.2644 89.1784 23.2426 89.255C23.2209 89.3325 23.1402 89.3768 23.0628 89.355C22.7466 89.2655 22.5458 89.6139 22.5434 89.6172C22.5103 89.6777 22.4409 89.7043 22.3772 89.6857Z" fill="#2C2858"/>
<path d="M24.9961 89.427C24.976 89.4213 24.9574 89.41 24.9421 89.3939C24.8961 89.3455 24.8977 89.2689 24.9461 89.2229C24.9534 89.2157 25.1349 89.0463 25.3784 89.0705C25.5446 89.0866 25.693 89.1858 25.8188 89.3641C25.8575 89.4189 25.8446 89.4939 25.7898 89.5326C25.7349 89.5713 25.6599 89.5584 25.6212 89.5036C25.5373 89.385 25.4478 89.3205 25.355 89.3108C25.2228 89.2979 25.1139 89.3971 25.1131 89.3979C25.0808 89.4286 25.0365 89.4383 24.9961 89.427Z" fill="#2C2858"/>
<path d="M26.2688 87.0828L22.5434 84.9713L19.0148 87.8595L20.1286 90.6155C19.9415 89.271 20.8448 89.521 21.1795 89.0427C21.5183 88.558 21.5699 87.9055 22.6861 88.2297C22.6861 88.2297 23.3749 87.4958 23.9621 88.191C24.4162 88.729 24.8275 88.5177 25.2695 88.4548C25.7905 88.3806 25.7768 88.9056 26.0873 88.8217L26.2688 87.0828Z" fill="#2C2858"/>
<path d="M20.3053 89.6445C20.6569 90.0018 20.7053 90.5244 20.4133 90.8124C20.1214 91.1003 19.5987 91.0446 19.2471 90.6874C18.8954 90.3301 18.847 89.8074 19.139 89.5195C19.431 89.2307 19.9536 89.2872 20.3053 89.6445Z" fill="#F37A50"/>
<path d="M19.9447 90.6561C19.96 90.6505 19.9754 90.6416 19.9875 90.6295C20.1649 90.4489 20.2084 90.2254 20.1052 90.0319C19.9996 89.8335 19.7689 89.7189 19.5576 89.7593C19.4979 89.7706 19.4592 89.8278 19.4705 89.8875C19.4818 89.9472 19.539 89.9859 19.5987 89.9746C19.7148 89.9528 19.852 90.023 19.9124 90.1351C19.9697 90.2432 19.9415 90.3634 19.8318 90.4755C19.789 90.519 19.7899 90.5884 19.8334 90.6303C19.8624 90.6602 19.906 90.669 19.9447 90.6561Z" fill="#DE623C"/>
<path d="M24.7873 92.1432C24.8414 92.077 24.7913 91.9794 24.7067 91.9851C24.4913 92.0004 24.1348 92.0182 23.7961 92.002C23.4573 91.9859 23.1049 91.9335 22.8919 91.898C22.8081 91.8843 22.7492 91.9762 22.796 92.0472C22.9411 92.2641 23.2476 92.5989 23.7662 92.6231C24.2848 92.6481 24.6212 92.3456 24.7873 92.1432Z" fill="white"/>
<path d="M21.0715 90.1374C21.0715 90.9762 20.6093 91.6553 20.0383 91.6553C19.4681 91.6553 19.0051 90.9754 19.0051 90.1374C19.0051 89.2986 19.4673 88.6195 20.0383 88.6195C20.6085 88.6187 21.0715 89.2986 21.0715 90.1374Z" fill="black"/>
<path d="M19.5907 91.6553C20.1613 91.6553 20.6239 90.9757 20.6239 90.1374C20.6239 89.2991 20.1613 88.6195 19.5907 88.6195C19.0201 88.6195 18.5575 89.2991 18.5575 90.1374C18.5575 90.9757 19.0201 91.6553 19.5907 91.6553Z" fill="#8C63A9"/>
<path d="M20.0924 88.9107C20.0924 88.9107 20.6166 85.1716 25.6882 86.929C25.5188 86.2338 21.1377 84.0835 19.4246 88.6881C19.6254 88.9994 20.0924 88.9107 20.0924 88.9107Z" fill="#8C63A9"/>
<path d="M19.5334 95.657C20.4682 95.3417 21.4522 95.1949 22.4378 95.2239C25.7777 95.2239 26.289 96.0676 26.289 96.0482L23.8105 102.855L22.4378 103.532L20.9352 103.087C20.936 103.087 18.9882 95.8595 19.5334 95.657Z" fill="#FFD0B7"/>
<path d="M17.0374 109.191C17.0374 109.191 19.7312 109.469 22.2557 109.486C24.7801 109.467 27.474 108.977 27.474 108.977C27.474 108.977 27.1344 104.341 27.1691 102.561C27.2183 100.516 27.0385 97.8052 27.0385 95.1041C27.0385 95.1041 25.2479 94.8162 24.2373 94.6912C24.0728 94.671 23.9301 94.6549 23.8179 94.6452C23.8179 94.6452 23.2429 95.8526 20.7345 94.6452C20.6031 94.6323 20.4393 94.6331 20.2571 94.6436C19.2037 94.7065 17.5068 95.1041 17.5068 95.1041C17.5068 97.7988 17.3979 100.439 17.4342 102.484C17.3229 104.308 17.0374 109.191 17.0374 109.191Z" fill="#DAF7FF"/>
<path d="M23.6782 100.944L24.2896 100.59C24.2896 100.59 24.459 99.7231 25.4405 99.7021C25.7107 100.008 24.8913 100.261 25.1663 100.59C25.1663 100.59 25.397 100.984 26.6858 100.49C27.1915 100.285 27.6351 100.322 27.8779 100.9C28.0932 101.411 27.4432 102.361 26.3245 102.525C24.8775 102.738 23.8524 102.477 23.8524 102.477L23.6782 100.944Z" fill="#F37A50"/>
<path d="M18.0229 101.871C20.0658 101.729 23.5501 100.72 23.5501 100.72C24.1074 101.575 23.9534 102.711 23.9534 102.711C20.7812 105.492 16.0065 106.391 14.5418 105.722C13.2046 105.11 14.1482 96.9692 17.5067 95.1045L17.6228 95.1158C18.7746 97.0636 18.0229 101.871 18.0229 101.871Z" fill="#77BED0"/>
<path d="M20.2567 94.6437C20.4309 94.9357 20.6777 95.1558 21.0262 95.3309C21.577 95.6091 22.3263 95.7269 22.7876 95.6906C23.153 95.6615 23.5579 95.5131 23.8176 95.3075C24.0934 95.0889 24.2128 94.8098 24.2378 94.6913C24.0733 94.6711 23.9047 94.6453 23.7926 94.6356C23.7926 94.6356 23.2425 95.8527 20.735 94.6453C20.6019 94.6324 20.439 94.6332 20.2567 94.6437Z" fill="#77BED0"/>
<path d="M10.0283 109.479H52.4048C52.7334 109.479 53 109.058 53 108.541C53 108.023 52.7334 107.603 52.4048 107.603H10.0283C9.69973 107.603 9.43311 108.023 9.43311 108.541C9.43311 109.058 9.69973 109.479 10.0283 109.479Z" fill="white"/>
<path d="M28.5221 107.627H39.3201L41.4518 100.851C41.5502 100.538 41.3163 100.219 40.988 100.219H31.2087C30.9966 100.219 30.8086 100.357 30.7449 100.559L28.5221 107.627Z" fill="#8C63A9"/>
<path d="M29.3408 107.627H40.1388L42.2705 100.851C42.3689 100.538 42.135 100.219 41.8067 100.219H32.0274C31.8153 100.219 31.6274 100.357 31.5636 100.559L29.3408 107.627Z" fill="#8C63A9"/>
<path d="M35.698 104.057C35.5794 104.475 35.7908 104.902 36.1706 105.01C36.5505 105.118 36.9554 104.867 37.074 104.448C37.1933 104.029 36.9812 103.603 36.6013 103.495C36.2214 103.387 35.8174 103.638 35.698 104.057Z" fill="#8C63A9"/>
<path d="M22.3879 106.92H29.341V107.61H21.6967C21.6975 107.229 22.0064 106.92 22.3879 106.92Z" fill="#8C63A9"/>
<path d="M127.587 12.7179C127.338 12.9978 126.879 13.4139 126.58 13.7253L125.69 13.4752C125.423 12.3074 125.975 11.1032 126.023 10.958C126.149 10.579 126.185 10.3935 126.246 10.3862C126.307 10.3789 126.671 10.4306 126.505 10.9871C126.297 11.6863 127.07 11.7436 127.724 10.316C127.888 9.95873 128.373 9.97244 128.385 10.3402C128.399 10.7451 128.721 11.4444 127.587 12.7179Z" fill="#F37A50"/>
<path d="M120.662 17.3126C120.436 17.878 121.595 19.3104 121.805 19.279C124.156 18.0482 126.581 13.7252 126.581 13.7252L126.17 12.8226C126.169 12.8226 123.464 15.4455 120.662 17.3126Z" fill="#F37A50"/>
<path d="M116.483 13.4915C117.334 15.0505 121.22 19.1808 121.856 19.276L122.53 17.104C122.53 17.104 119.113 12.2026 118.506 11.4171C117.459 10.054 115.089 10.9493 116.483 13.4915Z" fill="#F37A50"/>
<path d="M128.504 10.2309L126.54 13.1562C126.461 13.2731 126.302 13.3046 126.185 13.2256L125.79 12.9602C125.673 12.8812 125.642 12.7231 125.72 12.6053L127.684 9.68C127.763 9.56305 127.921 9.5316 128.039 9.61064L128.434 9.87599C128.552 9.95504 128.582 10.1139 128.504 10.2309Z" fill="#201D40"/>
<path d="M128.329 10.1119L126.365 13.0372C126.286 13.1541 126.127 13.1856 126.01 13.1065L125.615 12.8412C125.498 12.7621 125.467 12.6041 125.545 12.4863L127.509 9.56098C127.588 9.44404 127.746 9.41258 127.864 9.49162L128.259 9.75698C128.377 9.83602 128.408 9.99491 128.329 10.1119Z" fill="#8C63A9"/>
<path d="M127.518 11.733C127.568 11.5161 127.52 10.6095 127.795 10.6176C127.862 10.6426 127.884 10.7765 127.884 10.7765C127.926 10.6434 128.017 10.0546 128.233 10.1627C128.417 10.3297 128.385 10.4571 128.385 10.4571L127.518 11.733Z" fill="#F37A50"/>
<path d="M117.097 1.44316C116.06 -0.372365 112.132 0.13011 111.862 2.33761C111.593 4.54512 111.83 5.98721 109.093 5.82994C106.914 5.70492 104.822 7.79306 105.025 10.8426C105.286 14.7438 107.888 13.0453 107.391 15.014C106.893 16.9828 106.62 18.9645 109.413 18.8419C112.206 18.7193 114.596 16.2287 114.058 13.0783C113.52 9.92878 116.006 10.2159 116.493 8.60847C117.184 6.32112 117.097 1.44316 117.097 1.44316Z" fill="#16142B"/>
<path d="M116.892 7.96879C116.892 7.96879 117.22 10.511 117.307 11.1716L114.848 11.0361C115.312 9.75528 114.257 6.64929 114.257 6.64929L116.892 7.96879Z" fill="#DE623C"/>
<path d="M114.25 5.73889C114.152 7.898 115.448 9.7103 117.144 9.78692C118.839 9.86354 120.293 8.17545 120.39 6.01634C120.487 3.85723 119.192 2.04493 117.496 1.96911C115.802 1.89169 114.348 3.57978 114.25 5.73889Z" fill="#F37A50"/>
<path d="M119.355 6.69421C119.384 6.85471 119.538 6.96037 119.698 6.93134C119.859 6.90149 119.964 6.74825 119.935 6.58775C119.905 6.42725 119.752 6.32159 119.592 6.35062C119.431 6.38047 119.325 6.53371 119.355 6.69421Z" fill="black"/>
<path d="M117.193 6.19913C117.225 6.37253 117.391 6.48787 117.565 6.4556C117.738 6.42334 117.854 6.2572 117.821 6.08379C117.789 5.91038 117.623 5.79505 117.449 5.82731C117.276 5.85877 117.161 6.02572 117.193 6.19913Z" fill="black"/>
<path d="M116.931 5.89358C116.955 5.88954 116.978 5.87664 116.995 5.85728C117.244 5.56935 117.679 5.62419 117.683 5.625C117.743 5.63306 117.799 5.59112 117.808 5.52983C117.816 5.46933 117.774 5.41288 117.713 5.40481C117.691 5.40159 117.156 5.33142 116.826 5.7113C116.786 5.75727 116.791 5.82744 116.837 5.86777C116.864 5.89116 116.899 5.89922 116.931 5.89358Z" fill="#2C2858"/>
<path d="M120.213 6.38702C120.225 6.3846 120.236 6.38057 120.248 6.37492C120.301 6.34508 120.32 6.27733 120.29 6.22329C120.057 5.80793 119.618 5.82567 119.598 5.82647C119.537 5.8297 119.49 5.88213 119.494 5.94342C119.497 6.00472 119.548 6.0515 119.61 6.04908C119.624 6.04827 119.932 6.04021 120.097 6.33217C120.12 6.37492 120.168 6.39589 120.213 6.38702Z" fill="#2C2858"/>
<path d="M118.823 6.83383C118.933 7.03869 119.022 7.24274 119.143 7.37905C119.184 7.42502 119.181 7.496 119.138 7.53955C118.956 7.7178 118.555 7.792 118.314 7.82184C118.279 7.82587 118.265 7.77748 118.297 7.76216C118.569 7.63472 118.702 7.521 118.763 7.45567C118.794 7.42341 118.806 7.37824 118.798 7.33388C118.779 7.23306 118.742 7.0282 118.725 6.86286C118.718 6.8064 118.796 6.78301 118.823 6.83383Z" fill="#DE623C"/>
<path d="M117.108 8.0195C117.122 7.93884 117.165 7.8719 117.238 7.90819C117.425 8.00095 117.737 8.14693 118.046 8.25581C118.355 8.3647 118.689 8.44777 118.893 8.49294C118.973 8.51068 118.967 8.59053 118.925 8.6615C118.751 8.95428 118.273 9.18253 117.8 9.01477C117.327 8.84781 117.056 8.32114 117.108 8.0195Z" fill="white"/>
<path d="M114.265 5.85442C115.515 6.03911 116.566 5.21886 117.46 4.62928C118.44 4.56476 119.617 3.76548 119.801 3.42673C119.776 2.13223 119.008 0.935323 116.408 1.42489C115.148 1.66121 112.857 3.81225 114.265 5.85442Z" fill="#201D40"/>
<path d="M116.775 4.35443C116.775 4.35443 119.311 4.89724 120.391 6.01672C121.67 5.0408 120.814 3.79953 119.748 3.08252C118.824 3.15269 116.775 4.35443 116.775 4.35443Z" fill="#201D40"/>
<path d="M115.01 5.9713C115.309 6.38183 115.279 6.91334 114.943 7.15853C114.606 7.40372 114.092 7.26903 113.793 6.8585C113.493 6.44797 113.523 5.91646 113.859 5.67127C114.196 5.42608 114.71 5.56077 115.01 5.9713Z" fill="#F37A50"/>
<path d="M114.497 6.93138C114.513 6.92816 114.529 6.9217 114.544 6.91041C114.749 6.75636 114.826 6.5386 114.751 6.3289C114.675 6.11436 114.461 5.96515 114.243 5.97321C114.182 5.97563 114.134 6.02725 114.137 6.08855C114.139 6.14984 114.191 6.19743 114.252 6.19501C114.371 6.19017 114.499 6.28212 114.542 6.4031C114.584 6.52005 114.537 6.63619 114.41 6.73217C114.361 6.76927 114.351 6.83863 114.388 6.88783C114.414 6.92332 114.457 6.93864 114.497 6.93138Z" fill="#DE623C"/>
<path d="M132.683 33.2775L133.558 34.5018C133.558 34.5018 134.339 35.4979 135.272 35.0301C136.203 34.5623 135.79 33.0654 135.79 33.0654L134.72 31.6555L132.683 33.2775Z" fill="#F37A50"/>
<path d="M135.754 32.9039C135.754 32.9039 136.696 32.8951 137.717 32.5466C138.289 32.3515 139.785 31.7853 140.12 32.808C140.17 32.9604 140.147 33.1741 139.866 33.4992C139.452 33.9791 138.819 34.5082 137.336 34.9671C135.557 35.5179 135.413 35.8333 134.733 36.0019C134.028 36.1761 133.795 35.1929 133.523 34.3944C133.648 34.563 134.018 34.9776 135.341 34.7356C135.736 34.6638 134.608 33.4226 135.754 32.9039Z" fill="#2C2858"/>
<path d="M125.271 37.4859V38.3158C125.271 38.3158 125.327 39.5812 126.357 39.7426C127.387 39.9039 127.922 38.4464 127.922 38.4464L127.884 37.139L125.271 37.4859Z" fill="#F37A50"/>
<path d="M117.827 25.5371L127.824 25.1104C127.824 25.1104 128.317 22.6158 127.946 21.6262C127.575 20.6374 118.39 20.8406 118.39 20.8406L117.827 25.5371Z" fill="#F7CA15"/>
<path d="M114.887 19.1306C114.616 19.7565 113.561 21.6196 113.663 23.1303C113.768 24.6893 114.868 26.0459 116.73 26.0169C116.73 26.0169 120.238 24.0223 119.478 19.9372C119.478 19.9372 117.642 19.2193 114.887 19.1306Z" fill="#FCF0BE"/>
<path d="M116.452 26.3727L125.258 27.2034C125.258 27.2034 128.278 25.9291 128.261 24.8459C128.245 23.7635 119.372 20.8011 119.372 20.8011C114.168 19.284 112.433 25.7428 116.452 26.3727Z" fill="#FCF0BE"/>
<path d="M128.262 24.8457L128.085 37.2664C128.085 37.2664 125.887 38.1931 125.116 37.2737C124.752 33.0579 123.022 29.3236 124.954 26.754C127.542 23.3117 128.262 24.8457 128.262 24.8457Z" fill="#FCF0BE"/>
<path d="M127.925 21.5963L135.253 31.6595C135.253 31.6595 133.617 33.8452 132.475 33.5895C130.504 31.0965 126.518 28.1728 126.492 25.0354C126.459 20.8333 127.925 21.5963 127.925 21.5963Z" fill="#F7CA15"/>
<path d="M114.873 10.0172C114.873 10.0172 116.951 11.4093 117.191 10.4245C117.754 10.8149 119.719 12.0731 119.947 13.3006C120.168 14.4935 119.487 19.9893 119.487 19.9893C117.417 20.7611 115.616 20.8902 114.1 20.3369C114.462 17.1882 111.409 14.0281 112.865 11.6255C113.228 11.027 114.667 10.7084 114.873 10.0172Z" fill="#8C63A9"/>
<path d="M127.986 38.2932C127.986 38.2932 128.757 38.8336 129.791 39.1441C130.37 39.3183 131.916 39.7264 131.594 40.7539C131.546 40.9072 131.403 41.0677 130.985 41.1685C130.369 41.3177 129.547 41.3798 128.073 40.8911C126.305 40.3047 126.005 40.4773 125.354 40.2192C124.68 39.9514 125.061 39.0158 125.304 38.2085C125.307 38.4182 125.367 38.9707 126.585 39.5441C126.948 39.7151 126.752 38.0488 127.986 38.2932Z" fill="#2C2858"/>
<path d="M110.308 20.3024C110.769 20.0016 112.132 21.2348 112.141 21.4267C111.102 23.7036 108.233 26.2676 108.233 26.2676L107.529 25.5498C107.528 25.5498 109.149 23.1229 110.308 20.3024Z" fill="#F37A50"/>
<path d="M114.898 14.1399C114.672 15.8345 112.644 21.0334 112.141 21.4278L110.308 20.3035C110.308 20.3035 112.091 13.8915 112.365 12.9761C112.834 11.3888 115.272 11.3735 114.898 14.1399Z" fill="#F37A50"/>
<path d="M106.489 25.8868C106.862 25.8062 107.321 25.8626 107.529 25.5497L108.299 26.2046C107.816 27.3257 106.366 27.9016 106.214 27.9387C105.819 28.0346 105.639 28.1048 105.599 28.0556C105.56 28.0072 105.407 27.6652 105.978 27.5063C106.695 27.3079 106.122 26.7982 104.726 27.5789C104.377 27.7741 103.652 27.6999 103.862 27.391C104.094 27.0507 104.79 26.2522 106.489 25.8868Z" fill="#F37A50"/>
<path d="M115.258 6.20107C115.258 7.01648 114.808 7.67704 114.254 7.67704C113.699 7.67704 113.249 7.01568 113.249 6.20107C113.249 5.38566 113.699 4.7251 114.254 4.7251C114.808 4.7251 115.258 5.38566 115.258 6.20107Z" fill="black"/>
<path d="M114.822 6.20107C114.822 7.01648 114.372 7.67704 113.818 7.67704C113.264 7.67704 112.814 7.01568 112.814 6.20107C112.814 5.38566 113.264 4.7251 113.818 4.7251C114.372 4.7251 114.822 5.38566 114.822 6.20107Z" fill="#8C63A9"/>
<path d="M114.306 5.00797C114.306 5.00797 114.816 1.37209 119.748 3.08115C119.583 2.40526 115.323 0.313903 113.657 4.79182C113.852 5.09427 114.306 5.00797 114.306 5.00797Z" fill="#8C63A9"/>
<path d="M131.102 108.411L128.463 111.106L131.368 109.801L131.102 108.411Z" fill="#F7CA15"/>
<path d="M134.608 121.179C133.532 121.005 131.816 121.478 130.856 120.962C128.991 121.903 126.639 123.175 126.639 123.175C127.804 124.432 131.516 126.592 131.516 126.592C133.485 125.66 135.433 124.671 137.592 124.393C137.384 123.315 136.99 122.267 136.472 121.298C135.849 121.319 135.224 121.278 134.608 121.179Z" fill="#201D40"/>
<path d="M133.224 107.065C132.284 107.522 131.936 107.799 131.101 108.411C131.198 109.94 130.926 111.796 131.378 113.26C132.115 115.649 131.554 119.266 130.083 121.29C131.211 124.805 136.658 124.638 139.031 124.253C140.215 121.663 140.191 118.48 141.081 113.86L140.771 107.975C139.396 107.015 137.283 106.723 137.283 106.723C137.283 106.723 134.386 106.499 133.224 107.065Z" fill="#FCF0BE"/>
<path d="M124.856 124.791C126.586 126.152 128.596 127.434 130.562 128.425C131.419 127.723 131.518 127.478 131.747 126.394C130.263 125.055 128.738 123.88 127.203 122.6C126.293 123.406 124.856 124.791 124.856 124.791Z" fill="#F37A50"/>
<path d="M124.327 128.347C124.513 129.152 124.748 129.923 124.994 130.712C126.863 130.449 128.753 130.015 130.501 129.306C130.368 128.169 130.266 127.03 130.132 125.894C128.383 127.082 126.398 127.921 124.327 128.347Z" fill="#F37A50"/>
<path d="M138.295 121.555L130.033 126.261L131.075 128.578C132.19 129.139 136.01 129.684 137.868 128.624C140.007 127.404 139.738 122.163 138.295 121.555Z" fill="#201D40"/>
<path d="M134.345 130.52L135.787 127.705C135.787 127.705 134.914 127.719 134.426 128.672C134.097 129.313 134.161 130.111 134.345 130.52Z" fill="white"/>
<path d="M131.742 127.556C131.51 128.007 131.659 128.828 131.726 128.869C131.999 129.035 132.501 129.42 132.717 129.574C132.907 129.71 133.966 130.686 133.966 130.686L134.52 130.793L135.508 128.98L135.784 127.491C135.784 127.491 135.087 127.431 134.655 127.32C134.074 127.17 133.444 126.85 132.873 126.648C132.783 126.616 132.056 126.946 131.742 127.556Z" fill="#8C63A9"/>
<path d="M134.831 128.869C134.461 129.59 134.356 130.785 133.967 130.686C133.967 130.686 134.332 131.424 135.039 131.449C135.341 131.188 135.804 130.471 136.237 129.737C136.67 129.003 136.921 128.039 136.921 128.039C136.921 128.039 136.228 127.526 135.786 127.491C135.863 127.644 135.141 128.263 134.831 128.869Z" fill="white"/>
<path d="M138.295 121.555C136.546 120.448 133.502 124.287 126.558 127.37C127.014 128.218 127.495 129.471 127.896 130.389C127.896 130.389 133.775 129.227 137.182 126.825C139.114 127.19 139.353 125.798 139.367 125.707C139.591 123.897 139.077 122.05 138.295 121.555Z" fill="#2C2858"/>
<path d="M121.587 123.274C122.537 124.558 127.827 127.109 127.827 127.109L129.737 124.324C128.86 123.668 124.327 120.192 122.864 120.192C122.032 120.382 120.354 121.608 121.587 123.274Z" fill="#2C2858"/>
<path d="M121.793 128.76L122.864 132.079C122.864 132.079 123.534 131.387 123.171 130.264C122.928 129.507 122.256 128.936 121.793 128.76Z" fill="white"/>
<path d="M126.136 129.042C125.965 128.508 125.208 127.984 125.124 128.005C124.781 128.089 124.09 128.18 123.801 128.229C123.546 128.271 121.959 128.336 121.959 128.336L121.444 128.684L122.088 130.869L123.034 132.246C123.034 132.246 123.624 131.748 124.048 131.498C124.619 131.163 125.359 130.921 125.963 130.632C126.057 130.587 126.366 129.763 126.136 129.042Z" fill="#8C63A9"/>
<path d="M122.702 130.427C122.428 129.576 121.579 128.562 121.958 128.335C121.958 128.335 121.099 128.044 120.528 128.576C120.495 129.016 120.694 129.936 120.929 130.846C121.165 131.756 121.72 132.704 121.72 132.704C121.72 132.704 122.66 132.563 123.034 132.246C122.852 132.187 122.932 131.141 122.702 130.427Z" fill="white"/>
<path d="M136.051 102.228C135.895 102.234 135.74 102.262 135.591 102.312C135.549 102.326 135.528 102.369 135.541 102.411C135.553 102.444 135.582 102.464 135.616 102.464C135.624 102.464 135.632 102.462 135.641 102.46C135.775 102.415 135.916 102.39 136.058 102.384C136.1 102.382 136.134 102.346 136.133 102.303C136.13 102.26 136.093 102.226 136.051 102.228Z" fill="white"/>
<path d="M134.411 119.039C134.398 119.039 134.384 119.039 134.37 119.038C133.894 119.016 133.372 118.582 132.935 117.849L133.073 117.766C133.482 118.453 133.957 118.857 134.378 118.877C134.661 118.89 134.926 118.729 135.167 118.399C135.888 117.411 135.118 113.578 134.328 112.425C133.533 111.268 134.385 109.986 134.394 109.974L134.528 110.065C134.52 110.077 133.73 111.269 134.461 112.334C135.211 113.426 136.112 117.377 135.299 118.495C135.034 118.856 134.737 119.039 134.411 119.039Z" fill="white"/>
<path d="M135.815 104.289H135.814L134.521 104.294L134.228 107.347C134.228 107.347 134.676 108.184 135.737 108.144C136.798 108.105 137.346 107.356 137.346 107.356L137.145 104.266L135.815 104.289Z" fill="#F37A50"/>
<path d="M138.155 102.424C137.957 104.557 136.439 106.159 134.764 106.003C133.088 105.848 131.892 103.993 132.09 101.86C132.288 99.7278 133.806 98.1252 135.481 98.2808C137.156 98.4365 138.353 100.292 138.155 102.424Z" fill="#F37A50"/>
<path d="M132.926 102.293C132.875 102.447 132.71 102.53 132.557 102.479C132.404 102.428 132.32 102.263 132.371 102.109C132.422 101.956 132.587 101.873 132.741 101.924C132.893 101.974 132.977 102.139 132.926 102.293Z" fill="black"/>
<path d="M135.28 102.528C135.226 102.694 135.047 102.784 134.88 102.729C134.714 102.674 134.625 102.495 134.68 102.329C134.734 102.163 134.913 102.073 135.08 102.128C135.246 102.184 135.336 102.362 135.28 102.528Z" fill="black"/>
<path d="M133.485 102.614C133.194 103.026 132.827 103.527 132.827 103.527C132.827 103.527 132.957 103.985 133.55 104.025C133.305 103.907 133.066 103.724 133.187 103.395C133.309 103.066 133.485 102.614 133.485 102.614Z" fill="#DE623C"/>
<path d="M135.78 102.182C135.79 102.179 135.801 102.175 135.811 102.169C135.881 102.128 135.905 102.039 135.865 101.969C135.756 101.778 135.435 101.451 135.007 101.575C134.93 101.599 134.885 101.678 134.908 101.756C134.93 101.833 135.011 101.877 135.089 101.855C135.405 101.763 135.61 102.111 135.612 102.115C135.646 102.174 135.716 102.201 135.78 102.182Z" fill="#201D40"/>
<path d="M133.044 101.613C133.064 101.607 133.083 101.596 133.098 101.58C133.144 101.53 133.142 101.454 133.093 101.408C133.085 101.401 132.901 101.232 132.657 101.258C132.49 101.276 132.342 101.376 132.217 101.556C132.178 101.611 132.192 101.687 132.247 101.726C132.302 101.764 132.378 101.751 132.417 101.695C132.5 101.576 132.589 101.509 132.683 101.5C132.816 101.486 132.926 101.584 132.926 101.586C132.959 101.615 133.004 101.625 133.044 101.613Z" fill="#201D40"/>
<path d="M138.775 100.691C138.876 98.6626 136.991 98.0723 136.991 98.0723C136.991 98.0723 137.402 97.9093 137.276 97.302C136.99 97.494 136.634 97.5915 136.29 97.5714C133.97 97.4335 132.53 97.8706 132.796 98.7675C132.891 99.0869 131.403 99.2845 132.155 101.397C132.204 101.244 132.374 100.212 132.816 99.9854C133.258 99.7579 133.02 100.508 134.036 100.353C135.061 100.197 135.715 99.7426 136.481 100.12C137.096 100.465 138.128 103.198 137.993 103.303C138.414 102.977 138.73 101.583 138.775 100.691Z" fill="#201D40"/>
<path d="M132.119 103.02C132.119 103.02 132.361 104.165 132.625 104.463C132.66 103.964 133.162 104.333 133.513 104.277C134.364 104.143 135.759 103.433 136.269 104.617C137.362 104.637 137.874 102.319 137.874 102.319C138.64 104.692 137.341 106.21 134.699 106.504C132.809 106.714 131.872 104.783 132.119 103.02Z" fill="#201D40"/>
<path d="M134.522 104.8C134.672 104.714 134.821 104.598 134.968 104.453C135.006 104.415 135.007 104.354 134.969 104.316C134.931 104.278 134.87 104.277 134.831 104.315C134.505 104.637 134.175 104.798 133.851 104.796C133.45 104.792 133.191 104.532 133.188 104.529C133.151 104.492 133.089 104.491 133.05 104.528C133.012 104.565 133.011 104.626 133.048 104.665C133.061 104.678 133.362 104.984 133.846 104.99C134.073 104.992 134.299 104.929 134.522 104.8Z" fill="#DE623C"/>
<path d="M137.451 102.065C137.1 102.427 137.055 102.952 137.351 103.24C137.646 103.527 138.17 103.467 138.521 103.106C138.872 102.744 138.917 102.219 138.621 101.931C138.326 101.644 137.802 101.704 137.451 102.065Z" fill="#F37A50"/>
<path d="M137.652 102.963C137.519 102.776 137.559 102.52 137.74 102.391C137.923 102.262 138.178 102.309 138.311 102.496C138.444 102.684 138.403 102.94 138.222 103.069C138.04 103.198 137.784 103.151 137.652 102.963Z" fill="white"/>
<path d="M137.452 103.683L137.434 103.673C137.353 103.629 137.323 103.527 137.368 103.446L137.718 102.808C137.762 102.728 137.864 102.698 137.945 102.742L137.962 102.752C138.043 102.796 138.073 102.897 138.028 102.979L137.678 103.617C137.634 103.697 137.532 103.727 137.452 103.683Z" fill="white"/>
<path d="M127.957 117.775C127.941 117.779 127.925 117.783 127.909 117.784H127.857C127.763 117.774 127.678 117.709 127.649 117.612L125.226 109.802C125.221 109.786 125.218 109.77 125.216 109.754C125.215 109.744 125.215 109.733 125.216 109.724C125.216 109.717 125.215 109.712 125.216 109.705C125.217 109.699 125.218 109.695 125.219 109.689C125.234 109.6 125.296 109.523 125.388 109.494C125.402 109.489 125.418 109.486 125.434 109.484C125.452 109.483 125.469 109.483 125.486 109.484H131.585L134.029 117.784H127.953L127.957 117.775Z" fill="#8C63A9"/>
<path d="M131.529 109.494C131.659 109.453 131.797 109.526 131.838 109.656L134.245 117.447L134.251 117.465C134.291 117.594 134.218 117.732 134.089 117.773V117.774C133.96 117.814 133.822 117.741 133.781 117.611L131.367 109.802C131.327 109.672 131.4 109.534 131.529 109.494Z" fill="#8C63A9"/>
<path d="M126.85 110.307C126.931 110.558 126.827 110.815 126.617 110.882C126.408 110.949 126.174 110.801 126.093 110.55C126.012 110.299 126.116 110.042 126.326 109.975C126.535 109.908 126.77 110.056 126.85 110.307Z" fill="#95A6DB"/>
<path d="M127.623 110.346C127.678 110.516 127.607 110.691 127.465 110.736C127.323 110.782 127.164 110.681 127.109 110.51C127.054 110.34 127.125 110.165 127.267 110.12C127.409 110.075 127.568 110.177 127.623 110.346Z" fill="#95A6DB"/>
<path d="M126.922 114.449C126.899 114.433 126.874 114.424 126.849 114.417C126.852 114.413 126.855 114.41 126.857 114.406C127.009 114.177 126.999 113.904 126.835 113.795C126.808 113.777 126.778 113.765 126.747 113.758C126.789 113.588 126.752 113.426 126.634 113.349C126.587 113.318 126.533 113.304 126.477 113.304C126.53 113.138 126.488 112.963 126.356 112.876C126.192 112.767 125.954 112.837 125.825 113.032C125.695 113.228 125.723 113.474 125.888 113.583C125.93 113.611 125.976 113.627 126.024 113.633C125.915 113.845 125.937 114.079 126.085 114.177C126.112 114.195 126.142 114.207 126.173 114.213C126.131 114.383 126.169 114.545 126.286 114.622C126.33 114.651 126.379 114.665 126.431 114.667C126.377 114.813 126.411 114.969 126.527 115.046C126.666 115.138 126.867 115.078 126.977 114.913C127.084 114.749 127.06 114.541 126.922 114.449Z" fill="#F37A50"/>
<path d="M134.419 113.955L133.864 113.633C133.864 113.633 133.71 112.844 132.817 112.826C132.919 113.156 133.066 113.633 133.066 113.633C133.066 113.633 132.626 113.974 131.584 113.39C130.566 113.161 131 113.904 130.663 113.957C130.165 114.036 131.026 115.015 132.044 115.165C133.36 115.358 133.517 115.089 133.517 115.089L134.261 115.349L134.419 113.955Z" fill="#F37A50"/>
<path d="M140.104 114.872C138.246 114.742 134.535 113.749 134.535 113.749C134.028 114.528 134.168 115.561 134.168 115.561C137.054 118.091 141.397 118.909 142.73 118.3C143.946 117.744 143.825 109.671 140.771 107.974L140.104 114.872Z" fill="#F7CA15"/>
<path d="M134.462 110.11L134.424 110.092C133.556 109.658 132.624 107.19 133.086 106.051L133.236 106.158C132.786 107.268 133.735 109.508 134.461 109.929C135.9 109.155 136.302 107.254 136.625 105.723C136.825 104.776 136.999 103.958 137.379 103.613L137.487 103.732C137.146 104.042 136.977 104.836 136.783 105.756C136.45 107.333 136.034 109.296 134.496 110.091L134.462 110.11Z" fill="white"/>
<path d="M136.304 107.622L136.224 107.602C136.16 107.587 136.12 107.522 136.136 107.457L136.307 106.75C136.322 106.685 136.387 106.646 136.452 106.661L136.532 106.68C136.596 106.696 136.636 106.761 136.62 106.826L136.449 107.533C136.434 107.597 136.369 107.638 136.304 107.622Z" fill="white"/>
<path d="M134.641 109.979C134.641 110.074 134.565 110.149 134.471 110.149C134.377 110.149 134.301 110.074 134.301 109.979C134.301 109.886 134.377 109.809 134.471 109.809C134.565 109.809 134.641 109.885 134.641 109.979Z" fill="white"/>
<path d="M179.917 83.1889C178.773 83.1889 177.841 82.2574 177.841 81.1129C177.841 79.9684 178.773 79.0369 179.917 79.0369C181.062 79.0369 181.993 79.9684 181.993 81.1129C181.993 82.2574 181.062 83.1889 179.917 83.1889ZM179.917 79.6087C179.088 79.6087 178.413 80.2838 178.413 81.1129C178.413 81.9428 179.088 82.6171 179.917 82.6171C180.746 82.6171 181.422 81.942 181.422 81.1129C181.422 80.283 180.746 79.6087 179.917 79.6087Z" fill="white"/>
<path d="M16.0669 58.5549C14.4707 58.5549 13.1714 57.2563 13.1714 55.6594C13.1714 54.0633 14.4699 52.7639 16.0669 52.7639C17.663 52.7639 18.9623 54.0624 18.9623 55.6594C18.9615 57.2563 17.663 58.5549 16.0669 58.5549ZM16.0669 53.5616C14.9103 53.5616 13.9691 54.5028 13.9691 55.6594C13.9691 56.816 14.9103 57.7572 16.0669 57.7572C17.2234 57.7572 18.1647 56.816 18.1647 55.6594C18.1647 54.5028 17.2234 53.5616 16.0669 53.5616Z" fill="#E3EAFF"/>
<path d="M105.751 115.432C104.607 115.432 103.675 114.5 103.675 113.356C103.675 112.211 104.607 111.28 105.751 111.28C106.896 111.28 107.827 112.211 107.827 113.356C107.827 114.501 106.896 115.432 105.751 115.432ZM105.751 111.851C104.922 111.851 104.247 112.526 104.247 113.356C104.247 114.186 104.922 114.86 105.751 114.86C106.58 114.86 107.255 114.185 107.255 113.356C107.255 112.526 106.58 111.851 105.751 111.851Z" fill="white"/>
<path d="M176 76.4995C176 77.3283 175.329 78 174.5 78C173.671 78 173 77.3283 173 76.4995C173 75.6706 173.671 75 174.5 75C175.329 75 176 75.6706 176 76.4995Z" fill="white"/>
<path d="M6.5 88C7.88032 88 9 88.8957 9 90C9 91.1043 7.88032 92 6.5 92C5.11968 92 4 91.1043 4 90C4 88.8957 5.11968 88 6.5 88Z" fill="white"/>
<path d="M180 57C181.105 57 182 55.8807 182 54.5C182 53.1193 181.105 52 180 52C178.895 52 178 53.1193 178 54.5C178 55.8807 178.895 57 180 57Z" fill="#E3EAFF"/>
<path d="M8.50043 85C9.32889 85 10 85.4475 10 86C10 86.5525 9.32802 87 8.50043 87C7.67285 87 7 86.5525 7 86C7 85.4475 7.67198 85 8.50043 85Z" fill="white"/>
<path d="M19.9996 48C21.1041 48 22 48.8957 22 50C22 51.1043 21.1049 52 19.9996 52C18.8951 52 18 51.1051 18 50C17.9992 48.8957 18.8951 48 19.9996 48Z" fill="#E3EAFF"/>
<path d="M108.5 108C109.329 108 110 108.448 110 109C110 109.551 109.328 110 108.5 110C107.672 110 107 109.552 107 109C107 108.447 107.672 108 108.5 108Z" fill="white"/>
<path d="M106.5 48C107.329 48 108 48.672 108 49.4996C108 50.328 107.329 51 106.5 51C105.671 51 105 50.328 105 49.4996C105 48.672 105.671 48 106.5 48Z" fill="white"/>
<path d="M180.5 114C181.329 114 182 114.671 182 115.5C182 116.328 181.329 117 180.5 117C179.672 117 179 116.329 179 115.5C179.001 114.672 179.672 114 180.5 114Z" fill="white"/>
</svg>
