<svg width="244" height="135" viewBox="0 0 244 135" fill="none" xmlns="http://www.w3.org/2000/svg">
<path d="M228.905 135.017C228.905 135.017 258.866 102.849 233.972 68.0217C211.885 37.1213 186.132 39.2329 167.239 51.7729C159.192 57.1142 135.991 52.4312 116.244 20.9889C89.3149 -21.8905 -4.03056 4.11627 12.9889 70.0867C21.2258 102.012 -12.078 103.173 4.89088 135.085L228.905 135.017Z" fill="#F2EDF4"/>
<path d="M184.577 47.9988C181.364 46.9487 179.604 43.4813 180.654 40.2686C181.705 37.0559 185.172 35.296 188.385 36.3461C191.597 37.3962 193.357 40.8636 192.307 44.0771C191.257 47.2889 187.79 49.0489 184.577 47.9988Z" fill="#F7CA15"/>
<path d="M184.626 47.8461C181.497 46.8236 179.783 43.4462 180.806 40.3172C181.828 37.1883 185.206 35.4746 188.336 36.4971C191.465 37.5196 193.179 40.8971 192.156 44.026C191.133 47.1549 187.755 48.8695 184.626 47.8461Z" fill="#F7CA15"/>
<path d="M191.105 43.7127C190.269 46.2716 187.516 47.6691 184.957 46.8327C182.398 45.9964 181.001 43.2433 181.837 40.6844C182.673 38.1246 185.427 36.728 187.985 37.5644C190.545 38.4007 191.942 41.1538 191.105 43.7127Z" fill="white"/>
<path d="M185.045 46.567C182.622 45.7751 181.296 43.161 182.088 40.7384C182.879 38.3166 185.494 36.9895 187.916 37.7813C190.338 38.5732 191.665 41.1873 190.873 43.6099C190.08 46.0317 187.466 47.3588 185.045 46.567Z" fill="white"/>
<path d="M182.755 40.6973L181.968 40.4399C181.839 40.3981 181.699 40.4684 181.657 40.5976C181.615 40.7267 181.686 40.8666 181.815 40.9084L182.601 41.1658C182.731 41.2077 182.87 41.1373 182.912 41.0082C182.955 40.879 182.884 40.7401 182.755 40.6973Z" fill="#F7CA15"/>
<path d="M185.313 45.7412C185.184 45.6984 185.045 45.7697 185.003 45.8988L184.745 46.6853C184.703 46.8144 184.774 46.9543 184.903 46.9961C185.032 47.038 185.172 46.9676 185.214 46.8385L185.471 46.052C185.514 45.9229 185.444 45.7839 185.313 45.7412Z" fill="#F7CA15"/>
<path d="M191.144 43.4386L190.357 43.1821C190.228 43.1403 190.088 43.2106 190.046 43.3398C190.005 43.4689 190.075 43.6088 190.204 43.6506L190.991 43.908C191.12 43.9499 191.259 43.8795 191.301 43.7504C191.344 43.6203 191.273 43.4814 191.144 43.4386Z" fill="#F7CA15"/>
<path d="M188.056 37.352C187.927 37.3102 187.787 37.3805 187.745 37.5097L187.488 38.2962C187.446 38.4253 187.516 38.5651 187.645 38.607C187.774 38.6489 187.914 38.5785 187.956 38.4494L188.214 37.6629C188.255 37.5337 188.185 37.3939 188.056 37.352Z" fill="#F7CA15"/>
<path d="M190.71 36.9021L191.394 36.2145C191.45 36.1584 191.541 36.1575 191.598 36.2136L192.387 36.9983C192.443 37.0544 192.444 37.1462 192.387 37.2023L191.703 37.8899C191.647 37.946 191.555 37.9469 191.499 37.8908L190.71 37.1061C190.654 37.05 190.654 36.9591 190.71 36.9021Z" fill="#F7CA15"/>
<path d="M186.229 35.4639L186.083 34.5046C186.072 34.4263 185.998 34.3719 185.919 34.3835L184.819 34.551C184.741 34.5625 184.687 34.6365 184.698 34.7148L184.844 35.6741C184.856 35.7525 184.93 35.8068 185.009 35.7952L186.109 35.6278C186.187 35.6162 186.242 35.5432 186.229 35.4639Z" fill="#F7CA15"/>
<path d="M188.166 35.0416C188.092 35.0176 188.052 34.9383 188.076 34.8644L188.293 34.2008C188.317 34.1269 188.396 34.0868 188.47 34.1109L189.825 34.5535C189.899 34.5776 189.939 34.6568 189.915 34.7308L189.697 35.3943C189.673 35.4682 189.594 35.5083 189.52 35.4843L188.166 35.0416Z" fill="#F7CA15"/>
<path d="M188.276 35.4435C187.759 35.0614 187.519 34.3782 187.73 33.7343C187.994 32.9291 188.859 32.4891 189.665 32.7527C190.47 33.0164 190.91 33.8821 190.646 34.6873C190.436 35.3321 189.838 35.7418 189.195 35.7454L189.078 36.1052C189.917 36.1533 190.718 35.6358 190.991 34.8004C191.316 33.8055 190.771 32.7322 189.777 32.4072C188.782 32.0821 187.709 32.6271 187.384 33.6211C187.111 34.4566 187.452 35.3482 188.158 35.8042L188.276 35.4435Z" fill="#F7CA15"/>
<path d="M188.423 36.2292C188.58 36.2808 188.735 36.3378 188.887 36.4011L189.2 35.4427L188.452 35.1978L188.143 36.1437C188.236 36.1704 188.329 36.1989 188.423 36.2292Z" fill="#F7CA15"/>
<path d="M186.912 42.307C186.835 42.5431 186.581 42.6722 186.345 42.5947C186.109 42.5172 185.98 42.2634 186.057 42.0273C186.135 41.7913 186.389 41.6622 186.625 41.7397C186.861 41.8172 186.99 42.071 186.912 42.307Z" fill="#F7CA15"/>
<path d="M189.25 39.6991L186.592 42.2847C186.525 42.3497 186.417 42.348 186.352 42.2812C186.287 42.2144 186.289 42.1075 186.356 42.0425C186.366 42.0318 186.239 42.136 189.25 39.6991Z" fill="#F7CA15"/>
<path d="M187.748 45.6747L186.329 42.2483C186.294 42.1619 186.334 42.063 186.421 42.0274C186.507 41.9918 186.606 42.0327 186.642 42.1191C186.647 42.1334 186.597 41.9757 187.748 45.6747Z" fill="#F7CA15"/>
<path d="M186.66 42.224C186.629 42.3202 186.525 42.3727 186.429 42.3415C186.333 42.3104 186.28 42.2061 186.311 42.11C186.343 42.0138 186.447 41.9612 186.543 41.9924C186.639 42.0236 186.692 42.1278 186.66 42.224Z" fill="#F7CA15"/>
<path d="M123.996 15.79L122.748 16.0919L121.91 14.5591L120.015 14.8236L119.151 13.7574L118.468 14.103L119.624 15.5299L121.419 15.2787L122.291 16.8739L124.17 16.4179L123.996 15.79Z" fill="#50BFA5"/>
<path d="M152.79 10.9304L152.256 9.66743L150.913 9.39132C150.76 9.36015 150.71 9.16687 150.827 9.06444L151.863 8.16664L151.711 6.80391C151.694 6.64893 151.861 6.54116 151.995 6.62132L153.169 7.32852L154.418 6.76205C154.56 6.69792 154.714 6.8244 154.679 6.9767L154.369 8.31271L155.293 9.32541C155.398 9.44031 155.326 9.62646 155.17 9.63982L153.804 9.75739L153.126 10.9491C153.05 11.0863 152.851 11.0747 152.79 10.9304Z" fill="#F7CA15"/>
<path d="M228.28 133.814H25.8051C25.3909 133.814 25.0284 134.091 25.0017 134.457C24.9723 134.858 25.3312 135.192 25.7784 135.192H228.28C228.711 135.192 229.059 134.884 229.059 134.504C229.059 134.123 228.71 133.814 228.28 133.814Z" fill="#184655"/>
<path d="M172.663 135.252H73.9641C69.2337 135.252 65.4003 131.417 65.4003 126.688V55.4142C65.4003 50.6847 69.2346 46.8503 73.9641 46.8503H172.664C177.394 46.8503 181.229 50.6847 181.229 55.4142V126.687C181.228 131.417 177.394 135.252 172.663 135.252Z" fill="#77BED0"/>
<path d="M174.846 132.589H72.451C69.958 132.589 67.937 130.568 67.937 128.075V53.4398C67.937 50.9468 69.958 48.9259 72.451 48.9259H174.846C177.339 48.9259 179.36 50.9468 179.36 53.4398V128.075C179.36 130.568 177.339 132.589 174.846 132.589Z" fill="#DAF7FF"/>
<path d="M64.5593 129.926V132.925C64.5593 134.21 67.3195 135.251 70.7237 135.251H189.098C192.502 135.251 195.262 134.21 195.262 132.925V129.926H64.5593Z" fill="#355389"/>
<path d="M171.965 51.8198H75.6182V123.607H171.965V51.8198Z" fill="#DAF7FF"/>
<path d="M166.934 57.5087H78.9117V120.209H166.934V57.5087Z" fill="#F7CA15"/>
<path d="M161.287 52.7771H78.6774V120.208H161.287V52.7771Z" fill="#8C63A9"/>
<path d="M158.654 55.8181H80.2996V61.3073H158.654V55.8181Z" fill="#DAF7FF"/>
<path d="M147.43 8.44739H78.9117V114.103H147.43V8.44739Z" fill="#FCF0BE"/>
<path d="M143.948 54.4116H80.7181V59.9507H143.948V54.4116Z" fill="#F7CA15"/>
<path d="M110.933 65.1068H83.9587V66.2878H110.933V65.1068Z" fill="#77BED0"/>
<path d="M141.895 65.1068H116.79V66.2878H141.895V65.1068Z" fill="#77BED0"/>
<path d="M110.932 68.0941H83.9584V69.2752H110.932V68.0941Z" fill="#77BED0"/>
<path d="M141.895 68.0941H116.79V69.2752H141.895V68.0941Z" fill="#77BED0"/>
<path d="M110.932 71.0811H83.9584V72.2621H110.932V71.0811Z" fill="#77BED0"/>
<path d="M141.895 71.0811H116.79V72.2621H141.895V71.0811Z" fill="#77BED0"/>
<path d="M110.932 74.0679H83.9584V75.2489H110.932V74.0679Z" fill="#77BED0"/>
<path d="M141.895 74.0679H116.79V75.2489H141.895V74.0679Z" fill="#77BED0"/>
<path d="M141.895 77.0542H116.79V78.2352H141.895V77.0542Z" fill="#77BED0"/>
<path d="M110.932 77.0542H83.9584V78.2352H110.932V77.0542Z" fill="#77BED0"/>
<path d="M110.932 80.0416H83.9584V81.2227H110.932V80.0416Z" fill="#77BED0"/>
<path d="M141.895 80.0416H116.79V81.2227H141.895V80.0416Z" fill="#77BED0"/>
<path d="M110.932 83.028H83.9584V84.209H110.932V83.028Z" fill="#77BED0"/>
<path d="M141.895 83.028H116.79V84.209H141.895V83.028Z" fill="#77BED0"/>
<path d="M110.932 86.0153H83.9584V87.1963H110.932V86.0153Z" fill="#77BED0"/>
<path d="M141.895 86.0153H116.79V87.1963H141.895V86.0153Z" fill="#77BED0"/>
<path d="M110.932 89.0022H83.9584V90.1832H110.932V89.0022Z" fill="#77BED0"/>
<path d="M141.895 89.0022H116.79V90.1832H141.895V89.0022Z" fill="#77BED0"/>
<path d="M110.932 91.989H83.9584V93.17H110.932V91.989Z" fill="#77BED0"/>
<path d="M141.895 91.989H116.79V93.17H141.895V91.989Z" fill="#77BED0"/>
<path d="M141.895 94.9763H116.79V96.1574H141.895V94.9763Z" fill="#77BED0"/>
<path d="M110.932 94.9763H83.9584V96.1574H110.932V94.9763Z" fill="#77BED0"/>
<path d="M110.932 97.9633H83.9584V99.1443H110.932V97.9633Z" fill="#77BED0"/>
<path d="M141.895 97.9633H116.79V99.1443H141.895V97.9633Z" fill="#77BED0"/>
<path d="M141.895 100.951H116.79V102.132H141.895V100.951Z" fill="#77BED0"/>
<path d="M110.932 100.951H83.9584V102.132H110.932V100.951Z" fill="#77BED0"/>
<path d="M141.302 14.2999H120.012V15.481H141.302V14.2999Z" fill="#77BED0"/>
<path d="M141.302 17.2861H120.012V18.4672H141.302V17.2861Z" fill="#77BED0"/>
<path d="M141.302 20.2734H120.012V21.4545H141.302V20.2734Z" fill="#77BED0"/>
<path d="M141.302 23.2609H120.012V24.4419H141.302V23.2609Z" fill="#77BED0"/>
<path d="M141.302 26.2472H120.012V27.4282H141.302V26.2472Z" fill="#77BED0"/>
<path d="M141.396 31.3467H120.106V32.5277H141.396V31.3467Z" fill="#77BED0"/>
<path d="M141.396 34.3341H120.106V35.5151H141.396V34.3341Z" fill="#77BED0"/>
<path d="M141.396 37.3206H120.106V38.5016H141.396V37.3206Z" fill="#77BED0"/>
<path d="M141.396 40.3079H120.106V41.4889H141.396V40.3079Z" fill="#77BED0"/>
<path d="M141.396 43.2943H120.106V44.4753H141.396V43.2943Z" fill="#77BED0"/>
<path d="M114.379 14.5848H85.2872V50.6278H114.379V14.5848Z" fill="#8C63A9"/>
<path d="M95.5059 38.0203L93.0227 45.5403H89.8306L97.9535 21.6328H101.678L109.837 45.5403H106.538L103.984 38.0203H95.5059ZM103.345 35.6084L101.004 28.727C100.472 27.1666 100.117 25.7477 99.7625 24.3645H99.6912C99.3367 25.7834 98.9466 27.2378 98.4853 28.6923L96.1446 35.6093H103.345V35.6084Z" fill="#F7CA15"/>
<path d="M47.484 19.3026C42.3351 23.2412 44.6098 31.5432 51.069 32.3546C52.2296 32.5006 53.2903 33.084 54.0724 33.9533L56.764 36.9442C57.5059 37.7681 58.7564 37.8839 59.6373 37.2105L61.5879 35.7186C62.4688 35.0453 62.6834 33.8072 62.0822 32.8765C59.8885 29.4768 58.833 28.3821 59.143 26.1786C60.0506 19.7319 52.6339 15.3632 47.484 19.3026Z" fill="#F7CA15"/>
<path d="M56.0924 34.0556C54.0991 31.2037 51.867 28.2609 51.2053 27.4424C48.0656 29.3466 47.476 25.2807 49.7089 25.8712C50.3449 26.0396 50.8321 26.468 51.2774 26.9846C52.3008 26.3148 53.187 25.4473 53.8808 24.4426C53.4284 23.7185 53.0507 23.1885 53.0035 22.5953C52.9332 21.7002 53.7481 21.0108 54.5007 21.5194C54.7831 21.71 54.9888 22.0369 55.0378 22.3727C55.142 23.0896 54.7003 23.8351 54.2968 24.4488C55.7593 26.7815 57.2975 29.0972 58.8766 31.3435L58.5916 31.5439C57.0383 29.3342 55.5241 27.0567 54.0821 24.7623C53.3838 25.7421 52.5074 26.5891 51.5018 27.2536C52.3453 28.3028 54.5079 31.1779 56.3783 33.8552L56.0924 34.0556ZM49.2858 27.5421C49.7383 27.6989 50.2923 27.5778 50.9781 27.1707C50.5809 26.7174 50.1525 26.3477 49.619 26.207C48.4174 25.8899 48.5261 27.2803 49.2858 27.5421ZM53.3518 22.5668C53.391 23.0656 53.7339 23.5475 54.0928 24.121C54.4144 23.6116 54.776 22.9961 54.6931 22.4216C54.6352 22.0191 54.2433 21.6147 53.8514 21.71C53.8087 21.7198 53.3242 22.2177 53.3518 22.5668Z" fill="#FCF0BE"/>
<path d="M54.0021 33.8811C54.0252 33.9051 54.0502 33.9274 54.0724 33.9532L56.7641 36.9432C57.506 37.7671 58.7565 37.8829 59.6374 37.2095L61.588 35.7177C62.4688 35.0443 62.6835 33.8063 62.0823 32.8755C61.1061 31.3631 60.3561 30.3077 59.8511 29.4072L54.0021 33.8811Z" fill="#77BED0"/>
<path d="M41.9279 18.9605L38.5968 16.7801C38.2744 16.569 38.1844 16.137 38.3955 15.8146C38.6066 15.4922 39.0386 15.4022 39.361 15.6133L42.6921 17.7937C43.0146 18.0048 43.1045 18.4376 42.8934 18.7592C42.6815 19.0834 42.2486 19.1707 41.9279 18.9605Z" fill="#F7CA15"/>
<path d="M42.2138 28.38L38.3634 30.0206C38.009 30.1721 37.5992 30.0064 37.4478 29.6519C37.2973 29.2974 37.4621 28.8877 37.8166 28.7363L41.667 27.0957C42.0214 26.9443 42.4312 27.1099 42.5826 27.4644C42.7331 27.8189 42.5683 28.2286 42.2138 28.38Z" fill="#F7CA15"/>
<path d="M44.5814 41.6049C44.2135 41.4909 44.0078 41.0999 44.1227 40.7311C44.5502 39.3551 45.1122 38.0137 45.7927 36.7436C45.9744 36.4042 46.3975 36.276 46.7368 36.4577C47.0762 36.6394 47.2044 37.0625 47.0227 37.4018C46.3841 38.5935 45.8568 39.8529 45.4551 41.1444C45.3411 41.5123 44.951 41.7198 44.5814 41.6049Z" fill="#F7CA15"/>
<path d="M50.9293 13.9467C50.5544 14.034 50.1794 13.8006 50.0912 13.4257C49.6761 11.6434 49.074 9.89949 48.3009 8.24105C48.1379 7.89191 48.2885 7.47596 48.6385 7.31386C48.9877 7.15087 49.4027 7.30228 49.5657 7.65143C50.3798 9.39715 51.0139 11.2337 51.4504 13.1095C51.5385 13.4862 51.3016 13.8594 50.9293 13.9467Z" fill="#F7CA15"/>
<path d="M57.2396 16.6545C56.9679 16.381 56.9688 15.9393 57.2422 15.6676L60.4522 12.4754C60.7257 12.2038 61.1675 12.2046 61.4391 12.4781C61.7108 12.7515 61.7099 13.1933 61.4364 13.465L58.2264 16.658C57.9539 16.9288 57.5121 16.9288 57.2396 16.6545Z" fill="#F7CA15"/>
<path d="M68.951 23.4815C68.8958 23.5108 68.8361 23.5331 68.772 23.5474C67.2481 23.8814 65.684 24.0524 64.1236 24.0551C63.7379 24.0559 63.4253 23.7433 63.4253 23.3585C63.4244 22.9729 63.737 22.6603 64.1218 22.6594C65.5825 22.6567 67.0468 22.4973 68.4736 22.1846C68.8504 22.1018 69.2218 22.3405 69.3046 22.7164C69.3723 23.0281 69.22 23.3381 68.951 23.4815Z" fill="#F7CA15"/>
<path d="M197.171 61.0077L196.091 60.0627L194.701 60.4163C194.542 60.4564 194.407 60.2978 194.471 60.1473L195.037 58.8291L194.271 57.616C194.184 57.4779 194.293 57.2998 194.455 57.3149L195.884 57.445L196.801 56.3423C196.905 56.2167 197.109 56.2657 197.145 56.4252L197.463 57.8244L198.795 58.3561C198.948 58.4167 198.964 58.6251 198.823 58.7088L197.591 59.4437L197.498 60.875C197.487 61.0353 197.294 61.1154 197.171 61.0077Z" fill="#8C63A9"/>
<path d="M56.6281 4.98014L55.5486 4.03514L54.1583 4.38874C53.9998 4.42882 53.8644 4.27028 53.9285 4.11975L54.4941 2.80155L53.7281 1.58845C53.6408 1.4504 53.7504 1.27226 53.9125 1.2874L55.3411 1.41745L56.2585 0.314789C56.3627 0.189204 56.5658 0.23819 56.6023 0.39673L56.9203 1.79598L58.2527 2.32682C58.4041 2.38739 58.4211 2.59581 58.2803 2.67953L57.0476 3.41434L56.9541 4.84565C56.9443 5.00775 56.7511 5.08792 56.6281 4.98014Z" fill="#8C63A9"/>
<path d="M69.3031 11.0756L68.2236 10.1306L66.8332 10.4842C66.6747 10.5243 66.5393 10.3658 66.6034 10.2152L67.169 8.89703L66.403 7.68393C66.3157 7.54588 66.4253 7.36774 66.5874 7.38199L68.016 7.51203L68.9334 6.40849C69.0376 6.2829 69.2407 6.33189 69.2772 6.49132L69.5952 7.89057L70.9277 8.42141C71.0791 8.48198 71.096 8.6904 70.9553 8.77412L69.7226 9.50893L69.6291 10.9402C69.6184 11.1023 69.426 11.1825 69.3031 11.0756Z" fill="#77BED0"/>
<path d="M200.273 96.5499C199.605 97.5306 193.923 100.634 193.923 100.634C193.923 100.634 193.271 100.499 192.187 100.809C191.491 101.008 190.167 100.823 190.392 101.239C190.616 101.655 191.845 101.373 191.723 101.686C191.6 102 189.084 102.759 189.288 103.136C189.491 103.512 191.809 102.643 191.699 102.924C191.59 103.204 189.374 103.77 189.662 104.302C189.949 104.835 192.189 103.404 192.343 103.69C192.497 103.975 190.806 105.085 191.038 105.515C191.269 105.944 193.019 104.029 193.084 104.202C193.119 104.295 192.538 105.493 192.78 105.605C193.053 105.732 193.937 104.236 194.932 103.161C195.069 103.012 195.108 102.867 195.592 102.486C197.469 101.564 202.384 99.3012 203.329 98.2021C204.486 96.8563 207.468 89.9153 207.468 89.9153L202.659 90.4069C202.659 90.4078 201.059 95.3965 200.273 96.5499Z" fill="#F7A491"/>
<path d="M192.319 101.938C192.45 102.083 192.614 102.19 192.79 102.277C192.821 102.283 193.37 102.599 193.999 102.327C193.567 102.353 193.088 102.383 192.319 101.938Z" fill="#F48C7F"/>
<path d="M215.723 88.5634C215.723 88.5634 216.688 100.468 216.688 101.502C216.688 102.536 212.58 102.829 212.58 102.829L211.324 90.6128L215.723 88.5634Z" fill="#8C63A9"/>
<path d="M209.596 85.6647C209.596 85.6647 212.261 84.2379 214.458 85.5454C216.655 86.8529 217.254 94.5367 217.254 94.5367L210.215 95.3802L209.596 85.6647Z" fill="#8C63A9"/>
<path d="M204.962 86.2393C204.694 86.3319 203.603 87.1094 202.967 88.3341C202.331 89.5588 200.652 94.6766 200.652 94.6766L203.416 95.6893L204.962 86.2393Z" fill="#77BED0"/>
<path d="M218.872 128.441C218.872 128.441 219.327 130.059 219.689 130.42C220.05 130.78 221.248 132.182 220.953 132.877C220.659 133.572 213.363 134.567 213.086 134.29C212.809 134.013 214.347 132.842 215.218 132.123C216.089 131.406 216.713 130.522 216.348 129.451C215.983 128.379 215.983 128.485 215.983 128.379C215.983 128.272 218.872 128.441 218.872 128.441Z" fill="#F7A491"/>
<path d="M213.086 134.289C212.77 134.024 213.781 132.936 215.267 132.082C215.888 132.081 216.718 132.04 217.419 131.864C218.519 131.589 219.362 130.637 219.612 130.328C219.635 130.36 221.403 132.063 221.059 132.877C220.764 133.572 213.399 134.552 213.086 134.289Z" fill="#8C63A9"/>
<path d="M206.768 129.226C206.768 129.226 206.633 130.887 206.907 131.319C207.18 131.75 208.138 133.459 207.604 133.992C207.123 134.473 200.441 134.164 200.231 133.834C200.022 133.503 201.166 132.516 202.172 132.006C203.179 131.495 203.981 130.77 203.858 129.644C203.735 128.519 203.712 128.622 203.735 128.519C203.759 128.415 206.768 129.226 206.768 129.226Z" fill="#F7A491"/>
<path d="M199.401 134.1C199.053 133.879 200.593 132.485 202.229 131.977C202.835 132.112 203.654 132.252 204.378 132.234C205.511 132.205 206.542 131.46 206.853 131.212C206.868 131.248 208.391 133.453 207.708 134.015C207.175 134.454 199.93 134.436 199.401 134.1Z" fill="#8C63A9"/>
<path d="M206.28 105.707L210.594 118.209L215.543 129.782L219.688 128.741C219.688 128.741 218.193 120.719 216.787 118.199C215.724 116.292 214.982 105.349 214.982 105.349L206.28 105.707Z" fill="#8C63A9"/>
<path d="M208.351 107.81L206.857 129.781H203.325C203.325 129.781 201.782 106.762 202.347 104.572C202.912 102.382 208.797 102.876 208.797 102.876L208.351 107.81Z" fill="#8C63A9"/>
<path d="M204.962 86.2397C204.962 86.2397 209.515 84.8751 210.216 84.9633C210.983 85.0595 212.849 86.0482 212.849 86.0482C212.849 86.0482 212.734 93.952 213.064 96.1867C213.394 98.4214 215.702 105.581 215.702 105.581C215.702 105.581 212.452 107.464 206.989 106.853C201.525 106.24 201.901 104.922 201.901 104.922C201.901 104.922 202.42 97.0088 202.938 93.5227C203.454 90.0375 204.962 86.2397 204.962 86.2397Z" fill="#77BED0"/>
<path d="M220.039 75.1514C220.039 75.1514 220.279 76.263 219.119 76.654C217.959 77.045 217.239 72.9639 216.579 72.1569C215.919 71.3509 213.918 71.1309 212.879 72.7412C212.307 73.6266 212.128 74.0122 212.083 74.1797C212.046 74.3168 212.099 74.3079 212.099 74.3079L212.413 74.8949C212.413 74.8949 213.419 74.2839 213.8 75.3999C214.18 76.5159 213.06 78.3409 214.02 79.8559C214.98 81.371 216.74 80.2995 216.74 80.2995C218.2 81.281 219.879 79.7829 220.42 78.3649C220.959 76.9479 220.039 75.1514 220.039 75.1514Z" fill="#F7CA15"/>
<path d="M208.589 80.8L208.748 82.4407L210.215 84.964C210.215 84.964 207.322 88.4652 206.429 87.6289C206.23 87.4418 205.727 83.7357 205.727 83.7357L208.589 80.8Z" fill="#F7A491"/>
<path d="M208.748 82.4408L209.054 83.001C208.152 83.8106 206.995 84.5392 205.901 84.9578C205.799 84.2773 205.726 83.7358 205.726 83.7358L208.589 80.801L208.748 82.4408Z" fill="#F48C7F"/>
<path d="M205.611 75.4133C205.611 75.4133 204.846 76.1071 204.565 76.499C202.893 78.8299 204.247 83.4249 205.121 83.807C206.443 84.3859 208.164 83.6075 210.103 82.2928C212.042 80.9782 212.655 78.8477 210.879 76.996C209.103 75.1434 205.611 75.4133 205.611 75.4133Z" fill="#F7A491"/>
<path d="M212.044 75.0025L211.516 74.4966C209.444 74.4966 207.793 73.2479 205.468 74.5037C203.934 75.3321 204.564 76.4988 204.564 76.4988C210.246 76.4988 208.197 80.9772 208.893 82.7585C209.59 84.5399 213.934 80.6868 212.044 75.0025Z" fill="#F7CA15"/>
<path d="M208.07 80.0454C208.07 80.0454 208.15 78.5758 209.052 78.8671C209.953 79.1583 209.25 81.3725 208.502 81.295C207.754 81.2176 208.07 80.0454 208.07 80.0454Z" fill="#F7A491"/>
<path d="M212.193 73.8949C212.193 73.8949 211.337 74.4257 210.992 74.3812C210.646 74.3367 211.52 75.4562 211.983 75.5729C212.446 75.6887 212.283 75.2425 212.381 75.0902C212.479 74.9379 212.839 75.0563 212.923 74.9432C213.112 74.6867 212.598 73.9439 212.193 73.8949Z" fill="#77BED0"/>
<path d="M212.117 85.6827C212.117 85.6827 211.093 85.5277 210.215 88.8517C209.219 92.6184 210.291 96.5205 211.938 97.5091C213.585 98.4969 214.264 98.3072 214.264 98.3072L214.005 100.63C214.005 100.63 209.139 99.5407 208.476 95.3813C207.39 88.5641 210.594 85.0521 210.594 85.0521C210.594 85.0521 211.038 85.0984 211.384 85.2249C211.587 85.2988 212.117 85.6827 212.117 85.6827Z" fill="#8C63A9"/>
<path d="M211.958 98.5914C211.839 99.7725 208.327 105.212 208.327 105.212C208.327 105.212 207.691 105.404 206.886 106.194C206.37 106.701 205.119 107.17 205.515 107.43C205.911 107.688 206.855 106.853 206.897 107.187C206.939 107.521 205.091 109.389 205.45 109.622C205.809 109.857 207.429 107.986 207.467 108.286C207.505 108.585 205.827 110.139 206.335 110.47C206.842 110.802 208.127 108.473 208.399 108.652C208.671 108.829 207.714 110.612 208.123 110.878C208.531 111.145 209.154 108.628 209.294 108.748C209.37 108.813 209.431 110.143 209.697 110.126C209.998 110.106 210.06 108.369 210.421 106.95C210.471 106.754 210.437 106.608 210.68 106.043C211.889 104.335 215.128 100.001 215.433 98.5852C215.807 96.8502 214.812 89.9163 214.812 89.9163L211.124 92.0548C211.122 92.0548 212.098 97.202 211.958 98.5914Z" fill="#F7A491"/>
<path d="M212.407 85.8546C212.835 85.908 213.827 86.3943 214.405 87.7134C215.114 89.3273 215.544 92.6077 215.701 94.9359C215.701 94.9359 211.116 95.5327 211.116 95.3438C211.116 95.155 210.113 90.2412 210.614 88.0902C211.05 86.2135 211.663 85.762 212.407 85.8546Z" fill="#77BED0"/>
<path d="M205.674 86.031L202.487 97.4851C202.628 95.9896 202.782 94.5601 202.936 93.5234C203.455 90.0382 204.962 86.2403 204.962 86.2403C204.962 86.2403 205.241 86.1557 205.674 86.031Z" fill="#8C63A9"/>
<path d="M165.201 14.4612C165.201 14.4612 163.541 14.3784 162.769 16.0671C161.996 17.7558 161.996 17.7558 161.996 17.7558C161.996 17.7558 159.402 19.5835 161.131 21.5109C161.131 21.5109 161.014 23.726 162.853 24.6131C163.796 25.0683 165.283 24.8884 165.283 24.8884C165.283 24.8884 168.4 25.9705 169.933 24.7236C169.933 24.7236 172.097 24.386 172.685 22.9734C172.972 22.2867 172.466 22.2297 172.795 21.7202C173.362 20.8429 173.328 19.9131 172.476 19.2718C171.731 18.7115 171.355 18.0168 171.036 17.1377C170.137 14.6563 168.126 13.5688 165.201 14.4612Z" fill="#13375B"/>
<path d="M160.751 16.0857C160.751 16.0857 161.366 16.0207 162.158 15.3037C162.665 14.8441 163.837 14.4371 163.498 14.185C163.16 13.9338 162.238 14.6891 162.225 14.3756C162.214 14.0621 164.036 12.3653 163.729 12.1373C163.422 11.9093 161.806 13.615 161.795 13.3344C161.785 13.0538 163.428 11.6448 162.994 11.3224C162.56 10.9999 161.213 13.142 160.979 12.9683C160.747 12.7955 161.631 11.4649 161.282 11.2048C160.933 10.9456 160.161 13.0725 160.155 12.9069C160.148 12.7421 160.161 11.5468 159.918 11.5566C159.643 11.5673 159.479 14.0986 159.012 14.5047C158.544 14.9109 154.225 20.3298 154.516 21.4752C154.806 22.6206 159.852 26.5342 161.117 26.5983C162.383 26.6625 163.438 25.7638 163.408 24.9711C163.378 24.1793 158.517 20.7127 158.508 20.4643C158.499 20.2166 160.751 16.0857 160.751 16.0857Z" fill="#F7A491"/>
<path d="M166.33 27.001C166.4 26.4532 166.24 25.6125 165.191 24.744C164.071 23.8169 160.552 21.3479 160.552 21.3479L157.634 25.1404C157.634 25.1404 161.001 28.3192 162.618 28.9694C165.311 30.0542 166.195 28.0707 166.33 27.001Z" fill="#8C63A9"/>
<path d="M150.819 41.9456C152.55 39.4304 160.846 40.0147 160.846 40.0147L170.932 38.6956C171.798 40.3023 172.328 41.4584 172.732 42.4613L169.288 47.4883C169.288 47.4883 162.642 47.0973 161.753 45.5947L151.909 44.9018C151.909 44.9009 150.003 43.1311 150.819 41.9456Z" fill="#13375B"/>
<path d="M165.032 44.6437L165.82 46.3912L171.122 47.6951C171.122 47.6951 173.78 44.6312 172.738 42.5827C171.696 40.5332 168.374 40.6837 166.852 41.3803C165.329 42.0759 165.032 44.6437 165.032 44.6437Z" fill="#50BFA5"/>
<path d="M167.057 24.5084C165.721 24.235 164.262 24.4425 163.15 25.2673C161.856 26.2292 161.604 27.9918 161.359 29.4891C161.03 31.494 160.899 33.5399 160.911 35.5706C160.914 36.0471 160.964 40.8594 161.466 40.9093C161.47 40.9093 169.495 41.718 171.554 39.4646C171.554 39.4646 170.409 37.6521 170.411 35.3444C170.413 32.7569 171.25 28.3989 171.194 27.4013C171.089 25.546 168.656 24.8736 167.19 24.5369C167.146 24.5271 167.102 24.5173 167.057 24.5084Z" fill="#8C63A9"/>
<path d="M165.222 35.962C165.222 35.962 172.057 40.6336 172.731 42.4613C173.405 44.289 172.565 46.7597 171.121 47.6958C169.678 48.6319 166.71 47.6334 165.751 46.7757C164.79 45.918 163.549 40.2711 163.549 40.2711L165.222 35.962Z" fill="#355389"/>
<path d="M154.566 41.9228C156.77 42.7858 160.488 45.5086 162.971 45.8693C165.454 46.2292 167.07 46.8909 167.07 46.8909C167.07 46.8909 168.537 47.6801 168.06 48.3739C167.583 49.0678 166.093 50.1294 162.078 48.121C161.588 47.8751 159.961 47.5607 157.719 47.0691C155.476 46.5783 152.287 46.2915 151.509 46.0083C149.746 45.3661 150.039 42.6959 150.818 41.945C151.599 41.1942 153.064 41.3349 154.566 41.9228Z" fill="#F7A491"/>
<path d="M152.659 51.6776C152.49 50.664 155.859 48.9023 156.954 47.5654C158.585 44.9138 160.26 34.5615 164.225 35.5769C164.829 35.6713 165.182 35.8414 165.548 36.1968C166.42 37.0421 166.57 37.5774 165.888 39.3115C165.158 41.1712 160.835 46.3532 159.476 47.8183C157.762 49.6656 156.739 51.6678 156.147 52.3314C155.271 53.3111 152.714 52.0116 152.659 51.6776Z" fill="#F48C7F"/>
<path d="M164.79 22.3944C164.79 22.3944 165.42 25.0904 164.694 25.9036C163.927 26.7622 167.786 26.1851 167.94 24.8713C168.023 24.1614 167.206 21.1367 167.206 21.1367L164.79 22.3944Z" fill="#F7A491"/>
<path d="M167.205 21.1357L164.79 22.3943C164.79 22.3943 164.944 23.0551 165.011 23.8211C165.634 23.8541 166.32 23.6572 167.032 23.1442C167.238 22.9964 167.422 22.8378 167.587 22.6695C167.399 21.8527 167.205 21.1357 167.205 21.1357Z" fill="#F48C7F"/>
<path d="M165.712 15.4495C165.712 15.4495 166.927 15.6517 167.732 16.741C168.538 17.8294 169.233 21.1294 166.881 22.8207C164.529 24.5121 162.507 22.4217 162.354 20.2797C162.201 18.1385 162.897 15.3177 165.712 15.4495Z" fill="#F7A491"/>
<path d="M167.939 19.7185C167.794 20.2858 167.986 20.8247 168.37 20.9236C168.753 21.0215 169.182 20.6421 169.328 20.0747C169.473 19.5074 169.28 18.9685 168.896 18.8697C168.514 18.7717 168.085 19.1511 167.939 19.7185Z" fill="#F7A491"/>
<path d="M164.919 15.4608C164.919 15.4608 165.22 18.0331 168.465 18.9442C171.712 19.8563 170.996 20.9215 170.996 20.9215C170.996 20.9215 171.795 19.1954 170.175 17.7489C168.555 16.3025 168.024 15.8634 167.415 15.3192C166.806 14.775 164.919 15.4608 164.919 15.4608Z" fill="#13375B"/>
<path d="M165.22 38.1309C165.22 38.1309 164.693 37.8058 163.629 37.8869C162.946 37.9394 161.771 37.5431 161.885 37.9501C161.998 38.3562 163.19 38.3242 163.007 38.5789C162.825 38.8336 160.345 39.0581 160.447 39.4268C160.55 39.7947 162.873 39.4375 162.709 39.6655C162.546 39.8935 160.383 40.0013 160.529 40.5215C160.675 41.0416 163.052 40.175 163.13 40.4547C163.209 40.7343 161.693 41.2429 161.81 41.6624C161.927 42.081 163.841 40.8733 163.745 41.0078C163.648 41.1423 162.907 42.0793 163.104 42.22C163.328 42.3794 165.009 40.4787 165.627 40.4449C166.246 40.4101 172.978 38.774 173.45 37.69C173.923 36.607 172.333 30.4221 171.372 29.5965C170.411 28.7699 169.026 28.834 168.565 29.4789C168.104 30.1237 169.822 35.841 169.677 36.0441C169.531 36.2462 165.22 38.1309 165.22 38.1309Z" fill="#F7A491"/>
<path d="M167.179 25.7975C166.789 26.1876 166.399 26.95 166.696 28.2789C167.013 29.6987 168.282 33.8056 168.282 33.8056L172.912 32.596C172.912 32.596 172.198 28.0206 171.319 26.5163C169.854 24.009 167.942 25.0351 167.179 25.7975Z" fill="#8C63A9"/>
<path d="M48.0469 59.9219C47.8759 57.9571 47.6238 55.1194 46.0251 53.7896C44.7309 52.7137 43.133 52.6201 41.5833 53.3398C37.1904 55.3803 39.3521 58.503 33.821 63.0419C32.1029 64.4519 31.5088 64.7965 30.2432 66.6278C28.4725 69.1911 28.5224 72.1054 30.4053 73.795C32.3585 75.5479 37.846 76.8082 39.8117 76.6675C45.5183 76.2613 47.2097 70.2867 47.6105 67.9914C48.0121 65.6952 48.2517 62.2733 48.0469 59.9219Z" fill="#13375B"/>
<path d="M37.6297 71.0536L34.7386 69.5894C34.7386 69.5894 31.6809 77.0443 31.3024 79.2211C31.1652 80.012 31.721 88.151 31.9526 89.7925C31.8751 92.9625 33 93.6848 33.6039 94.6619C33.6039 94.6619 34.8936 95.3281 34.9452 95.2301C35.0102 95.1116 34.8838 94.9478 34.6843 94.8088C34.6068 94.7563 34.5034 94.7295 34.4197 94.6743C34.3396 94.6209 34.2612 94.5185 34.189 94.4695C34.0171 94.3528 33.8924 94.3127 33.8924 94.3127C33.8924 94.3127 33.8096 94.1043 33.6822 93.887C33.5905 93.7293 33.4489 93.5539 33.4293 93.5084C33.3135 93.2332 33.448 93.3276 33.448 93.3276C33.5798 93.5432 34.3075 94.4214 34.3075 94.4214C34.3075 94.4214 35.6934 95.4937 35.713 95.3842C35.721 95.3316 35.6827 95.1491 35.46 94.8631C35.3995 94.7865 35.2329 94.6904 35.1501 94.5986C35.0868 94.5291 35.0298 94.4321 34.9488 94.3519C34.8633 94.2637 34.7386 94.2112 34.6522 94.1212C34.5204 93.9876 34.4687 93.8086 34.385 93.6981C34.0465 93.2582 33.9236 92.9188 34.0652 93.0595C34.2745 93.2706 34.5916 94.1283 35.5553 94.8124C35.7183 94.9237 35.8288 94.9647 35.8448 94.897C35.8573 94.8444 35.851 94.6449 35.7299 94.4677C35.6462 94.3475 35.4725 94.2762 35.3603 94.123C35.2944 94.0339 35.257 93.911 35.1902 93.8148C34.923 93.4309 34.8045 93.6322 34.556 92.135C34.694 92.1965 34.817 92.29 34.8757 92.3381C34.9817 92.4289 35.4867 93.2982 35.6702 93.1094C35.8519 92.9188 34.8072 90.9139 34.8072 90.9139L33.937 89.7765C34.1329 82.0526 34.369 80.2035 34.4188 80.1403L37.6297 71.0536Z" fill="#F7A491"/>
<path d="M42.7812 95.7211L44.641 112.165C44.641 112.165 43.7325 115.642 43.842 116.63C43.9516 117.617 45.863 130.577 45.863 130.577L45.7766 131.288L45.7303 133.398L52.8744 133.451C52.8744 133.451 51.3691 132.784 49.2627 131.465C49.1068 131.367 48.5982 131.045 48.511 130.424C47.9481 126.43 49.211 113.118 49.211 113.118L50.0875 95.7745L42.7812 95.7211Z" fill="#F7A491"/>
<path d="M45.1586 129.212L49.0063 128.986C49.0063 128.986 49.2316 114.116 49.7571 110.886C50.2826 107.656 50.589 96.8703 50.0573 92.7108C49.5995 89.1321 47.8849 83.4077 47.8849 83.4077L41.9459 84.5994L40.7444 84.8996L43.974 112.013C43.974 112.013 43.6747 113.844 43.5242 115.721C43.3745 117.599 45.1586 129.212 45.1586 129.212Z" fill="#77BED0"/>
<path d="M37.1515 98.7482C36.7507 98.8479 36.1344 112.961 35.8021 113.587C33.6984 117.552 33.1987 129.608 33.1987 129.608L32.3312 131.297L32.5298 132.923C32.5298 132.923 34.1001 133.814 35.2009 133.214L35.0299 131.585L34.8999 129.409L40.2074 114.388L43.111 99.0679L37.1515 98.7482Z" fill="#F7A491"/>
<path d="M45.6957 133.939H53.0705C53.343 133.914 53.4098 133.694 53.3154 133.557C53.1203 133.278 51.6819 132.605 50.7146 132.159C49.0188 132.336 46.0368 131.643 45.7696 131.254C45.6155 132.034 45.5443 133.906 45.6957 133.939Z" fill="#FCF0BE"/>
<path d="M32.3346 131.292C32.3346 131.292 32.9393 132.55 33.6474 132.498C34.3555 132.444 35.0262 131.575 35.0262 131.575C35.0262 131.575 35.2916 132.797 35.1678 133.47C35.044 134.142 34.0349 134.833 33.3446 134.532C32.6534 134.231 31.7155 132.673 32.3346 131.292Z" fill="#FCF0BE"/>
<path d="M40.2813 81.6062C40.2813 81.6062 40.1174 82.9199 39.9437 83.1836C39.477 83.8917 38.1918 86.1148 37.4748 87.8489C36.829 89.4112 36.6206 90.6938 36.3721 92.1393C35.5972 96.6452 35.8466 110.389 35.8466 110.389C35.8466 110.389 34.4572 113.356 33.8934 117.299C33.3305 121.242 32.9154 127.766 32.9154 127.766L35.7878 128.498L41.6289 110.99C41.6289 110.99 44.406 95.6593 45.3074 93.6312C46.2087 91.6031 47.9046 83.3706 47.9046 83.3706L40.2813 81.6062Z" fill="#77BED0"/>
<path d="M35.8618 107.555C35.8631 107.558 35.8643 107.558 35.8656 107.555H35.8618Z" fill="#77BED0"/>
<path d="M65.3039 51.6392C65.2389 51.0335 63.5635 50.5445 63.0709 50.3993C62.5784 50.2542 62.8973 50.3717 62.3513 50.5481C62.2845 50.5695 60.6296 53.0927 60.6296 53.0927C60.1077 53.9148 55.3194 61.2317 53.7064 62.3433C52.0595 63.478 45.4944 65.4571 45.4944 65.4571L45.1942 69.6477C45.1942 69.6477 54.2577 66.541 56.1976 64.8755C57.8044 63.4958 61.0064 56.855 62.533 54.4074L62.5348 54.4083C62.932 53.8952 65.3689 52.2448 65.3039 51.6392Z" fill="#F7A491"/>
<path d="M42.1925 64.2316C38.1586 64.2886 36.6079 63.666 33.4799 71.0257C32.9357 72.3056 32.6248 73.2292 32.6168 73.2524C32.6168 73.2524 35.3699 74.4895 36.3559 74.8859C36.3559 74.8859 37.3249 71.9208 37.724 72.2646C38.6253 73.0413 40.1457 81.9596 39.9204 83.1772C39.9204 83.1772 44.5296 84.0937 47.9373 83.3794C47.9373 83.3794 48.4254 74.6027 48.5946 74.2054C48.7639 73.8082 49.7962 72.0714 48.9509 70.1047C48.8004 69.7538 48.4245 68.7028 48.6882 68.6307C50.7536 68.066 53.8701 66.5135 53.8701 66.5135L52.396 62.7727C52.396 62.7727 47.834 63.813 46.2842 64.0081C44.934 64.1782 43.5721 64.2147 42.2138 64.2316C42.2067 64.2316 42.1996 64.2316 42.1925 64.2316Z" fill="#FCF0BE"/>
<path d="M42.3486 61.0352C42.3486 61.0352 42.2363 63.5878 41.9121 64.5275C41.5879 65.4672 42.5935 68.8758 44.6287 69.3737C46.663 69.8707 44.6643 65.3246 44.6982 64.3351C44.732 63.3465 45.3849 60.4161 45.3849 60.4161L42.3486 61.0352Z" fill="#F7A491"/>
<path d="M45.0758 61.8901C45.2352 61.0841 45.3839 60.4152 45.3839 60.4152L42.3485 61.0342C42.3485 61.0342 42.3254 61.5561 42.2701 62.2143C43.4084 62.7416 44.381 62.5065 45.0758 61.8901Z" fill="#77BED0"/>
<path d="M42.9601 54.0628C42.9601 54.0628 41.7675 54.395 41.0808 55.569C40.3932 56.7429 40.0502 60.1132 42.5806 61.5516C45.1111 62.9901 46.9075 60.6859 46.8309 58.5296C46.7535 56.3741 46.1478 53.5222 42.9601 54.0628Z" fill="#F7A491"/>
<path d="M47.3576 57.8273C47.175 58.3573 46.776 58.7011 46.4669 58.5942C46.1579 58.4873 46.0563 57.9707 46.2389 57.4408C46.4224 56.9108 46.8205 56.567 47.1296 56.6739C47.4395 56.7808 47.5411 57.2974 47.3576 57.8273Z" fill="#F7A491"/>
<path d="M43.3184 53.9745C43.3184 53.9745 41.9539 57.4998 40.6188 57.8756C39.2836 58.2515 39.3905 59.9857 39.3905 59.9857C39.3905 59.9857 39.2195 55.9776 40.4389 54.9952C41.6591 54.0119 43.3184 53.9745 43.3184 53.9745Z" fill="#13375B"/>
<path d="M41.1916 58.5653C41.3973 59.1166 41.2628 59.676 40.8896 59.8149C40.5173 59.9539 40.048 59.6198 39.8422 59.0694C39.6365 58.5181 39.771 57.9587 40.1433 57.8198C40.5164 57.68 40.9858 58.014 41.1916 58.5653Z" fill="#F7A491"/>
<path d="M73.7003 38.6142L62.5758 52.6985L62.566 52.7109C62.3585 52.9737 61.9773 53.0182 61.7145 52.8107C61.4518 52.6032 61.4063 52.2219 61.6148 51.9592C61.6192 51.953 61.6263 51.9458 61.6308 51.9396L73.3387 38.323L73.3423 38.3185C73.426 38.2214 73.5721 38.2098 73.6691 38.2936C73.7636 38.3764 73.7769 38.5171 73.7003 38.6142Z" fill="#77BED0"/>
<path d="M64.1148 50.7496L62.5748 52.6993L62.565 52.7118C62.3699 52.9585 62.0217 53.0128 61.7616 52.8463C61.7972 52.9015 61.8418 52.9514 61.8961 52.995C62.1588 53.2026 62.54 53.158 62.7476 52.8953L62.7574 52.8828L64.3606 50.8529C64.2804 50.8164 64.1976 50.7817 64.1148 50.7496Z" fill="#77BED0"/>
<path d="M64.0604 49.8818C64.0604 49.8818 65.7054 51.3399 65.2922 51.9509C64.8353 52.6251 64.251 52.9885 64.2189 52.7863C64.1877 52.5832 64.5725 51.6008 64.5725 51.6008C64.5725 51.6008 64.0515 50.9417 63.9499 50.5855C63.8475 50.2274 63.7709 49.8596 64.0604 49.8818Z" fill="#F7A491"/>
<path d="M63.291 50.6606C63.291 50.6606 62.2561 51.106 62.1973 50.9786C62.1385 50.8512 62.3514 50.5493 62.3514 50.5493C62.3514 50.5493 63.7453 49.4912 63.7951 49.8706C63.8459 50.25 63.291 50.6606 63.291 50.6606Z" fill="#F7A491"/>
<path d="M65.1214 50.3996C65.1214 50.3996 64.2272 49.3851 64.1916 49.7235C64.1488 50.1324 64.8952 51.3152 65.2622 51.3152C65.6291 51.3152 65.6282 50.9634 65.1214 50.3996Z" fill="#F7A491"/>
</svg>
