<svg width="286" height="130" viewBox="0 0 286 130" fill="none" xmlns="http://www.w3.org/2000/svg">
<path d="M286 28.4391V106.273C286 111.568 282.96 116.134 277.903 119.763C266.082 128.244 248.848 129.43 229.165 129.885C198.795 130.59 157.639 127.842 136.219 127.625C120.793 127.466 101.755 127.77 86.3404 128.049C67.7239 128.39 49.7452 128.803 37.2841 128.871C16.6932 128.983 0 118.753 0 106.272V28.4391C0 15.9584 16.7287 5.10667 37.2841 5.84029C46.4258 6.16744 57.7927 6.96436 69.9689 7.50504C83.4902 8.1075 98.4458 8.43084 113.726 7.56834C148.199 5.62295 214.441 3.92388 248.713 5.84029C258.585 6.39241 267.592 8.75723 274.279 12.4551C282.012 16.7241 286 22.3879 286 28.4391Z" fill="#F2EDF4"/>
<path d="M131.551 21.5021L109.259 3.81663C106.882 1.05057 102.712 0.734503 99.9445 3.11102C97.1774 5.48754 96.8614 9.65777 99.2379 12.4258L109.537 23.482C119.66 35.1965 124.816 38.1629 129.269 34.3329C135.555 28.9256 133.849 24.1786 131.551 21.5021Z" fill="#F7B686"/>
<g opacity="0.6">
<path opacity="0.6" d="M155.764 125.486C155.764 125.486 182.531 30.9759 207.903 39.2026C233.276 47.4293 175.935 98.5581 169.014 126.317L155.764 125.486Z" fill="#8C63A9"/>
</g>
<path d="M174.708 120.53C174.708 120.53 207.46 63.8656 225.569 73.5207C243.677 83.1747 193.53 106.524 184.623 123.328L174.708 120.53Z" fill="#77BED0"/>
<path d="M180.24 122.143C186.18 110.427 196.613 99.8374 204.319 93.0178C212.673 85.6246 219.707 80.948 219.777 80.9017L219.487 80.4639C219.416 80.5102 212.352 85.2068 203.971 92.6243C196.23 99.474 185.749 110.114 179.771 121.905L180.24 122.143Z" fill="white"/>
<path d="M223.256 130.421C215.393 132.672 217.512 144.658 208.276 143.016C200.464 141.623 199.77 140.957 197.255 143.347C196.392 144.166 195.665 145.114 195.065 146.142C194.347 147.373 192.925 149.211 190.616 149.774C176.518 153.214 155.63 133.404 169.745 120.801C170.765 119.891 172.308 119.466 174.021 119.08C183.318 116.997 186.528 121.116 193.199 109.56C199.873 98.0015 210.96 113.215 217.223 112.241C223.485 111.268 228.912 109.014 234.259 115.367C239.609 121.724 231.119 128.176 223.256 130.421Z" fill="#8C63A9"/>
<g opacity="0.5">
<g opacity="0.5">
<g opacity="0.5">
<path opacity="0.5" d="M175.3 135.848L174.97 135.422C175.158 135.277 194.217 120.871 235.516 117.188L235.563 117.723C194.42 121.393 175.487 135.704 175.3 135.848Z" fill="white"/>
</g>
</g>
<g opacity="0.5">
<g opacity="0.5">
<path opacity="0.5" d="M199.986 118.185C194.207 113.634 192.991 109.799 192.943 109.637L193.457 109.48C193.469 109.519 194.688 113.327 200.319 117.763L199.986 118.185Z" fill="white"/>
</g>
</g>
<g opacity="0.5">
<g opacity="0.5">
<path opacity="0.5" d="M201.311 123.914C199.601 121.313 199.491 117.41 200.991 112.628C202.116 109.047 203.763 106.188 203.781 106.16L204.246 106.43C204.181 106.541 197.829 117.638 201.761 123.619L201.311 123.914Z" fill="white"/>
</g>
</g>
<g opacity="0.5">
<g opacity="0.5">
<path opacity="0.5" d="M212.136 122.265C211.452 121.765 211.077 121.435 211.06 121.419L211.419 121.018C211.498 121.088 219.384 128.032 230.283 126.986L230.334 127.521C221.552 128.365 214.688 124.131 212.136 122.265Z" fill="white"/>
</g>
</g>
<g opacity="0.5">
<g opacity="0.5">
<path opacity="0.5" d="M218.314 134.325C215.64 131.708 214.746 128.977 214.467 127.146C214.164 125.153 214.496 123.793 214.51 123.737L215.032 123.868C215.019 123.92 213.794 129.15 218.691 133.941L218.314 134.325Z" fill="white"/>
</g>
</g>
</g>
<path d="M146.626 128.238C146.626 128.238 114.307 62.6497 96.8401 72.0884C79.372 81.527 128.234 111.24 137.038 130.631L146.626 128.238Z" fill="#B2C9C6"/>
<path d="M130.019 118.224C130.019 118.224 84.7773 60.9296 66.3369 74.4901C47.8975 88.0516 106.995 105.782 119.522 122.902L130.019 118.224Z" fill="#8C63A9"/>
<path d="M124.17 120.892C115.733 108.912 102.519 98.8963 92.9194 92.6043C82.5115 85.7827 73.9979 81.7494 73.9133 81.7101L74.163 81.1807C74.2485 81.2209 82.7993 85.2714 93.2415 92.1151C102.883 98.4353 116.16 108.499 124.651 120.555L124.17 120.892Z" fill="white"/>
<path d="M134.742 150.857C127.386 150.716 118.795 150.846 109.993 151.086C108.973 149.675 108.517 148.434 108.517 148.434C103.006 142.75 103.965 143.596 91.5758 145.797C82.6888 147.37 81.647 139.543 77.8744 133.877C77.8069 133.773 77.7365 133.67 77.666 133.568C76.2105 131.47 74.3413 129.707 71.5008 128.891C68.4871 128.028 65.407 126.706 62.7104 125.054C62.4859 124.918 62.2645 124.779 62.046 124.636C56.7001 121.178 53.0966 116.417 55.0383 111.492C55.0836 111.375 55.1319 111.258 55.1852 111.142C55.5496 110.328 56.068 109.508 56.7565 108.691C63.9344 100.178 71.2099 103.206 79.6067 104.518C84.25 105.242 90.8732 99.3342 97.3807 96.5258C97.4733 96.4856 97.568 96.4463 97.6606 96.407C102.826 94.249 107.899 94.1342 111.825 100.944C111.825 100.945 111.826 100.945 111.826 100.946C111.906 101.084 111.986 101.22 112.065 101.355C120.839 116.351 125.181 110.954 137.536 113.731C139.834 114.25 141.902 114.822 143.269 116.044C156.009 127.434 147.457 143.192 134.742 150.857Z" fill="#77BED0"/>
<path d="M135.807 136.217L136.248 135.646C135.996 135.452 110.451 116.113 55.0705 111.132L55.0061 111.851C110.179 116.813 135.556 136.024 135.807 136.217Z" fill="white"/>
<path d="M102.719 112.505C110.472 106.406 112.107 101.265 112.172 101.049L111.483 100.839C111.467 100.889 109.828 105.996 102.273 111.938L102.719 112.505Z" fill="white"/>
<path d="M100.936 120.185C103.232 116.699 103.384 111.465 101.376 105.051C99.8719 100.248 97.6645 96.412 97.6424 96.3738L97.0183 96.7351C97.1049 96.8841 105.612 111.772 100.333 119.789L100.936 120.185Z" fill="white"/>
<path d="M86.4211 117.965C87.3401 117.294 87.8424 116.851 87.8655 116.831L87.3844 116.294C87.2797 116.388 76.6956 125.692 62.0812 124.279L62.0117 124.997C73.7876 126.135 82.9967 120.464 86.4211 117.965Z" fill="white"/>
<path d="M78.123 134.13C81.7124 130.623 82.9132 126.961 83.2887 124.506C83.6974 121.834 83.2545 120.01 83.2354 119.934L82.5348 120.108C82.5519 120.178 84.1906 127.194 77.6177 133.614L78.123 134.13Z" fill="white"/>
<path d="M108.346 72.4135C108.346 72.4135 102.53 92.4352 108.346 105.204C111.398 111.903 113.382 110.814 114.709 113.479C117.972 120.028 114.977 131.457 116.599 136.784C118.808 144.031 123.103 143.834 123.103 143.834L179.8 135.849C179.8 135.849 178.025 130.187 176.512 116.192C175.96 111.077 174.191 104.96 177.942 97.6583C183.172 87.4758 180.78 73.3395 179.8 60.1806C179.34 54.0103 177.71 42.4428 176.512 38.2806C175.251 33.894 176.453 17.503 170.318 17.0903C159.479 16.3605 163.3 31.4279 161.692 38.946C160.086 46.4631 108.346 72.4135 108.346 72.4135Z" fill="#F7B686"/>
<path d="M141.852 114.368C141.685 114.368 141.52 114.29 141.415 114.144C141.324 114.015 139.164 110.941 138.477 106.106C138.074 103.268 138.268 100.413 139.054 97.6211C140.032 94.1444 141.936 90.7593 144.71 87.5614C144.904 87.3379 145.242 87.3138 145.466 87.508C145.689 87.7023 145.713 88.0405 145.519 88.264C142.85 91.3421 141.021 94.5872 140.086 97.912C139.341 100.56 139.157 103.267 139.538 105.956C140.188 110.534 142.267 113.493 142.287 113.522C142.459 113.763 142.403 114.098 142.162 114.27C142.069 114.336 141.96 114.368 141.852 114.368Z" fill="#EA9F75"/>
<path d="M160.593 102.469L116.878 103.645C113.719 103.645 110.889 101.483 110.889 98.3247L112.795 19.1195C112.795 15.9609 115.365 13.3911 118.524 13.3911H160.594C163.753 13.3911 168.256 15.1275 168.256 19.8684L166.323 96.7403C166.321 99.8989 163.752 102.469 160.593 102.469Z" fill="#8C63A9"/>
<path d="M160.61 14.8436H118.505C116.152 14.8436 114.246 16.6977 114.246 18.9837L113.025 94.691C112.983 99.8718 115.77 99.6735 118.121 99.6735L160.55 98.5018C162.903 98.5018 164.867 95.8022 164.867 93.5153L166.586 19.4708C166.588 17.1849 162.963 14.8436 160.61 14.8436Z" fill="#DAF7FF"/>
<path d="M97.8246 56.4563L109.226 62.9638C111.975 65.3604 116.147 65.0756 118.546 62.3266C120.944 59.5777 120.659 55.4064 117.91 53.0078L110.784 46.7922C105.879 42.635 101.325 40.5072 97.4663 44.9361C92.0197 51.1899 95.1673 54.1371 97.8246 56.4563Z" fill="#F7B686"/>
<path d="M180.976 122.965C179.959 118.542 168.413 118.336 151.738 123.736C135.062 129.136 119.522 122.902 112.372 122.902C107.462 122.902 104.774 140.345 103.572 151.276C103.664 151.273 103.756 151.271 103.848 151.268C113.845 150.952 125.254 150.675 134.741 150.857C146.821 151.084 167.744 153.418 186.648 153.904C186.242 145.048 181.854 126.786 180.976 122.965Z" fill="#F7CA15"/>
<path d="M114.438 61.7469C114.328 61.7469 114.222 61.7298 114.12 61.6965C113.901 61.6301 110.397 60.5501 108.873 59.167C108.245 58.5973 108.299 57.5635 109.027 56.256C109.558 55.2998 110.407 54.2731 111.294 53.5101C112.023 52.883 113.067 52.1864 113.894 52.423C114.823 52.6877 115.922 53.3349 116.762 54.112C117.793 55.0632 118.29 56.0718 118.162 56.9516C117.951 58.4151 116.457 60.7423 115.257 61.4781C114.966 61.6573 114.692 61.7469 114.438 61.7469ZM113.533 53.2081C112.714 53.2081 110.78 54.8206 109.755 56.6617C109.258 57.5555 109.134 58.2792 109.433 58.55C110.835 59.8223 114.332 60.8893 114.368 60.9003L114.381 60.9044C114.469 60.9346 114.634 60.8832 114.823 60.7675C115.821 60.1545 117.162 58.0578 117.339 56.8318C117.531 55.4991 115.22 53.6681 113.667 53.2242C113.626 53.2131 113.581 53.2081 113.533 53.2081Z" fill="#EA9F75"/>
<path d="M100.444 40.3854L110.794 48.4601C113.172 51.2261 117.342 51.5422 120.109 49.1657C122.876 46.7892 123.192 42.6189 120.816 39.8509L114.655 32.679C110.396 27.8616 106.192 25.1036 101.74 28.9336C95.4542 34.3409 98.1457 37.7089 100.444 40.3854Z" fill="#F7B686"/>
<path d="M116.291 48.0132C116.12 48.0132 115.963 47.9769 115.82 47.9064C115.613 47.8088 112.299 46.2376 110.989 44.6512C110.45 43.9969 110.652 42.9823 111.559 41.7915C112.223 40.9218 113.209 40.027 114.197 39.3989C115.009 38.8835 116.141 38.343 116.926 38.6953C117.807 39.0909 118.801 39.8881 119.523 40.7779C120.407 41.867 120.754 42.936 120.503 43.7896C120.084 45.2078 118.272 47.2965 116.979 47.8531C116.73 47.9598 116.5 48.0132 116.291 48.0132ZM116.348 39.413C115.469 39.413 113.448 40.6913 112.223 42.2968C111.602 43.1101 111.376 43.8087 111.633 44.1197C112.837 45.5782 116.145 47.1374 116.178 47.1525L116.19 47.1586C116.273 47.2008 116.444 47.1737 116.647 47.0861C117.723 46.6231 119.351 44.7398 119.701 43.552C120.083 42.2606 118.058 40.1176 116.584 39.4553C116.52 39.4271 116.44 39.413 116.348 39.413Z" fill="#EA9F75"/>
<path d="M101.534 73.2328L111.892 77.0518C114.504 78.6592 117.927 77.8449 119.534 75.2329C121.143 72.6208 120.329 69.1995 117.715 67.591L110.944 63.4228C106.299 60.6537 102.226 59.5203 99.6404 63.7288C95.9896 69.6685 99.0073 71.6777 101.534 73.2328Z" fill="#F7B686"/>
<path d="M115.905 75.3979C115.858 75.3979 115.813 75.3939 115.767 75.3869C115.566 75.3607 112.502 74.948 111.038 74.0059C110.674 73.7723 110.151 73.1342 110.736 71.4914C111.337 69.8044 113.028 67.448 114.312 67.594C115.971 67.7822 118.503 69.1663 118.539 70.8231C118.566 72.0813 117.638 74.2444 116.733 75.0326C116.454 75.2751 116.176 75.3979 115.905 75.3979ZM114.183 68.4214C113.564 68.4214 112.114 70.1084 111.521 71.7723C111.247 72.5403 111.235 73.1422 111.489 73.3053C112.816 74.1589 115.849 74.5575 115.88 74.5615L115.893 74.5635C115.927 74.5695 116.027 74.5413 116.186 74.4045C116.903 73.7804 117.727 71.8498 117.704 70.8432C117.68 69.743 115.545 68.5744 114.218 68.4234C114.207 68.4214 114.196 68.4214 114.183 68.4214Z" fill="#EA9F75"/>
<path d="M115.331 51.1899C110.818 51.1899 103.066 43.0467 102.73 42.6904C102.572 42.5233 102.579 42.2596 102.746 42.1016C102.913 41.9435 103.177 41.9506 103.336 42.1177C103.357 42.1398 105.429 44.3251 107.995 46.4268C111.325 49.1556 113.953 50.5095 115.597 50.3434C115.826 50.3202 116.031 50.4873 116.054 50.7158C116.077 50.9453 115.91 51.1496 115.681 51.1728C115.566 51.1839 115.449 51.1899 115.331 51.1899Z" fill="#EA9F75"/>
<path d="M112.953 65.0292C110.198 65.0292 105.639 61.4367 105.436 61.2757C105.256 61.1328 105.226 60.87 105.369 60.6899C105.512 60.5097 105.774 60.4795 105.955 60.6224C105.968 60.6325 107.229 61.63 108.776 62.5641C110.764 63.7639 112.31 64.3206 113.245 64.1736C113.473 64.1374 113.686 64.2934 113.722 64.5209C113.758 64.7484 113.603 64.9618 113.375 64.997C113.24 65.0191 113.099 65.0292 112.953 65.0292Z" fill="#EA9F75"/>
<path d="M172.967 30.365C172.356 30.365 171.494 30.215 170.615 29.5698C169.632 28.848 169.742 26.2803 169.91 24.4111C170.094 22.3546 170.463 20.4039 170.467 20.3848C170.51 20.1583 170.728 20.0103 170.954 20.0526C171.181 20.0959 171.329 20.3133 171.286 20.5398C171.282 20.5589 170.921 22.4744 170.741 24.4906C170.419 28.0901 170.942 28.7736 171.11 28.8974C172.36 29.8164 173.536 29.4731 173.585 29.458C173.805 29.3906 174.038 29.5134 174.106 29.7328C174.174 29.9512 174.053 30.1838 173.835 30.2532C173.804 30.2633 173.471 30.365 172.967 30.365Z" fill="#EA9F75"/>
<path d="M119.863 115.029C119.831 115.029 119.799 115.026 119.767 115.02C115.089 114.176 112.431 112.153 111.024 110.604C109.474 108.897 109.055 107.383 109.038 107.319C108.961 107.033 109.131 106.739 109.416 106.663C109.701 106.586 109.995 106.755 110.073 107.039C110.077 107.054 110.463 108.41 111.862 109.931C113.157 111.339 115.613 113.181 119.957 113.964C120.248 114.016 120.442 114.295 120.39 114.587C120.344 114.846 120.117 115.029 119.863 115.029Z" fill="#EA9F75"/>
<path d="M114.487 78.3523C114.168 78.3523 113.83 78.3332 113.471 78.2889C110.677 77.9487 100.937 73.2792 100.523 73.0809C100.316 72.9813 100.228 72.7316 100.328 72.5243C100.428 72.3169 100.677 72.2293 100.885 72.329C100.984 72.3773 110.913 77.1364 113.571 77.4605C116.101 77.7695 117.494 76.7026 117.508 76.6915C117.688 76.5496 117.95 76.5798 118.093 76.7599C118.236 76.9401 118.207 77.1998 118.028 77.3437C117.969 77.391 116.74 78.3523 114.487 78.3523Z" fill="#EA9F75"/>
<path d="M142.9 15.5593C142.9 6.74571 135.065 0.670044 126.337 0.670044C113.696 0.670044 109.355 7.81469 109.355 16.6282C109.355 25.4418 119.372 31.6835 128.1 31.6835C136.829 31.6835 142.9 24.3728 142.9 15.5593Z" fill="#77BED0"/>
<path d="M145.662 29.7056C145.662 29.7056 140.137 28.8439 139.742 23.2977L135.401 26.5017C135.402 26.5017 137.473 31.5979 145.662 29.7056Z" fill="#77BED0"/>
<path d="M128.351 33.5788C123.978 33.5788 119.224 31.9915 115.634 29.3331C111.669 26.3979 109.486 22.5166 109.486 18.4048C109.486 13.5823 110.758 9.75931 113.268 7.03955C116.154 3.91314 120.635 2.32678 126.587 2.32678C130.961 2.32678 135.092 3.80745 138.22 6.495C141.476 9.29327 143.27 13.1434 143.27 17.3348C143.27 20.8699 142.312 24.2006 140.498 26.9707C141.807 30.6759 145.89 31.3573 145.932 31.3634L146.54 31.459L145.941 31.5979C143.447 32.1747 139.941 32.4414 137.338 30.4685C134.801 32.5028 131.696 33.5788 128.351 33.5788ZM126.587 2.56433C120.705 2.56433 116.283 4.12452 113.443 7.20061C110.975 9.87406 109.724 13.6437 109.724 18.4038C109.724 22.4381 111.873 26.251 115.776 29.1409C119.327 31.77 124.028 33.3403 128.351 33.3403C131.672 33.3403 134.754 32.2632 137.26 30.2239L137.333 30.1645L137.408 30.2229C139.771 32.066 142.948 31.9613 145.367 31.4771C144.177 31.15 141.304 30.0609 140.251 26.9928L140.232 26.9375L140.265 26.8892C142.073 24.1483 143.03 20.8447 143.03 17.3348C143.03 13.2129 141.266 9.42714 138.062 6.67517C134.979 4.02487 130.903 2.56433 126.587 2.56433Z" fill="#2F1A31"/>
<path d="M133.301 17.9729H120.88C120.606 17.9729 120.186 17.6881 120.149 17.4173C120.075 16.8617 120.605 16.7026 120.879 16.7026L133.301 16.9794C133.575 16.9794 133.798 17.2029 133.798 17.4767C133.798 17.7485 133.575 17.9729 133.301 17.9729Z" fill="white"/>
<path d="M131.749 15.6387H122.373C122.166 15.6387 121.848 15.4102 121.821 15.1918C121.765 14.7449 122.165 14.618 122.372 14.618L131.748 14.8405C131.954 14.8405 132.123 15.0207 132.123 15.2401C132.124 15.4595 131.955 15.6387 131.749 15.6387Z" fill="white"/>
<path d="M138.884 49.2683C138.884 40.4547 146.719 34.3781 155.447 34.3781C168.087 34.3781 172.429 41.5227 172.429 50.3362C172.429 59.1498 162.411 65.3915 153.683 65.3915C144.955 65.3915 138.884 58.0808 138.884 49.2683Z" fill="#F7CA15"/>
<path d="M136.121 63.4145C136.121 63.4145 141.646 62.5529 142.04 57.0067L146.382 60.2106C146.382 60.2096 144.31 65.3069 136.121 63.4145Z" fill="#F7CA15"/>
<path d="M153.433 67.2869C150.088 67.2869 146.983 66.2118 144.446 64.1766C141.843 66.1494 138.337 65.8817 135.844 65.3059L135.245 65.167L135.853 65.0714C135.894 65.0644 139.978 64.3839 141.286 60.6787C139.472 57.9086 138.514 54.5779 138.514 51.0428C138.514 46.8504 140.308 43.0013 143.564 40.202C146.693 37.5135 150.824 36.0338 155.197 36.0338C161.149 36.0338 165.63 37.6192 168.516 40.7466C171.025 43.4653 172.299 47.2893 172.299 52.1118C172.299 56.2236 170.116 60.105 166.151 63.0401C162.558 65.7005 157.804 67.2869 153.433 67.2869ZM144.449 63.8736L144.522 63.933C147.03 65.9713 150.111 67.0493 153.432 67.0493C157.755 67.0493 162.456 65.4791 166.007 62.8499C169.909 59.961 172.058 56.1471 172.058 52.1128C172.058 47.3527 170.807 43.5831 168.339 40.9096C165.499 37.8336 161.078 36.2744 155.195 36.2744C150.879 36.2744 146.803 37.7339 143.718 40.3852C140.515 43.1372 138.752 46.9229 138.752 51.0448C138.752 54.5537 139.708 57.8573 141.517 60.5982L141.549 60.6475L141.53 60.7029C140.477 63.7709 137.604 64.86 136.415 65.1872C138.832 65.6713 142.009 65.775 144.373 63.933L144.449 63.8736Z" fill="#2F1A31"/>
<path d="M149.396 52.7439L148.992 48.9471L149.519 48.8897L149.924 52.6865L149.396 52.7439ZM149.552 51.0921L149.498 50.5858L151.586 50.3593L151.64 50.8656L149.552 51.0921ZM151.532 52.5124L151.128 48.7156L151.655 48.6582L152.06 52.455L151.532 52.5124Z" fill="white"/>
<path d="M154.069 52.2768C153.694 52.3171 153.394 52.2436 153.167 52.0564C152.94 51.8692 152.805 51.5803 152.763 51.1897L152.731 50.8847C152.688 50.4811 152.753 50.158 152.927 49.9154C153.102 49.6728 153.367 49.5319 153.727 49.4926C154.065 49.4564 154.34 49.553 154.552 49.7845C154.764 50.0161 154.894 50.3573 154.943 50.8082L154.962 50.9854L153.151 51.1817L153.106 50.7539L154.414 50.6119C154.375 50.3945 154.3 50.2294 154.19 50.1157C154.079 50.003 153.942 49.9547 153.778 49.9728C153.58 49.9939 153.433 50.0775 153.336 50.2214C153.24 50.3653 153.204 50.5586 153.23 50.8012L153.268 51.1454C153.292 51.3699 153.368 51.536 153.498 51.6437C153.628 51.7514 153.801 51.7927 154.017 51.7695C154.242 51.7453 154.433 51.6407 154.59 51.4565L154.974 51.7685C154.855 51.9114 154.716 52.0272 154.558 52.1158C154.399 52.2053 154.236 52.2587 154.069 52.2768Z" fill="white"/>
<path d="M155.928 48.1942L156.256 51.2783C156.263 51.3428 156.282 51.3921 156.314 51.4253C156.347 51.4585 156.389 51.4726 156.44 51.4666L156.689 51.4394L156.743 51.9457L156.433 51.9789C156.235 52.0001 156.074 51.9548 155.95 51.841C155.826 51.7273 155.753 51.5572 155.728 51.3287L155.399 48.2496L155.928 48.1942Z" fill="white"/>
<path d="M157.462 48.027L157.79 51.1111C157.797 51.1755 157.816 51.2249 157.849 51.2581C157.881 51.2913 157.923 51.3054 157.974 51.2993L158.223 51.2722L158.277 51.7785L157.967 51.8117C157.769 51.8328 157.608 51.7875 157.484 51.6738C157.36 51.56 157.287 51.3899 157.262 51.1614L156.934 48.0823L157.462 48.027Z" fill="white"/>
<path d="M159.906 51.6426C159.555 51.6809 159.271 51.6074 159.055 51.4222C158.84 51.237 158.713 50.9572 158.673 50.5827L158.626 50.1408C158.586 49.7704 158.652 49.4725 158.824 49.248C158.995 49.0235 159.257 48.8917 159.609 48.8534C159.96 48.8152 160.244 48.8876 160.458 49.0698C160.673 49.253 160.801 49.5288 160.84 49.9003L160.888 50.3492C160.928 50.7216 160.862 51.0206 160.691 51.246C160.52 51.4725 160.258 51.6044 159.906 51.6426ZM159.85 51.1363C160.034 51.1162 160.171 51.0427 160.26 50.9159C160.35 50.7891 160.383 50.62 160.361 50.4076L160.314 49.9586C160.291 49.7483 160.223 49.5912 160.109 49.4866C159.995 49.3829 159.846 49.3406 159.661 49.3607C159.477 49.3809 159.34 49.4533 159.253 49.5792C159.165 49.705 159.132 49.8731 159.155 50.0834L159.202 50.5324C159.225 50.7448 159.293 50.9038 159.405 51.0085C159.516 51.1142 159.665 51.1565 159.85 51.1363Z" fill="white"/>
<path d="M145.573 79.8973C145.573 73.3858 139.786 68.8975 133.336 68.8975C123.997 68.8975 120.791 74.1759 120.791 80.6874C120.791 87.199 128.191 91.8101 134.639 91.8101C141.089 91.8091 145.573 86.4088 145.573 79.8973Z" fill="#77BED0"/>
<path d="M147.615 90.3487C147.615 90.3487 143.533 89.7125 143.241 85.6147L140.034 87.9812C140.034 87.9812 141.565 91.7468 147.615 90.3487Z" fill="#77BED0"/>
<path d="M134.825 93.2405C131.589 93.2405 128.07 92.0658 125.412 90.098C122.474 87.9238 120.857 85.047 120.857 81.9991C120.857 78.4288 121.8 75.5963 123.659 73.5821C125.797 71.265 129.116 70.0903 133.522 70.0903C136.76 70.0903 139.819 71.1865 142.136 73.1775C144.549 75.251 145.877 78.1037 145.877 81.2099C145.877 83.822 145.171 86.2831 143.833 88.3324C144.8 91.0421 147.788 91.5384 147.818 91.5424L148.427 91.637L147.827 91.7759C145.985 92.2017 143.397 92.399 141.465 90.9505C139.589 92.4493 137.295 93.2405 134.825 93.2405ZM133.523 70.3289C123.252 70.3289 121.096 76.6753 121.096 81.9991C121.096 84.9695 122.68 87.7778 125.555 89.9067C128.173 91.8454 131.639 93.0029 134.826 93.0029C137.273 93.0029 139.542 92.2097 141.389 90.7079L141.462 90.6486L141.537 90.7069C143.233 92.0296 145.502 91.9873 147.264 91.6521C146.318 91.3703 144.336 90.5338 143.589 88.3556L143.57 88.3002L143.602 88.2509C144.935 86.2307 145.64 83.7958 145.64 81.2099C145.64 78.1741 144.34 75.3859 141.981 73.3587C139.708 71.4049 136.703 70.3289 133.523 70.3289Z" fill="#2F1A31"/>
<path d="M139.71 80.8203H127.289C127.015 80.8203 126.594 80.5355 126.558 80.2647C126.484 79.7091 127.014 79.55 127.288 79.55L139.71 79.8269C139.984 79.8269 140.207 80.0503 140.207 80.3241C140.207 80.5969 139.984 80.8203 139.71 80.8203Z" fill="white"/>
<path d="M138.158 78.4862H128.782C128.575 78.4862 128.258 78.2577 128.23 78.0392C128.174 77.5923 128.574 77.4645 128.781 77.4645L138.157 77.6869C138.363 77.6869 138.533 77.8671 138.533 78.0865C138.534 78.307 138.364 78.4862 138.158 78.4862Z" fill="white"/>
<path d="M138.158 83.1718H128.782C128.575 83.1718 128.258 82.9433 128.23 82.7249C128.174 82.278 128.574 82.1511 128.781 82.1511L138.157 82.3736C138.363 82.3736 138.533 82.5538 138.533 82.7732C138.534 82.9916 138.364 83.1718 138.158 83.1718Z" fill="white"/>
<path d="M158.042 81.7464C158.042 80.303 156.871 79.1323 155.428 79.1323C153.984 79.1323 152.813 80.303 152.813 81.7464C152.813 83.1898 153.984 84.3605 155.428 84.3605C156.871 84.3615 158.042 83.1908 158.042 81.7464Z" fill="#8C63A9"/>
<path d="M150.666 91.1991H160.189C161.442 91.1991 162.251 89.8704 161.671 88.7592C160.843 87.1708 159.097 85.3922 155.427 85.3922C151.757 85.3922 150.01 87.1708 149.182 88.7592C148.603 89.8704 149.412 91.1991 150.666 91.1991Z" fill="#8C63A9"/>
<path d="M132.026 51.7525C132.026 50.3564 130.895 49.224 129.498 49.224C128.102 49.224 126.97 50.3564 126.97 51.7525C126.97 53.1486 128.102 54.281 129.498 54.281C130.895 54.281 132.026 53.1486 132.026 51.7525Z" fill="#8C63A9"/>
<path d="M124.894 60.8922H134.103C135.314 60.8922 136.097 59.6068 135.537 58.5327C134.737 56.9967 133.048 55.2765 129.498 55.2765C125.949 55.2765 124.261 56.9967 123.46 58.5327C122.9 59.6068 123.682 60.8922 124.894 60.8922Z" fill="#8C63A9"/>
<path d="M157.262 22.7682C157.262 21.4949 156.23 20.4631 154.957 20.4631C153.683 20.4631 152.652 21.4949 152.652 22.7682C152.652 24.0415 153.683 25.0732 154.957 25.0732C156.229 25.0732 157.262 24.0415 157.262 22.7682Z" fill="#8C63A9"/>
<path d="M150.757 31.1026H159.154C160.259 31.1026 160.973 29.931 160.462 28.9506C159.732 27.5494 158.192 25.9812 154.956 25.9812C151.72 25.9812 150.179 27.5494 149.45 28.9506C148.939 29.931 149.652 31.1026 150.757 31.1026Z" fill="#8C63A9"/>
<path d="M186.186 36.2396C187.322 34.0282 188.362 33.7312 189.228 34.1761C190.095 34.621 190.46 35.6397 189.324 37.8511C187.255 41.8794 184.686 43.0209 184.686 43.0209C184.686 43.0209 184.086 40.3263 186.186 36.2396Z" fill="#8C63A9"/>
<path d="M222.576 103.883C225.181 103.436 226.098 104.13 226.273 105.152C226.448 106.173 225.815 107.134 223.21 107.581C218.465 108.395 215.854 106.94 215.854 106.94C215.854 106.94 217.762 104.709 222.576 103.883Z" fill="#8C63A9"/>
<path d="M214.786 99.8073C216.189 97.7549 217.259 97.5908 218.064 98.1414C218.868 98.691 219.102 99.7479 217.699 101.799C215.143 105.538 212.45 106.348 212.45 106.348C212.45 106.348 212.192 103.6 214.786 99.8073Z" fill="#8C63A9"/>
<path d="M60.5734 96.0307C58.2804 95.0705 57.9039 94.0559 58.2804 93.157C58.6569 92.2581 59.6443 91.8152 61.9373 92.7765C66.1146 94.5269 67.4513 97.0001 67.4513 97.0001C67.4513 97.0001 64.811 97.8063 60.5734 96.0307Z" fill="#8C63A9"/>
</svg>
