<svg width="265" height="141" viewBox="0 0 265 141" fill="none" xmlns="http://www.w3.org/2000/svg">
<path opacity="0.5" d="M34.4545 140.742C23.5649 127.455 17.2769 111.782 17.2769 94.9984C17.2769 47.0016 68.6897 8.09204 132.11 8.09204C195.531 8.09204 246.944 47.0008 246.944 94.9984C246.944 111.783 240.655 127.455 229.766 140.742H34.4545Z" fill="#DAF7FF"/>
<path d="M74.8994 17.7516L163.629 17.6732C164.962 17.6724 166.043 18.7516 166.044 20.0836L166.147 137.003C166.149 138.336 165.069 139.416 163.737 139.418L75.0074 139.496C73.6746 139.497 72.5938 138.418 72.5922 137.086L72.489 20.1668C72.4874 18.834 73.5666 17.7532 74.8994 17.7516Z" fill="#F7CA15"/>
<path d="M161.226 21.1094H77.4098V135.388H161.226V21.1094Z" fill="white"/>
<path d="M137.434 16.0821C137.433 15.5685 137.016 15.1517 136.503 15.1525L101.31 15.1837C100.796 15.1845 100.379 15.6013 100.38 16.1149L100.383 19.7725L137.437 19.7397L137.434 16.0821Z" fill="#8C63A9"/>
<path d="M118.902 10.7205C115.836 10.7229 113.354 13.2101 113.356 16.2757C113.359 19.3413 115.846 21.8237 118.911 21.8213C121.977 21.8189 124.459 19.3317 124.457 16.2661C124.455 13.2005 121.967 10.7181 118.902 10.7205ZM118.91 19.8309C116.944 19.8325 115.349 18.2405 115.347 16.2749C115.346 14.3093 116.938 12.7141 118.903 12.7125C120.869 12.7109 122.464 14.3029 122.466 16.2685C122.468 18.2341 120.875 19.8285 118.91 19.8309Z" fill="#8C63A9"/>
<path d="M136.864 15.2263C137.199 15.3671 137.433 15.6975 137.434 16.0831L137.437 19.7407L100.383 19.7735C100.386 22.3079 102.442 24.3599 104.976 24.3575L132.853 24.3327C135.387 24.3303 137.439 22.2743 137.438 19.7399L137.435 16.0823C137.433 15.6983 137.199 15.3671 136.864 15.2263Z" fill="#77BED0"/>
<path d="M101.31 15.1838C100.988 15.1838 100.706 15.347 100.539 15.595C100.705 15.347 100.988 15.1838 101.31 15.1838Z" fill="#77BED0"/>
<path d="M100.421 15.8381C100.44 15.7797 100.463 15.7237 100.492 15.6709C100.463 15.7245 100.44 15.7805 100.421 15.8381Z" fill="#77BED0"/>
<path d="M151.533 54.7757L139.618 54.7861L139.607 42.8709L151.523 42.8605L151.533 54.7757ZM140.104 54.2989L151.045 54.2893L151.035 43.3485L140.095 43.3581L140.104 54.2989Z" fill="#8C63A9"/>
<path d="M151.551 74.6015L139.636 74.6119L139.625 62.6967L151.54 62.6863L151.551 74.6015ZM140.122 74.1247L151.063 74.1151L151.053 63.1743L140.112 63.1839L140.122 74.1247Z" fill="#8C63A9"/>
<path d="M151.568 94.4269L139.653 94.4373L139.642 82.5221L151.558 82.5117L151.568 94.4269ZM140.139 93.9501L151.08 93.9405L151.07 82.9997L140.13 83.0093L140.139 93.9501Z" fill="#8C63A9"/>
<path d="M151.586 114.252L139.67 114.263L139.66 102.348L151.575 102.337L151.586 114.252ZM140.157 113.776L151.098 113.766L151.088 102.825L140.147 102.835L140.157 113.776Z" fill="#8C63A9"/>
<path d="M134.617 43.1415H83.624V44.8567H134.617V43.1415Z" fill="#77BED0"/>
<path d="M134.622 47.998H83.629V49.7132H134.622V47.998Z" fill="#77BED0"/>
<path d="M134.626 52.855H83.6329V54.5702H134.626V52.855Z" fill="#77BED0"/>
<path d="M134.635 63.6445H83.6426V65.3597H134.635V63.6445Z" fill="#77BED0"/>
<path d="M134.639 68.5005H83.6466V70.2157H134.639V68.5005Z" fill="#77BED0"/>
<path d="M134.644 73.3572H83.6512V75.0724H134.644V73.3572Z" fill="#77BED0"/>
<path d="M134.652 83.0703H83.6593V84.7855H134.652V83.0703Z" fill="#77BED0"/>
<path d="M134.657 87.927H83.6642V89.6422H134.657V87.927Z" fill="#77BED0"/>
<path d="M134.661 92.783H83.6682V94.4982H134.661V92.783Z" fill="#77BED0"/>
<path d="M134.67 102.496H83.6769V104.212H134.67V102.496Z" fill="#77BED0"/>
<path d="M134.674 107.353H83.6809V109.068H134.674V107.353Z" fill="#77BED0"/>
<path d="M134.679 112.209H83.6858V113.924H134.679V112.209Z" fill="#77BED0"/>
<path d="M142.523 124.761H83.6962V126.476H142.523V124.761Z" fill="#77BED0"/>
<path d="M154.129 128.912H83.7002V130.627H154.129V128.912Z" fill="#77BED0"/>
<path d="M145.519 52.8223L141.824 46.4711L143.149 45.7007L145.293 49.3871L148.807 40.9791L150.221 41.5703L145.519 52.8223Z" fill="#694881"/>
<path d="M145.536 72.9078L141.842 66.5566L143.167 65.7854L145.311 69.4726L148.825 61.0646L150.239 61.6558L145.536 72.9078Z" fill="#694881"/>
<path d="M145.571 112.177L141.876 105.825L143.201 105.055L145.346 108.741L148.859 100.333L150.274 100.925L145.571 112.177Z" fill="#694881"/>
<path d="M149.718 85.4726L148.651 84.395L145.604 87.4094L142.551 84.4006L141.487 85.4798L144.527 88.4758L141.493 91.4766L142.559 92.5542L145.607 89.5398L148.659 92.5486L149.723 91.4694L146.684 88.4734L149.718 85.4726Z" fill="#694881"/>
<path opacity="0.3" d="M85.9224 97.0973C82.9568 97.0997 80.0816 97.6877 77.428 98.8029L77.4304 101.596C79.9968 100.34 82.88 99.6317 85.9248 99.6293C96.636 99.6197 105.358 108.326 105.368 119.038C105.374 125.901 101.802 131.948 96.4168 135.409L100.599 135.405C100.9 135.134 101.194 134.856 101.482 134.568C105.626 130.417 107.906 124.901 107.9 119.035C107.895 113.169 105.606 107.657 101.455 103.514C97.3032 99.3709 91.7872 97.0917 85.9224 97.0973Z" fill="#77BED0"/>
<path opacity="0.3" d="M85.9273 103.05C82.8081 103.053 79.8961 103.953 77.4337 105.505L77.4353 107.025C79.8369 105.322 82.7673 104.319 85.9289 104.317C94.0561 104.309 100.674 110.916 100.681 119.043C100.688 127.17 94.0817 133.788 85.9545 133.795C82.7929 133.798 79.8609 132.8 77.4561 131.101L77.4577 132.621C79.9225 134.169 82.8369 135.064 85.9561 135.061C94.7817 135.053 101.955 127.868 101.947 119.042C101.939 110.216 94.7529 103.042 85.9273 103.05Z" fill="#77BED0"/>
<path d="M101.451 37.5618L101.456 31.853L99.1812 31.8506L99.182 31.3514L104.45 31.3562V31.8554L102.175 31.853L102.169 37.5618H101.451Z" fill="#8C63A9"/>
<path d="M110.257 37.0708L110.256 37.57L105.69 37.566L105.696 31.3572L110.1 31.3612L110.1 31.8604L106.406 31.8572L106.404 34.0316L109.078 34.034L109.077 34.5332L106.404 34.5308L106.401 37.066L110.257 37.0708Z" fill="#8C63A9"/>
<path d="M110.985 36.0851L111.604 35.8795C111.811 36.3219 112.076 36.6491 112.4 36.8603C112.724 37.0715 113.121 37.1779 113.592 37.1787C114.077 37.1795 114.468 37.0691 114.764 36.8483C115.06 36.6275 115.209 36.3363 115.209 35.9755C115.209 35.6875 115.112 35.4499 114.919 35.2635C114.725 35.0771 114.396 34.9067 113.932 34.7523C113.68 34.6707 113.344 34.5723 112.928 34.4571C112.51 34.3419 112.243 34.2563 112.125 34.2003C111.755 34.0267 111.492 33.8411 111.336 33.6451C111.18 33.4491 111.103 33.2067 111.104 32.9187C111.104 32.4035 111.3 31.9987 111.692 31.7043C112.084 31.4091 112.622 31.2627 113.308 31.2627C113.917 31.2635 114.42 31.3851 114.816 31.6275C115.212 31.8699 115.515 32.2419 115.722 32.7427L115.119 32.8971C114.928 32.5107 114.684 32.2251 114.384 32.0403C114.085 31.8555 113.716 31.7627 113.276 31.7619C112.85 31.7619 112.504 31.8603 112.239 32.0587C111.974 32.2571 111.841 32.5155 111.84 32.8347C111.84 33.0755 111.926 33.2779 112.097 33.4435C112.268 33.6091 112.534 33.7435 112.894 33.8475C113.032 33.8899 113.233 33.9475 113.496 34.0203C114.252 34.2283 114.738 34.3923 114.956 34.5131C115.305 34.6979 115.559 34.9003 115.716 35.1203C115.874 35.3403 115.952 35.5995 115.952 35.8995C115.952 36.4427 115.74 36.8747 115.315 37.1963C114.89 37.5179 114.316 37.6779 113.592 37.6779C112.941 37.6771 112.405 37.5483 111.985 37.2899C111.564 37.0331 111.231 36.6307 110.985 36.0851Z" fill="#8C63A9"/>
<path d="M118.895 37.578L118.901 31.8692L116.626 31.8668L116.627 31.3668L121.895 31.3716L121.894 31.8716L119.619 31.8692L119.613 37.578H118.895Z" fill="#8C63A9"/>
<path d="M123.249 37.5818L123.255 31.373L123.967 31.3738L123.961 37.5826L123.249 37.5818Z" fill="#8C63A9"/>
<path d="M126.828 31.8258L126.823 37.585L126.132 37.5842L126.137 31.3754L127.296 31.3762L130.974 36.6186L130.979 31.3794L131.67 31.3802L131.664 37.589L130.906 37.5882L126.828 31.8258Z" fill="#8C63A9"/>
<path d="M138.185 36.8985C137.929 37.1729 137.625 37.3769 137.276 37.5129C136.925 37.6481 136.519 37.7161 136.055 37.7153C135.102 37.7145 134.377 37.4385 133.879 36.8881C133.381 36.3377 133.132 35.5409 133.133 34.4969C133.134 33.4641 133.389 32.6673 133.899 32.1073C134.409 31.5473 135.129 31.2665 136.061 31.2673C136.749 31.2681 137.3 31.4169 137.712 31.7137C138.124 32.0105 138.428 32.4785 138.625 33.1169L137.954 33.2297C137.789 32.7289 137.551 32.3593 137.241 32.1209C136.931 31.8825 136.533 31.7633 136.049 31.7633C135.356 31.7625 134.821 31.9937 134.443 32.4569C134.065 32.9201 133.876 33.5769 133.875 34.4273C133.874 35.3449 134.065 36.0377 134.447 36.5057C134.829 36.9737 135.398 37.2073 136.153 37.2081C136.721 37.2089 137.178 37.0769 137.525 36.8129C137.871 36.5489 138.045 36.2001 138.045 35.7657L138.046 35.1025L136.134 35.1009V34.6353L138.815 34.6377L138.812 37.5969L138.183 37.5961L138.185 36.8985Z" fill="#8C63A9"/>
<path d="M25.1064 141.348H240.232C240.754 141.348 241.176 140.926 241.176 140.404V140.359C241.176 139.838 240.754 139.415 240.232 139.415H25.1064C24.5848 139.415 24.1624 139.838 24.1624 140.359V140.404C24.1624 140.926 24.5848 141.348 25.1064 141.348Z" fill="#77BED0"/>
<path d="M221.268 139.007L220.241 138.861C220.376 128.911 220.496 114.581 220.27 113.733C220.27 113.735 220.285 113.787 220.338 113.846L221.171 113.364C221.306 113.514 221.387 113.605 221.415 117.837C221.43 120.014 221.424 123.021 221.398 126.774C221.356 133.162 221.269 138.943 221.268 139.007Z" fill="#8C63A9"/>
<path d="M229.821 112.426L229.269 111.959C231.29 109.572 232.401 105.023 232.483 98.8046C232.545 94.0646 231.982 89.9974 231.976 89.9574L232.692 89.8566C232.697 89.8974 233.268 94.011 233.205 98.8046C233.169 101.628 232.924 104.134 232.477 106.254C231.913 108.934 231.019 111.011 229.821 112.426Z" fill="#8C63A9"/>
<path d="M224.562 78.367C224.861 78.367 235.994 77.1582 236.193 78.6518C236.393 80.1454 236.791 91.7982 234.799 92.1966C232.807 92.595 223.146 90.8022 223.146 90.8022L224.562 78.367Z" fill="#77BED0"/>
<path d="M210.298 113.212C210.729 113.126 209.203 114.706 210.298 115.204C211.394 115.702 227.927 115.403 229.221 114.806C230.516 114.208 232.109 113.212 231.512 111.918C230.914 110.623 220.726 108.93 220.726 108.93L211.493 111.42C211.493 111.419 209.801 113.312 210.298 113.212Z" fill="#77BED0"/>
<path d="M227.549 138.261H214.045C213.83 138.261 213.656 138.435 213.656 138.65V139.392C213.656 139.43 213.686 139.46 213.724 139.46H227.871C227.909 139.46 227.939 139.43 227.939 139.392V138.65C227.939 138.435 227.765 138.261 227.549 138.261Z" fill="#346384"/>
<path d="M222.08 137.253H219.587C219.418 137.253 219.28 137.391 219.28 137.56V138.553C219.28 138.723 219.418 138.86 219.587 138.86H222.08C222.25 138.86 222.386 138.722 222.386 138.553V137.56C222.387 137.391 222.25 137.253 222.08 137.253Z" fill="#346384"/>
<path d="M214.355 109.233C214.684 109.068 223.496 102.889 223.496 102.889L212.711 101.833C212.711 101.833 195.849 104.14 193.389 106.19C193.211 106.338 193.049 106.48 192.898 106.615C191.692 107.706 191.485 109.525 192.399 110.87C194.061 113.313 193.02 113.058 195.846 117.071C199.189 121.818 207.021 131.232 207.021 131.232C207.969 132.395 209.26 134.015 209.273 134.227C209.294 134.563 209.341 137.71 208.958 138.045C208.576 138.381 207.952 138.805 208.068 139.026C208.251 139.375 209.248 139.357 210.641 139.281C211.047 139.258 212.301 136.395 212.461 135.918C212.695 135.226 213.264 133.666 213.051 133.184C212.947 132.949 212.452 132.466 211.753 132.014C211.308 131.726 210.097 130.174 209.215 128.997C209.214 128.995 201.179 113.956 200.349 113.368C199.52 112.78 196.266 109.066 196.266 109.066C196.266 109.066 201.693 111.122 201.94 111.122C202.186 111.124 214.026 109.397 214.355 109.233Z" fill="#F48C7F"/>
<path d="M211.848 132.078C211.848 132.078 209.821 137.615 208.975 137.908C208.75 137.986 207.417 138.411 207.214 138.887C207.153 139.031 207.214 139.511 207.214 139.511H211.272C211.272 139.511 211.905 138.191 212.129 137.014C212.129 137.014 213.804 133.117 213.701 132.843C213.397 132.022 211.848 132.078 211.848 132.078Z" fill="#0E2E35"/>
<path d="M224.562 102.952C224.562 102.952 215.23 102.048 212.024 102.952C208.818 103.857 195.909 107.804 195.004 108.79C194.1 109.776 182.424 133.267 182.418 133.279C181.779 134.517 181.139 135.699 180.882 135.984C180.528 136.377 180.182 136.768 179.774 137.017C179.612 137.115 179.101 137.4 178.978 137.459C177.096 138.368 176.621 138.653 176.032 139.085C175.672 139.349 175.615 139.34 176.062 139.332L183.232 139.04C183.232 139.04 184.041 139.201 184.357 138.612C184.673 138.022 184.462 137.35 184.338 136.724C184.253 136.288 184.343 135.703 184.856 134.836C186.002 132.9 194.727 122.803 196.542 119.607C198.362 116.398 198.881 114.357 198.946 113.403C204.372 113.403 220.265 113.292 223.04 110.702C225.814 108.113 224.562 102.952 224.562 102.952Z" fill="#F7A491"/>
<path d="M179.774 137.018C181.941 137.573 183.491 137.216 184.387 136.855C184.618 137.509 184.977 138.309 184.814 138.782C184.615 139.361 184.332 139.492 184.082 139.499C182.102 139.551 176.83 139.621 175.32 139.641C175.109 139.644 174.993 139.398 175.128 139.236C175.503 138.79 179.612 137.116 179.774 137.018Z" fill="#8C63A9"/>
<path d="M212.681 101.801C212.681 101.801 195.809 104.142 193.349 106.192C193.318 106.218 193.129 106.387 193.057 106.475C193.341 106.315 193.762 106.159 193.762 106.159C193.762 106.159 197.644 105.912 200.789 110.724C201.401 110.943 201.844 111.092 201.91 111.092C202.157 111.092 213.997 109.366 214.325 109.201C214.654 109.036 223.466 102.857 223.466 102.857L212.681 101.801Z" fill="#694881"/>
<path d="M224.562 102.952C224.562 102.952 215.23 102.048 212.024 102.952C209.65 103.622 201.959 105.959 197.758 107.527C199.244 108.547 200.887 110.32 202.206 113.404C209.19 113.414 221.296 113.278 223.638 111.092C226.413 108.503 224.562 102.952 224.562 102.952Z" fill="#694881"/>
<path d="M196.881 92.9682L206.726 90.7906C206.726 90.7906 210.286 86.2162 213.705 82.2794C214.711 83.2754 215.27 84.8058 216.284 85.7914L208.768 94.105C208.497 94.405 208.112 94.5762 207.708 94.5778L197.274 94.6122L193.704 94.897V92.6122L196.881 92.9682Z" fill="#F48C7F"/>
<path d="M215.341 80.8905C213.619 80.4337 206.725 90.7897 206.725 90.7897C206.725 90.7897 207.658 91.2233 209.322 93.4905L211.978 90.5521L211.982 90.5569C211.982 90.5569 217.261 85.5705 218.263 83.8353C219.266 82.1001 217.063 81.3473 215.341 80.8905Z" fill="#8C63A9"/>
<path d="M211.556 68.8946C211.598 68.8106 211.623 68.765 211.623 68.765L211.619 68.7298C211.743 68.4226 211.878 68.1186 212.028 67.8162C213.015 65.8138 215.459 64.6778 217.687 64.6754C218.413 64.6746 219.073 64.7706 219.681 64.9466C220.593 65.357 222.824 66.7762 223.404 71.0034C223.615 72.5402 223.289 74.0074 222.598 75.2474C223.199 75.6242 223.987 76.3882 224.559 77.9314C225.609 80.765 230.857 81.3954 231.381 85.1738C231.906 88.9522 226.448 95.7754 220.675 91.3666C216.281 88.0106 216.995 81.6146 217.587 78.7514C216.217 78.9402 214.743 78.681 213.328 77.8266C211.526 76.7386 210.796 75.2698 210.6 73.833C210.645 72.1514 210.934 70.4946 211.556 68.8946Z" fill="#163560"/>
<path d="M218.714 79.6393C218.714 79.6393 222.211 78.9489 223.807 80.2825C225.403 81.6161 223.465 93.4697 223.467 95.4353C223.469 97.4001 224.563 102.952 224.563 102.952C224.563 102.952 213.964 104.807 212.28 101.858C212.28 101.858 211.801 90.6186 211.872 89.205C211.943 87.7914 212.395 83.5969 213.949 81.3921C214.385 80.7745 218.714 79.6393 218.714 79.6393Z" fill="white"/>
<path d="M216.832 78.7009C220.409 78.7009 222.957 75.4625 223.064 75.3249C223.17 75.1873 223.145 74.9897 223.008 74.8833C222.87 74.7769 222.673 74.8017 222.566 74.9393C222.542 74.9705 220.097 78.0713 216.833 78.0713C216.659 78.0713 216.517 78.2121 216.517 78.3865C216.517 78.5601 216.658 78.7009 216.832 78.7009Z" fill="#B75742"/>
<path d="M218.736 74.2306C218.736 74.2306 218.754 74.3354 218.787 74.513C218.946 75.3666 219.557 78.1978 219.97 78.9762C220.468 79.917 218.262 82.917 216.139 82.5514C215.507 82.4426 216.674 79.7946 216.618 79.5146C216.51 78.9778 216.365 78.245 216.216 77.4946C216.132 77.0706 216.047 76.641 215.967 76.2378C215.74 75.0906 215.555 74.1522 215.555 74.1522L218.736 74.2306Z" fill="#F7A491"/>
<path d="M218.788 74.5132C218.755 74.3356 218.737 74.2308 218.737 74.2308L215.555 74.1516C215.555 74.1516 215.741 75.09 215.967 76.2372C216.046 76.6388 216.131 77.066 216.214 77.4868C216.706 77.4148 217.219 77.1764 217.734 76.7268C218.294 76.2364 218.662 75.6476 218.884 75.0188C218.845 74.818 218.812 74.6452 218.788 74.5132Z" fill="#694881"/>
<path d="M203.112 92.9682L212.956 90.7906C212.956 90.7906 216.516 86.2162 219.935 82.2794C220.941 83.2754 221.501 84.8058 222.514 85.7914L214.998 94.105C214.727 94.405 214.342 94.5762 213.938 94.5778L203.505 94.6122L199.934 94.897V92.6122L203.112 92.9682Z" fill="#F7A491"/>
<path d="M182.888 81.7617H199.124C199.553 81.7617 199.941 82.0209 200.103 82.4185L205.102 94.6113H214.053C214.304 94.6113 214.507 94.8145 214.507 95.0641C214.507 95.3145 214.304 95.5169 214.053 95.5169H188.578C187.878 95.5169 187.242 95.1057 186.956 94.4665L181.922 83.2537C181.607 82.5529 182.12 81.7617 182.888 81.7617Z" fill="#77BED0"/>
<path d="M191.629 88.8617C191.739 89.4097 192.217 89.7753 192.697 89.6801C193.177 89.5841 193.476 89.0626 193.366 88.5146C193.257 87.9666 192.779 87.6009 192.299 87.6969C191.819 87.7921 191.519 88.3137 191.629 88.8617Z" fill="white"/>
<path d="M215.984 66.4801C215.984 66.4801 217.7 66.2873 218.776 67.6401C219.852 68.9929 221.011 73.1769 218.339 75.4521C215.666 77.7273 213.026 75.1521 212.634 72.4217C212.242 69.6921 212.09 66.3817 215.984 66.4801Z" fill="#F7A491"/>
<path d="M215.792 66.033C215.792 66.033 218.085 70.0122 219.725 70.1954C221.365 70.3794 221.581 72.4938 221.581 72.4938C221.581 72.4938 220.995 67.6218 219.371 66.6826C217.746 65.7434 215.792 66.033 215.792 66.033Z" fill="#163560"/>
<path d="M219.295 71.1957C219.162 71.9021 219.43 72.5501 219.894 72.6429C220.358 72.7357 220.843 72.2381 220.977 71.5317C221.11 70.8253 220.842 70.1773 220.378 70.0845C219.913 69.9917 219.429 70.4893 219.295 71.1957Z" fill="#F7A491"/>
<path d="M222.894 79.7251C221.173 79.2683 215.555 87.5259 215.554 87.5267C214.026 89.4163 212.956 90.7899 212.956 90.7899C212.956 90.7899 213.89 91.2235 215.553 93.4907L218.209 90.5523L218.213 90.5571C218.213 90.5571 223.492 85.5707 224.494 83.8355C225.498 82.1003 224.617 80.1819 222.894 79.7251Z" fill="#8C63A9"/>
<path d="M200.641 138.273H187.137C186.922 138.273 186.747 138.448 186.747 138.663V139.404C186.747 139.442 186.778 139.472 186.815 139.472H200.963C201 139.472 201.03 139.442 201.03 139.404V138.663C201.03 138.448 200.856 138.273 200.641 138.273Z" fill="#346384"/>
<path d="M194.702 96.29H193.149V138.216H194.702V96.29Z" fill="#8C63A9"/>
<path d="M195.171 137.266H192.678C192.509 137.266 192.372 137.404 192.372 137.573V138.566C192.372 138.736 192.51 138.873 192.678 138.873H195.171C195.341 138.873 195.478 138.735 195.478 138.566V137.573C195.478 137.404 195.341 137.266 195.171 137.266Z" fill="#346384"/>
<path d="M218.035 95.5089H169.741V97.0705H218.035V95.5089Z" fill="#8C63A9"/>
<path d="M41.1254 129.738C41.1254 129.738 40.6566 133.007 39.851 134.062C39.5806 134.416 39.0862 134.863 38.7614 135.503C38.2566 136.499 38.5358 137.982 38.9078 138.798C39.099 139.218 38.8942 139.216 39.3294 139.351C40.619 139.751 41.991 139.078 42.5398 137.836C42.8462 137.142 43.1158 136.217 43.1694 135.05C43.307 132.082 44.2246 130.574 44.2246 130.574L41.1254 129.738Z" fill="#F7A491"/>
<path d="M55.2294 131.233C55.2294 131.233 55.519 134.919 55.2838 136.117C55.1582 136.759 54.4582 138.079 54.779 138.683C55.1006 139.287 55.467 139.437 55.467 139.437L63.7918 139.573C64.2454 139.58 63.9454 139.286 63.5798 139.016C62.9814 138.573 62.4982 138.281 60.5862 137.35C60.4614 137.289 60.0078 136.999 59.8438 136.899C59.4286 136.644 59.0118 136.243 58.6526 135.841C58.055 135.172 58.0022 131.926 58.0022 131.926L55.2294 131.233Z" fill="#F7A491"/>
<path d="M61.7359 82.2388C61.7359 82.2388 62.7847 88.2236 62.0959 92.1468C61.4079 96.07 58.1783 134.256 58.1783 134.256L55.3351 133.015C55.3351 133.015 53.6623 117.454 53.7999 115.341C53.9375 113.228 55.0271 109.693 55.0271 109.693L54.6615 97.4276L59.2943 81.3148L61.7359 82.2388Z" fill="#F7A491"/>
<path d="M50.9457 80.9808C50.9457 80.9808 48.0545 85.3568 47.3665 88.9784C46.6785 92.6 47.8713 103.73 46.5473 108.476C45.8305 111.045 43.1137 115.013 42.7009 118.332C42.2881 121.652 40.7905 131.504 40.7905 131.504L43.4881 132.646L52.8665 109.362L59.5561 89.732L61.2697 79.6224L50.9457 80.9808Z" fill="#F7A491"/>
<path d="M42.791 137.183C40.791 137.55 39.4598 136.373 38.7678 135.492C38.2598 136.49 38.0118 137.98 38.3854 138.799C38.715 139.521 39.6774 139.5 40.435 139.528C41.2366 139.558 41.8566 139.111 42.2534 138.409C42.439 138.081 42.6302 137.673 42.791 137.183Z" fill="#694881"/>
<path d="M59.8439 136.898C57.6423 137.466 56.0143 137.08 55.1039 136.711C54.8695 137.38 54.5575 138.22 54.7231 138.704C54.9255 139.297 55.2128 139.43 55.4672 139.437C57.4784 139.49 62.8335 139.563 64.3671 139.583C64.5815 139.586 64.6991 139.334 64.5615 139.169C64.1815 138.712 60.0079 136.999 59.8439 136.898Z" fill="#694881"/>
<path d="M62.4701 50.1497C62.5765 47.5785 62.1981 45.0393 61.0477 42.6449C60.0581 40.5849 57.6085 39.4169 55.3757 39.4137C48.2837 39.4049 47.3821 48.7745 42.8677 52.3889C41.4885 53.4929 39.9461 54.3929 38.6413 55.5841C33.8213 59.9825 35.9925 68.1233 40.4181 71.9785C43.4893 74.6537 48.3165 76.1745 52.1013 74.0825C54.0773 72.9905 55.5773 71.1761 56.6461 69.1873C58.1629 66.3649 59.1405 63.1089 60.2189 60.1009C61.3661 56.9001 62.3285 53.5673 62.4701 50.1497Z" fill="#F7CA15"/>
<path d="M59.0357 58.2387C59.0357 58.2387 57.9509 59.7715 58.4029 62.0635C58.8549 64.3547 65.7205 71.4379 66.5805 71.8931C67.5173 72.3891 68.0917 72.1947 68.5117 71.9555C72.1301 69.8955 77.2421 58.9275 77.8357 58.1459C78.3565 57.4603 78.3565 57.4603 78.3565 57.4603L77.8525 55.6163L67.8517 66.6115C67.8517 66.6115 59.6789 57.4755 59.0357 58.2387Z" fill="#F7A491"/>
<path d="M57.8294 56.3479C57.8294 56.3479 58.6054 56.6607 58.8414 56.8079C60.435 57.8055 65.6566 63.4919 65.6566 63.4919C65.6566 63.4919 62.9086 66.4447 61.6918 67.7079L54.7422 62.4799L57.8294 56.3479Z" fill="#8C63A9"/>
<path d="M50.2742 81.3934C45.819 86.9414 45.8358 90.7062 45.8782 97.8294C45.9206 104.953 46.931 107.191 43.0166 114.416C50.0926 118.588 60.1998 117.57 60.1998 117.57C62.8126 93.3526 63.6454 87.6766 61.7358 82.2398C55.4862 82.2606 50.2742 81.3934 50.2742 81.3934Z" fill="#694881"/>
<path d="M52.9023 55.3678C52.9023 55.3678 48.8207 55.1086 47.2063 56.8646C45.5919 58.6214 50.7879 72.515 51.0815 74.7502C51.3751 76.9854 48.8583 81.7326 48.8583 81.7326C48.8583 81.7326 56.2303 84.8534 62.3303 83.1078C62.3303 83.1078 62.2063 66.9702 61.9127 65.3734C61.6191 63.7766 59.1727 57.283 58.5855 56.6446C57.9983 56.0062 52.9023 55.3678 52.9023 55.3678Z" fill="white"/>
<path d="M54.2608 49.9255C54.2608 49.9255 54.24 50.0455 54.2016 50.2495C54.02 51.2287 53.3192 54.4775 52.8456 55.3703C52.2736 56.4495 54.804 59.8919 57.24 59.4719C57.9648 59.3471 56.6272 56.3095 56.6912 55.9871C56.8144 55.3711 56.9816 54.5311 57.152 53.6695C57.248 53.1831 57.3456 52.6903 57.4376 52.2279C57.6984 50.9119 57.9104 49.8351 57.9104 49.8351L54.2608 49.9255Z" fill="#F7A491"/>
<path d="M54.2016 50.2493C54.2392 50.0453 54.2608 49.9253 54.2608 49.9253L57.9104 49.8341C57.9104 49.8341 57.6976 50.9109 57.4376 52.2269C57.3464 52.6877 57.2496 53.1773 57.1536 53.6605C56.5904 53.5773 56.0016 53.3045 55.4112 52.7885C54.768 52.2261 54.3456 51.5509 54.0912 50.8293C54.136 50.5997 54.1736 50.4013 54.2016 50.2493Z" fill="#694881"/>
<path d="M56.7175 41.6455C56.7175 41.6455 54.9975 41.4471 53.9191 42.8391C52.8407 44.2311 51.6783 48.5351 54.3575 50.8759C57.0359 53.2159 59.6831 50.5671 60.0759 47.7583C60.4671 44.9495 60.6199 41.5447 56.7175 41.6455Z" fill="#F7A491"/>
<path d="M56.9096 41.1855C56.9096 41.1855 54.6104 45.2935 52.9664 45.4823C51.3224 45.6711 51.1072 47.8319 51.1072 47.8319C51.1072 47.8319 51.6952 42.8199 53.3224 41.8535C54.9504 40.8871 56.9096 41.1855 56.9096 41.1855Z" fill="#F7CA15"/>
<path d="M53.3983 46.4967C53.5319 47.2239 53.2671 47.9223 52.8023 48.0175C52.3367 48.1127 51.8471 47.5687 51.7127 46.8423C51.5791 46.1151 51.8479 45.4487 52.3135 45.3535C52.7791 45.2575 53.2647 45.7695 53.3983 46.4967Z" fill="#F7A491"/>
<path d="M64.6078 81.1198L53.8062 81.3934L53.2502 66.4102L64.6846 66.4462L64.6078 81.1198Z" fill="#77BED0"/>
<path d="M64.6375 72.8189C64.6103 72.7605 63.7887 73.1661 63.1415 73.0237C63.0119 72.9949 63.4895 72.6021 63.5527 72.4861C63.5615 72.4709 64.5191 71.8653 64.4391 71.4525C64.3591 71.0397 63.5359 71.3053 63.5359 71.3053C63.5359 71.3053 61.2079 72.3789 60.8791 72.7101C60.5503 73.0413 60.4119 73.2893 60.3911 73.3197C60.2479 73.3645 60.1247 73.3965 60.0327 73.4085C57.8911 73.6837 54.3943 73.1957 49.0655 72.3581L49.0591 69.5621C47.9311 69.6293 45.9607 69.4325 45.0519 69.3309C45.0999 71.4629 45.0727 75.1613 45.5287 75.8661C45.8487 76.3605 48.6607 76.6941 51.7911 76.9325C55.7783 77.2381 56.8239 77.0101 60.2879 76.7693C61.3367 76.6917 62.7783 77.0125 63.3255 77.0157C64.1391 77.0205 64.4247 77.1117 64.8359 76.6837C65.1823 76.3229 65.1423 75.4357 65.0847 74.8861C64.9751 73.8461 64.9407 73.4477 64.6375 72.8189Z" fill="#F7A491"/>
<path d="M49.1984 55.7526C49.1984 55.7526 46.8952 56.175 45.7768 58.2254C45.0392 59.5782 44.2528 65.8398 44.4952 70.495C46.0544 70.1646 48.6712 70.1038 50.2744 70.0974C50.2128 65.9262 49.9824 55.6126 49.1984 55.7526Z" fill="#8C63A9"/>
<path d="M70.1849 64.4649C70.1849 64.4649 75.6785 57.6641 76.7569 56.5961C77.8353 55.5273 82.2305 52.4089 82.3577 52.7377C82.4849 53.0665 79.9713 55.5217 80.0065 55.6129C80.0417 55.7041 80.4465 56.4081 80.5913 56.7833C80.7361 57.1577 80.7737 58.0585 80.6505 58.3377C80.5273 58.6169 79.6353 59.0913 79.1321 59.2857C78.6297 59.4801 77.9073 59.3761 77.3065 59.9137C76.7057 60.4513 71.9169 67.5505 71.9169 67.5505L70.1849 64.4649Z" fill="#F7A491"/>
</svg>
