<svg width="224" height="135" viewBox="0 0 224 135" fill="none" xmlns="http://www.w3.org/2000/svg">
<path d="M194.266 133.376C175.67 135.511 156.511 134.621 117.364 132.387C95.3827 131.132 51.1845 133.211 29.1232 133.376C13.0396 133.496 0 122.482 0 109.043V68.0547V25.2372C0 11.7986 13.0665 0.114515 29.1232 0.904557C44.0343 1.63823 65.9664 4.54517 88.8299 2.76562C116.022 0.649593 167.635 -1.14903 194.267 0.904557C210.284 2.13949 223.39 11.7986 223.39 25.2372V109.043C223.39 122.482 210.202 131.546 194.266 133.376Z" fill="#DAF7FF"/>
<path d="M112.086 122.202C168.124 122.202 213.552 118 213.552 112.816C213.552 107.633 168.124 103.43 112.086 103.43C56.0486 103.43 10.621 107.633 10.621 112.816C10.621 118 56.0486 122.202 112.086 122.202Z" fill="#F2EDF4"/>
<path d="M72.7828 77.8587C72.7828 77.8587 34.1123 36.8398 20.8429 48.517C7.57434 60.1933 54.232 69.8421 65.0246 82.1662L72.7828 77.8587Z" fill="#FCF0BE"/>
<path d="M68.4649 80.3057C61.1655 71.6594 50.3243 64.8474 42.5149 60.6561C34.0482 56.1118 27.2266 53.5839 27.1589 53.5587L27.315 53.1346C27.3835 53.1598 34.2346 55.6982 42.7291 60.258C50.5732 64.4684 61.4655 71.3143 68.8101 80.0143L68.4649 80.3057Z" fill="#FCF0BE"/>
<path d="M31.5054 92.5435C39.2792 94.0542 38.2412 105.796 47.0132 103.436C55.786 101.071 55.0428 100.522 59.3651 104.263C59.3651 104.263 61.0952 107.931 64.6153 108.472C78.5047 110.608 96.9923 89.7433 82.3171 78.7703C81.2573 77.9776 79.7336 77.6966 78.0477 77.4685C68.9046 76.2397 66.1528 80.483 58.7467 69.8951C51.338 59.3045 41.9191 74.912 35.7965 74.4992C29.6739 74.0864 24.2485 72.3675 19.6236 78.9446C14.9987 85.5268 23.7308 91.038 31.5054 92.5435Z" fill="#77BED0"/>
<path d="M78.2236 93.7529L78.5055 93.3149C78.3121 93.1909 58.7171 80.8937 18.5663 80.8069L18.5654 81.3281C58.5645 81.414 78.032 93.6298 78.2236 93.7529Z" fill="white"/>
<path d="M52.9266 78.7862C58.1187 73.9098 58.9703 70.1079 59.0033 69.9492L58.4934 69.8408C58.4856 69.878 57.6287 73.6548 52.5693 78.4064L52.9266 78.7862Z" fill="white"/>
<path d="M52.1288 84.4232C53.5597 81.7704 53.3394 77.9962 51.4897 73.5092C50.1047 70.1487 48.2748 67.5288 48.2558 67.5027L47.83 67.8019C47.9019 67.9043 54.9612 78.076 51.67 84.1752L52.1288 84.4232Z" fill="white"/>
<path d="M41.5478 83.7424C42.1661 83.2021 42.5 82.8517 42.5147 82.8361L42.1349 82.4797C42.0655 82.5543 35.0401 89.9153 24.4383 89.8207L24.434 90.3411C32.9761 90.4174 39.2427 85.756 41.5478 83.7424Z" fill="white"/>
<path d="M36.5994 95.8947C38.96 93.1456 39.5922 90.4355 39.7076 88.6455C39.8333 86.6977 39.3988 85.4134 39.3806 85.3596L38.888 85.5296C38.9045 85.579 40.5262 90.5222 36.204 95.5547L36.5994 95.8947Z" fill="white"/>
<path opacity="0.6" d="M153.242 78.8265C153.242 78.8265 166.094 33.448 178.276 37.3974C190.458 41.3476 162.926 65.897 159.604 79.2254L153.242 78.8265Z" fill="#FCF0BE"/>
<path d="M141.046 95.8935C141.046 95.8935 169.624 46.4512 185.425 54.8746C201.225 63.2988 157.47 83.6716 149.697 98.3338L141.046 95.8935Z" fill="#F7CA15"/>
<path d="M145.872 97.302C151.056 87.0783 160.159 77.8388 166.883 71.8888C174.173 65.4375 180.311 61.3572 180.371 61.3173L180.119 60.9357C180.057 60.9765 173.893 65.0741 166.58 71.5462C159.826 77.5232 150.68 86.8077 145.464 97.0956L145.872 97.302Z" fill="white"/>
<path d="M195.641 92.7377C189.102 94.6092 190.864 104.578 183.183 103.212C176.686 102.053 176.109 101.499 174.018 103.486C173.3 104.167 172.696 104.956 172.197 105.81C171.6 106.834 170.417 108.363 168.498 108.831C156.773 111.693 139.401 95.2171 151.14 84.7358C151.987 83.9788 153.271 83.6249 154.696 83.3041C162.428 81.5713 165.097 84.9969 170.646 75.3863C176.196 65.7731 185.417 78.4259 190.626 77.6168C195.834 76.8077 200.347 74.9327 204.795 80.2159C209.243 85.5051 202.181 90.8706 195.641 92.7377Z" fill="#77BED0"/>
<g opacity="0.5">
<g opacity="0.5">
<g opacity="0.5">
<path opacity="0.5" d="M155.757 97.2511L155.484 96.8972C155.64 96.7767 171.49 84.7951 205.839 81.7321L205.879 82.1778C171.66 85.2296 155.912 97.1314 155.757 97.2511Z" fill="#77BED0"/>
</g>
</g>
<g opacity="0.5">
<g opacity="0.5">
<path opacity="0.5" d="M176.288 82.5611C171.483 78.7757 170.471 75.586 170.431 75.4525L170.858 75.3224C170.868 75.3536 171.883 78.5216 176.566 82.2099L176.288 82.5611Z" fill="#77BED0"/>
</g>
</g>
<g opacity="0.5">
<g opacity="0.5">
<path opacity="0.5" d="M177.39 87.3256C175.968 85.1627 175.876 81.9167 177.124 77.9396C178.059 74.9615 179.43 72.5836 179.444 72.5602L179.831 72.7848C179.777 72.8776 174.495 82.1066 177.764 87.0801L177.39 87.3256Z" fill="#77BED0"/>
</g>
</g>
<g opacity="0.5">
<g opacity="0.5">
<path opacity="0.5" d="M186.393 85.9545C185.823 85.5383 185.512 85.2634 185.498 85.2512L185.796 84.9182C185.861 84.9763 192.421 90.752 201.484 89.8813L201.527 90.3262C194.224 91.0278 188.515 87.506 186.393 85.9545Z" fill="#77BED0"/>
</g>
</g>
<g opacity="0.5">
<g opacity="0.5">
<path opacity="0.5" d="M191.532 95.9839C189.307 93.808 188.564 91.5359 188.333 90.013C188.08 88.3557 188.356 87.2249 188.367 87.1772L188.802 87.2856C188.791 87.3289 187.772 91.679 191.845 95.6639L191.532 95.9839Z" fill="#77BED0"/>
</g>
</g>
</g>
<path d="M203.71 71.241C205.876 70.869 206.639 71.4474 206.785 72.2965C206.931 73.1455 206.404 73.9442 204.238 74.3162C200.291 74.9935 198.12 73.7829 198.12 73.7829C198.12 73.7829 199.706 71.9287 203.71 71.241Z" fill="#F7CA15"/>
<path d="M167.04 32.7829C167.512 30.6357 168.334 30.1474 169.175 30.3321C170.016 30.5168 170.558 31.3052 170.087 33.4524C169.229 37.3636 167.29 38.9194 167.29 38.9194C167.29 38.9194 166.168 36.7505 167.04 32.7829Z" fill="#77BED0"/>
<path d="M163.928 111.884L64.3101 110.828C62.1775 110.806 60.4613 109.203 60.4613 107.234V51.0997C60.4613 49.1363 62.168 47.5362 64.2953 47.5059L162.628 46.1157C164.77 46.0854 166.537 47.6594 166.58 49.6367L167.865 108.216C167.911 110.245 166.127 111.906 163.928 111.884Z" fill="#8C63A9"/>
<path d="M160.686 106.292H66.2786C65.198 106.292 64.3221 105.417 64.3221 104.336V53.1974C64.3221 52.1169 65.198 51.241 66.2786 51.241H160.685C161.765 51.241 162.641 52.1169 162.641 53.1974V104.335C162.642 105.417 161.766 106.292 160.686 106.292Z" fill="#FCF0BE"/>
<path d="M139.646 67.175C139.646 67.175 139.244 69.8019 138.172 71.1409C137.466 72.0237 135.517 73.772 136.903 74.3539C138.009 74.8188 140.141 72.7478 140.832 72.2327C141.524 71.7176 142.568 70.7419 142.336 69.9111C141.857 68.1897 142.014 66.0251 142.014 66.0251L139.646 67.175Z" fill="#8C63A9"/>
<path d="M144.997 65.1381C144.997 65.1381 145.533 67.7415 144.993 69.3693C144.638 70.4429 143.418 72.7593 144.92 72.8234C146.12 72.8746 147.398 70.1923 147.867 69.4681C148.336 68.7449 148.976 67.4674 148.47 66.7685C147.422 65.3211 146.818 63.2371 146.818 63.2371L144.997 65.1381Z" fill="#8C63A9"/>
<path d="M144.246 66.9776C129.88 57.3948 130.59 49 132.581 45.7176C134.893 41.9052 138.553 38.8899 144.164 37.5457C145.66 37.1875 147.084 36.9794 148.273 36.8606C149.996 36.688 151.48 38.0634 151.434 39.7944L151.306 44.683H151.317C148.92 44.6327 141.648 45.3637 139.743 49.2385C139.347 50.0442 149.017 61.4014 148.656 63.4393C148.248 65.7453 145.651 67.9151 144.246 66.9776Z" fill="#F7CA15"/>
<path d="M138.676 68.4127C137.023 68.4205 135.706 67.0329 135.803 65.3843C136.02 61.7177 136.701 55.478 138.836 50.7629C140.047 48.0892 141.972 45.6575 144.558 43.5372C146.508 41.938 148.841 40.5088 151.494 39.2886C155.906 37.2602 159.084 37.5429 159.084 37.5429L161.495 41.0985C161.463 41.1046 162.171 44.6854 157.074 47.8776C154.261 49.639 148.607 50.7152 146.281 55.2673C144.62 58.5168 143.986 62.826 143.775 65.837C143.673 67.2775 142.477 68.3945 141.033 68.4014L138.676 68.4127Z" fill="#F7CA15"/>
<path d="M141.957 24.9404C141.957 24.9404 138.994 29.4994 137.932 36.2569C137.23 40.7283 145.368 35.5232 145.368 35.5232L145.73 26.1814L141.957 24.9404Z" fill="#F7B686"/>
<path d="M156.769 22.3639C156.769 22.3639 154.512 18.5065 149.309 19.6902C144.106 20.874 141.987 26.1875 141.614 38.9487C141.614 38.9487 144.738 44.4773 158.951 43.3993C160.526 43.2796 162.783 43.0715 162.014 40.5184C160.583 35.7712 159.197 26.3037 156.769 22.3639Z" fill="#8C63A9"/>
<path d="M162.492 23.4904L157.14 24.4964C157.14 24.4964 147.783 27.2637 145.163 27.2854C142.543 27.3071 141.459 25.3914 141.459 25.3914C141.459 25.3914 143.572 21.8054 148 20.1134C148.416 19.9539 148.851 19.8116 149.308 19.6902C150.075 19.4873 150.855 19.3095 151.635 19.3008C160.47 19.1994 162.492 23.4904 162.492 23.4904Z" fill="#8C63A9"/>
<path d="M162.492 23.4904C162.608 23.9119 161.486 24.6161 159.987 25.0627C158.487 25.5093 157.178 25.5293 157.063 25.1069C156.946 24.6846 158.069 23.9813 159.568 23.5346C161.067 23.088 162.376 23.0681 162.492 23.4904Z" fill="#2F1A31"/>
<path d="M151.627 19.3008C151.055 19.3477 150.502 19.0884 150.18 18.6131L149.173 17.1241L148.881 16.6922L147.164 14.1512L147.916 16.9801L148.368 18.6782L148.496 19.1621C148.601 19.5567 148.388 19.9643 148.007 20.1108L148 20.1134C147.853 20.4985 147.694 21.2547 148.622 21.3674C149.712 21.4992 151.221 20.3736 151.635 19.3008C151.633 19.3008 151.63 19.3008 151.627 19.3008Z" fill="#F7B686"/>
<path d="M150.316 13.0637C150.316 13.0637 150.295 13.5554 150.749 14.4686C151.413 15.805 149.912 16.7 149.423 16.3757C149.362 16.3358 148.974 13.9223 148.974 13.9223L149.431 13.5181L150.316 13.0637Z" fill="#77BED0"/>
<path d="M149.168 17.0766C149.171 17.0922 149.173 17.1087 149.174 17.1243C149.282 18.0618 148.375 18.6818 148.375 18.6818L148.368 18.6775L147.916 16.9795C148.197 16.8112 148.606 16.6152 148.882 16.6915C149.026 16.7323 149.134 16.8459 149.168 17.0766Z" fill="#2F1A31"/>
<path d="M144.427 15.147C144.078 13.3111 145.001 11.5931 146.489 11.3104C147.977 11.0277 149.466 12.2869 149.816 14.1228C150.164 15.9587 149.242 17.6767 147.754 17.9594C146.265 18.2421 144.776 16.9829 144.427 15.147Z" fill="#F7B686"/>
<path d="M145.569 12.2859C145.664 12.3735 145.565 14.1643 148.81 13.9709C152.056 13.7767 149.422 10.2947 147.068 10.6529C143.668 11.1689 143.608 13.5321 144.088 14.2874C144.568 15.0419 145.569 12.2859 145.569 12.2859Z" fill="#77BED0"/>
<path d="M150.053 9.25576C150.053 9.25576 148.811 10.4786 150.075 11.1663C151.341 11.854 154.425 11.6736 153.892 13.3421C153.359 15.0107 153.072 17.386 154.604 17.3851C156.135 17.3843 157.044 17.0955 157.87 18.157C158.696 19.2185 161.239 17.9809 160.754 16.622C160.27 15.2639 162.334 13.5945 161.104 12.494C159.874 11.3935 157.252 10.7309 156.331 9.16557C155.409 7.59936 151.064 8.30875 150.053 9.25576Z" fill="#77BED0"/>
<path d="M148.357 13.493C148.357 13.493 149.911 14.6118 149.728 16.093C149.728 16.093 150.322 15.1295 150.281 14.8199C150.239 14.5103 149.829 13.4427 149.829 13.4427L148.357 13.493Z" fill="#77BED0"/>
<path d="M149.55 14.6923C149.301 15.0418 148.879 15.1528 148.61 14.9403C148.341 14.7278 148.325 14.2725 148.575 13.9231C148.824 13.5736 149.246 13.4626 149.515 13.675C149.784 13.8875 149.8 14.3428 149.55 14.6923Z" fill="#F7B686"/>
<path d="M157.815 18.1709C157.416 16.6706 156.532 16.6038 155.597 16.5318C155.226 16.5032 154.841 16.4737 154.475 16.3566C154.301 16.3011 154.179 16.204 154.113 16.0687C153.946 15.7305 154.14 15.198 154.363 14.5814C154.688 13.683 155.056 12.6649 154.507 11.8748C153.443 10.3459 151.832 10.2774 151.816 10.2774C150.878 10.3364 150.392 10.2314 150.337 9.95564C150.281 9.67726 150.719 9.36766 150.881 9.31129C152.193 8.85253 153.71 8.66694 155.907 10.404C157.64 11.7733 157.521 12.5443 157.37 13.5199C157.337 13.735 157.303 13.9579 157.287 14.1998C157.275 14.3915 157.315 14.5337 157.41 14.6335C157.622 14.8572 158.094 14.8511 158.551 14.8459C159.142 14.839 159.753 14.832 159.918 15.3012C160.046 15.6689 159.901 16.1051 159.759 16.5275C159.614 16.9602 159.477 17.3687 159.645 17.6549C159.755 17.8413 159.99 17.9653 160.363 18.0338L160.343 18.1449C159.935 18.0703 159.675 17.9289 159.548 17.7121C159.353 17.3817 159.498 16.9498 159.652 16.4919C159.787 16.0878 159.928 15.6698 159.811 15.3385C159.674 14.9457 159.128 14.9517 158.553 14.9587C158.072 14.9647 157.574 14.9699 157.329 14.7106C157.212 14.5884 157.16 14.4132 157.175 14.192C157.192 13.9449 157.226 13.7203 157.26 13.5017C157.405 12.5625 157.519 11.8202 155.838 10.4907C153.683 8.78748 152.2 8.96787 150.919 9.41622C150.763 9.47086 150.41 9.74577 150.448 9.93222C150.467 10.0268 150.638 10.2384 151.815 10.1638C151.836 10.1638 153.504 10.2331 154.6 11.8098C155.183 12.6484 154.788 13.7411 154.47 14.6196C154.256 15.2119 154.071 15.7236 154.216 16.0184C154.269 16.1268 154.366 16.2014 154.512 16.2482C154.866 16.3618 155.243 16.3905 155.607 16.4182C156.584 16.4928 157.507 16.563 157.926 18.1405L157.815 18.1709Z" fill="white"/>
<path d="M148.269 12.9763C147.262 12.9763 146.615 12.2825 146.608 12.2747L146.684 12.2053C146.691 12.214 147.464 13.0379 148.623 12.8436L148.64 12.9451C148.512 12.9667 148.388 12.9763 148.269 12.9763Z" fill="white"/>
<path d="M145.324 17.1501C145.123 17.1883 144.909 17.1623 144.706 17.073C144.379 16.9281 144.11 16.6341 143.97 16.2664C143.707 15.5805 143.964 14.8381 144.541 14.6118C144.788 14.5155 145.067 14.525 145.328 14.6404C145.655 14.7852 145.924 15.0792 146.064 15.4469C146.327 16.1329 146.07 16.8752 145.494 17.1016C145.439 17.1224 145.383 17.1389 145.324 17.1501ZM144.723 14.6274C144.669 14.6378 144.616 14.6525 144.565 14.6725C144.021 14.8858 143.782 15.59 144.031 16.2422C144.166 16.5934 144.422 16.8744 144.733 17.0114C144.978 17.1198 145.239 17.1293 145.469 17.0391C146.013 16.8258 146.252 16.1216 146.003 15.4695C145.868 15.1182 145.612 14.8372 145.301 14.7002C145.111 14.6161 144.911 14.5918 144.723 14.6274Z" fill="#6F4975"/>
<path d="M147.862 16.2874C147.661 16.3255 147.447 16.2995 147.245 16.2102C146.918 16.0654 146.649 15.7714 146.508 15.4037C146.246 14.7177 146.501 13.9754 147.079 13.749C147.326 13.6519 147.605 13.6623 147.866 13.7776C148.193 13.9225 148.462 14.2165 148.603 14.5842C148.865 15.2701 148.61 16.0125 148.032 16.2388C147.977 16.2605 147.92 16.2761 147.862 16.2874ZM147.26 13.7655C147.206 13.7759 147.154 13.7906 147.102 13.8106C146.559 14.0239 146.319 14.7281 146.569 15.3803C146.703 15.7315 146.959 16.0125 147.271 16.1495C147.515 16.257 147.777 16.2674 148.007 16.1773C148.551 15.9639 148.79 15.2597 148.54 14.6076C148.406 14.2563 148.15 13.9754 147.839 13.8383C147.65 13.7542 147.448 13.7291 147.26 13.7655Z" fill="#6F4975"/>
<path d="M145.769 15.6298C145.758 15.6315 145.748 15.6289 145.739 15.6211C145.726 15.6081 145.725 15.5881 145.738 15.5743C145.751 15.5612 146.052 15.2534 146.676 15.2291C146.694 15.2282 146.71 15.243 146.71 15.2612C146.711 15.2794 146.697 15.295 146.678 15.295C146.082 15.3184 145.789 15.6168 145.785 15.6202C145.782 15.6254 145.776 15.6289 145.769 15.6298Z" fill="#6F4975"/>
<path d="M146.043 17.0685C146.043 17.0685 146.967 16.915 147.826 16.4164C147.826 16.4164 148.075 17.3088 147.089 17.5594C146.516 17.7051 146.043 17.0685 146.043 17.0685Z" fill="#DB6B49"/>
<path d="M146.043 17.0685C146.043 17.0685 146.3 17.2108 146.82 17.1102C147.339 17.0087 147.826 16.4164 147.826 16.4164C147.826 16.4164 146.775 16.9324 146.043 17.0685Z" fill="white"/>
<path d="M146.867 14.7169C146.847 14.7151 146.83 14.7056 146.819 14.6882C146.801 14.6596 146.808 14.6206 146.838 14.6024C146.855 14.5911 147.227 14.3006 147.665 14.6284C147.693 14.6492 147.7 14.6874 147.679 14.7151C147.659 14.7429 147.624 14.7429 147.592 14.729C147.275 14.5937 146.919 14.6978 146.906 14.7065C146.893 14.7151 146.88 14.7177 146.867 14.7169Z" fill="#8C63A9"/>
<path d="M147.479 15.2976C147.512 15.4433 147.453 15.5795 147.348 15.6038C147.242 15.6272 147.131 15.5283 147.098 15.3835C147.066 15.2378 147.125 15.1016 147.23 15.0773C147.335 15.0539 147.447 15.1528 147.479 15.2976Z" fill="#8C63A9"/>
<path d="M144.74 15.452C144.722 15.4581 144.702 15.4555 144.685 15.4433C144.657 15.4234 144.65 15.3852 144.67 15.3566C144.681 15.3401 144.915 14.9299 145.444 15.0652C145.478 15.0739 145.499 15.1069 145.491 15.1407C145.483 15.1745 145.45 15.1875 145.416 15.1875C145.07 15.1832 144.782 15.4147 144.772 15.4286C144.763 15.4399 144.752 15.4477 144.74 15.452Z" fill="#8C63A9"/>
<path d="M145.528 15.7557C145.613 15.878 145.611 16.0271 145.522 16.0887C145.434 16.1503 145.293 16.1017 145.208 15.9803C145.123 15.858 145.125 15.7089 145.214 15.6473C145.302 15.5857 145.443 15.6343 145.528 15.7557Z" fill="#8C63A9"/>
<path d="M161.568 35.3739C159.282 38.9556 154.755 41.2416 149.997 41.0916L150.504 37.2749C154.194 36.6028 157.022 34.2015 157.548 32.1782C158.21 29.6355 157.982 27.1578 157.667 25.2968C157.636 25.1199 157.707 24.9429 157.849 24.8337C158.321 24.472 159.543 23.7375 161.726 23.695C161.921 23.6915 162.093 23.8216 162.143 24.0089C163.055 27.4484 163.607 32.1774 161.568 35.3739Z" fill="#F7B686"/>
<g opacity="0.3">
<path opacity="0.3" d="M159.16 36.5474C159.077 36.5474 158.995 36.5309 158.919 36.498C158.518 36.3271 158.378 35.7504 158.605 35.2119C158.735 34.904 158.968 34.6577 159.228 34.5528C159.407 34.4799 159.585 34.4782 159.744 34.5458C160.144 34.7167 160.285 35.2934 160.058 35.8319C159.928 36.1398 159.694 36.3861 159.435 36.491C159.342 36.5292 159.25 36.5474 159.16 36.5474ZM159.503 34.6733C159.435 34.6733 159.365 34.6881 159.294 34.7167C159.076 34.8043 158.879 35.0159 158.767 35.2813C158.577 35.7305 158.676 36.204 158.988 36.3375C159.102 36.3861 159.234 36.3835 159.369 36.3289C159.587 36.2413 159.784 36.0297 159.896 35.7643C160.086 35.3151 159.986 34.8416 159.674 34.708C159.621 34.6846 159.563 34.6733 159.503 34.6733Z" fill="#E08B65"/>
</g>
<path d="M150.504 37.2742C150.504 37.2742 147.087 36.1875 146.001 36.7018C144.915 37.2161 143.916 38.6929 144.657 38.5178C145.397 38.3426 146.282 37.8561 146.282 37.8561C146.282 37.8561 144.441 38.9835 144.891 39.3C145.341 39.6165 146.933 38.621 146.933 38.621C146.933 38.621 144.849 40.1369 145.371 40.2982C145.893 40.4595 147.468 39.2965 147.468 39.2965C147.468 39.2965 145.586 40.7847 146.196 40.9573C146.807 41.1307 147.744 39.718 148.194 40.0345C148.644 40.3511 149.792 41.8045 150.824 40.6607L150.504 37.2742Z" fill="#F7B686"/>
<path d="M146.31 37.8896L146.253 37.822C146.273 37.8047 146.751 37.4083 147.131 37.5167L147.107 37.6017C146.772 37.5072 146.315 37.8862 146.31 37.8896Z" fill="#DD8964"/>
<path d="M146.962 38.6536L146.904 38.5868C146.923 38.5704 147.379 38.1792 147.937 38.2226L147.93 38.3111C147.411 38.2703 146.967 38.6493 146.962 38.6536Z" fill="#DD8964"/>
<path d="M147.496 39.3291L147.439 39.2615C147.462 39.2415 148.027 38.7723 148.422 38.9215L148.391 39.0048C148.045 38.8738 147.502 39.3248 147.496 39.3291Z" fill="#DD8964"/>
<path d="M146.306 42.5904H135.337C135.108 42.5904 134.904 42.4447 134.832 42.2279L132.553 35.4201C132.438 35.0776 132.695 34.7238 133.058 34.7238H143.606C144.087 34.7238 144.513 35.0299 144.665 35.4826L146.812 41.894C146.927 42.2365 146.67 42.5904 146.306 42.5904Z" fill="#77BED0"/>
<path d="M145.618 42.5904H134.649C134.419 42.5904 134.215 42.4447 134.143 42.2279L131.863 35.4201C131.749 35.0776 132.006 34.7238 132.37 34.7238H142.919C143.399 34.7238 143.826 35.0299 143.978 35.4826L146.124 41.894C146.239 42.2365 145.982 42.5904 145.618 42.5904Z" fill="#77BED0"/>
<path d="M137.932 38.4345C137.932 38.1761 138.23 38.0712 138.491 38.0712C138.751 38.0712 139.176 38.3548 139.173 38.7173C139.171 39.1084 138.864 39.1587 138.604 39.1587C138.344 39.1587 137.932 38.7632 137.932 38.4345Z" fill="#DEEBE9"/>
<path d="M149.654 41.6288H134.644V42.5906H149.966C150.144 42.5906 150.289 42.4458 150.289 42.268V42.2637C150.289 41.9133 150.004 41.6288 149.654 41.6288Z" fill="#77BED0"/>
<path d="M144.838 38.1658C144.833 38.145 144.294 36.127 143.945 35.5C143.602 34.8817 143.179 34.7594 143.174 34.7585L143.194 34.69C143.212 34.6952 143.65 34.8218 144.008 35.4653C144.361 36.1001 144.885 38.0635 144.906 38.1468L144.838 38.1658Z" fill="#F7CA15"/>
<path d="M146.459 41.6642C146.052 41.6642 145.951 41.4839 145.947 41.4769L145.09 38.9186L145.158 38.8961L146.013 41.4492C146.014 41.4492 146.106 41.594 146.46 41.594V41.6642H146.459Z" fill="#F7CA15"/>
<path d="M136.349 60.3267L136.26 60.3206C136.263 60.2877 136.492 57.0061 137.506 53.2961C138.443 49.8671 140.262 45.361 143.604 43.3603L143.65 43.4366C140.333 45.4217 138.525 49.9061 137.592 53.3195C136.58 57.0217 136.351 60.2946 136.349 60.3267Z" fill="#8C63A9"/>
<path d="M143.672 66.5596L143.583 66.5587C143.62 61.4533 145.29 57.5118 145.306 57.4728L145.388 57.5075C145.371 57.5465 143.707 61.4724 143.672 66.5596Z" fill="#8C63A9"/>
<path d="M179.346 66.7953C179.346 66.7953 176.728 66.6748 176.311 62.6586C175.883 58.5306 180.617 62.6586 180.617 62.6586L179.346 66.7953Z" fill="#F7B686"/>
<path d="M182.016 53.6271C181.856 53.6896 179.207 54.4076 178.034 58.4038C176.86 62.4 180.799 59.2494 180.799 59.2494L182.016 53.6271Z" fill="#F7B686"/>
<path d="M185.506 108.68C185.506 108.68 185.47 110.116 184.498 110.521C183.526 110.926 180.711 111.292 181.763 112.214C182.366 112.744 185.212 112.402 186.015 112.402C186.818 112.402 187.572 112.752 188.169 112.214C188.825 111.623 188.169 108.68 188.169 108.68C188.169 108.68 187.476 109.04 186.852 109.025C185.954 109 185.506 108.68 185.506 108.68Z" fill="#8C63A9"/>
<path d="M196.665 108.679C196.665 108.679 196.63 110.115 195.658 110.52C194.685 110.925 191.87 111.291 192.922 112.214C193.526 112.743 196.371 112.401 197.174 112.401C197.977 112.401 198.732 112.751 199.328 112.214C199.985 111.622 199.328 108.679 199.328 108.679C199.328 108.679 198.636 109.04 198.012 109.024C197.114 109.001 196.665 108.679 196.665 108.679Z" fill="#8C63A9"/>
<path d="M178.283 69.3112C178.283 69.3112 178.104 75.3228 180.022 86.8543C181.407 95.1796 183.043 103.568 183.845 107.591C184.132 109.029 185.342 110.081 186.775 110.138L187.546 110.17C189.097 110.232 190.355 108.9 190.242 107.316L188.295 80.1073L187.815 71.1514L178.283 69.3112Z" fill="#FCF0BE"/>
<path d="M195.833 74.6013C195.745 75.3332 191.608 75.2439 186.543 74.603C181.477 73.9621 177.535 72.8642 177.623 72.1331C177.712 71.4012 181.798 71.3127 186.863 71.9536C191.928 72.5945 195.922 73.8693 195.833 74.6013Z" fill="#2F1A31"/>
<path d="M184.098 73.6047L194.912 108.343C195.365 109.797 196.674 110.794 198.165 110.819L198.815 110.83C200.35 110.856 201.522 109.438 201.243 107.893L195.328 75.2524C195.242 74.8648 194.956 74.556 194.581 74.4476C192.553 73.8622 183.899 72.1677 184.098 73.6047Z" fill="#FCF0BE"/>
<path d="M194.143 54.6002C194.143 54.6002 192.704 50.552 187.578 50.7358C182.452 50.9197 178.582 57.6554 177.623 72.1311C177.623 72.1311 186.016 70.2909 195.848 74.5845C195.849 74.5854 196.394 60.5008 194.143 54.6002Z" fill="#8C63A9"/>
<path d="M197.742 54.3567L194.111 56.6809C194.111 56.6809 184.777 57.6149 182.3 57.1648C179.822 56.7156 179.436 54.8936 179.436 54.8936C179.436 54.8936 181.793 51.6605 186.278 50.8575C186.7 50.7812 187.125 50.769 187.578 50.7361C188.338 50.6823 189.099 50.7057 189.844 50.7855C194.277 51.2651 197.742 54.3567 197.742 54.3567Z" fill="#8C63A9"/>
<path d="M188.931 89.1306L186.605 82.061C186.082 80.4714 185.007 79.1445 183.577 78.325L183.667 78.1672C185.136 79.0093 186.241 80.3717 186.778 82.0038L189.104 89.0734L188.931 89.1306Z" fill="#020202"/>
<path d="M184.063 49.8348C184.036 49.8279 183.374 49.6666 183.178 49.1931C183.074 48.9433 183.122 48.6545 183.318 48.3354C183.405 48.1931 183.486 48.0639 183.56 47.9469C184.073 47.1282 184.246 46.8524 184.111 46.2124L184.169 46.2003C184.309 46.8646 184.118 47.1681 183.61 47.9789C183.536 48.0969 183.456 48.2252 183.368 48.3675C183.182 48.6692 183.136 48.9398 183.232 49.1714C183.417 49.6163 184.07 49.7758 184.077 49.7776L184.063 49.8348Z" fill="#F7CA15"/>
<path d="M184.141 46.2064C184.141 46.2064 184.368 47.234 183.687 48.3103C183.007 49.3865 183.747 50.1722 184.67 49.7585C185.593 49.3449 185.944 50.5208 187.124 49.8704C188.303 49.2208 184.141 46.2064 184.141 46.2064Z" fill="#F7CA15"/>
<path d="M189.592 50.7515C189.082 50.6969 188.64 50.3769 188.437 49.906L187.801 48.4308L187.616 48.0024L186.532 45.4849L186.721 48.0935L186.833 49.6597L186.865 50.1063C186.891 50.4705 186.637 50.7923 186.277 50.8573L186.271 50.8582C186.079 51.1721 185.812 51.8095 186.608 52.0628C187.543 52.3602 189.056 51.624 189.599 50.7515C189.597 50.7524 189.595 50.7515 189.592 50.7515Z" fill="#F7B686"/>
<path d="M187.804 48.3881C187.804 48.4029 187.803 48.4168 187.801 48.4315C187.739 49.2727 186.839 49.6656 186.839 49.6656L186.834 49.6612L186.721 48.095C186.996 47.9944 187.388 47.8903 187.617 48.004C187.737 48.0621 187.812 48.18 187.804 48.3881Z" fill="#2F1A31"/>
<path d="M183.964 45.9029C183.964 44.2326 185.061 42.8789 186.415 42.8789C187.769 42.8789 188.866 44.2326 188.866 45.9029C188.866 47.5732 187.768 48.9269 186.415 48.9269C185.061 48.9269 183.964 47.5732 183.964 45.9029Z" fill="#F7B686"/>
<path d="M188.539 46.359C188.261 46.6244 187.872 46.6513 187.671 46.4197C187.47 46.1882 187.532 45.7858 187.809 45.5204C188.087 45.255 188.475 45.2281 188.676 45.4597C188.878 45.6912 188.816 46.0936 188.539 46.359Z" fill="#F7B686"/>
<path d="M185.095 47.8592C185.095 47.8592 185.932 47.8783 186.769 47.5843C186.769 47.5843 186.839 48.4099 185.932 48.4645C185.405 48.4975 185.095 47.8592 185.095 47.8592Z" fill="#DB6B49"/>
<path d="M185.095 47.8592C185.095 47.8592 185.298 48.0274 185.77 48.0248C186.243 48.0231 186.769 47.5843 186.769 47.5843C186.769 47.5843 185.761 47.8618 185.095 47.8592Z" fill="white"/>
<path d="M186.178 45.9321C186.161 45.9277 186.147 45.9156 186.141 45.8991C186.129 45.8705 186.143 45.8384 186.172 45.8271C186.188 45.8202 186.564 45.6277 186.893 45.9884C186.914 46.011 186.913 46.0457 186.892 46.0674C186.869 46.0882 186.839 46.083 186.813 46.0656C186.557 45.893 186.227 45.926 186.213 45.9312C186.201 45.9347 186.189 45.9347 186.178 45.9321Z" fill="#060633"/>
<path d="M186.619 46.5446C186.624 46.6772 186.549 46.7874 186.452 46.7908C186.356 46.7943 186.274 46.6885 186.27 46.5558C186.265 46.4231 186.34 46.313 186.437 46.3095C186.533 46.3061 186.615 46.4119 186.619 46.5446Z" fill="#060633"/>
<path d="M184.187 46.2228C184.171 46.2245 184.153 46.2193 184.141 46.2063C184.119 46.1846 184.12 46.149 184.141 46.1274C184.154 46.1144 184.428 45.7935 184.87 46.0007C184.898 46.0138 184.911 46.0467 184.899 46.0745C184.886 46.1022 184.855 46.1092 184.825 46.1031C184.522 46.0415 184.23 46.1967 184.219 46.2071C184.21 46.2158 184.2 46.221 184.187 46.2228Z" fill="#060633"/>
<path d="M184.829 46.6208C184.884 46.7422 184.857 46.8723 184.769 46.9122C184.68 46.952 184.565 46.8853 184.51 46.7639C184.455 46.6424 184.482 46.5124 184.571 46.4725C184.658 46.4334 184.775 46.4994 184.829 46.6208Z" fill="#060633"/>
<path d="M185.374 43.4268C185.374 43.4268 185.427 44.4762 186.737 44.6548C188.048 44.8335 188.951 45.3885 188.775 46.332C188.599 47.2765 186.488 49.2346 188.04 49.9926C189.592 50.7514 189.262 49.337 190.945 49.6648C192.628 49.9926 192.932 47.7456 191.772 46.4413C190.614 45.137 191.083 41.6863 186.737 41.839C182.392 41.9916 183.984 45.4588 183.984 45.4588C183.984 45.4588 185.377 44.5855 185.374 43.4268Z" fill="#F7CA15"/>
<path d="M188.486 50.1869C188.159 50.0551 187.958 49.8582 187.889 49.6024C187.698 48.8991 188.518 47.8358 189.242 46.8975C189.433 46.6503 189.612 46.4171 189.772 46.195C190.214 45.5776 190.252 44.8699 189.873 44.3028C189.458 43.681 188.667 43.4173 187.809 43.6168C186.954 43.8154 186.366 43.6359 186.024 43.4511C185.651 43.2499 185.484 43.0054 185.477 42.995L185.507 42.975C185.514 42.9846 186.189 43.9559 187.802 43.5821C188.675 43.3792 189.48 43.648 189.904 44.2828C190.286 44.8543 190.247 45.5949 189.802 46.2159C189.642 46.4387 189.462 46.672 189.271 46.9192C188.552 47.8506 187.739 48.906 187.924 49.5928C187.992 49.8409 188.18 50.0238 188.501 50.1539L188.486 50.1869Z" fill="white"/>
<path d="M184.097 48.1576C183.728 48.0223 183.404 47.6156 183.231 47.0701C182.948 46.1812 183.147 45.1925 183.674 44.8665C183.87 44.7416 184.091 44.7234 184.311 44.8032C184.679 44.9384 185.003 45.3452 185.176 45.8889C185.459 46.7761 185.26 47.7665 184.733 48.0943C184.615 48.1689 184.488 48.2044 184.358 48.2044C184.272 48.2044 184.184 48.1888 184.097 48.1576ZM185.072 45.9236C184.909 45.4093 184.61 45.0295 184.273 44.9055C184.083 44.8378 183.896 44.8552 183.731 44.9575C183.243 45.2602 183.066 46.1933 183.335 47.0371C183.498 47.5497 183.797 47.9312 184.135 48.0553C184.323 48.1212 184.51 48.1055 184.675 48.0032C185.163 47.6988 185.341 46.7648 185.072 45.9236Z" fill="#6F4975"/>
<g opacity="0.3">
<path opacity="0.3" d="M188.012 45.3114C188.209 46.1752 187.894 47.1023 187.31 47.3824C186.726 47.6625 186.093 47.1899 185.896 46.3261C185.699 45.4623 186.014 44.5353 186.598 44.2552C187.182 43.975 187.815 44.4485 188.012 45.3114Z" fill="white"/>
</g>
<g opacity="0.3">
<path opacity="0.3" d="M185.2 45.9608C185.396 46.828 185.134 47.769 184.613 48.0621C184.092 48.3552 183.51 47.8895 183.312 47.0214C183.116 46.1542 183.377 45.2133 183.899 44.9201C184.42 44.6279 185.003 45.0936 185.2 45.9608Z" fill="white"/>
</g>
<path d="M186.494 47.3942C186.118 47.2112 185.83 46.7984 185.705 46.2607C185.491 45.3388 185.84 44.3424 186.484 44.0397C186.743 43.9183 187.017 43.9201 187.28 44.0458C187.656 44.2288 187.943 44.6416 188.067 45.1775C188.282 46.1011 187.932 47.0976 187.288 47.3985C187.16 47.4601 187.028 47.4896 186.897 47.4896C186.762 47.4904 186.627 47.4566 186.494 47.3942ZM186.53 44.1369C185.931 44.4187 185.608 45.3605 185.811 46.2356C185.927 46.7333 186.2 47.1305 186.542 47.2962C186.772 47.4037 187.014 47.4046 187.242 47.3014C187.842 47.0195 188.164 46.0777 187.961 45.2036C187.845 44.7066 187.573 44.3112 187.231 44.1438C187.114 44.0866 186.994 44.0588 186.873 44.0588C186.758 44.058 186.643 44.0848 186.53 44.1369Z" fill="#6F4975"/>
<path d="M185.084 46.2846C185.107 46.2846 185.13 46.2768 185.149 46.2612C185.161 46.2516 185.424 46.0452 185.881 46.132C185.934 46.1398 185.989 46.1068 186 46.0513C186.011 45.9958 185.975 45.9429 185.92 45.9334C185.37 45.818 185.034 46.0929 185.019 46.1033C184.977 46.1398 184.971 46.2039 185.006 46.2464C185.026 46.2716 185.055 46.2846 185.084 46.2846Z" fill="#6F4975"/>
<path d="M197.794 54.4373C197.92 54.8024 196.971 55.4875 195.673 55.9662C194.376 56.4449 193.222 56.5368 193.096 56.1709C192.97 55.8049 193.92 55.1206 195.217 54.6419C196.514 54.1632 197.668 54.0713 197.794 54.4373Z" fill="#2F1A31"/>
<path d="M188.888 67.0849L188.845 64.4312C188.839 64.0687 189.118 63.7643 189.479 63.7383C191.319 63.6065 192.607 63.0358 193.312 62.0385C194.291 60.6536 194.188 58.502 193.915 57.0095C193.776 56.2463 194.028 55.7355 194.95 55.2455C194.95 55.2455 195.743 54.8093 196.722 54.6428C197.114 54.576 197.503 54.7339 197.604 55.1181C197.761 55.7199 197.967 56.6565 198.064 57.7579C198.296 60.3743 197.792 62.6508 196.605 64.3401C195.148 66.4137 192.799 67.561 189.617 67.7561C189.227 67.7804 188.894 67.476 188.888 67.0849Z" fill="#F7B686"/>
<g opacity="0.5">
<path opacity="0.5" d="M195.65 63.6471C195.524 63.6471 195.407 63.6107 195.312 63.5353C195.023 63.302 195.055 62.7816 195.383 62.3749C195.71 61.9682 196.212 61.826 196.501 62.0592C196.79 62.2925 196.759 62.8129 196.431 63.2196C196.211 63.4936 195.911 63.6471 195.65 63.6471ZM196.163 62.1243C195.957 62.1243 195.705 62.2578 195.521 62.4868C195.259 62.812 195.215 63.2283 195.424 63.3974C195.633 63.5656 196.031 63.4338 196.293 63.1086C196.555 62.7834 196.599 62.3662 196.39 62.198C196.328 62.1477 196.25 62.1243 196.163 62.1243Z" fill="#E08B65"/>
</g>
<path d="M191.761 73.8078C191.761 73.8078 181.652 71.8765 178.374 72.788L179.945 75.1174L185.788 75.4478L191.761 73.8078Z" fill="#FCF0BE"/>
<path d="M187.679 63.9938L178.965 63.9973C178.783 63.9973 178.621 63.881 178.563 63.7093L176.75 58.3022C176.659 58.0299 176.862 57.7489 177.151 57.7489L185.531 57.7454C185.913 57.7454 186.252 57.9882 186.372 58.3481L188.08 63.4405C188.173 63.7128 187.968 63.9938 187.679 63.9938Z" fill="#77BED0"/>
<path d="M187.133 63.9946L178.419 63.998C178.237 63.998 178.075 63.8818 178.017 63.7101L176.204 58.303C176.113 58.0307 176.317 57.7497 176.606 57.7497L184.986 57.7462C185.367 57.7462 185.706 57.989 185.827 58.3489L187.534 63.4413C187.625 63.7136 187.422 63.9946 187.133 63.9946Z" fill="#77BED0"/>
<path d="M181.026 60.695C181.026 60.4894 181.262 60.4062 181.469 60.4062C181.675 60.4062 182.014 60.6317 182.011 60.9187C182.008 61.2292 181.766 61.2699 181.559 61.2699C181.353 61.2699 181.026 60.956 181.026 60.695Z" fill="#DEEBE9"/>
<path d="M186.512 60.4789C186.508 60.4625 186.079 58.8598 185.802 58.362C185.53 57.8729 185.193 57.7741 185.189 57.7732L185.204 57.7186C185.219 57.7229 185.567 57.8235 185.851 58.3343C186.131 58.8382 186.548 60.3983 186.566 60.4651L186.512 60.4789Z" fill="#436E8E"/>
<path d="M187.392 63.1048L186.712 61.0764L186.765 61.0582L187.445 63.0866L187.392 63.1048Z" fill="#436E8E"/>
<path d="M176.258 62.062C176.258 62.062 176.114 63.1972 177.075 63.3048C178.298 63.4418 179.975 62.3465 179.202 62.2476C178.516 62.16 177.507 62.2884 177.507 62.2884C177.507 62.2884 180.068 61.9242 179.83 61.3795C179.591 60.8349 177.393 61.1801 177.393 61.1801C177.393 61.1801 179.861 60.573 179.478 60.142C179.096 59.711 177.099 60.0102 177.099 60.0102C177.099 60.0102 179.537 59.5566 179.082 59.0666C178.628 58.5767 177.404 59.0849 176.843 59.1742C176.313 59.2583 176.183 59.652 176.282 60.1949C176.282 60.1949 176.087 60.8046 176.235 61.1393C176.292 61.2677 176.187 61.4203 176.188 61.5218C176.19 61.716 176.258 62.062 176.258 62.062Z" fill="#F7B686"/>
<path d="M190.154 63.5709C190.154 63.5709 189.508 61.6161 188.402 61.1374C187.297 60.6587 185.521 60.8833 186.144 61.3256C186.767 61.7679 187.718 62.1131 187.718 62.1131C187.718 62.1131 185.65 61.4705 185.71 62.0194C185.769 62.5684 187.572 63.1095 187.572 63.1095C187.572 63.1095 185.05 62.5415 185.274 63.041C185.498 63.5414 187.417 63.9594 187.417 63.9594C187.417 63.9594 185.05 63.524 185.324 64.099C185.597 64.674 187.283 64.4459 187.342 64.9949C187.401 65.5438 187.822 67.7032 189.367 67.7249L190.154 63.5709Z" fill="#F7B686"/>
<path d="M188.456 62.5674C188.306 62.2517 187.718 62.158 187.712 62.1572L187.726 62.0696C187.752 62.0739 188.367 62.1719 188.537 62.5301L188.456 62.5674Z" fill="#DD8964"/>
<path d="M188.465 63.6557C188.152 63.2377 187.572 63.1544 187.567 63.1536L187.579 63.0651C187.604 63.0686 188.202 63.1536 188.537 63.6019L188.465 63.6557Z" fill="#DD8964"/>
<path d="M188.247 64.4641C188.116 64.1155 187.417 64.0053 187.41 64.0045L187.424 63.916C187.455 63.9204 188.182 64.0357 188.331 64.4329L188.247 64.4641Z" fill="#DD8964"/>
<path d="M177.215 63.3681C177.017 63.3681 176.833 63.3395 176.727 63.2511L176.784 63.1826C177.009 63.369 177.74 63.2398 178.002 63.1739L178.024 63.2606C177.997 63.2667 177.584 63.3681 177.215 63.3681Z" fill="#DD8964"/>
<path d="M119.992 71.7128L81.475 73.4117C78.3487 73.5496 75.6924 71.4613 75.5614 68.7625L73.7212 30.7737C73.5911 28.0836 76.0211 25.8149 79.1396 25.7152L120.793 24.3874C124.049 24.2834 126.726 26.5781 126.63 29.387L125.333 67.0047C125.246 69.5352 122.921 71.5836 119.992 71.7128Z" fill="#77BED0"/>
<path d="M98.8125 50.1587L80.9555 50.7814C79.8636 50.8196 78.9574 49.9445 78.9574 48.8518V30.3036C78.9574 29.2118 79.8619 28.3367 80.9529 28.374L98.8099 28.9707C99.8506 29.0054 100.676 29.8596 100.676 30.9002V48.2291C100.677 49.269 99.8523 50.1223 98.8125 50.1587Z" fill="#F2EDF4"/>
<path d="M84.3638 33.9507C84.3638 32.8527 85.2588 32.0662 86.3515 31.963C88.0269 31.8043 88.4441 33.0999 88.4441 34.1978C88.4441 35.2957 87.4866 36.0199 86.0661 36.0199C84.9682 36.0199 84.3638 35.0477 84.3638 33.9507Z" fill="#8C63A9"/>
<path d="M82.7056 41.445L81.0111 45.1671C80.5055 46.2771 81.2487 47.5788 82.3882 47.5788H97.2499C98.3001 47.5788 99.0407 46.4575 98.7059 45.3752L95.3506 34.5332C94.9162 33.13 93.1435 32.9886 92.5252 34.3077L88.9852 41.8673C88.5308 42.8377 87.3574 43.0831 86.6047 42.3659L85.0957 40.929C84.3351 40.2074 83.1531 40.4624 82.7056 41.445Z" fill="#8C63A9"/>
<path d="M120.806 34.6331H104.954C104.606 34.6331 104.069 34.3114 104.022 34.0044C103.927 33.3756 104.604 33.1961 104.953 33.1961L120.806 33.5083C121.155 33.5083 121.44 33.7615 121.44 34.0703C121.44 34.3799 121.155 34.6331 120.806 34.6331Z" fill="#F2EDF4"/>
<path d="M116.689 31.994H104.724C104.46 31.994 104.055 31.7356 104.021 31.4893C103.949 30.9845 104.46 30.8397 104.723 30.8397L116.689 31.0912C116.953 31.0912 117.168 31.2941 117.168 31.543C117.168 31.7911 116.952 31.994 116.689 31.994Z" fill="#F2EDF4"/>
<path d="M116.689 37.6731H104.724C104.46 37.6731 104.055 37.4146 104.02 37.1684C103.948 36.6636 104.46 36.5188 104.723 36.5188L116.689 36.7694C116.952 36.7694 117.167 36.9724 117.167 37.2212C117.167 37.4701 116.951 37.6731 116.689 37.6731Z" fill="#F2EDF4"/>
<path d="M120.806 50.2184H104.954C104.606 50.2184 104.069 49.8966 104.022 49.5896C103.927 48.9609 104.604 48.7814 104.953 48.7814L120.806 49.0936C121.155 49.0936 121.44 49.3468 121.44 49.6555C121.44 49.966 121.155 50.2184 120.806 50.2184Z" fill="#F2EDF4"/>
<path d="M116.689 47.5791H104.724C104.46 47.5791 104.055 47.3206 104.021 47.0744C103.949 46.5696 104.46 46.4248 104.723 46.4248L116.689 46.6754C116.953 46.6754 117.168 46.8784 117.168 47.1273C117.168 47.3761 116.952 47.5791 116.689 47.5791Z" fill="#F2EDF4"/>
<path d="M98.5015 59.5957H80.3878C79.9888 59.5957 79.3757 59.2809 79.3228 58.9809C79.2144 58.366 79.988 58.1899 80.3869 58.1899L98.5024 58.4961C98.9013 58.4961 99.2274 58.7432 99.2274 59.0459C99.2265 59.3477 98.9004 59.5957 98.5015 59.5957Z" fill="#F2EDF4"/>
<path d="M120.783 59.5957H102.669C102.27 59.5957 101.657 59.2809 101.604 58.9809C101.496 58.366 102.269 58.1899 102.668 58.1899L120.784 58.4961C121.183 58.4961 121.509 58.7432 121.509 59.0459C121.508 59.3477 121.182 59.5957 120.783 59.5957Z" fill="#F2EDF4"/>
<path d="M98.5015 65.5756H80.3878C79.9888 65.5756 79.3757 65.2608 79.3228 64.9607C79.2144 64.3458 79.988 64.1707 80.3869 64.1707L98.5024 64.4759C98.9013 64.4759 99.2274 64.7231 99.2274 65.0257C99.2265 65.3284 98.9004 65.5756 98.5015 65.5756Z" fill="#F2EDF4"/>
<path d="M120.783 65.5756H102.669C102.27 65.5756 101.657 65.2608 101.604 64.9607C101.496 64.3458 102.269 64.1707 102.668 64.1707L120.784 64.4759C121.183 64.4759 121.509 64.7231 121.509 65.0257C121.508 65.3284 121.182 65.5756 120.783 65.5756Z" fill="#F2EDF4"/>
<path d="M93.7958 56.3122H80.1231C79.8221 56.3122 79.359 56.0589 79.3192 55.8179C79.2368 55.3244 79.8213 55.183 80.1222 55.183L93.7958 55.4285C94.0967 55.4285 94.343 55.6271 94.343 55.8699C94.343 56.1136 94.0967 56.3122 93.7958 56.3122Z" fill="#F2EDF4"/>
<path d="M121.558 56.3116H113.826C113.656 56.3116 113.394 56.0584 113.372 55.8173C113.326 55.3239 113.655 55.1825 113.826 55.1825L121.558 55.4279C121.728 55.4279 121.867 55.6265 121.867 55.8693C121.867 56.113 121.728 56.3116 121.558 56.3116Z" fill="#F2EDF4"/>
<path d="M111.003 56.3116H97.3307C97.0298 56.3116 96.5667 56.0584 96.5268 55.8173C96.4453 55.3239 97.0289 55.1825 97.3298 55.1825L111.003 55.4279C111.304 55.4279 111.551 55.6265 111.551 55.8693C111.551 56.113 111.304 56.3116 111.003 56.3116Z" fill="#F2EDF4"/>
<path d="M93.7959 62.2184H80.1232C79.8223 62.2184 79.3592 61.9652 79.3193 61.7241C79.2369 61.2298 79.8214 61.0893 80.1223 61.0893L93.7959 61.3347C94.0968 61.3347 94.3431 61.5333 94.3431 61.7761C94.3431 62.0198 94.0968 62.2184 93.7959 62.2184Z" fill="#F2EDF4"/>
<path d="M121.558 62.2184H113.826C113.656 62.2184 113.394 61.9652 113.372 61.7241C113.326 61.2298 113.655 61.0893 113.826 61.0893L121.558 61.3347C121.728 61.3347 121.867 61.5333 121.867 61.7761C121.867 62.0198 121.728 62.2184 121.558 62.2184Z" fill="#F2EDF4"/>
<path d="M111.003 62.2184H97.3307C97.0298 62.2184 96.5667 61.9652 96.5268 61.7241C96.4453 61.2298 97.0289 61.0893 97.3298 61.0893L111.003 61.3347C111.304 61.3347 111.551 61.5333 111.551 61.7761C111.551 62.0198 111.304 62.2184 111.003 62.2184Z" fill="#F2EDF4"/>
<path d="M156.225 100.842L136.433 102.154C134.991 102.249 133.772 101.186 133.807 99.862L134.377 78.3106C134.41 77.0678 135.54 76.0861 136.896 76.1226L156.119 76.6325C157.443 76.6672 158.498 77.661 158.498 78.8751V98.6045C158.497 99.7805 157.506 100.757 156.225 100.842Z" fill="#77BED0"/>
<path d="M150.987 99.0434H138.088C137.805 99.0434 137.368 98.7476 137.329 98.4658C137.252 97.8882 137.803 97.7234 138.087 97.7234L150.987 98.0105C151.271 98.0105 151.503 98.2429 151.503 98.5265C151.503 98.811 151.271 99.0434 150.987 99.0434Z" fill="#DAF7FF"/>
<path d="M147.636 96.6204H137.9C137.686 96.6204 137.356 96.3828 137.328 96.1564C137.27 95.6924 137.685 95.5598 137.899 95.5598L147.636 95.7904C147.851 95.7904 148.026 95.9769 148.026 96.205C148.027 96.4331 147.851 96.6204 147.636 96.6204Z" fill="#DAF7FF"/>
<path d="M126.551 99.4882L106.759 100.728C105.317 100.818 104.098 99.8134 104.133 98.5619L104.703 78.1908C104.736 77.0157 105.866 76.0887 107.222 76.1225L126.445 76.6038C127.769 76.6367 128.824 77.5759 128.824 78.7233V97.3721C128.823 98.4848 127.831 99.4075 126.551 99.4882Z" fill="#F7CA15"/>
<path d="M121.314 94.9627H108.415C108.131 94.9627 107.694 94.667 107.656 94.3851C107.579 93.8075 108.129 93.6428 108.414 93.6428L121.314 93.9298C121.597 93.9298 121.83 94.1622 121.83 94.4458C121.83 94.7303 121.597 94.9627 121.314 94.9627Z" fill="#8C63A9"/>
<path d="M121.314 97.514H108.415C108.131 97.514 107.694 97.2183 107.656 96.9364C107.579 96.3589 108.129 96.1941 108.414 96.1941L121.314 96.4811C121.597 96.4811 121.83 96.7136 121.83 96.9971C121.83 97.2816 121.597 97.514 121.314 97.514Z" fill="#8C63A9"/>
<path d="M117.963 92.539H108.226C108.012 92.539 107.683 92.3014 107.654 92.075C107.596 91.6111 108.011 91.4784 108.226 91.4784L117.963 91.7091C118.177 91.7091 118.352 91.8955 118.352 92.1236C118.352 92.3526 118.177 92.539 117.963 92.539Z" fill="#8C63A9"/>
<path d="M96.8213 100.847L77.0295 102.153C75.5873 102.249 74.3689 101.19 74.4036 99.8716L74.9733 78.413C75.0063 77.1754 76.1363 76.1981 77.4926 76.2345L96.7155 76.7418C98.0398 76.7765 99.0943 77.766 99.0943 78.9749V98.6202C99.0935 99.791 98.1022 100.763 96.8213 100.847Z" fill="#F7CA15"/>
<path d="M93.3229 85.342H80.4238C80.1402 85.342 79.7031 85.0723 79.6649 84.8156C79.5877 84.2892 80.1384 84.1392 80.4229 84.1392L93.3229 84.4011C93.6065 84.4011 93.8389 84.6127 93.8389 84.872C93.8389 85.1304 93.6065 85.342 93.3229 85.342Z" fill="#DAF7FF"/>
<path d="M93.3229 87.6678H80.4238C80.1402 87.6678 79.7031 87.3981 79.6649 87.1414C79.5877 86.615 80.1384 86.465 80.4229 86.465L93.3229 86.7269C93.6065 86.7269 93.8389 86.9385 93.8389 87.1978C93.8389 87.4562 93.6065 87.6678 93.3229 87.6678Z" fill="#DAF7FF"/>
<path d="M89.9722 83.1313H80.2358C80.0216 83.1313 79.6921 82.9145 79.6635 82.7081C79.6054 82.2849 80.0208 82.1644 80.235 82.1644L89.9722 82.3742C90.1864 82.3742 90.3616 82.5442 90.3616 82.7523C90.3616 82.9614 90.1864 83.1313 89.9722 83.1313Z" fill="#DAF7FF"/>
<path d="M93.3229 92.8888H80.4238C80.1402 92.8888 79.7031 92.619 79.6649 92.3623C79.5877 91.8359 80.1384 91.6859 80.4229 91.6859L93.3229 91.9478C93.6065 91.9478 93.8389 92.1594 93.8389 92.4187C93.8389 92.6763 93.6065 92.8888 93.3229 92.8888Z" fill="#DAF7FF"/>
<path d="M93.3229 95.2146H80.4238C80.1402 95.2146 79.7031 94.9449 79.6649 94.6882C79.5877 94.1618 80.1384 94.0117 80.4229 94.0117L93.3229 94.2736C93.6065 94.2736 93.8389 94.4852 93.8389 94.7445C93.8389 95.003 93.6065 95.2146 93.3229 95.2146Z" fill="#DAF7FF"/>
<path d="M89.9722 90.6781H80.2358C80.0216 90.6781 79.6921 90.4613 79.6635 90.2549C79.6054 89.8317 80.0208 89.7112 80.235 89.7112L89.9722 89.921C90.1864 89.921 90.3616 90.091 90.3616 90.2992C90.3616 90.5082 90.1864 90.6781 89.9722 90.6781Z" fill="#DAF7FF"/>
<path d="M177.147 112.817H53.3171C52.4134 112.817 51.6234 112.47 51.391 111.97L50.6903 110.465C50.3529 109.74 51.3147 109.029 52.6285 109.034L177.731 109.448C179.061 109.453 180.011 110.186 179.629 110.914L179.055 112.005C178.803 112.486 178.027 112.817 177.147 112.817Z" fill="#56335B"/>
<path d="M73.2813 92.222C73.6212 92.8274 77.032 98.1105 76.3183 103.278L72.6057 101.936L70.9094 94.9703L73.2813 92.222Z" fill="#F7B686"/>
<path d="M58.4569 90.0566C58.4569 90.0566 60.7377 85.9659 66.2906 87.0968C71.8434 88.2276 74.8727 96.1749 73.3671 111.916C73.3671 111.916 64.5466 108.409 53.0767 111.236C53.0758 111.235 54.9637 95.991 58.4569 90.0566Z" fill="#F2EDF4"/>
<path d="M54.2214 88.4028L58.124 92.2992C58.124 92.2992 68.1291 95.0024 70.9086 94.9703C73.6872 94.9382 74.7816 92.9071 74.7816 92.9071C74.7816 92.9071 72.4366 89.1928 67.6903 87.513C67.2446 87.3543 66.778 87.2147 66.2898 87.0976C65.4702 86.9007 64.6377 86.788 63.8104 86.7386C58.8984 86.4446 54.2214 88.4028 54.2214 88.4028Z" fill="#F2EDF4"/>
<path d="M54.2212 88.4026C53.5976 89.0808 54.5594 89.8214 55.6373 90.8976C56.7153 91.9738 57.828 92.6008 58.1237 92.299C58.4194 91.9972 57.7855 90.8802 56.7075 89.804C55.6304 88.7287 54.5074 88.0921 54.2212 88.4026Z" fill="#2F1A31"/>
<path d="M57.6053 92.3147C57.6053 92.3147 57.6634 91.5368 56.6851 90.543C56.0963 89.9446 55.3505 89.5535 54.8501 89.3367C54.5526 89.2083 54.2092 89.3523 54.0913 89.6567L53.7782 90.4632L55.2351 91.4016L57.6053 92.3147Z" fill="#F7B686"/>
<path d="M64.5015 106.746C64.5015 106.746 52.4609 100.221 48.1456 107.339C44.9507 112.609 49.7534 117.515 67.5654 117.017C67.5654 117.017 69.3258 116.192 68.8974 111.916C68.7275 110.22 64.5015 106.746 64.5015 106.746Z" fill="#8C63A9"/>
<path d="M64.5013 106.746C64.5013 106.746 80.5372 100.178 83.7104 104.284C87.3571 109.004 83.8596 117.017 66.9565 114.152L64.8968 111.916L64.5013 106.746Z" fill="#8C63A9"/>
<path d="M68.9989 113.195C68.9989 113.195 72.2718 113.324 73.9403 114.143C75.6089 114.962 74.7182 116.959 71.33 116.906C67.9417 116.852 68.1993 116.348 68.1993 116.348C68.1993 116.348 69.1385 115.194 68.9989 113.195Z" fill="#2F1A31"/>
<path d="M67.5854 117.044L67.5464 116.989C69.4161 115.654 68.914 112.228 68.8672 111.94L56.713 107.516L56.7364 107.453L68.9279 111.89L68.9314 111.909C68.9374 111.946 69.5627 115.633 67.5854 117.044Z" fill="#020202"/>
<path d="M65.2169 107.059C66.1952 107.059 67 106.812 67.6513 106.32C68.8827 105.392 69.1108 103.911 68.9321 102.926L67.7545 102.241C67.6963 101.918 65.4225 103.119 65.4268 103.118C65.4164 103.121 64.3419 103.432 60.6163 101.528C58.0224 100.203 56.7155 98.322 56.6201 95.7776C56.5482 93.8593 57.4032 92.7822 57.6044 92.3156C57.6313 92.2532 56.3513 90.9697 56.3877 90.8396L55.4277 90.3522C55.4589 90.2421 54.505 89.8657 54.5189 89.8345L53.7782 90.4649C53.4123 91.3105 52.6352 93.2514 52.7358 95.9259C52.8399 98.7045 53.9872 102.538 58.8611 105.029C61.5191 106.387 63.6048 107.059 65.2169 107.059Z" fill="#F7B686"/>
<path d="M66.0071 107.216H76.3982C76.6158 107.216 76.8092 107.078 76.8777 106.872L79.0371 100.424C79.1455 100.098 78.9027 99.7636 78.5575 99.7636H68.5654C68.1101 99.7636 67.706 100.053 67.562 100.483L65.5283 106.556C65.4191 106.88 65.6628 107.216 66.0071 107.216Z" fill="#77BED0"/>
<path d="M66.6593 107.216H77.0504C77.268 107.216 77.4606 107.078 77.53 106.872L79.6893 100.424C79.7977 100.098 79.5549 99.7636 79.2098 99.7636H69.2176C68.7623 99.7636 68.3582 100.053 68.2142 100.483L66.1806 106.556C66.0713 106.88 66.315 107.216 66.6593 107.216Z" fill="#77BED0"/>
<path d="M73.9404 103.279C73.9404 103.034 73.6576 102.935 73.4114 102.935C73.1651 102.935 72.7627 103.203 72.7653 103.546C72.7679 103.916 73.0575 103.964 73.3038 103.964C73.5501 103.964 73.9404 103.59 73.9404 103.279Z" fill="#DEEBE9"/>
<path d="M62.8365 106.304H77.0555V107.216H62.5407C62.3716 107.216 62.2355 107.079 62.2355 106.911V106.906C62.2355 106.573 62.5043 106.304 62.8365 106.304Z" fill="#77BED0"/>
<path d="M67.3982 103.024L67.3331 103.006C67.3539 102.927 67.85 101.067 68.1847 100.466C68.5238 99.8558 68.9384 99.7361 68.9557 99.7318L68.9739 99.7968C68.9696 99.7977 68.5681 99.9165 68.2437 100.499C67.9133 101.092 67.4034 103.005 67.3982 103.024Z" fill="#8C63A9"/>
<path d="M65.8622 106.338V106.271C66.2021 106.271 66.2871 106.129 66.288 106.128L67.0954 103.716L67.1596 103.738L66.3496 106.156C66.3435 106.168 66.2481 106.338 65.8622 106.338Z" fill="#8C63A9"/>
<path d="M55.8751 101.468C55.8378 101.468 55.7997 101.463 55.7598 101.453C55.536 101.393 55.2906 101.169 55.118 100.868C54.8544 100.408 54.8474 99.9308 55.1015 99.7825C55.1813 99.7365 55.2785 99.727 55.3843 99.7547C55.608 99.8146 55.8534 100.038 56.026 100.339C56.2896 100.8 56.2966 101.277 56.0425 101.425C55.993 101.454 55.9367 101.468 55.8751 101.468ZM55.2689 99.8735C55.2316 99.8735 55.1987 99.8822 55.17 99.8987C54.9871 100.005 55.0165 100.418 55.2351 100.801C55.3877 101.067 55.6071 101.272 55.7945 101.322C55.8656 101.341 55.9263 101.337 55.9748 101.308C56.1578 101.201 56.1283 100.788 55.9098 100.406C55.7572 100.14 55.5378 99.9351 55.3504 99.8848C55.3218 99.8779 55.2941 99.8735 55.2689 99.8735Z" fill="#E08B65"/>
<path d="M63.7255 86.7272C64.408 86.7073 64.9257 86.637 65.3186 86.1748L66.5336 84.7456L66.8874 84.3293L68.967 81.882L67.8743 84.7439L67.2187 86.461L67.0114 87.0047C66.87 87.3733 67.0565 87.5459 67.1883 87.9778C67.2412 88.1529 67.6002 89.2292 66.6662 89.2352C65.5024 89.2439 64.0307 87.891 63.7081 86.7237C63.7133 86.7255 63.7194 86.7272 63.7255 86.7272Z" fill="#F7B686"/>
<path d="M66.195 83.8272C66.195 83.8272 63.9047 81.6261 65.2263 79.7677C66.548 77.9101 66.8775 82.7501 66.8775 82.7501L66.5081 83.8688L66.195 83.8272Z" fill="#2F1A31"/>
<path d="M66.5445 84.6962C66.5402 84.7127 66.5367 84.7291 66.5333 84.7456C66.3208 85.7108 67.2106 86.4645 67.2106 86.4645L67.2184 86.461L67.874 84.7439C67.5956 84.5349 67.1846 84.2825 66.8862 84.3293C66.731 84.3536 66.6061 84.4603 66.5445 84.6962Z" fill="#2F1A31"/>
<path d="M71.3941 83.5004C71.9101 81.7798 71.1842 80.035 69.7706 79.6022C68.3579 79.1695 66.7935 80.2136 66.2775 81.9342C65.7606 83.6548 66.4873 85.3996 67.9009 85.8324C69.3136 86.2651 70.8772 85.221 71.3941 83.5004Z" fill="#F7B686"/>
<path d="M66.7614 81.6852C66.7614 81.6852 67.4908 82.2159 68.1021 81.7676C68.7135 81.3192 69.1463 80.8943 70.5148 81.5828C71.8833 82.2723 73.3818 81.9627 73.6593 81.1865C73.936 80.4104 73.2838 79.8163 72.4244 79.8553C71.565 79.8935 72.6065 79.4226 72.0081 78.6074C71.4097 77.7922 69.893 78.6317 69.1411 78.2275C68.3892 77.8234 65.7095 77.4722 65.2273 79.7677L66.7614 81.6852Z" fill="#2F1A31"/>
<path d="M66.1892 82.1456C66.3652 82.417 66.7026 82.5081 66.9428 82.3494C67.183 82.1907 67.235 81.8421 67.059 81.5706C66.883 81.2992 66.5456 81.2081 66.3054 81.3668C66.0652 81.5247 66.0131 81.8742 66.1892 82.1456Z" fill="#F7B686"/>
<path d="M72.1469 80.9187C71.5719 80.9187 70.7914 80.2171 70.7559 80.1841L70.8235 80.1096C70.833 80.1182 71.7436 80.9369 72.27 80.8033C72.4721 80.7522 72.5866 80.6559 72.5684 80.5536C72.551 80.4556 72.4071 80.3619 72.2033 80.3836C71.7575 80.4287 71.5164 80.2778 71.506 80.2717L71.5598 80.1876C71.5615 80.1885 71.7853 80.3264 72.1928 80.2847C72.4669 80.257 72.6412 80.394 72.6664 80.5371C72.688 80.662 72.6022 80.8233 72.2934 80.9022C72.2466 80.9135 72.1972 80.9187 72.1469 80.9187Z" fill="white"/>
<path d="M69.7821 78.9967C69.5922 78.9967 69.3962 78.969 69.2088 78.8952C68.9704 78.8016 68.764 78.6923 68.5636 78.5865C68.1751 78.381 67.8404 78.2041 67.4753 78.2752L67.4562 78.1772C67.856 78.0991 68.2055 78.2838 68.6105 78.498C68.8082 78.603 69.0128 78.7105 69.2453 78.8016C69.9416 79.0747 70.756 78.6802 70.8071 78.6377L70.88 78.7062C70.8366 78.7565 70.338 78.9967 69.7821 78.9967Z" fill="white"/>
<path d="M65.9211 79.6489C65.9063 79.6489 65.8925 79.6463 65.8803 79.6419C65.8465 79.6289 65.7953 79.5899 65.8274 79.4676L65.8344 79.452C65.8907 79.3714 66.1804 78.9768 66.3816 79.1034C66.4067 79.119 66.4614 79.1684 66.4076 79.276C66.3426 79.4087 66.0755 79.6489 65.9211 79.6489ZM65.9228 79.5015C65.9141 79.5396 65.9193 79.5509 65.9193 79.5509C65.9454 79.5587 66.0902 79.491 66.2281 79.3497C66.3261 79.2491 66.3339 79.1962 66.3304 79.1892C66.242 79.1329 66.0373 79.3402 65.9228 79.5015Z" fill="white"/>
<path d="M69.3492 82.802C69.3656 82.7993 69.3804 82.7898 69.3891 82.7742C69.4038 82.7482 69.3943 82.7144 69.3682 82.6996C69.3526 82.691 69.0144 82.4568 68.6528 82.7664C68.6302 82.7855 68.6259 82.8202 68.645 82.8436C68.6641 82.867 68.6944 82.8653 68.7213 82.8514C68.9893 82.7152 69.3032 82.7881 69.3153 82.795C69.3257 82.802 69.3379 82.8037 69.3492 82.802Z" fill="#060633"/>
<path d="M68.8479 83.3439C68.8271 83.4731 68.8861 83.5893 68.9789 83.6041C69.0717 83.6188 69.1636 83.5269 69.1835 83.3977C69.2044 83.2685 69.1454 83.1523 69.0526 83.1375C68.9598 83.1219 68.8687 83.2147 68.8479 83.3439Z" fill="#060633"/>
<path d="M71.2415 83.489C71.2536 83.4924 71.2675 83.4881 71.2796 83.4759C71.2987 83.456 71.3039 83.4222 71.2909 83.3996C71.2831 83.3866 71.1253 83.0571 70.7619 83.2271C70.7393 83.2375 70.7246 83.2687 70.7298 83.2964C70.735 83.3242 70.7576 83.3329 70.781 83.3285C71.0177 83.2895 71.2146 83.4603 71.2207 83.4707C71.2259 83.4803 71.2328 83.4864 71.2415 83.489Z" fill="#060633"/>
<path d="M70.5625 83.7942C70.4949 83.9052 70.5053 84.0362 70.5851 84.0856C70.6649 84.1351 70.7845 84.0848 70.8522 83.9737C70.9198 83.8627 70.9094 83.7318 70.8296 83.6824C70.7498 83.6321 70.6302 83.6824 70.5625 83.7942Z" fill="#060633"/>
<path d="M69.0117 85.1645C68.6856 85.1645 68.1939 85.0683 67.9017 84.5523C67.8912 84.534 67.8973 84.5106 67.9164 84.5002C67.9346 84.4898 67.958 84.4967 67.9684 84.515C68.4029 85.2825 69.3126 85.0596 69.3213 85.057C69.3421 85.0518 69.3621 85.0639 69.3673 85.0847C69.3725 85.1047 69.3603 85.1255 69.3395 85.1307C69.3369 85.1316 69.2025 85.1645 69.0117 85.1645Z" fill="#020202"/>
<path d="M67.8245 84.6868C67.8211 84.6868 67.8167 84.6859 67.8124 84.685C67.7924 84.6781 67.782 84.6573 67.7881 84.6373C67.8193 84.5428 67.9034 84.4552 68.0379 84.378C68.0552 84.3659 68.0821 84.3694 68.0942 84.3858C68.1055 84.4032 68.1046 84.4249 68.0873 84.437C68.0856 84.4379 68.0812 84.4405 68.076 84.4439C67.9295 84.5281 67.8783 84.6087 67.8609 84.6607C67.8557 84.6764 67.841 84.6868 67.8245 84.6868Z" fill="#020202"/>
<path d="M66.8862 90.8475C63.7945 90.7581 62.6767 88.0749 62.6654 88.0472L62.8215 87.9839C62.8319 88.0099 63.9116 90.5934 66.8914 90.6784L66.8862 90.8475Z" fill="#8C63A9"/>
<path d="M65.4641 92.2931C65.4485 92.2827 63.858 91.2663 63.6516 89.4382L63.819 89.4191C64.0158 91.1675 65.5378 92.1414 65.5534 92.1509L65.4641 92.2931Z" fill="#8C63A9"/>
<path d="M72.1223 92.7497L71.9625 92.8023L72.5758 94.6665L72.7356 94.6139L72.1223 92.7497Z" fill="#8C63A9"/>
<path d="M70.8669 85.638C70.6709 85.638 70.4949 85.5652 70.3518 85.4229C69.8947 84.9702 69.9164 83.9209 70.4003 83.084C70.6978 82.5689 71.1158 82.2289 71.5173 82.1752C71.7567 82.1431 71.9726 82.2151 72.1426 82.3824C72.5996 82.8351 72.5779 83.8845 72.0949 84.7214C71.7974 85.2365 71.3794 85.5764 70.9779 85.6302C70.9397 85.6354 70.9033 85.638 70.8669 85.638ZM71.6257 82.281C71.5954 82.281 71.5641 82.2827 71.5321 82.2871C71.1652 82.3365 70.7784 82.6556 70.4983 83.1404C70.0387 83.9356 70.0092 84.9234 70.4324 85.3432C70.5755 85.4854 70.7585 85.5452 70.9623 85.5183C71.3291 85.4689 71.7159 85.1498 71.996 84.665C72.4557 83.8697 72.4851 82.882 72.0628 82.4622C71.9414 82.3426 71.7922 82.281 71.6257 82.281Z" fill="white"/>
<g opacity="0.3">
<path opacity="0.3" d="M67.6782 81.8535C67.2862 82.686 67.3946 83.6989 67.9201 84.1161C68.4457 84.5332 69.188 84.1959 69.58 83.3633C69.972 82.5308 69.8636 81.5179 69.3381 81.1007C68.8125 80.6845 68.0693 81.021 67.6782 81.8535Z" fill="white"/>
</g>
<g opacity="0.3">
<path opacity="0.3" d="M70.3613 83.1507C69.9685 83.9876 70.0214 85.0023 70.4801 85.4177C70.9389 85.8331 71.6292 85.4922 72.0221 84.6554C72.4149 83.8185 72.362 82.8038 71.9033 82.3884C71.4445 81.973 70.7542 82.3139 70.3613 83.1507Z" fill="white"/>
</g>
<path d="M68.5072 84.3397C68.3016 84.3397 68.1082 84.2712 67.9365 84.1377C67.3564 83.685 67.2289 82.5932 67.6512 81.7051C67.8975 81.1865 68.2808 80.8327 68.7014 80.733C68.9902 80.6644 69.2669 80.7252 69.5001 80.9073C70.0803 81.36 70.2078 82.4518 69.7855 83.3398C69.5392 83.8584 69.1559 84.2123 68.7352 84.312C68.6589 84.3311 68.5826 84.3397 68.5072 84.3397ZM68.9295 80.8197C68.8636 80.8197 68.7968 80.8275 68.7283 80.844C68.3467 80.9342 67.9825 81.2741 67.7544 81.7546C67.3529 82.5984 67.4665 83.6278 68.0068 84.0501C68.2123 84.2105 68.4551 84.2634 68.7101 84.2036C69.0917 84.1134 69.4559 83.7735 69.684 83.293C70.0855 82.4492 69.9719 81.4198 69.4316 80.9983C69.2807 80.8795 69.1099 80.8197 68.9295 80.8197Z" fill="white"/>
<path d="M70.4289 83.5071C70.3968 83.5071 70.3664 83.4933 70.3456 83.4664C70.3352 83.4534 70.1158 83.1819 69.6406 83.1706C69.5825 83.1689 69.5365 83.1212 69.5374 83.0622C69.5391 83.0041 69.5868 82.9599 69.6458 82.959C70.2285 82.9738 70.5017 83.3224 70.513 83.3372C70.5486 83.3831 70.5399 83.4499 70.4931 83.4854C70.474 83.4993 70.4514 83.5071 70.4289 83.5071Z" fill="white"/>
<path d="M117.319 89.4637L108.104 89.7846C107.54 89.8045 107.073 89.3527 107.073 88.789V79.2174C107.073 78.6537 107.539 78.2028 108.103 78.2218L117.317 78.5297C117.854 78.5479 118.281 78.9885 118.281 79.5253V88.4681C118.281 89.004 117.855 89.4446 117.319 89.4637Z" fill="#DAF7FF"/>
<path d="M109.863 81.0987C109.863 80.5324 110.325 80.1265 110.889 80.0728C111.753 79.9912 111.969 80.6599 111.969 81.2262C111.969 81.7925 111.474 82.1663 110.741 82.1663C110.174 82.1663 109.863 81.665 109.863 81.0987Z" fill="#8C63A9"/>
<path d="M109.007 84.9666L108.133 86.8875C107.872 87.4607 108.255 88.132 108.843 88.132H116.512C117.054 88.132 117.436 87.5535 117.263 86.995L115.532 81.4006C115.308 80.6764 114.393 80.6036 114.074 81.2844L112.247 85.1851C112.012 85.6855 111.407 85.813 111.018 85.4427L110.239 84.7012C109.848 84.3274 109.238 84.4593 109.007 84.9666Z" fill="#8C63A9"/>
<path d="M152.547 93.2146L140.258 93.643C139.506 93.669 138.883 93.0672 138.883 92.3153V79.5506C138.883 78.7996 139.506 78.1969 140.257 78.222L152.545 78.6322C153.262 78.6565 153.83 79.2436 153.83 79.9608V91.886C153.83 92.6023 153.262 93.1895 152.547 93.2146Z" fill="#DAF7FF"/>
<path d="M143.814 84.0328C143.814 83.4665 144.276 83.0606 144.84 83.0068C145.704 82.9253 145.919 83.594 145.919 84.1603C145.919 84.7266 145.425 85.1003 144.692 85.1003C144.125 85.1003 143.814 84.5991 143.814 84.0328Z" fill="#F7CA15"/>
<path d="M142.958 87.9007L142.084 89.8216C141.822 90.3948 142.206 91.066 142.794 91.066H150.463C151.005 91.066 151.387 90.4876 151.214 89.9291L149.483 84.3346C149.259 83.6105 148.344 83.5377 148.025 84.2184L146.198 88.1192C145.963 88.6196 145.358 88.7471 144.969 88.3768L144.19 87.6353C143.799 87.2615 143.188 87.3933 142.958 87.9007Z" fill="#F7CA15"/>
</svg>
