<svg width="795" height="530" viewBox="0 0 795 530" fill="none" xmlns="http://www.w3.org/2000/svg">
<path d="M70.8717 229.416C70.8717 229.416 62.0207 228.78 62.8369 248.644C63.6531 268.508 65.6777 279.087 65.6777 279.087C65.6777 279.087 65.4127 283.486 62.0101 282.628C58.5969 281.758 52.1839 277.476 49.0145 280.677C45.7285 283.995 46.8945 289.094 51.2511 295.104C55.6077 301.114 64.6813 314.608 65.4975 315.827C66.3031 317.025 66.6211 319.282 64.2043 319.06C61.7875 318.848 45.4635 313.315 43.3117 321.212C41.1493 329.109 56.0423 343.843 57.6429 345.486C59.2435 347.129 59.3283 348.167 58.6817 349.153C58.0351 350.15 52.7245 347.775 48.0181 346.387C43.3117 345.009 37.6089 344.224 36.7503 348.888C35.8811 353.552 42.4425 367.194 67.0027 381.536L78.8217 387.44L90.0047 380.307C113.007 363.58 118.169 349.344 116.844 344.797C115.519 340.239 109.922 341.585 105.385 343.44C100.838 345.284 95.7923 348.178 95.0503 347.256C94.3083 346.334 94.2871 345.295 95.7181 343.503C97.1385 341.712 110.484 325.568 107.548 317.926C104.611 310.283 88.9235 317.417 86.5385 317.873C84.1535 318.328 84.2489 316.06 84.9273 314.777C85.6163 313.474 93.2907 299.142 97.0219 292.729C100.764 286.316 101.41 281.133 97.8063 278.154C94.3295 275.282 88.3829 280.19 85.0757 281.387C81.7685 282.585 81.0689 278.229 81.0689 278.229C81.0689 278.229 82.0229 267.501 80.8463 247.658C79.6697 227.815 70.7127 229.416 70.7127 229.416" fill="#EBEBEB"/>
<path d="M71.5714 247.202C71.5714 247.202 71.5926 247.34 71.6138 247.616C71.635 247.913 71.6668 248.315 71.7092 248.835C71.7834 249.927 71.8894 251.506 72.0272 253.52C72.3028 257.59 72.642 263.495 73.0448 270.777C73.8504 285.352 74.8044 305.502 75.769 327.752C76.7442 350.012 77.6346 370.162 78.366 384.737C78.737 392.009 79.0338 397.903 79.2458 402.005C79.3412 404.029 79.426 405.609 79.479 406.701C79.5002 407.22 79.5214 407.623 79.532 407.92C79.5426 408.195 79.532 408.333 79.532 408.333C79.532 408.333 79.5108 408.195 79.4896 407.92C79.4684 407.623 79.4366 407.22 79.3942 406.701C79.32 405.609 79.214 404.029 79.0762 402.015C78.8006 397.945 78.4614 392.041 78.0586 384.759C77.253 370.184 76.299 350.033 75.3344 327.773C74.3592 305.524 73.4688 285.373 72.7374 270.798C72.3664 263.526 72.0696 257.633 71.8576 253.531C71.7622 251.506 71.6774 249.927 71.6244 248.835C71.6032 248.315 71.582 247.913 71.5714 247.616C71.5608 247.34 71.5714 247.202 71.5714 247.202Z" fill="#E0E0E0"/>
<path d="M57.7382 287.027C57.7594 287.006 58.0244 287.228 58.4696 287.642C58.9254 288.055 59.5614 288.67 60.3458 289.444C61.904 290.991 64.0028 293.175 66.2712 295.634C68.4866 298.061 70.5006 300.256 72.0482 301.962C72.7372 302.715 73.3202 303.351 73.8078 303.87C74.2212 304.315 74.4438 304.58 74.4226 304.602C74.4014 304.623 74.1364 304.411 73.6806 303.997C73.2248 303.584 72.5888 302.969 71.815 302.185C70.2674 300.627 68.2004 298.411 65.932 295.952C63.6954 293.546 61.6708 291.362 60.1126 289.677C59.4236 288.935 58.83 288.299 58.3424 287.779C57.9396 287.302 57.717 287.048 57.7382 287.027Z" fill="#E0E0E0"/>
<path d="M75.6099 304.209C75.5251 304.125 79.8393 299.598 85.2665 294.097C90.6831 288.606 95.1563 284.218 95.2411 284.302C95.3259 284.387 91.0117 288.913 85.5845 294.415C80.1573 299.906 75.6947 304.294 75.6099 304.209Z" fill="#E0E0E0"/>
<path d="M75.5569 338.447C75.5463 338.415 75.8325 338.235 76.3837 337.928C77.0197 337.578 77.7829 337.143 78.6945 336.635C80.6449 335.543 83.3373 334.016 86.2417 332.225C89.1567 330.444 91.7325 328.748 93.5875 327.497C94.4567 326.914 95.1881 326.427 95.7923 326.024C96.3117 325.685 96.6191 325.505 96.6297 325.526C96.6509 325.547 96.3859 325.78 95.8877 326.162C95.4001 326.554 94.6687 327.095 93.7677 327.752C91.9551 329.066 89.3899 330.815 86.4749 332.596C83.5599 334.387 80.8357 335.871 78.8429 336.9C77.8465 337.408 77.0303 337.811 76.4579 338.076C75.8961 338.341 75.5675 338.479 75.5569 338.447Z" fill="#E0E0E0"/>
<path d="M55.9786 326.469C55.9892 326.438 56.286 326.575 56.7948 326.851C57.3036 327.127 58.035 327.529 58.936 328.038C60.738 329.056 63.2078 330.497 65.9214 332.109C68.635 333.72 71.0836 335.204 72.8326 336.296C73.7124 336.847 74.4226 337.292 74.8996 337.61C75.3872 337.928 75.6416 338.119 75.631 338.14C75.6098 338.172 75.3236 338.034 74.8148 337.758C74.306 337.483 73.5746 337.08 72.6736 336.571C70.8716 335.554 68.4018 334.112 65.6882 332.501C62.9746 330.89 60.5366 329.406 58.777 328.314C57.8972 327.763 57.187 327.317 56.71 326.999C56.2224 326.681 55.968 326.491 55.9786 326.469Z" fill="#E0E0E0"/>
<path d="M52.0991 356.69C52.1097 356.658 52.4807 356.838 53.1379 357.188C53.8693 357.591 54.7915 358.1 55.8833 358.704C58.1941 359.997 61.3741 361.82 64.8721 363.855C68.3701 365.891 71.5183 367.756 73.7973 369.124C74.8679 369.781 75.7689 370.332 76.4791 370.767C77.1045 371.159 77.4437 371.392 77.4331 371.424C77.4225 371.456 77.0515 371.275 76.3943 370.926C75.6629 370.523 74.7407 370.014 73.6489 369.41C71.3381 368.117 68.1581 366.293 64.6601 364.258C61.1621 362.223 58.0139 360.357 55.7349 358.99C54.6643 358.333 53.7633 357.782 53.0531 357.347C52.4171 356.944 52.0779 356.722 52.0991 356.69Z" fill="#E0E0E0"/>
<path d="M76.9138 370.904C76.9032 370.873 77.2636 370.629 77.942 370.215C78.6946 369.76 79.6592 369.166 80.8146 368.466C83.242 366.993 86.581 364.937 90.2062 362.573C93.842 360.209 97.0644 357.994 99.3964 356.372C100.509 355.598 101.432 354.951 102.163 354.453C102.82 354.008 103.191 353.764 103.212 353.796C103.234 353.817 102.894 354.103 102.269 354.602C101.644 355.1 100.732 355.799 99.5872 356.637C97.3082 358.333 94.0964 360.591 90.4606 362.965C86.8248 365.339 83.454 367.343 80.9842 368.753C79.744 369.452 78.737 370.014 78.0374 370.374C77.3272 370.735 76.935 370.936 76.9138 370.904Z" fill="#E0E0E0"/>
<path d="M94.6792 391.299H61.9888L72.6524 472.071H84.005L94.6792 391.299Z" fill="#E0E0E0"/>
<path d="M63.6849 401.231C63.6743 401.242 63.7167 401.348 63.8545 401.517C63.9923 401.687 64.2467 401.91 64.6389 402.079C65.4127 402.418 66.7801 402.44 68.0945 401.655C69.4195 400.924 70.5643 399.493 72.3345 398.867C74.0941 398.2 76.2671 398.316 78.3447 398.984C80.4541 399.641 82.2879 400.701 83.9415 401.698C85.6057 402.683 87.1321 403.574 88.4889 404.136C89.8457 404.729 91.0329 405.005 91.8491 405.111C92.2625 405.164 92.5805 405.185 92.7925 405.174C93.0151 405.174 93.1211 405.164 93.1211 405.143C93.1423 405.037 91.2661 405.047 88.6373 403.786C87.3123 403.182 85.8389 402.281 84.1853 401.263C82.5423 400.245 80.6661 399.132 78.4931 398.465C76.3413 397.776 74.0305 397.648 72.1437 398.39C71.2003 398.751 70.4159 399.313 69.7587 399.864C69.0909 400.415 68.4973 400.934 67.8825 401.316C66.6847 402.09 65.4339 402.122 64.7025 401.867C63.9711 401.623 63.7273 401.178 63.6849 401.231Z" fill="#F5F5F5"/>
<path d="M64.872 416.103C64.9144 416.135 65.1264 415.774 65.6458 415.234C66.1652 414.714 67.0132 414.036 68.2534 413.58C69.483 413.114 71.0518 412.827 72.8008 412.891C74.5498 412.955 76.4578 413.336 78.493 413.665C80.5176 414.004 82.521 414.152 84.323 413.909C86.1144 413.675 87.6726 413.167 88.9022 412.605C90.1424 412.043 91.054 411.418 91.6582 410.962C92.2624 410.506 92.5486 410.199 92.5274 410.177C92.4638 410.093 91.2024 411.216 88.7432 412.255C87.5136 412.764 85.9978 413.23 84.2488 413.421C82.5104 413.633 80.5812 413.474 78.5672 413.145C76.5532 412.817 74.6134 412.446 72.8114 412.403C70.9988 412.361 69.3664 412.69 68.105 413.23C66.833 413.75 65.9744 414.513 65.4868 415.096C65.2536 415.403 65.084 415.636 64.9886 415.817C64.9038 415.997 64.8614 416.092 64.872 416.103Z" fill="#F5F5F5"/>
<path d="M90.9799 424.063C90.9905 424.042 90.6937 423.83 90.0789 423.597C89.4747 423.353 88.5418 423.109 87.3652 423.014C86.1993 422.919 84.7894 422.993 83.2736 423.247C81.7473 423.491 80.1149 423.915 78.3977 424.275C76.6805 424.636 75.0269 424.88 73.5323 424.827C72.0377 424.774 70.7021 424.445 69.6633 423.989C67.5645 423.067 66.8119 421.721 66.7271 421.806C66.7059 421.816 66.8543 422.155 67.2783 422.664C67.7023 423.162 68.4337 423.809 69.4937 424.339C70.5537 424.858 71.9317 425.24 73.5005 425.325C75.0587 425.41 76.7653 425.176 78.5037 424.805C80.2421 424.434 81.8639 424 83.3478 423.735C84.8424 423.459 86.1993 423.353 87.3441 423.396C89.6337 423.47 90.9375 424.159 90.9799 424.063Z" fill="#F5F5F5"/>
<path d="M67.7657 435.268C67.7763 435.353 68.9317 434.536 70.9351 434.95C71.9209 435.13 73.0233 435.628 74.2529 436.19C75.4825 436.762 76.9665 437.261 78.5671 437.377C81.7789 437.685 84.6303 436.646 86.3899 435.565C87.2909 435.035 87.9163 434.462 88.3403 434.07C88.7431 433.646 88.9445 433.402 88.9127 433.381C88.8385 433.307 87.9799 434.271 86.1991 435.247C84.4501 436.211 81.6941 437.155 78.6201 436.858C75.5249 436.678 73.1505 434.833 70.9987 434.589C69.9493 434.43 69.0801 434.579 68.5289 434.801C67.9777 435.003 67.7445 435.247 67.7657 435.268Z" fill="#F5F5F5"/>
<path d="M69.5889 450.775C69.5889 450.839 70.6807 450.828 72.3131 450.235C73.9561 449.684 75.9913 448.422 78.3657 447.479C79.5529 447.023 80.7507 446.747 81.8425 446.747C82.9343 446.747 83.8989 447.023 84.6409 447.383C86.1461 448.136 86.5807 449.196 86.6655 449.122C86.6867 449.111 86.6231 448.846 86.3581 448.433C86.0931 448.019 85.5949 447.489 84.8211 447.044C84.0579 446.61 83.0297 446.281 81.8531 446.249C80.6765 446.217 79.4151 446.504 78.1855 446.97C75.7263 447.956 73.7547 449.249 72.1859 449.874C70.6277 450.542 69.5783 450.691 69.5889 450.775Z" fill="#F5F5F5"/>
<path d="M71.1896 457.983C71.1684 458.047 71.9528 458.333 73.2566 458.651C74.5604 458.98 76.3836 459.319 78.4294 459.52C80.4752 459.722 82.3302 459.732 83.6764 459.669C85.0226 459.605 85.8388 459.478 85.8388 459.414C85.8282 459.255 82.521 459.393 78.4824 458.99C74.4438 458.609 71.232 457.824 71.1896 457.983Z" fill="#F5F5F5"/>
<path d="M733.711 57.4307L673.535 35.8279L613.942 57.1445C606.331 60.7379 599.663 62.8897 599.663 69.9811V105.268C599.663 129.776 606.087 154.06 619.295 175.504C630.414 193.545 647.628 212.127 674.128 223.935C698.487 216.017 716.677 194.923 727.786 176.882C740.993 155.438 747.417 131.154 747.417 106.646V74.9101C747.417 64.7977 742.053 59.8687 733.711 57.4307Z" fill="#F5F5F5"/>
<path d="M674.118 203.446C653.151 194.107 639.53 179.097 630.732 164.819C620.28 147.859 615.203 128.641 615.203 109.254V84.5031C615.203 78.8957 618.584 73.6381 625.305 70.5111L673.545 52.4699L673.535 35.8279L613.942 57.1445C607.688 59.8793 599.663 62.8897 599.663 69.9811V105.268C599.663 129.776 606.087 154.06 619.295 175.504C630.414 193.545 647.628 212.127 674.128 223.935V203.446H674.118Z" fill="#EBEBEB"/>
<path d="M674.118 223.925C678.337 222.515 682.216 220.883 685.937 218.858C695.933 213.42 704.455 205.937 710.953 199.174C718.224 191.605 723.652 183.433 728.358 175.79C741.566 154.346 747.989 130.062 747.406 104.887L747.438 75.7475C747.406 61.2361 739.965 60.1655 733.7 57.4413L673.535 35.8279L673.545 52.4699L722.348 70.7973C729.068 73.9349 732.45 79.1819 732.45 84.7893V109.54C732.45 128.928 727.372 148.145 716.921 165.105C708.123 179.384 695.095 194.096 674.128 203.446V223.925H674.118Z" fill="#E0E0E0"/>
<path d="M689.498 107.664L689.562 102.905C689.562 94.2869 682.555 87.2803 673.938 87.2803C665.32 87.2803 658.313 94.2869 658.313 102.883L658.25 107.738C654.031 108.364 650.798 111.989 650.798 116.377V144.467C650.798 149.301 654.709 153.212 659.543 153.212H688.703C693.537 153.212 697.448 149.301 697.448 144.467V116.377C697.448 111.809 693.95 108.067 689.498 107.664ZM678.103 137.471H670.471L671.659 131.959C670.334 131.143 669.454 129.68 669.454 128.005C669.454 125.44 671.531 123.352 674.107 123.352C676.672 123.352 678.761 125.43 678.761 128.005C678.761 129.617 677.944 131.037 676.704 131.864C677.245 134.005 678.103 137.471 678.103 137.471ZM686.128 107.622H661.61L661.673 102.894C661.673 96.1313 667.175 90.6405 673.927 90.6405C680.69 90.6405 686.181 96.1419 686.181 102.873L686.128 107.622Z" fill="#E0E0E0"/>
<path d="M624.955 107.325C624.817 107.346 624.404 105.491 624.054 102.438C623.694 99.396 623.429 95.1454 623.566 90.4602C623.63 88.1176 623.789 85.8916 624.001 83.867C624.192 81.853 624.563 79.9556 625.347 78.5458C626.11 77.1254 627.181 76.2774 627.987 75.8958C628.803 75.5142 629.312 75.5354 629.322 75.5884C629.428 75.7156 627.287 76.1396 626.015 78.8744C625.39 80.1994 625.114 81.959 624.976 83.9518C624.817 85.9552 624.69 88.1706 624.626 90.492C624.489 95.1348 624.637 99.3324 624.807 102.375C624.955 105.417 625.114 107.304 624.955 107.325Z" fill="white"/>
<path d="M625.845 122.684C625.559 122.695 625.294 121.243 625.252 119.441C625.22 117.649 625.421 116.186 625.718 116.176C626.004 116.165 626.269 117.617 626.312 119.419C626.333 121.221 626.132 122.674 625.845 122.684Z" fill="white"/>
<path d="M760.677 472.135C760.677 472.283 598.879 472.41 399.334 472.41C199.715 472.41 37.948 472.283 37.948 472.135C37.948 471.986 199.715 471.859 399.334 471.859C598.868 471.859 760.677 471.986 760.677 472.135Z" fill="#263238"/>
<path d="M631.718 65.7837H171.752C163.823 65.7837 157.399 72.2073 157.399 80.1361V405.015C157.399 412.944 163.823 419.378 171.752 419.378H348.284C348.284 419.378 359.51 454.104 324.699 472.071H489.762C489.762 472.071 450.458 458.598 460.57 419.378H631.718C639.646 419.378 646.07 412.955 646.07 405.026V80.1361C646.07 72.2073 639.646 65.7837 631.718 65.7837Z" fill="#455A64"/>
<path d="M407.877 385.204C414.131 394.15 404.337 403.934 395.401 397.68C395.104 397.468 394.839 397.203 394.627 396.906C388.384 387.971 398.168 378.187 407.104 384.43C407.4 384.642 407.665 384.918 407.877 385.204Z" fill="#263238"/>
<path d="M638.152 359.944H165.307V82.0122C165.307 76.3306 169.907 71.7302 175.589 71.7302H627.87C633.551 71.7302 638.152 76.3306 638.152 82.0122V359.944Z" fill="white"/>
<path d="M638.152 95.6756H165.307V81.4292C165.307 76.0656 169.653 71.7302 175.006 71.7302H630.181C634.579 71.7302 638.152 75.2918 638.152 79.7014V95.6756Z" fill="#EBEBEB"/>
<path d="M180.37 87.5243C182.202 87.5243 183.687 86.0388 183.687 84.2065C183.687 82.3741 182.202 80.8887 180.37 80.8887C178.537 80.8887 177.052 82.3741 177.052 84.2065C177.052 86.0388 178.537 87.5243 180.37 87.5243Z" fill="#E0E0E0"/>
<path d="M190.27 87.5243C192.102 87.5243 193.588 86.0388 193.588 84.2065C193.588 82.3741 192.102 80.8887 190.27 80.8887C188.438 80.8887 186.952 82.3741 186.952 84.2065C186.952 86.0388 188.438 87.5243 190.27 87.5243Z" fill="#E0E0E0"/>
<path d="M199.683 87.5243C201.515 87.5243 203.001 86.0388 203.001 84.2065C203.001 82.3741 201.515 80.8887 199.683 80.8887C197.85 80.8887 196.365 82.3741 196.365 84.2065C196.365 86.0388 197.85 87.5243 199.683 87.5243Z" fill="#E0E0E0"/>
<path d="M549.483 419.421C549.483 419.569 484.028 419.696 403.309 419.696C322.558 419.696 257.124 419.569 257.124 419.421C257.124 419.272 322.569 419.145 403.309 419.145C484.028 419.145 549.483 419.272 549.483 419.421Z" fill="#263238"/>
<path d="M474.764 136.231L402.662 109.678L331.271 135.881C322.155 140.302 314.163 142.941 314.163 151.654V195.019C314.163 225.133 321.858 254.972 337.684 281.313C350.998 303.478 371.625 326.31 403.372 340.822C432.554 331.102 454.337 305.174 467.661 283.009C483.487 256.668 491.183 226.819 491.183 196.715V157.717C491.172 145.284 484.759 139.22 474.764 136.231Z" fill="#8C63A9"/>
<g opacity="0.8">
<g opacity="0.8">
<g opacity="0.8">
<path opacity="0.8" d="M474.764 136.231L402.662 109.678L331.271 135.881C322.155 140.302 314.163 142.941 314.163 151.654V195.019C314.163 225.133 321.858 254.972 337.684 281.313C350.998 303.478 371.625 326.31 403.372 340.822C432.554 331.102 454.337 305.174 467.661 283.009C483.487 256.668 491.183 226.819 491.183 196.715V157.717C491.172 145.284 484.759 139.22 474.764 136.231Z" fill="white"/>
</g>
</g>
</g>
<path d="M446.695 246.005H433.445V173.904C433.445 156.933 419.633 143.121 402.662 143.121C385.692 143.121 371.88 156.933 371.88 173.904V246.005H358.63V173.904C358.63 149.63 378.378 129.882 402.652 129.882C426.926 129.882 446.674 149.63 446.674 173.904V246.005H446.695Z" fill="#8C63A9"/>
<g opacity="0.4">
<g opacity="0.4">
<path opacity="0.4" d="M446.695 246.005H433.445V173.904C433.445 156.933 419.633 143.121 402.662 143.121C385.692 143.121 371.88 156.933 371.88 173.904V246.005H358.63V173.904C358.63 149.63 378.378 129.882 402.652 129.882C426.926 129.882 446.674 149.63 446.674 173.904V246.005H446.695Z" fill="black"/>
</g>
</g>
<path d="M455.842 290.069H349.493C346.09 290.069 343.334 287.313 343.334 283.911V220.099C343.334 216.696 346.09 213.94 349.493 213.94H455.842C459.245 213.94 462.001 216.696 462.001 220.099V283.911C462.001 287.303 459.245 290.069 455.842 290.069Z" fill="#8C63A9"/>
<g opacity="0.5">
<path opacity="0.5" d="M412.584 242.083C412.584 236.603 408.143 232.161 402.662 232.161C397.182 232.161 392.741 236.603 392.741 242.083C392.741 246.62 395.804 250.393 399.949 251.58V266.41H405.365V251.58C409.531 250.393 412.584 246.609 412.584 242.083Z" fill="black"/>
</g>
<path d="M349.662 282.84C349.387 282.84 349.175 270.141 349.175 254.485C349.175 238.818 349.397 226.13 349.662 226.13C349.938 226.13 350.15 238.829 350.15 254.485C350.15 270.152 349.938 282.84 349.662 282.84Z" fill="#FAFAFA"/>
<path d="M394.903 254.792C394.871 254.845 394.437 254.633 393.737 254.135C393.038 253.637 392.105 252.778 391.182 251.528C389.327 249.1 387.642 244.691 388.744 239.931C389.9 235.182 393.387 232.002 396.122 230.667C397.511 229.967 398.73 229.617 399.578 229.48C400.426 229.342 400.903 229.352 400.913 229.416C400.956 229.607 399.037 229.787 396.461 231.282C393.928 232.713 390.769 235.776 389.699 240.164C388.681 244.553 390.133 248.719 391.755 251.135C393.377 253.626 395.02 254.644 394.903 254.792Z" fill="#FAFAFA"/>
<path d="M491.798 324C491.798 324 492.084 323.597 492.656 322.844C492.805 322.653 492.964 322.441 493.144 322.208C493.303 321.964 493.451 321.678 493.632 321.371C493.981 320.756 494.416 320.067 494.723 319.187C494.893 318.753 495.094 318.307 495.264 317.82C495.402 317.322 495.55 316.802 495.699 316.251C495.879 315.71 495.964 315.117 496.059 314.502C496.144 313.887 496.303 313.251 496.324 312.573C496.61 309.88 496.441 306.743 495.9 303.277C494.829 296.323 491.872 288.129 487.356 279.225C482.851 270.3 476.64 260.707 469.018 250.711C461.386 240.705 452.217 230.37 441.67 219.992C431.113 209.626 419.167 199.216 405.768 189.348C399.069 184.419 391.999 179.649 384.547 175.144C377.106 170.639 369.251 166.431 360.973 162.784C352.694 159.18 343.96 156.053 334.748 154.559C330.158 153.848 325.42 153.509 320.767 154.219C318.445 154.58 316.156 155.205 314.015 156.18C311.895 157.209 309.955 158.587 308.344 160.325C306.796 162.116 305.651 164.205 304.856 166.431C304.146 168.678 303.764 171.02 303.68 173.363C303.499 178.069 304.379 182.744 305.609 187.228C308.132 196.217 312.244 204.538 316.76 212.36C321.329 220.173 326.395 227.497 331.727 234.377C337.048 241.267 342.603 247.754 348.253 253.849C359.584 266.039 371.286 276.724 382.787 286.03C394.299 295.327 405.609 303.266 416.421 309.7C427.223 316.134 437.462 321.212 446.843 324.678C456.203 328.155 464.672 330.148 471.7 330.423C475.209 330.561 478.346 330.381 480.986 329.787C481.654 329.692 482.268 329.448 482.873 329.3C483.477 329.141 484.049 328.982 484.569 328.738C485.099 328.526 485.597 328.324 486.084 328.134C486.551 327.911 486.964 327.657 487.378 327.434C488.215 327.031 488.851 326.522 489.413 326.098C489.688 325.886 489.964 325.706 490.187 325.515C490.399 325.314 490.589 325.123 490.759 324.964C491.437 324.328 491.798 324 491.798 324C491.798 324 491.459 324.349 490.791 325.028C490.621 325.197 490.43 325.388 490.218 325.59C489.996 325.78 489.731 325.971 489.445 326.183C488.883 326.607 488.247 327.127 487.409 327.54C487.007 327.763 486.583 328.017 486.116 328.25C485.639 328.452 485.13 328.653 484.6 328.876C484.081 329.119 483.498 329.278 482.894 329.448C482.29 329.607 481.675 329.851 480.996 329.946C478.346 330.561 475.188 330.762 471.668 330.635C464.609 330.391 456.097 328.42 446.705 324.964C437.293 321.519 427.032 316.463 416.199 310.039C405.355 303.605 394.023 295.676 382.48 286.391C370.958 277.084 359.224 266.399 347.86 254.199C342.189 248.093 336.624 241.606 331.293 234.705C325.95 227.815 320.862 220.469 316.283 212.636C311.746 204.792 307.612 196.439 305.068 187.376C303.839 182.861 302.938 178.144 303.118 173.352C303.203 170.957 303.595 168.572 304.326 166.261C305.132 163.982 306.33 161.82 307.92 159.965C309.584 158.163 311.598 156.742 313.771 155.682C315.976 154.686 318.318 154.039 320.682 153.679C325.42 152.958 330.211 153.308 334.833 154.029C344.119 155.534 352.885 158.682 361.195 162.297C369.495 165.954 377.36 170.172 384.823 174.699C392.285 179.214 399.366 184.005 406.076 188.945C419.485 198.835 431.441 209.276 441.999 219.674C452.546 230.084 461.715 240.44 469.336 250.478C476.958 260.506 483.148 270.141 487.643 279.098C492.137 288.034 495.073 296.259 496.123 303.255C496.642 306.743 496.812 309.902 496.504 312.605C496.483 313.283 496.303 313.919 496.218 314.544C496.123 315.159 496.027 315.753 495.836 316.304C495.677 316.855 495.529 317.385 495.391 317.883C495.211 318.371 495.01 318.816 494.829 319.251C494.511 320.131 494.066 320.82 493.706 321.434C493.526 321.731 493.377 322.028 493.208 322.272C493.027 322.505 492.858 322.717 492.709 322.897C492.105 323.629 491.798 324 491.798 324Z" fill="#8C63A9"/>
<path d="M525.728 242.093C525.728 242.093 525.675 241.606 525.601 240.662C525.58 240.429 525.559 240.164 525.537 239.867C525.495 239.581 525.41 239.263 525.347 238.924C525.198 238.235 525.06 237.429 524.711 236.571C524.552 236.136 524.403 235.67 524.212 235.193C523.979 234.726 523.746 234.239 523.492 233.73C523.258 233.211 522.94 232.702 522.601 232.182C522.251 231.663 521.955 231.08 521.52 230.561C519.941 228.356 517.725 226.13 515.012 223.904C509.584 219.431 501.931 215.275 492.635 211.64C483.328 207.983 472.315 204.951 459.966 202.566C447.617 200.181 433.89 198.57 419.113 197.849C404.337 197.139 388.49 197.33 371.922 198.877C363.644 199.662 355.185 200.806 346.631 202.407C338.076 203.997 329.416 206.085 320.809 208.873C312.234 211.703 303.626 215.169 295.761 220.194C291.86 222.717 288.097 225.621 285.098 229.246C283.603 231.059 282.32 233.052 281.356 235.203C280.465 237.387 279.925 239.708 279.882 242.072C279.925 244.436 280.455 246.768 281.345 248.941C282.31 251.093 283.582 253.086 285.087 254.898C288.087 258.534 291.85 261.428 295.751 263.961C303.616 268.986 312.223 272.462 320.798 275.293C329.406 278.08 338.066 280.169 346.62 281.759C355.174 283.359 363.633 284.504 371.912 285.288C388.479 286.836 404.326 287.027 419.103 286.317C433.879 285.596 447.606 283.985 459.955 281.6C472.304 279.215 483.318 276.183 492.624 272.526C501.921 268.89 509.574 264.735 515.001 260.262C517.715 258.036 519.93 255.81 521.509 253.605C521.944 253.086 522.241 252.503 522.591 251.983C522.93 251.464 523.258 250.955 523.481 250.436C523.735 249.927 523.979 249.439 524.202 248.973C524.393 248.496 524.541 248.029 524.7 247.595C525.05 246.736 525.188 245.931 525.336 245.242C525.41 244.902 525.484 244.584 525.527 244.298C525.548 244.001 525.569 243.736 525.59 243.503C525.675 242.57 525.728 242.093 525.728 242.093C525.728 242.093 525.718 242.581 525.654 243.524C525.643 243.768 525.622 244.033 525.601 244.319C525.569 244.616 525.484 244.924 525.421 245.273C525.283 245.962 525.156 246.779 524.806 247.648C524.647 248.082 524.509 248.559 524.318 249.036C524.096 249.503 523.852 250.001 523.608 250.51C523.375 251.04 523.057 251.549 522.718 252.079C522.368 252.598 522.071 253.192 521.637 253.711C520.068 255.937 517.842 258.184 515.139 260.431C509.701 264.947 502.048 269.145 492.741 272.812C483.424 276.501 472.4 279.564 460.04 281.981C447.67 284.398 433.932 286.03 419.135 286.772C404.337 287.504 388.469 287.334 371.869 285.797C363.569 285.013 355.1 283.879 346.525 282.278C337.949 280.688 329.268 278.6 320.629 275.801C312.022 272.971 303.383 269.484 295.454 264.417C291.521 261.862 287.716 258.937 284.663 255.248C283.137 253.404 281.833 251.358 280.847 249.153C279.935 246.916 279.384 244.51 279.342 242.062C279.384 239.613 279.935 237.217 280.858 234.97C281.843 232.755 283.158 230.72 284.684 228.875C287.748 225.186 291.553 222.261 295.475 219.717C303.404 214.661 312.043 211.173 320.65 208.343C329.278 205.545 337.96 203.456 346.535 201.866C355.111 200.266 363.58 199.132 371.88 198.347C388.469 196.81 404.348 196.641 419.135 197.372C433.932 198.114 447.67 199.746 460.04 202.163C472.4 204.58 483.434 207.643 492.752 211.332C502.058 215.01 509.722 219.197 515.149 223.713C517.863 225.96 520.078 228.207 521.658 230.433C522.092 230.953 522.389 231.546 522.739 232.066C523.078 232.596 523.396 233.105 523.629 233.635C523.884 234.154 524.117 234.642 524.34 235.108C524.53 235.585 524.679 236.062 524.827 236.497C525.177 237.366 525.304 238.171 525.442 238.871C525.506 239.221 525.59 239.528 525.622 239.825C525.643 240.122 525.654 240.387 525.675 240.62C525.718 241.606 525.728 242.093 525.728 242.093Z" fill="#8C63A9"/>
<path d="M480.774 140.132C480.774 140.132 480.36 139.878 479.565 139.358C479.364 139.231 479.141 139.083 478.897 138.924C478.643 138.775 478.346 138.648 478.028 138.5C477.392 138.192 476.671 137.811 475.781 137.567C475.336 137.429 474.88 137.259 474.382 137.122C473.873 137.016 473.343 136.91 472.781 136.793C472.23 136.655 471.636 136.602 471.011 136.549C470.386 136.507 469.75 136.39 469.071 136.411C466.368 136.305 463.241 136.698 459.828 137.482C452.959 139.03 444.999 142.538 436.423 147.658C427.837 152.767 418.689 159.625 409.234 167.915C399.779 176.214 390.101 186.072 380.476 197.308C370.862 208.555 361.301 221.19 352.376 235.235C347.924 242.263 343.641 249.641 339.666 257.389C335.681 265.127 332.024 273.247 328.96 281.759C325.939 290.27 323.417 299.196 322.569 308.492C322.176 313.124 322.166 317.873 323.183 322.473C323.703 324.763 324.487 326.999 325.6 329.077C326.777 331.112 328.282 332.967 330.126 334.451C332.024 335.872 334.186 336.879 336.455 337.504C338.744 338.055 341.108 338.278 343.461 338.204C348.168 338.055 352.768 336.857 357.156 335.331C365.944 332.193 373.968 327.519 381.462 322.473C388.946 317.385 395.899 311.82 402.397 306.033C408.906 300.256 414.99 294.267 420.682 288.203C432.056 276.066 441.914 263.643 450.405 251.538C458.885 239.412 466.018 227.582 471.7 216.357C477.382 205.131 481.738 194.574 484.547 184.981C487.367 175.409 488.777 166.812 488.565 159.784C488.459 156.276 488.066 153.159 487.293 150.562C487.155 149.905 486.869 149.312 486.678 148.718C486.476 148.124 486.275 147.563 485.999 147.064C485.756 146.556 485.512 146.057 485.289 145.602C485.035 145.156 484.749 144.754 484.505 144.361C484.038 143.556 483.487 142.952 483.042 142.422C482.809 142.157 482.618 141.902 482.406 141.69C482.183 141.489 481.993 141.319 481.812 141.15C481.123 140.471 480.774 140.132 480.774 140.132C480.774 140.132 481.145 140.439 481.865 141.065C482.046 141.224 482.247 141.393 482.47 141.595C482.682 141.807 482.883 142.061 483.116 142.326C483.572 142.856 484.144 143.46 484.611 144.266C484.865 144.658 485.151 145.061 485.406 145.506C485.639 145.973 485.883 146.46 486.137 146.98C486.413 147.488 486.625 148.05 486.826 148.644C487.028 149.237 487.314 149.831 487.452 150.499C488.247 153.106 488.66 156.233 488.787 159.753C489.031 166.812 487.642 175.441 484.855 185.044C482.067 194.669 477.731 205.258 472.06 216.516C466.389 227.773 459.266 239.634 450.786 251.782C442.296 263.919 432.438 276.363 421.053 288.532C415.35 294.606 409.266 300.605 402.747 306.404C396.239 312.212 389.264 317.788 381.77 322.897C374.254 327.964 366.209 332.66 357.347 335.819C352.927 337.366 348.284 338.575 343.482 338.734C341.087 338.808 338.681 338.585 336.327 338.013C333.995 337.366 331.759 336.327 329.798 334.854C327.89 333.317 326.332 331.409 325.123 329.31C323.978 327.18 323.173 324.89 322.653 322.558C321.615 317.873 321.636 313.082 322.028 308.418C322.887 299.047 325.431 290.09 328.462 281.557C331.536 273.024 335.204 264.883 339.211 257.135C343.196 249.376 347.489 241.987 351.952 234.949C360.898 220.893 370.491 208.248 380.127 197.001C389.783 185.765 399.493 175.907 408.98 167.607C418.467 159.318 427.646 152.47 436.264 147.372C444.871 142.263 452.874 138.775 459.775 137.249C463.22 136.486 466.358 136.104 469.071 136.231C469.75 136.21 470.396 136.337 471.022 136.38C471.647 136.433 472.241 136.496 472.802 136.634C473.364 136.751 473.894 136.867 474.403 136.973C474.901 137.122 475.368 137.291 475.802 137.44C476.703 137.694 477.424 138.097 478.049 138.404C478.367 138.563 478.664 138.701 478.919 138.849C479.162 139.019 479.385 139.167 479.576 139.305C480.381 139.846 480.774 140.132 480.774 140.132Z" fill="#8C63A9"/>
<path d="M275.038 300.68C277.562 300.68 279.607 298.634 279.607 296.111C279.607 293.588 277.562 291.542 275.038 291.542C272.515 291.542 270.47 293.588 270.47 296.111C270.47 298.634 272.515 300.68 275.038 300.68Z" fill="#8C63A9"/>
<path d="M536.127 151.262C536.127 153.785 534.081 155.831 531.558 155.831C529.036 155.831 526.99 153.785 526.99 151.262C526.99 148.739 529.036 146.693 531.558 146.693C534.081 146.693 536.127 148.729 536.127 151.262Z" fill="#8C63A9"/>
<path d="M307.124 307.909C307.124 308.556 306.605 309.075 305.958 309.075C305.312 309.075 304.792 308.556 304.792 307.909C304.792 307.262 305.312 306.743 305.958 306.743C306.605 306.743 307.124 307.262 307.124 307.909Z" fill="#8C63A9"/>
<path d="M331.918 179.84C331.918 180.486 331.399 181.006 330.752 181.006C330.105 181.006 329.586 180.486 329.586 179.84C329.586 179.193 330.105 178.674 330.752 178.674C331.399 178.674 331.918 179.193 331.918 179.84Z" fill="#8C63A9"/>
<path d="M513.167 242.093C513.167 242.74 512.648 243.259 512.001 243.259C511.355 243.259 510.835 242.74 510.835 242.093C510.835 241.447 511.355 240.927 512.001 240.927C512.648 240.927 513.167 241.447 513.167 242.093Z" fill="#8C63A9"/>
<path d="M529.311 187.938C529.311 188.585 528.792 189.104 528.145 189.104C527.499 189.104 526.979 188.585 526.979 187.938C526.979 187.291 527.499 186.772 528.145 186.772C528.792 186.783 529.311 187.302 529.311 187.938Z" fill="#8C63A9"/>
<path d="M716.051 361.354C721.15 358.153 726.98 356.149 732.969 355.535C735.735 355.248 738.757 355.333 740.972 357.008C741.438 357.368 741.905 357.888 741.799 358.471C741.724 358.895 741.364 359.202 741.014 359.467C734.124 364.714 723.715 365.382 716.051 361.354Z" fill="#F7CA15"/>
<path d="M716.486 360.877C720.312 357.888 724.171 354.877 727.414 351.263C730.658 347.648 733.298 343.355 734.262 338.596C734.559 337.154 734.644 335.501 733.722 334.356C725.008 341.161 718.171 349.959 716.486 360.877Z" fill="#F7CA15"/>
<path d="M716.147 361.29C716.804 356.531 717.037 351.634 715.945 346.949C714.853 342.263 712.299 337.78 708.303 335.108C706.797 338.628 707.444 342.677 708.504 346.355C710.147 352.037 712.712 357.443 716.083 362.308" fill="#F7CA15"/>
<path d="M707.603 376.586C712.786 377.212 717.302 379.946 721.171 383.455C725.04 386.964 727.796 391.681 728.93 396.779C723.842 396.461 719.539 392.878 716.412 388.861C713.285 384.844 711.122 380.434 707.677 376.671" fill="#F7CA15"/>
<path d="M705.748 379.035C709.924 368.753 708.409 356.361 701.89 347.394C698.932 357.888 700.024 369.749 705.748 379.035Z" fill="#F7CA15"/>
<path d="M694.469 392.465C699.176 392.168 703.957 393.292 708.038 395.645C712.119 397.998 715.489 401.57 717.599 405.779C717.885 406.351 718.139 407.082 717.758 407.591C717.429 408.036 716.783 408.079 716.221 408.047C711.663 407.75 707.624 405.005 704.285 401.888C700.946 398.761 698.042 395.157 694.364 392.454" fill="#F7CA15"/>
<path d="M694.83 391.734C697.257 383.974 697.406 375.516 695.264 367.672C694.416 364.576 692.996 361.312 690.124 359.859C689.88 359.732 689.594 359.626 689.339 359.722C689.095 359.817 688.958 360.061 688.841 360.294C687.823 362.425 687.527 364.841 687.633 367.195C687.739 369.548 688.226 371.869 688.714 374.18C689.615 378.452 690.092 383.042 692.434 386.73C692.986 387.6 693.484 388.554 693.929 389.486C694.374 390.419 694.374 390.748 694.777 391.5" fill="#F7CA15"/>
<path d="M664.97 396.186C667.185 387.769 664.832 377.572 659.532 370.671C659.14 370.163 658.621 369.622 657.985 369.675C657.009 369.77 656.755 371.064 656.797 372.049C657.19 380.646 660.052 389.115 664.97 396.186Z" fill="#F7CA15"/>
<path d="M662.278 398.019C652.059 400.68 640.325 398.093 631.824 391.829C636.859 389.274 642.805 388.543 648.307 389.804C653.819 391.066 658.854 393.535 662.278 398.019Z" fill="#F7CA15"/>
<path d="M660.009 392.423C654.285 383.084 643.304 377 632.375 376.438C633.636 380.89 637.293 384.345 641.417 386.434C645.54 388.522 650.141 389.433 654.688 390.313C656.448 390.652 658.864 391.034 660.009 392.423Z" fill="#F7CA15"/>
<path d="M664.408 365.234C662.86 359.923 661.302 354.56 660.878 349.048C660.454 343.536 661.239 337.769 664.101 333.042C669.454 343.387 669.994 355.482 664.567 365.796" fill="#F7CA15"/>
<path d="M646.399 356.139C640.145 344.776 627.382 335.691 614.471 334.419C619.453 346.821 633.043 356.404 646.399 356.139Z" fill="#F7CA15"/>
<path d="M650.331 358.365C641.003 359.785 633.053 365.742 624.34 369.357C622.474 370.131 620.46 370.746 618.468 370.481C616.464 370.216 614.493 368.88 614.047 366.908C613.676 365.276 614.418 363.538 615.595 362.34C616.772 361.142 618.319 360.4 619.867 359.753C629.364 355.8 639.54 355.704 649.547 358.1" fill="#F7CA15"/>
<path d="M655.737 364.905C653.628 365.509 652.907 366.601 651.232 368.032C645.561 372.866 638.756 376.364 631.527 378.155C630.774 378.346 629.788 378.42 629.417 377.731C629.089 377.137 629.502 376.417 629.926 375.887C632.958 372.092 637.283 369.505 641.83 367.809C646.377 366.113 650.321 364.078 655.748 364.513" fill="#F7CA15"/>
<path d="M661.822 325.388C654.232 332.469 643.558 336.105 633.223 335.119C632.757 335.077 632.237 335.002 631.919 334.653C631.198 333.868 632.068 332.66 632.905 332.003C641.311 325.452 651.497 322.738 661.822 325.388Z" fill="#F7CA15"/>
<path d="M654.603 322.749C644.575 315.233 630.827 312.965 618.923 316.866C623.418 321.297 629.651 323.682 635.926 324.328C642.201 324.985 648.487 324.286 654.603 322.749Z" fill="#F7CA15"/>
<path d="M657.476 304.591C658.302 296.196 657.762 289.571 658.345 281.144C658.387 280.465 658.536 279.66 659.161 279.416C660.041 279.077 660.772 280.158 661.058 281.048C663.56 288.818 662.193 297.733 657.476 304.4" fill="#F7CA15"/>
<path d="M658.08 305.524C652.388 302.004 648.126 297.415 644.183 292.009C641.438 288.256 639.127 283.751 639.742 279.14C643.6 279.066 647.257 281.186 649.769 284.122C652.282 287.048 653.766 290.715 654.879 294.404C655.992 298.093 656.765 301.888 658.08 305.524Z" fill="#F7CA15"/>
<path d="M644.416 301.729C631.93 297.118 620.291 290.249 610.21 281.557C614.302 279.914 618.976 280.9 623.057 282.543C632.396 286.306 640.017 292.666 644.597 301.634" fill="#F7CA15"/>
<path d="M654.232 310.114C647.914 310.803 641.501 311.258 635.237 310.209C629.078 309.181 623.259 306.743 617.503 304.315C617.026 304.114 616.507 303.87 616.295 303.404C616.072 302.895 616.305 302.259 616.729 301.888C617.143 301.506 617.704 301.326 618.245 301.178C624.499 299.429 631.251 300.245 637.41 302.323C643.568 304.39 648.614 306.859 654.232 310.114Z" fill="#F7CA15"/>
<path d="M690.293 325.674C694.597 316.982 694.321 306.827 690.601 297.86C687.982 301.856 687.664 306.933 688.141 311.682C688.618 316.431 690.071 321.318 690.155 326.098" fill="#F7CA15"/>
<path d="M707.508 317.004C718.267 316.802 729.026 321.382 736.329 329.279C730.955 330.127 725.432 328.738 720.546 326.353C715.659 323.968 711.324 320.618 707.02 317.3" fill="#F7CA15"/>
<path d="M719.083 313.124C724.34 312.7 729.407 312.043 734.463 313.601C739.52 315.149 744.131 318.668 746.187 323.544C741.269 324.095 736.276 322.865 731.76 320.82C727.255 318.774 723.153 315.944 719.083 313.124Z" fill="#F7CA15"/>
<path d="M701.943 313.304C706.681 310.198 711.536 307.04 717.048 305.757C722.56 304.474 728.951 305.418 732.789 309.573C728.326 312.191 722.909 312.499 717.737 312.499C712.564 312.499 706.225 312.435 701.338 314.163" fill="#F7CA15"/>
<path d="M701.922 313.559C710.02 305.609 713.083 291.33 709.829 280.465C703.459 290.133 700.607 302.058 701.922 313.559Z" fill="#F7CA15"/>
<path d="M679.661 291.034C678.135 287.483 677.064 283.762 675.697 280.147C674.33 276.533 672.623 272.982 670.037 270.109C667.45 267.237 663.867 265.106 660.009 264.915C662.426 275.854 669.687 285.617 679.46 291.087" fill="#F7CA15"/>
<path d="M683.689 295.729C686.212 292.253 689.138 287.536 692.562 284.939C695.985 282.342 700.448 280.773 704.624 281.769C700.374 289.369 692.339 294.722 683.689 295.729Z" fill="#F7CA15"/>
<path d="M682.884 291.33C684.537 287.122 686.212 282.872 686.88 278.398C687.548 273.925 687.145 269.155 684.855 265.254C680.414 273.65 678.983 282.67 682.661 291.426" fill="#F7CA15"/>
<path d="M679.619 265.254C677.107 256.933 669.475 250.796 661.249 247.987C660.21 247.637 659.108 247.34 658.027 247.499C656.946 247.658 655.886 248.411 655.652 249.482C655.356 250.902 656.522 252.163 657.624 253.107C664.037 258.587 671.574 262.742 679.619 265.254Z" fill="#F7CA15"/>
<path d="M679.534 258.439C679.216 253.075 678.877 247.627 677.139 242.539C675.39 237.451 672.03 232.681 667.132 230.455C666.295 235.871 668.691 241.267 671.574 245.931C674.457 250.595 677.934 255.004 679.672 260.198" fill="#F7CA15"/>
<path d="M679.661 262.138C681.739 256.075 681.951 248.369 685.587 243.079C688.131 239.38 692.191 236.868 694.385 232.956C695.837 236.613 695.392 240.821 693.876 244.447C692.36 248.072 689.848 251.199 687.156 254.072C684.463 256.944 682.163 259.096 679.661 262.138Z" fill="#F7CA15"/>
<path d="M679.619 440.812C679.778 440.812 679.916 400.341 679.937 350.425C679.948 300.489 679.831 260.029 679.661 260.029C679.492 260.029 679.365 300.499 679.343 350.425C679.333 400.341 679.46 440.812 679.619 440.812Z" fill="#F7CA15"/>
<path d="M644.247 319.569C644.236 319.611 644.777 319.813 645.773 320.141C646.865 320.512 648.275 320.989 649.96 321.551C653.49 322.749 658.345 324.498 663.603 326.65C668.818 328.886 673.736 330.699 676.535 333.126C677.934 334.324 678.739 335.617 679.132 336.561C679.534 337.515 679.609 338.098 679.662 338.087C679.683 338.087 679.672 337.939 679.64 337.663C679.598 337.387 679.524 336.985 679.344 336.486C679.004 335.49 678.22 334.101 676.81 332.819C675.4 331.536 673.439 330.381 671.203 329.331C668.956 328.282 666.475 327.19 663.836 326.109C658.557 323.947 653.67 322.261 650.098 321.159C648.317 320.597 646.855 320.194 645.848 319.919C644.83 319.664 644.258 319.537 644.247 319.569Z" fill="#F7CA15"/>
<path d="M632.661 291.097C632.65 291.108 632.799 291.267 633.085 291.553C633.435 291.882 633.859 292.284 634.389 292.772C635.597 293.864 637.24 295.358 639.233 297.182C643.42 300.913 649.102 305.969 655.366 311.555C661.663 317.163 667.111 322.516 670.885 326.554C672.771 328.568 674.266 330.243 675.273 331.399C675.75 331.939 676.132 332.384 676.45 332.734C676.725 333.041 676.874 333.19 676.884 333.179C676.895 333.169 676.778 332.988 676.534 332.66C676.291 332.331 675.93 331.854 675.443 331.25C674.478 330.042 673.036 328.324 671.181 326.268C667.471 322.155 662.065 316.728 655.748 311.11C649.43 305.513 643.674 300.489 639.498 296.864C637.442 295.104 635.767 293.662 634.527 292.602C633.975 292.147 633.52 291.765 633.159 291.468C632.841 291.203 632.672 291.076 632.661 291.097Z" fill="#F7CA15"/>
<path d="M662.171 317.247C662.341 317.173 661.016 314.131 659.712 310.294C658.387 306.457 657.762 303.213 657.603 303.234C657.454 303.245 657.825 306.584 659.161 310.474C659.818 312.414 660.55 314.12 661.122 315.339C661.684 316.558 662.097 317.279 662.171 317.247Z" fill="#F7CA15"/>
<path d="M679.587 341.744C679.619 341.765 679.969 341.362 680.562 340.62C681.22 339.772 682.057 338.702 683.053 337.43C685.142 334.727 688.035 331.006 691.268 326.925C694.512 322.844 697.48 319.187 699.642 316.537C700.66 315.276 701.508 314.226 702.186 313.389C702.78 312.636 703.098 312.212 703.066 312.191C703.034 312.17 702.663 312.541 702.017 313.24C701.37 313.94 700.448 314.979 699.335 316.272C697.098 318.858 694.067 322.473 690.823 326.565C687.58 330.646 684.739 334.419 682.735 337.186C681.728 338.564 680.933 339.698 680.393 340.493C679.831 341.267 679.555 341.723 679.587 341.744Z" fill="#F7CA15"/>
<path d="M687.336 331.791C687.431 331.897 689.498 329.437 690.59 325.706C691.385 323.077 691.427 320.671 691.321 319.569L691.067 319.59C691.184 320.056 691.268 320.311 691.311 320.3C691.353 320.29 691.364 320.035 691.321 319.548L691.067 319.569C690.972 320.661 690.802 322.982 690.028 325.537C688.979 329.151 687.187 331.685 687.336 331.791Z" fill="#F7CA15"/>
<path d="M697.353 319.187C697.427 319.272 698.095 318.424 699.621 317.873C701.137 317.29 703.416 317.163 705.918 317.375C708.419 317.555 710.656 318 712.257 318.403C713.857 318.795 714.832 319.113 714.864 319.028C714.896 318.954 713.963 318.509 712.363 318C710.773 317.502 708.504 316.982 705.95 316.792C703.416 316.569 701.021 316.77 699.452 317.491C697.872 318.191 697.3 319.177 697.353 319.187Z" fill="#F7CA15"/>
<path d="M699.727 316.145C699.77 316.24 701.052 315.615 703.204 314.884C705.356 314.142 708.419 313.368 711.875 313.103C715.33 312.848 718.478 313.145 720.715 313.548C722.952 313.951 724.309 314.364 724.34 314.269C724.351 314.226 724.022 314.089 723.418 313.877C722.814 313.654 721.913 313.389 720.789 313.135C718.542 312.615 715.341 312.244 711.822 312.509C708.303 312.785 705.197 313.643 703.056 314.491C701.985 314.915 701.137 315.308 700.575 315.615C700.013 315.922 699.706 316.103 699.727 316.145Z" fill="#F7CA15"/>
<path d="M679.661 303.234C679.82 303.277 680.955 299.334 682.195 294.426C683.435 289.518 684.315 285.522 684.166 285.479C684.007 285.437 682.873 289.38 681.633 294.288C680.382 299.185 679.502 303.192 679.661 303.234Z" fill="#F7CA15"/>
<path d="M679.502 303.234C679.672 303.287 680.403 300.658 682.311 297.966C684.166 295.22 686.53 293.832 686.446 293.694C686.414 293.63 685.757 293.874 684.845 294.521C683.933 295.157 682.799 296.238 681.824 297.627C679.852 300.425 679.354 303.223 679.502 303.234Z" fill="#F7CA15"/>
<path d="M679.619 419.241C679.683 419.251 679.799 418.265 680.255 416.548C680.711 414.831 681.559 412.393 682.958 409.542C685.756 403.828 690.844 396.578 697.31 389.327C700.512 385.67 703.617 382.215 706.257 378.908C708.896 375.611 711.069 372.463 712.659 369.675C714.249 366.898 715.288 364.513 715.892 362.827C716.189 361.979 716.412 361.322 716.528 360.866C716.655 360.411 716.719 360.177 716.698 360.167C716.645 360.146 716.348 361.089 715.68 362.743C715.012 364.396 713.931 366.728 712.309 369.463C710.688 372.198 708.504 375.293 705.843 378.568C703.193 381.844 700.077 385.278 696.876 388.946C690.389 396.217 685.322 403.563 682.598 409.372C681.23 412.266 680.435 414.757 680.043 416.506C679.852 417.386 679.725 418.064 679.683 418.541C679.619 418.986 679.598 419.23 679.619 419.241Z" fill="#F7CA15"/>
<path d="M647.66 383.137C647.639 383.179 648.254 383.487 649.335 384.08C650.406 384.684 651.932 385.617 653.681 386.953C655.43 388.288 657.38 390.048 659.384 392.157C661.387 394.277 663.454 396.726 665.553 399.365C669.761 404.644 673.704 409.319 676.058 413.05C677.255 414.905 678.125 416.463 678.697 417.555C679.269 418.647 679.577 419.262 679.619 419.24C679.64 419.23 679.587 419.071 679.46 418.763C679.333 418.467 679.163 418.011 678.898 417.449C678.39 416.315 677.563 414.714 676.407 412.827C674.118 409.011 670.217 404.273 666.009 398.994C663.899 396.355 661.811 393.896 659.765 391.786C657.72 389.677 655.716 387.939 653.914 386.624C652.112 385.31 650.543 384.43 649.43 383.879C648.879 383.603 648.423 383.434 648.127 383.296C647.83 383.169 647.671 383.116 647.66 383.137Z" fill="#F7CA15"/>
<path d="M647.035 394.85C647.024 394.935 648.392 395.104 650.575 395.369C652.759 395.656 655.79 396.016 658.97 397.023C662.14 398.051 664.769 399.631 666.486 400.966C668.224 402.302 669.04 403.415 669.115 403.351C669.146 403.33 668.977 403.033 668.595 402.535C668.214 402.037 667.599 401.38 666.751 400.648C665.065 399.196 662.405 397.521 659.151 396.461C655.896 395.433 652.812 395.136 650.618 394.956C648.413 394.786 647.045 394.776 647.035 394.85Z" fill="#F7CA15"/>
<path d="M668.086 402.058C668.266 401.952 666.676 399.514 665.436 396.239C664.27 392.931 664.005 390.027 663.793 390.059C663.719 390.069 663.719 390.79 663.857 391.956C663.995 393.122 664.27 394.733 664.885 396.429C665.5 398.125 666.316 399.546 666.941 400.532C667.577 401.528 668.023 402.1 668.086 402.058Z" fill="#F7CA15"/>
<path d="M637.304 351.697C637.293 351.719 637.495 351.825 637.866 351.994C638.3 352.196 638.852 352.439 639.53 352.747C640.261 353.054 641.141 353.457 642.137 353.976C643.134 354.496 644.3 355.026 645.519 355.757C646.134 356.107 646.78 356.478 647.448 356.86C648.116 357.241 648.784 357.697 649.483 358.142C650.904 359.001 652.335 360.071 653.861 361.153C656.84 363.41 659.977 366.092 662.988 369.177C665.977 372.293 668.542 375.516 670.704 378.579C671.733 380.137 672.75 381.6 673.567 383.052C673.98 383.773 674.415 384.451 674.775 385.13C675.135 385.808 675.474 386.465 675.803 387.101C676.492 388.342 676.98 389.529 677.467 390.546C677.955 391.564 678.326 392.454 678.612 393.196C678.898 393.885 679.131 394.437 679.312 394.882C679.481 395.263 679.577 395.465 679.598 395.454C679.619 395.444 679.555 395.232 679.428 394.839C679.269 394.384 679.068 393.811 678.835 393.112C678.58 392.359 678.241 391.447 677.775 390.409C677.319 389.37 676.852 388.172 676.185 386.911C675.867 386.275 675.528 385.607 675.178 384.918C674.828 384.229 674.393 383.54 673.991 382.808C673.185 381.335 672.178 379.851 671.15 378.272C668.998 375.176 666.422 371.922 663.412 368.774C660.369 365.658 657.2 362.976 654.179 360.718C652.632 359.637 651.19 358.577 649.748 357.729C649.038 357.294 648.36 356.838 647.681 356.467C647.003 356.096 646.346 355.736 645.72 355.397C644.48 354.687 643.303 354.178 642.275 353.69C641.258 353.192 640.357 352.821 639.615 352.545C638.926 352.28 638.353 352.058 637.908 351.888C637.526 351.74 637.314 351.676 637.304 351.697Z" fill="#F7CA15"/>
<path d="M662.606 368.647C662.659 368.636 662.373 367.661 661.217 366.58C660.083 365.499 658.016 364.502 655.61 364.428C653.214 364.364 651.137 365.032 649.716 365.583C648.285 366.145 647.459 366.601 647.49 366.665C647.522 366.749 648.413 366.421 649.854 365.976C651.296 365.53 653.32 364.958 655.599 365.022C657.868 365.096 659.818 365.965 660.952 366.898C662.097 367.82 662.511 368.7 662.606 368.647Z" fill="#F7CA15"/>
<path d="M666.38 372.548C666.539 372.463 665.118 370.364 664.79 367.375C664.419 364.386 665.32 362.022 665.15 361.969C665.087 361.948 664.769 362.488 664.493 363.474C664.217 364.449 664.037 365.88 664.217 367.438C664.398 368.997 664.906 370.343 665.405 371.233C665.892 372.124 666.327 372.579 666.38 372.548Z" fill="#F7CA15"/>
<path d="M707.571 425.039C706.702 440.504 702.038 456.235 694.872 472.145H663.698C656.861 456.394 652.525 440.695 651.751 425.039H707.571Z" fill="#263238"/>
<path d="M656.797 450.065C656.797 450.224 667.058 450.362 679.725 450.362C692.392 450.362 702.653 450.235 702.653 450.065C702.653 449.896 692.392 449.769 679.725 449.769C667.069 449.769 656.797 449.906 656.797 450.065Z" fill="#FAFAFA"/>
<path d="M657.497 455.673C657.497 455.832 667.122 455.97 678.983 455.97C690.855 455.97 700.48 455.842 700.48 455.673C700.48 455.514 690.855 455.376 678.983 455.376C667.122 455.376 657.497 455.503 657.497 455.673Z" fill="#FAFAFA"/>
<path d="M694.374 435.194C694.215 435.194 694.077 438.405 694.077 442.37C694.077 446.334 694.205 449.546 694.374 449.546C694.533 449.546 694.671 446.334 694.671 442.37C694.66 438.405 694.533 435.194 694.374 435.194Z" fill="#FAFAFA"/>
<path d="M677.669 435.194C677.51 435.194 677.372 438.522 677.372 442.635C677.372 446.748 677.499 450.076 677.669 450.076C677.828 450.076 677.965 446.748 677.965 442.635C677.955 438.522 677.828 435.194 677.669 435.194Z" fill="#FAFAFA"/>
<path d="M661.981 435.066C661.822 435.066 661.684 438.458 661.684 442.656C661.684 446.843 661.811 450.246 661.981 450.246C662.15 450.246 662.277 446.854 662.277 442.656C662.277 438.458 662.15 435.066 661.981 435.066Z" fill="#FAFAFA"/>
<path d="M652.737 435.194C652.737 435.353 664.779 435.49 679.63 435.49C694.48 435.49 706.522 435.363 706.522 435.194C706.522 435.035 694.48 434.897 679.63 434.897C664.779 434.897 652.737 435.035 652.737 435.194Z" fill="#FAFAFA"/>
<path d="M115.148 437.568L110.113 463.337L100.255 482.576C99.5447 483.964 100.159 485.66 101.59 486.275C102.396 486.614 103.308 486.561 104.05 486.105C108.788 483.212 126.161 472.474 126.426 470.566C126.734 468.361 133.539 443.737 133.539 443.737L115.148 437.568Z" fill="#8C63A9"/>
<path d="M101.58 486.275L126.787 468.827L126.553 469.919C126.352 470.863 125.822 471.7 125.048 472.283C123.002 473.841 117.247 478.018 104.113 486.127C103.35 486.593 102.396 486.657 101.58 486.275Z" fill="#263238"/>
<path d="M123.32 461.248C122.578 461.556 122.154 462.478 122.43 463.231C122.706 463.983 123.638 464.418 124.391 464.132C125.133 463.845 125.674 462.743 125.324 462.033C124.974 461.312 123.84 460.867 123.183 461.323" fill="#EBEBEB"/>
<path d="M109.901 476.354C109.742 476.396 109.456 474.923 108.088 473.863C106.753 472.76 105.258 472.813 105.258 472.654C105.247 472.591 105.618 472.463 106.233 472.506C106.848 472.548 107.696 472.824 108.438 473.417C109.18 474.011 109.636 474.785 109.816 475.368C110.017 475.961 109.975 476.354 109.901 476.354Z" fill="#263238"/>
<path d="M107.325 479.385C107.177 479.47 106.541 478.452 105.29 477.784C104.06 477.085 102.862 477.085 102.852 476.915C102.809 476.767 104.156 476.491 105.565 477.286C106.986 478.06 107.473 479.353 107.325 479.385Z" fill="#263238"/>
<path d="M114.268 472.696C114.12 472.792 113.144 471.223 111.3 470.015C109.477 468.774 107.654 468.467 107.685 468.297C107.675 468.149 109.657 468.213 111.618 469.538C113.59 470.841 114.406 472.654 114.268 472.696Z" fill="#263238"/>
<path d="M116.452 464.99C116.346 465.128 115.063 464.227 113.229 463.761C111.406 463.262 109.837 463.411 109.816 463.241C109.774 463.103 111.417 462.679 113.367 463.199C115.349 463.708 116.558 464.895 116.452 464.99Z" fill="#263238"/>
<path d="M118.127 457.464C118.01 457.592 116.78 456.426 114.809 456.086C112.848 455.705 111.279 456.362 111.215 456.192C111.184 456.129 111.533 455.864 112.201 455.652C112.858 455.44 113.844 455.323 114.904 455.514C115.964 455.705 116.844 456.171 117.385 456.606C117.936 457.051 118.169 457.422 118.127 457.464Z" fill="#263238"/>
<path d="M115.169 454.666C115.137 454.655 115.158 454.305 115.349 453.691C115.54 453.086 115.922 452.207 116.674 451.316C117.056 450.903 117.48 450.352 118.264 450.171C118.656 450.076 119.176 450.256 119.398 450.67C119.632 451.062 119.632 451.507 119.547 451.92C119.165 453.542 117.416 454.814 115.54 454.645C113.653 454.443 112.222 453.033 111.798 451.465C111.713 451.062 111.703 450.595 112 450.203C112.286 449.811 112.848 449.747 113.208 449.896C113.95 450.171 114.332 450.723 114.703 451.147C115.434 452.048 115.816 452.917 116.017 453.521C116.218 454.125 116.25 454.486 116.218 454.496C116.112 454.539 115.847 453.097 114.395 451.412C114.024 451.019 113.6 450.521 113.06 450.352C112.795 450.267 112.54 450.32 112.402 450.521C112.254 450.701 112.243 451.041 112.318 451.359C112.678 452.641 113.992 453.934 115.593 454.083C117.183 454.242 118.709 453.118 119.027 451.825C119.102 451.507 119.091 451.178 118.953 450.945C118.826 450.723 118.582 450.617 118.328 450.659C117.787 450.754 117.331 451.221 116.96 451.602C115.487 453.235 115.275 454.719 115.169 454.666Z" fill="#263238"/>
<path d="M201.04 439.571L205.333 465.478L214.64 484.992C215.307 486.402 214.65 488.077 213.198 488.649C212.382 488.967 211.481 488.883 210.749 488.406C206.096 485.374 189.041 474.138 188.829 472.23C188.585 470.015 182.49 445.2 182.49 445.2L201.04 439.571Z" fill="#8C63A9"/>
<path d="M213.198 488.649L188.5 470.491L188.712 471.583C188.892 472.527 189.39 473.385 190.143 473.989C192.146 475.601 197.775 479.947 210.675 488.427C211.417 488.914 212.371 488.999 213.198 488.649Z" fill="#263238"/>
<path d="M192.189 463.008C192.92 463.337 193.312 464.269 193.026 465.011C192.729 465.753 191.786 466.167 191.044 465.859C190.313 465.552 189.793 464.439 190.175 463.729C190.546 463.019 191.691 462.605 192.337 463.082" fill="#EBEBEB"/>
<path d="M205.163 478.495C205.322 478.537 205.651 477.074 207.05 476.057C208.417 474.997 209.912 475.092 209.912 474.922C209.923 474.859 209.562 474.721 208.937 474.742C208.322 474.763 207.463 475.018 206.7 475.59C205.937 476.163 205.46 476.915 205.269 477.498C205.068 478.092 205.1 478.484 205.163 478.495Z" fill="#263238"/>
<path d="M207.654 481.6C207.803 481.685 208.47 480.689 209.732 480.063C210.983 479.396 212.18 479.427 212.191 479.258C212.244 479.109 210.898 478.802 209.467 479.544C208.036 480.275 207.506 481.558 207.654 481.6Z" fill="#263238"/>
<path d="M200.902 474.71C201.05 474.806 202.068 473.269 203.944 472.113C205.799 470.926 207.633 470.672 207.601 470.491C207.612 470.343 205.63 470.354 203.637 471.615C201.633 472.876 200.764 474.668 200.902 474.71Z" fill="#263238"/>
<path d="M198.941 466.951C199.036 467.089 200.351 466.23 202.195 465.806C204.029 465.361 205.587 465.552 205.619 465.382C205.661 465.245 204.04 464.768 202.068 465.245C200.086 465.7 198.835 466.845 198.941 466.951Z" fill="#263238"/>
<path d="M197.489 459.372C197.595 459.51 198.867 458.376 200.838 458.09C202.81 457.761 204.358 458.461 204.421 458.302C204.453 458.238 204.114 457.973 203.446 457.74C202.789 457.507 201.803 457.358 200.743 457.517C199.683 457.687 198.793 458.121 198.231 458.535C197.69 458.969 197.436 459.33 197.489 459.372Z" fill="#263238"/>
<path d="M200.531 456.669C200.563 456.659 200.552 456.309 200.382 455.683C200.202 455.069 199.852 454.189 199.121 453.277C198.75 452.853 198.347 452.291 197.563 452.09C197.171 451.984 196.651 452.154 196.407 452.556C196.164 452.949 196.153 453.383 196.217 453.797C196.556 455.429 198.262 456.743 200.149 456.637C202.036 456.489 203.509 455.122 203.976 453.563C204.071 453.171 204.092 452.694 203.806 452.302C203.531 451.899 202.969 451.825 202.608 451.952C201.866 452.207 201.464 452.747 201.071 453.161C200.319 454.04 199.905 454.899 199.693 455.503C199.471 456.107 199.428 456.457 199.471 456.468C199.577 456.521 199.884 455.079 201.379 453.436C201.76 453.055 202.195 452.578 202.736 452.419C203.001 452.344 203.255 452.408 203.393 452.599C203.531 452.79 203.541 453.118 203.456 453.436C203.054 454.708 201.707 455.959 200.107 456.065C198.517 456.182 197.022 455.016 196.736 453.701C196.672 453.383 196.694 453.044 196.831 452.832C196.959 452.62 197.213 452.514 197.467 452.567C198.008 452.673 198.443 453.15 198.803 453.553C200.255 455.228 200.414 456.712 200.531 456.669Z" fill="#263238"/>
<path d="M117.607 268.848C115.212 265.201 105.279 463.231 105.947 464.365L132.108 464.746L146.344 358.937L154.092 278.027L166.579 354.04L181.896 465.446L210.484 465.859L192.814 263.908L155.788 242.698L117.607 268.848Z" fill="#263238"/>
<path d="M142.591 135.807C142.591 135.807 134.567 137.206 131.514 139.878C128.461 142.549 125.345 148.697 125.345 148.697L110.102 159.042L123.522 212.509L112.275 286.401L114.522 292.772L198.591 291.362L200.192 285.564L191.5 218.307L195.316 173.236L198.824 155.142L183.603 148.315C183.603 148.315 190.577 146.153 190.895 144.944C191.213 143.747 175.186 135.51 175.186 135.51C175.186 135.51 149.895 131.239 142.591 135.807Z" fill="#8C63A9"/>
<g opacity="0.3">
<g opacity="0.3">
<path opacity="0.3" d="M117.077 251.697C126.564 263.993 139.517 273.045 152.269 281.907C154.962 283.772 157.749 285.691 160.961 286.327C165.562 287.228 170.618 285.108 173.194 281.197C175.038 278.388 175.663 274.847 177.858 272.293C179.342 270.565 181.409 269.452 182.999 267.819C184.377 266.41 185.341 264.671 186.295 262.954C188.034 259.816 189.772 256.679 191.51 253.541C185.172 253.509 179.32 256.636 173.607 259.371C167.894 262.106 161.534 264.576 155.354 263.155C146.8 261.194 141.351 252.502 133.136 249.428C127.974 247.499 121.932 248.072 117.215 250.944" fill="black"/>
</g>
</g>
<path d="M110.102 159.042C110.102 159.042 106.965 163.039 106.276 171.434C105.587 179.829 100.17 223.883 101.993 230.211C103.817 236.539 127.359 262.965 135.193 262.318L138.118 261.258L140.917 263.431L153.446 254.04L125.822 219.282L127.306 169.25C127.327 169.25 118.837 157.06 110.102 159.042Z" fill="#8C63A9"/>
<path d="M131.514 139.878C131.525 139.899 131.26 140.047 130.825 140.45C130.391 140.853 129.797 141.499 129.14 142.432C128.472 143.365 127.783 144.595 126.946 146.047C126.055 147.467 125.027 149.089 123.882 150.902L123.702 150.679C125.229 150.085 127.084 150.075 128.864 150.658C130.656 151.23 132.384 152.258 134.058 153.509C137.408 156.043 140.471 159.583 143.429 163.59C149.333 171.646 155.099 181.61 160.654 192.655L160.686 192.719V192.793C160.558 197.16 160.431 201.739 160.293 206.393C159.615 230.041 159.011 251.443 158.566 266.972C158.322 274.699 158.131 280.964 157.993 285.331C157.919 287.472 157.855 289.147 157.813 290.324C157.792 290.875 157.771 291.299 157.75 291.617C157.728 291.913 157.718 292.062 157.707 292.062C157.696 292.062 157.696 291.913 157.686 291.617C157.686 291.299 157.686 290.864 157.696 290.313C157.718 289.147 157.739 287.462 157.781 285.32C157.877 280.953 158.014 274.688 158.173 266.961C158.544 251.453 159.021 230.041 159.742 206.382C159.88 201.718 160.007 197.149 160.145 192.772L160.177 192.899C154.644 181.885 148.92 171.921 143.068 163.865C140.132 159.859 137.122 156.339 133.836 153.817C132.193 152.576 130.497 151.559 128.769 150.986C127.041 150.403 125.271 150.403 123.808 150.955L123.384 151.114L123.628 150.732C124.794 148.93 125.833 147.319 126.744 145.92C127.592 144.499 128.313 143.259 129.002 142.337C129.681 141.404 130.306 140.768 130.762 140.376C131.228 140.005 131.514 139.878 131.514 139.878Z" fill="#263238"/>
<path d="M188.012 146.269C188.034 146.354 186.401 146.842 183.857 147.859C181.324 148.877 177.858 150.488 174.55 153.032C171.233 155.566 168.657 158.375 166.802 160.389C165.933 161.332 165.201 162.138 164.597 162.795C164.067 163.357 163.77 163.653 163.739 163.632C163.707 163.611 163.961 163.261 164.427 162.657C164.904 162.053 165.604 161.184 166.495 160.134C168.286 158.057 170.84 155.173 174.201 152.598C177.571 150.011 181.112 148.432 183.698 147.499C185.002 147.033 186.073 146.715 186.815 146.513C187.578 146.312 188.002 146.227 188.012 146.269Z" fill="#263238"/>
<path d="M160.611 192.878C160.569 192.878 160.611 192.316 160.717 191.309C160.834 190.302 161.046 188.85 161.385 187.069C162.042 183.507 163.23 178.631 164.777 173.331C166.367 168.031 168.031 163.304 169.494 159.986C170.215 158.322 170.872 157.007 171.36 156.117C171.869 155.237 172.165 154.76 172.197 154.781C172.229 154.802 171.996 155.311 171.551 156.212C171.127 157.124 170.533 158.459 169.855 160.134C168.498 163.484 166.897 168.211 165.307 173.49C163.76 178.78 162.519 183.624 161.767 187.154C161.385 188.913 161.11 190.355 160.929 191.351C160.76 192.326 160.643 192.878 160.611 192.878Z" fill="#263238"/>
<path d="M163.219 163.304C163.081 163.24 165 158.958 167.512 153.753C170.024 148.548 172.165 144.383 172.303 144.446C172.441 144.51 170.522 148.782 168.01 153.997C165.508 159.201 163.357 163.367 163.219 163.304Z" fill="#263238"/>
<path d="M165.837 183.136L166.081 182.606C166.335 182.797 166.717 182.935 167.077 182.935C167.491 182.945 167.66 182.808 167.671 182.617C167.682 182.044 165.911 182.415 165.922 181.281C165.933 180.762 166.357 180.338 167.215 180.359C167.597 180.37 167.989 180.465 168.265 180.645L168.042 181.175C167.766 181.006 167.47 180.931 167.205 180.921C166.791 180.91 166.622 181.069 166.622 181.26C166.611 181.822 168.381 181.461 168.371 182.574C168.36 183.083 167.936 183.507 167.067 183.497C166.59 183.507 166.102 183.348 165.837 183.136Z" fill="white"/>
<path d="M171.201 182.956L171.19 183.518L168.837 183.486L168.879 180.444L171.18 180.476L171.169 181.037L169.568 181.016L169.558 181.673L170.968 181.695L170.957 182.246L169.547 182.225L169.537 182.924L171.201 182.956Z" fill="white"/>
<path d="M171.572 182.002C171.582 181.09 172.293 180.444 173.247 180.454C173.777 180.465 174.211 180.656 174.487 181.005L174.031 181.419C173.83 181.186 173.575 181.058 173.268 181.048C172.695 181.037 172.293 181.429 172.282 182.002C172.271 182.574 172.674 182.977 173.236 182.988C173.543 182.988 173.798 182.871 174.01 182.638L174.455 183.062C174.169 183.412 173.724 183.592 173.194 183.581C172.261 183.581 171.561 182.913 171.572 182.002Z" fill="white"/>
<path d="M177.19 182.691C177.147 182.543 177.105 182.394 177.062 182.246C177.02 182.15 176.988 182.044 176.956 181.949V182.235C176.946 182.808 176.702 183.051 176.267 183.041C175.843 183.03 175.589 182.797 175.6 182.214L175.621 180.539L174.921 180.529L174.9 182.225C174.889 183.115 175.388 183.624 176.257 183.634C176.766 183.645 177.147 183.475 177.38 183.157C177.296 183.009 177.232 182.861 177.19 182.691Z" fill="white"/>
<path d="M177.349 181.302L177.338 182.341C177.349 182.373 177.359 182.415 177.37 182.447C177.402 182.532 177.434 182.606 177.455 182.691C177.487 182.818 177.518 182.945 177.54 183.072C177.624 183.433 177.635 183.761 177.603 184.069C177.868 183.836 178.017 183.486 178.017 183.019L178.038 181.323L177.349 181.302Z" fill="white"/>
<path d="M180.624 184.387L180.052 183.528H180.02L179.405 183.518L179.394 184.366L178.695 184.355L178.737 181.313L180.052 181.334C180.868 181.345 181.366 181.769 181.355 182.458C181.345 182.914 181.112 183.242 180.719 183.412L181.387 184.398L180.624 184.387ZM179.999 181.917L179.426 181.907L179.416 182.967L179.988 182.977C180.423 182.988 180.635 182.786 180.645 182.458C180.645 182.119 180.433 181.917 179.999 181.917Z" fill="white"/>
<path d="M181.928 181.366L182.628 181.377L182.585 184.419L181.885 184.408L181.928 181.366Z" fill="white"/>
<path d="M183.974 181.97L182.999 181.959L183.009 181.387L185.659 181.429L185.649 182.002L184.673 181.991L184.642 184.45L183.942 184.44L183.974 181.97Z" fill="white"/>
<path d="M187.408 183.412L187.398 184.493L186.698 184.482L186.709 183.401L185.564 181.429L186.306 181.44L187.101 182.797L187.928 181.461L188.617 181.472L187.408 183.412Z" fill="white"/>
<path d="M179.819 191.33C179.787 191.341 179.638 191.065 179.395 190.535C179.151 190.005 178.854 189.231 178.515 188.256C177.836 186.306 177.105 183.528 176.702 180.391C176.31 177.253 176.321 174.381 176.49 172.324C176.575 171.296 176.67 170.469 176.776 169.897C176.872 169.324 176.946 169.017 176.978 169.017C177.063 169.028 176.935 170.3 176.882 172.345C176.819 174.391 176.861 177.221 177.253 180.317C177.646 183.412 178.313 186.168 178.886 188.129C179.458 190.1 179.903 191.298 179.819 191.33Z" fill="#263238"/>
<g opacity="0.3">
<g opacity="0.3">
<path opacity="0.3" d="M162.678 182.893C162.223 186.666 161.014 188.532 160.961 192.327C160.951 193.143 159.657 205.99 160.421 206.287C161.311 206.637 164.714 197.277 165.456 192.613C166.039 188.956 167.067 184.143 167.682 180.497C169.462 169.844 173.416 164.109 178.96 154.834C180.009 153.075 183.921 148.305 183.921 148.305C183.539 148.061 181.992 148.803 180.9 149.291C177.773 150.7 172.176 155.163 172.176 155.163C172.176 155.163 168.816 161.587 167.682 164.82C165.509 171.021 163.823 177.275 162.594 183.507" fill="black"/>
</g>
</g>
<g opacity="0.3">
<g opacity="0.3">
<path opacity="0.3" d="M127.677 150.552C127.677 150.552 124.264 152.417 124.285 153.923C124.306 155.428 125.462 156.71 126.776 157.431C128.091 158.163 129.585 158.47 130.995 159C134.313 160.24 137.079 162.615 139.57 165.116C143.662 169.229 147.266 173.84 150.255 178.811C152.746 182.945 155.025 187.556 159.191 189.994C156.371 184.949 153.446 180.073 150.626 175.027C147.807 169.992 144.563 165.212 140.895 160.76C137.217 156.308 131.239 150.912 127.677 150.552Z" fill="black"/>
</g>
</g>
<path d="M115.508 225.006C115.498 225.006 115.477 224.911 115.466 224.731C115.445 224.55 115.445 224.275 115.477 223.914C115.54 223.215 115.763 222.144 116.494 221.021C117.204 219.908 118.476 218.71 120.31 218.254C122.102 217.798 124.391 218.106 126.183 219.558L125.769 219.759C125.61 216.537 125.812 212.869 126.405 209.096C126.946 205.608 127.582 202.322 127.942 199.301C128.324 196.28 128.515 193.556 128.568 191.256C128.631 188.956 128.631 187.09 128.599 185.807C128.599 185.214 128.589 184.726 128.589 184.323C128.589 183.984 128.599 183.804 128.621 183.804C128.642 183.804 128.663 183.984 128.695 184.323C128.727 184.726 128.758 185.214 128.811 185.807C128.907 187.09 128.97 188.966 128.96 191.277C128.96 193.588 128.801 196.344 128.451 199.375C128.112 202.418 127.486 205.725 126.956 209.191C126.373 212.954 126.151 216.558 126.278 219.759L126.299 220.321L125.865 219.961C124.232 218.604 122.091 218.286 120.416 218.678C118.699 219.07 117.469 220.162 116.759 221.201C116.028 222.261 115.763 223.268 115.657 223.946C115.53 224.625 115.551 225.006 115.508 225.006Z" fill="#263238"/>
<path d="M118.18 250.838C118.19 250.828 118.307 250.934 118.519 251.135C118.763 251.368 119.07 251.665 119.452 252.036C120.278 252.81 121.487 253.955 123.119 255.28C124.752 256.594 126.797 258.142 129.288 259.636C130.539 260.378 131.896 261.141 133.401 261.703C134.143 261.979 134.949 262.138 135.765 262.053C136.56 261.989 137.408 261.661 137.949 261.088L138.118 260.919L138.298 261.057C139.178 261.735 140.132 262.466 141.107 263.219H140.8C144.658 260.315 148.888 257.135 153.319 253.806L153.266 254.198C153.191 254.114 153.117 254.018 153.043 253.923C149.269 249.216 145.899 244.574 142.761 240.408C139.645 236.231 136.814 232.479 134.366 229.394C131.917 226.299 129.85 223.882 128.366 222.25C127.635 221.423 127.031 220.819 126.628 220.406C126.225 219.992 126.024 219.759 126.034 219.748C126.045 219.738 126.278 219.929 126.702 220.331C127.137 220.724 127.762 221.307 128.525 222.112C130.062 223.692 132.193 226.087 134.673 229.151C137.164 232.214 140.037 235.935 143.174 240.1C146.333 244.256 149.715 248.888 153.478 253.573C153.552 253.668 153.626 253.764 153.7 253.849L153.88 254.071L153.647 254.241C149.206 257.559 144.966 260.728 141.107 263.622L140.948 263.738L140.789 263.622C139.825 262.869 138.871 262.127 137.991 261.438L138.33 261.406C137.62 262.138 136.708 262.445 135.807 262.519C134.906 262.594 134.027 262.424 133.253 262.117C131.695 261.523 130.348 260.728 129.087 259.975C126.585 258.438 124.561 256.848 122.939 255.492C121.328 254.124 120.141 252.948 119.346 252.131C118.985 251.739 118.699 251.421 118.466 251.167C118.264 250.965 118.169 250.849 118.18 250.838Z" fill="#263238"/>
<path d="M128.25 172.896C128.154 172.928 127.751 171.667 126.723 169.822C126.225 168.9 125.525 167.851 124.667 166.759C123.787 165.688 122.738 164.575 121.508 163.537C120.268 162.519 118.985 161.682 117.766 161.014C116.537 160.367 115.381 159.869 114.385 159.54C112.381 158.873 111.078 158.703 111.088 158.597C111.088 158.555 111.427 158.576 112.021 158.65C112.615 158.703 113.473 158.883 114.501 159.169C115.54 159.456 116.738 159.922 118.01 160.569C119.271 161.226 120.596 162.074 121.868 163.123C123.13 164.183 124.19 165.339 125.07 166.452C125.928 167.586 126.607 168.678 127.073 169.653C127.55 170.617 127.868 171.423 128.038 172.006C128.207 172.568 128.281 172.886 128.25 172.896Z" fill="#263238"/>
<g opacity="0.3">
<g opacity="0.3">
<path opacity="0.3" d="M178.843 188.627C179.193 189.379 180.444 188.913 180.582 188.33C180.73 187.747 180.423 187.153 180.147 186.613C178.176 182.818 176.978 178.61 176.67 174.349C176.331 179.521 176.872 183.814 178.843 188.627Z" fill="black"/>
</g>
</g>
<g opacity="0.3">
<g opacity="0.3">
<path opacity="0.3" d="M115.063 223.893C114.13 220.936 115.54 217.406 118.254 215.911C118.943 215.53 119.727 215.265 120.522 215.328C122.239 215.455 123.469 216.982 124.476 218.381C122.568 217.809 120.437 218.084 118.731 219.112C117.035 220.141 115.795 221.9 115.413 223.851" fill="black"/>
</g>
</g>
<path d="M197.87 159.795C197.944 159.848 197.319 160.844 196.429 162.519C195.538 164.194 194.436 166.568 193.545 169.314C192.655 172.059 192.146 174.635 191.881 176.5C191.616 178.377 191.531 179.553 191.447 179.543C191.383 179.543 191.33 178.355 191.5 176.447C191.669 174.539 192.125 171.921 193.026 169.133C193.938 166.346 195.114 163.961 196.1 162.318C197.075 160.675 197.828 159.752 197.87 159.795Z" fill="#263238"/>
<g opacity="0.3">
<g opacity="0.3">
<path opacity="0.3" d="M190.864 186.708C190.291 187.291 190.143 192.231 190.143 192.231C190.154 198.188 190.525 200.807 190.535 206.774C190.535 209.234 190.535 211.735 189.878 214.11C189.528 215.371 188.998 216.569 188.479 217.767C187.811 219.282 187.143 220.809 186.168 222.144C185.352 223.268 184.355 224.233 183.37 225.208C178.663 229.893 174.37 234.992 170.544 240.429L168.212 243.842L191.341 222.144L192.475 219.272L192.528 218.932L190.864 186.708Z" fill="black"/>
</g>
</g>
<path d="M198.835 155.142C198.835 155.142 202.481 156.509 204.379 164.639C206.573 174.02 209.446 189.634 209.891 195.538C210.262 200.51 215.148 218.678 211.364 226.681C207.591 234.684 189.327 259.382 182.129 260.177L179.13 259.414L175.971 259.954L167.109 249.757L167.883 246.842C167.883 246.842 166.887 245.22 167.925 243.768C168.975 242.316 191.563 221.095 191.563 221.095C191.563 221.095 190.705 220.989 190.514 219.526C190.196 217.003 192.39 217.099 192.39 217.099L190.927 194.892L198.835 155.142Z" fill="#8C63A9"/>
<path d="M200.202 223.745C200.107 223.883 198.443 222.685 196.079 221.943C193.726 221.169 191.669 221.18 191.669 221.01C191.648 220.872 193.779 220.618 196.249 221.423C198.718 222.197 200.308 223.649 200.202 223.745Z" fill="#263238"/>
<path d="M204.771 220.416C204.665 220.565 202.46 218.424 198.92 217.501C195.39 216.526 192.411 217.279 192.39 217.099C192.369 217.035 193.09 216.759 194.298 216.611C195.507 216.452 197.234 216.484 199.057 216.971C200.87 217.459 202.386 218.296 203.351 219.038C204.336 219.78 204.813 220.374 204.771 220.416Z" fill="#263238"/>
<path d="M191.669 220.999C191.648 221.052 191.298 221.02 190.832 220.671C190.609 220.49 190.366 220.204 190.238 219.823C190.111 219.441 190.111 218.996 190.228 218.561C190.302 218.275 190.408 218.031 190.556 217.787L190.535 217.84C190.864 217.077 191.563 216.929 191.945 216.897C192.358 216.876 192.592 216.992 192.581 217.045C192.57 217.109 192.348 217.12 192.009 217.226C191.691 217.321 191.182 217.565 191.044 218.01V218.031L191.023 218.074C190.927 218.254 190.832 218.476 190.779 218.71C190.578 219.42 190.79 220.035 191.118 220.395C191.415 220.755 191.712 220.925 191.669 220.999Z" fill="#263238"/>
<path d="M190.641 185.627C190.684 185.627 190.747 186.062 190.843 186.857C190.938 187.652 191.044 188.807 191.15 190.228C191.373 193.079 191.595 197.022 191.786 201.379C191.966 205.672 192.136 209.551 192.263 212.541C192.316 213.876 192.358 215.01 192.401 215.922C192.422 216.717 192.422 217.162 192.38 217.173C192.337 217.173 192.274 216.738 192.178 215.943C192.083 215.148 191.977 213.993 191.871 212.572C191.648 209.721 191.426 205.778 191.235 201.421C191.055 197.128 190.885 193.249 190.758 190.27C190.705 188.934 190.662 187.8 190.62 186.889C190.599 186.072 190.609 185.627 190.641 185.627Z" fill="#263238"/>
<path d="M192.04 220.851C192.051 220.862 191.86 221.052 191.479 221.402C191.065 221.773 190.503 222.282 189.804 222.918C188.309 224.275 186.21 226.183 183.603 228.536C180.985 230.942 177.889 233.857 174.466 237.186C172.759 238.85 170.968 240.62 169.134 242.475C168.689 242.941 168.265 243.429 168 243.991C167.724 244.553 167.682 245.157 167.809 245.803C167.915 246.45 168.159 247.118 168.137 247.892C168.116 248.612 167.841 249.513 167.003 249.863L167.109 249.429C168.572 251.103 170.12 252.863 171.678 254.654C173.204 256.403 174.709 258.121 176.162 259.795L175.907 259.711C176.978 259.53 178.027 259.35 179.066 259.17L179.108 259.159H179.14C180.529 259.329 181.674 259.965 182.871 259.764C184.069 259.615 185.14 259 186.094 258.29C187.981 256.817 189.624 255.142 191.15 253.573C194.182 250.383 196.673 247.351 198.718 244.818C200.764 242.274 202.354 240.207 203.457 238.786C203.987 238.108 204.411 237.567 204.729 237.164C205.025 236.793 205.184 236.613 205.195 236.624C205.206 236.634 205.078 236.836 204.803 237.228C204.506 237.641 204.103 238.203 203.605 238.903C202.545 240.355 200.997 242.454 198.994 245.03C196.98 247.605 194.521 250.669 191.489 253.891C189.952 255.492 188.341 257.167 186.391 258.693C185.405 259.435 184.271 260.113 182.924 260.283C181.546 260.506 180.274 259.817 179.077 259.689H179.151C178.112 259.87 177.063 260.05 175.992 260.23L175.844 260.251L175.738 260.135C174.275 258.46 172.77 256.743 171.243 255.004C169.674 253.213 168.137 251.453 166.675 249.778L166.42 249.482L166.781 249.344C167.3 249.142 167.554 248.485 167.576 247.86C167.597 247.234 167.374 246.577 167.258 245.888C167.12 245.199 167.162 244.394 167.501 243.758C167.809 243.1 168.275 242.592 168.742 242.104C170.597 240.238 172.399 238.479 174.116 236.825C177.561 233.518 180.698 230.635 183.338 228.26C185.988 225.886 188.15 224.02 189.645 222.759C190.376 222.155 190.949 221.678 191.383 221.317C191.807 220.999 192.03 220.84 192.04 220.851Z" fill="#263238"/>
<path d="M191.5 208.12C191.5 208.269 177.052 208.184 159.233 207.93C141.415 207.675 126.967 207.347 126.967 207.188C126.967 207.039 141.415 207.124 159.233 207.378C177.063 207.643 191.5 207.972 191.5 208.12Z" fill="#263238"/>
<path d="M174.921 216.865C174.943 216.865 174.932 217.014 174.9 217.279C174.858 217.544 174.826 217.936 174.709 218.434C174.519 219.431 174.126 220.862 173.437 222.558C172.102 225.928 169.282 230.37 164.714 233.656C160.145 236.942 155.036 238.203 151.421 238.405C149.598 238.521 148.114 238.436 147.107 238.299C146.598 238.246 146.217 238.161 145.952 238.118C145.687 238.065 145.549 238.034 145.559 238.012C145.57 237.896 147.796 238.341 151.389 238.012C154.951 237.716 159.922 236.422 164.396 233.211C168.858 229.999 171.667 225.685 173.077 222.409C174.508 219.091 174.794 216.834 174.921 216.865Z" fill="#263238"/>
<path d="M143.991 261.163C143.895 261.279 143.291 260.94 142.75 260.304C142.199 259.668 141.955 259.022 142.083 258.947C142.22 258.863 142.655 259.35 143.164 259.944C143.673 260.548 144.086 261.046 143.991 261.163Z" fill="#263238"/>
<path d="M148.029 258.004C147.902 258.099 147.446 257.686 147.012 257.092C146.566 256.499 146.312 255.947 146.439 255.852C146.566 255.757 147.022 256.17 147.457 256.764C147.902 257.368 148.156 257.919 148.029 258.004Z" fill="#263238"/>
<path d="M171.476 249.513C171.551 249.651 170.936 250.096 170.183 250.605C169.42 251.114 168.784 251.506 168.678 251.39C168.583 251.273 169.081 250.679 169.876 250.149C170.671 249.609 171.413 249.376 171.476 249.513Z" fill="#263238"/>
<path d="M174.487 252.46C174.614 252.534 174.243 253.34 173.48 254.093C172.717 254.845 171.9 255.206 171.826 255.078C171.741 254.941 172.377 254.411 173.088 253.7C173.808 253.001 174.36 252.375 174.487 252.46Z" fill="#263238"/>
<path d="M177.37 255.99C177.476 256.096 177.01 256.764 176.225 257.389C175.441 258.015 174.678 258.311 174.603 258.184C174.529 258.046 175.133 257.548 175.875 256.955C176.628 256.361 177.253 255.884 177.37 255.99Z" fill="#263238"/>
<path d="M136.242 143.174C136.401 143.111 137.662 146.301 139.825 149.905C141.966 153.52 144.171 156.149 144.044 156.255C143.991 156.297 143.365 155.703 142.475 154.633C141.584 153.562 140.44 152.015 139.348 150.181C138.256 148.358 137.44 146.609 136.92 145.315C136.412 144.033 136.178 143.206 136.242 143.174Z" fill="#263238"/>
<path d="M200.202 285.575C200.202 285.596 199.895 285.606 199.301 285.617C198.665 285.628 197.807 285.638 196.736 285.649C194.457 285.67 191.245 285.702 187.291 285.734C179.32 285.829 168.307 286.126 156.149 286.497C143.98 286.868 132.966 287.101 124.985 287.101C120.999 287.101 117.766 287.069 115.54 287.016C114.469 286.984 113.611 286.963 112.975 286.942C112.392 286.921 112.084 286.9 112.084 286.878C112.084 286.857 112.392 286.847 112.985 286.836C113.621 286.825 114.48 286.815 115.551 286.804C117.83 286.783 121.041 286.751 124.995 286.719C132.966 286.624 143.98 286.327 156.149 285.956C168.307 285.585 179.331 285.352 187.313 285.352C191.298 285.352 194.531 285.384 196.757 285.437C197.828 285.469 198.686 285.49 199.322 285.511C199.895 285.532 200.202 285.553 200.202 285.575Z" fill="#263238"/>
<path d="M178.239 144.913C178.112 145.019 176.819 143.545 174.783 142.294C172.759 141.022 170.861 140.524 170.904 140.365C170.914 140.227 172.96 140.503 175.08 141.828C177.2 143.132 178.356 144.838 178.239 144.913Z" fill="#8C63A9"/>
<path d="M171.37 262.043C171.763 262.806 172.738 263.103 173.596 263.071C174.455 263.039 175.303 262.764 176.162 262.711C177.02 262.668 177.995 262.923 178.43 263.665C178.78 264.258 178.695 265.032 178.356 265.625C178.017 266.219 177.455 266.664 176.872 267.003C174.042 268.657 170.173 268.286 167.713 266.124" fill="#EDAE96"/>
<path d="M151.94 275.219C154.431 277.71 157.187 279.936 160.134 281.865C160.791 282.289 161.523 282.713 162.297 282.586C163.06 282.458 163.675 281.462 163.166 280.879C163.95 281.515 165.169 281.536 165.985 280.943C166.759 280.381 167.12 279.3 166.844 278.388C166.823 278.324 166.876 278.271 166.939 278.303C167.692 278.589 168.582 278.568 169.271 278.144C170.003 277.688 170.416 276.734 170.141 275.918C170.925 276.978 172.812 276.565 173.416 275.388C174.02 274.211 173.596 272.727 172.801 271.678C171.996 270.629 170.872 269.876 169.865 269.028C168.858 268.17 167.904 267.12 167.66 265.827" fill="#EDAE96"/>
<path d="M163.494 281.314C163.441 281.441 162.01 280.858 160.696 279.522C159.371 278.197 158.799 276.766 158.926 276.713C159.064 276.639 159.827 277.879 161.088 279.141C162.339 280.391 163.579 281.165 163.494 281.314Z" fill="#A2786B"/>
<path d="M167.459 278.854C167.385 278.982 166.155 278.314 164.947 277.116C163.728 275.918 163.06 274.699 163.176 274.614C163.304 274.519 164.162 275.568 165.328 276.724C166.494 277.879 167.544 278.717 167.459 278.854Z" fill="#A2786B"/>
<path d="M170.914 276.406C170.84 276.533 169.664 275.918 168.498 274.794C167.332 273.671 166.696 272.505 166.812 272.431C166.939 272.335 167.756 273.321 168.879 274.402C170.003 275.483 171.01 276.279 170.914 276.406Z" fill="#A2786B"/>
<path d="M144.987 251.262C144.987 251.262 144.669 249.906 148.146 250.351C151.622 250.785 153.181 251.125 157.092 250.923C161.003 250.722 167.342 249.609 167.342 249.609L177.55 258.587C177.55 258.587 167.109 267.756 163.993 269.389C160.866 271.021 154.516 275.102 150.891 274.901C148.135 274.752 147.891 273.385 147.891 273.385C147.891 273.385 145.209 271.54 145.602 270.639C145.602 270.639 142.411 270.459 143.015 268.021C143.015 268.021 140.747 267.597 140.376 266.304C140.005 265.011 141.722 263.484 142.379 262.827C143.439 261.778 152.725 254.962 152.767 254.771C152.778 254.771 144.838 253.976 144.987 251.262Z" fill="#EDAE96"/>
<path d="M151.57 261.174C151.665 261.29 149.789 262.891 147.393 264.735C144.998 266.58 142.973 267.989 142.878 267.862C142.782 267.746 144.658 266.145 147.054 264.301C149.46 262.456 151.485 261.057 151.57 261.174Z" fill="#A2786B"/>
<path d="M156.488 262.127C156.541 262.17 156.106 262.827 155.269 263.792C154.432 264.756 153.181 265.996 151.644 267.205C150.107 268.403 148.591 269.325 147.457 269.897C146.323 270.48 145.581 270.745 145.549 270.682C145.475 270.533 148.284 269.145 151.305 266.77C154.336 264.417 156.361 262.011 156.488 262.127Z" fill="#A2786B"/>
<path d="M160.876 265.276C160.929 265.318 160.463 266.081 159.488 267.141C158.523 268.212 157.018 269.547 155.131 270.692C153.234 271.826 151.347 272.526 149.948 272.876C148.549 273.226 147.658 273.289 147.648 273.226C147.605 273.045 151.146 272.473 154.845 270.226C158.576 268.01 160.749 265.148 160.876 265.276Z" fill="#A2786B"/>
<path d="M173.342 262.35C173.363 262.382 173.098 262.657 172.579 263.145C172.059 263.622 171.286 264.3 170.3 265.106C168.328 266.707 165.487 268.784 162.138 270.735C160.463 271.72 158.831 272.579 157.315 273.31C155.81 274.052 154.379 274.625 153.107 274.879C151.845 275.144 150.764 275.07 150.064 274.879C149.365 274.688 149.026 274.466 149.036 274.445C149.047 274.328 150.563 275.144 153.011 274.498C154.22 274.211 155.598 273.618 157.082 272.855C158.576 272.102 160.187 271.233 161.852 270.258C165.18 268.318 168.031 266.304 170.056 264.788C172.081 263.283 173.278 262.286 173.342 262.35Z" fill="#A2786B"/>
<path d="M154.643 84.1321C144.446 83.1887 135.457 90.7889 134.694 100.997C134.058 109.498 133.464 118.688 133.454 123.32C133.433 133.274 143.365 134.959 143.365 134.959C143.365 134.959 143.079 137.906 142.75 141.552C142.093 148.909 147.637 155.364 155.014 155.809C162.243 156.244 168.455 150.732 168.879 143.503L171.253 103.456C171.836 93.5979 164.48 85.0437 154.643 84.1321Z" fill="#EDAE96"/>
<path d="M143.344 134.821C143.344 134.821 149.619 135.425 156.361 131.323C156.361 131.323 153.032 138.51 143.111 137.471L143.344 134.821Z" fill="#A2786B"/>
<path d="M170.278 106.869C170.448 106.795 177.147 104.951 176.829 111.745C176.511 118.54 169.759 116.823 169.748 116.632C169.748 116.43 170.278 106.869 170.278 106.869Z" fill="#EDAE96"/>
<path d="M171.942 114.151C171.974 114.13 172.059 114.236 172.25 114.342C172.441 114.437 172.769 114.522 173.13 114.406C173.861 114.172 174.518 113.059 174.603 111.84C174.645 111.226 174.55 110.632 174.349 110.134C174.168 109.625 173.861 109.265 173.501 109.18C173.14 109.084 172.875 109.286 172.79 109.477C172.695 109.667 172.727 109.805 172.695 109.805C172.674 109.826 172.557 109.689 172.621 109.402C172.653 109.265 172.737 109.116 172.907 108.989C173.077 108.862 173.32 108.809 173.575 108.851C174.094 108.915 174.55 109.413 174.762 109.964C175.006 110.515 175.133 111.183 175.08 111.883C174.974 113.25 174.211 114.501 173.214 114.734C172.727 114.84 172.335 114.671 172.144 114.501C171.953 114.31 171.921 114.162 171.942 114.151Z" fill="#A2786B"/>
<path d="M138.552 106.424C138.51 107.176 139.114 107.823 139.899 107.876C140.683 107.929 141.34 107.367 141.383 106.615C141.425 105.862 140.821 105.215 140.036 105.162C139.263 105.109 138.595 105.671 138.552 106.424Z" fill="#263238"/>
<path d="M137.206 104.58C137.376 104.77 138.468 103.986 139.994 104.007C141.521 104.007 142.634 104.813 142.803 104.632C142.888 104.548 142.708 104.219 142.231 103.848C141.754 103.488 140.938 103.127 139.984 103.117C139.03 103.106 138.224 103.445 137.758 103.795C137.281 104.166 137.122 104.495 137.206 104.58Z" fill="#263238"/>
<path d="M153.87 106.837C153.827 107.59 154.442 108.237 155.216 108.29C156 108.343 156.657 107.781 156.7 107.028C156.742 106.276 156.138 105.629 155.353 105.576C154.569 105.523 153.912 106.095 153.87 106.837Z" fill="#263238"/>
<path d="M152.227 105.078C152.396 105.268 153.488 104.484 155.014 104.516C156.541 104.516 157.654 105.321 157.823 105.141C157.908 105.056 157.728 104.728 157.251 104.357C156.774 103.996 155.958 103.636 155.004 103.625C154.05 103.615 153.244 103.954 152.778 104.304C152.301 104.664 152.142 104.993 152.227 105.078Z" fill="#263238"/>
<path d="M146.513 116.335C146.524 116.25 145.57 116.07 144.033 115.847C143.641 115.805 143.27 115.72 143.217 115.455C143.132 115.169 143.301 114.756 143.492 114.3C143.874 113.356 144.266 112.381 144.69 111.342C146.354 107.134 147.563 103.668 147.393 103.604C147.223 103.541 145.739 106.901 144.075 111.109C143.672 112.148 143.291 113.134 142.93 114.088C142.771 114.533 142.517 115.031 142.708 115.614C142.814 115.911 143.089 116.123 143.344 116.197C143.588 116.282 143.81 116.282 144.001 116.303C145.549 116.409 146.503 116.43 146.513 116.335Z" fill="#263238"/>
<path d="M150.456 99.5446C150.636 99.9474 152.142 99.6506 153.944 99.746C155.746 99.8096 157.23 100.234 157.442 99.8519C157.537 99.6717 157.261 99.2902 156.647 98.9298C156.042 98.5694 155.099 98.2513 154.007 98.1983C152.926 98.1559 151.951 98.3891 151.315 98.6966C150.689 99.004 150.382 99.3538 150.456 99.5446Z" fill="#263238"/>
<path d="M136.634 98.951C136.899 99.3008 137.959 98.9616 139.22 98.9616C140.482 98.9192 141.552 99.2266 141.807 98.8662C141.913 98.686 141.754 98.3362 141.287 98.0076C140.831 97.6684 140.058 97.3928 139.188 97.4034C138.319 97.414 137.556 97.7214 137.111 98.0712C136.666 98.421 136.517 98.7814 136.634 98.951Z" fill="#263238"/>
<path d="M171.063 106.562C171.137 107.601 171.084 108.809 170.851 109.827C170.618 110.844 170.024 111.83 169.081 112.286C167.363 113.113 165.233 111.777 164.491 110.017C163.749 108.258 163.993 106.265 164.194 104.368C164.47 101.781 164.65 99.1418 164.194 96.5872C163.728 94.022 162.572 91.5098 160.558 89.8562C158.544 88.2026 155.597 87.5772 153.244 88.6902C151.792 89.3792 150.69 90.63 149.333 91.4886C148.114 92.2624 146.63 92.7076 145.209 92.4638C143.789 92.22 141.86 91.2236 142.093 89.7926C142.655 86.4748 140.355 89.2626 140.503 88.6902C140.757 87.7468 142.665 86.1356 143.46 85.5526C144.923 84.4714 146.481 83.9626 148.029 83.687C152.333 82.9344 156.975 83.475 161.014 85.1498C165.053 86.8246 168.604 89.9516 170.257 94.0008C172.165 98.686 171.868 101.527 171.222 106.562" fill="#263238"/>
<path d="M149.746 120.861C149.767 121.169 148.495 121.487 146.905 121.571C145.326 121.656 144.022 121.476 144.011 121.179C143.99 120.872 145.262 120.554 146.852 120.469C148.432 120.374 149.735 120.554 149.746 120.861Z" fill="#263238"/>
<path d="M171.042 107.166C171.02 107.23 170.215 107.092 168.964 106.71C167.703 106.339 166.007 105.703 164.152 104.951C162.424 104.251 160.844 103.626 159.424 103.043C158.205 102.576 157.452 102.301 157.474 102.216C157.495 102.152 158.3 102.29 159.551 102.672C160.813 103.053 162.509 103.679 164.364 104.431C166.091 105.131 167.671 105.756 169.091 106.339C170.31 106.806 171.063 107.081 171.042 107.166Z" fill="#263238"/>
<path d="M142.761 101.294C143.662 101.4 144.404 102.089 144.542 102.99C144.807 104.77 144.51 106.647 143.672 108.237C142.581 110.293 140.609 111.872 138.351 112.466C137.058 112.805 135.606 112.816 134.472 112.106C132.892 111.109 132.405 109.032 132.267 107.166C132.161 105.799 132.203 104.346 132.956 103.202C133.91 101.739 135.786 101.177 137.535 101.082C139.263 100.986 142.761 101.294 142.761 101.294Z" fill="#263238"/>
<path d="M150.753 101.537C149.841 101.622 149.068 102.29 148.909 103.202C148.58 104.993 148.834 106.89 149.64 108.533C150.679 110.653 152.629 112.296 154.887 112.964C156.18 113.346 157.654 113.399 158.82 112.71C160.452 111.745 161.003 109.668 161.194 107.781C161.332 106.403 161.342 104.929 160.622 103.753C159.699 102.248 157.813 101.633 156.053 101.484C154.293 101.336 150.753 101.537 150.753 101.537Z" fill="#263238"/>
<path d="M152.364 101.813C152.364 101.961 149.746 102.036 146.534 101.972C143.312 101.908 140.704 101.728 140.715 101.58C140.715 101.431 143.333 101.357 146.545 101.421C149.757 101.495 152.364 101.665 152.364 101.813Z" fill="#263238"/>
<path d="M170.66 146.927C170.649 146.927 170.639 146.874 170.628 146.757C170.618 146.651 170.618 146.482 170.649 146.27C170.702 145.835 170.914 145.22 171.307 144.51C171.699 143.8 172.208 142.952 172.504 141.86C172.822 140.779 172.96 139.486 172.96 138.055C172.96 136.613 172.78 135.065 172.674 133.338C172.674 132.903 172.716 132.394 173.003 131.97C173.257 131.557 173.787 131.175 174.391 131.334C174.667 131.408 174.911 131.589 175.07 131.854C175.229 132.108 175.229 132.5 175.048 132.765C174.614 133.316 173.946 133.263 173.448 133.073C172.441 132.596 171.879 131.398 172.186 130.295C172.335 129.755 172.653 129.257 173.13 128.928C173.374 128.758 173.649 128.631 173.967 128.599C174.275 128.568 174.656 128.642 174.9 128.917C175.133 129.172 175.271 129.543 175.123 129.924C174.953 130.327 174.54 130.444 174.243 130.465C173.617 130.497 173.013 130.211 172.61 129.765C172.197 129.32 171.953 128.695 172.049 128.048C172.144 127.412 172.547 126.872 173.077 126.543C173.522 126.267 174.073 126.14 174.614 126.267C174.889 126.342 175.133 126.479 175.335 126.681C175.536 126.882 175.674 127.232 175.578 127.561C175.494 127.889 175.197 128.112 174.932 128.197C174.667 128.281 174.402 128.292 174.147 128.26C173.639 128.186 173.193 127.963 172.812 127.667C172.059 127.084 171.582 126.024 171.943 125.059C172.282 124.169 173.236 123.48 174.232 123.702C174.709 123.819 175.165 124.158 175.25 124.73C175.282 125.017 175.154 125.303 174.964 125.483C174.773 125.663 174.529 125.759 174.275 125.78C173.766 125.812 173.352 125.568 173.034 125.324C172.706 125.07 172.43 124.741 172.25 124.37C171.858 123.628 172.027 122.589 172.738 122.102C173.469 121.582 174.582 122.006 174.72 122.875L174.741 123.024L174.614 123.098C173.607 123.649 172.409 123.077 172.038 122.176C171.847 121.709 171.932 121.19 172.155 120.808C172.377 120.416 172.716 120.119 173.109 119.96C173.49 119.791 173.946 119.801 174.306 119.95C174.677 120.088 174.995 120.501 174.9 120.925C174.868 121.126 174.709 121.317 174.518 121.391C174.328 121.466 174.126 121.434 173.967 121.36C173.628 121.222 173.469 120.883 173.405 120.618C173.215 119.515 173.31 118.667 173.374 118.095C173.448 117.522 173.543 117.236 173.564 117.236C173.649 117.226 173.278 118.466 173.649 120.543C173.723 120.787 173.851 121.01 174.084 121.105C174.317 121.201 174.582 121.116 174.624 120.872C174.73 120.321 173.851 119.992 173.268 120.289C172.653 120.543 172.123 121.338 172.43 122.027C172.695 122.716 173.713 123.14 174.412 122.727L174.306 122.939C174.243 122.441 173.458 122.123 173.024 122.483C172.536 122.822 172.388 123.575 172.706 124.158C172.992 124.72 173.66 125.313 174.253 125.292C174.55 125.271 174.805 125.027 174.762 124.794C174.741 124.55 174.444 124.275 174.137 124.222C173.48 124.063 172.716 124.571 172.473 125.26C172.208 125.939 172.557 126.776 173.183 127.253C173.49 127.497 173.872 127.667 174.253 127.73C174.614 127.783 175.048 127.656 175.08 127.423C175.165 127.211 174.858 126.882 174.508 126.808C174.158 126.723 173.734 126.808 173.405 127.02C172.992 127.264 172.695 127.688 172.632 128.133C172.568 128.578 172.738 129.055 173.056 129.394C173.374 129.734 173.819 129.946 174.253 129.924C174.709 129.914 174.805 129.596 174.55 129.288C174.338 129.034 173.829 129.108 173.49 129.373C173.13 129.628 172.865 130.02 172.748 130.444C172.494 131.281 172.981 132.267 173.702 132.606C174.052 132.765 174.55 132.723 174.699 132.49C174.879 132.256 174.656 131.885 174.328 131.801C174.031 131.705 173.66 131.917 173.458 132.235C173.246 132.543 173.193 132.945 173.193 133.348C173.278 135.012 173.437 136.613 173.416 138.065C173.395 139.517 173.236 140.853 172.875 141.966C172.536 143.09 171.985 143.948 171.572 144.627C171.158 145.316 170.925 145.888 170.84 146.301C170.671 146.704 170.681 146.927 170.66 146.927Z" fill="#E0E0E0"/>
<path d="M174.561 114.395C174.497 113.887 174.381 113.367 174.105 112.933C173.84 112.498 173.384 112.138 172.875 112.095C172.303 112.042 171.72 112.413 171.529 112.954C171.338 113.473 171.582 114.13 172.027 114.459C172.038 114.47 172.049 114.47 172.059 114.48L172.07 114.491C172.112 114.523 172.155 114.544 172.186 114.565C172.367 114.682 172.61 114.692 172.791 114.798C173.151 115.021 173.268 115.508 173.257 115.932C173.236 116.356 173.119 116.78 173.151 117.215C173.172 117.522 173.352 117.883 173.66 117.893C173.935 117.904 174.116 117.628 174.232 117.385C174.667 116.462 174.699 115.402 174.561 114.395Z" fill="#E0E0E0"/>
<path d="M143.206 136.571C143.206 136.571 141.075 139.698 140.895 141.722C140.779 143.068 141.68 148.294 142.294 151.676C142.655 153.615 143.407 155.46 144.52 157.092L145.898 159.117C147.891 162.042 149.555 165.169 150.859 168.466C153.552 175.261 158.067 186.709 158.226 187.26C158.449 188.044 160.23 191.256 160.23 191.256L162.615 162.689L169.823 148.4C170.448 147.16 170.798 145.793 170.851 144.404L171.02 139.814C171.084 138.139 170.48 136.496 169.356 135.256L168.996 139.38L157.039 150.234L143.174 140.906L143.206 136.571Z" fill="white"/>
<path d="M156.435 150.329C156.498 150.425 155.099 150.838 153.933 152.682C152.725 154.474 151.824 157.357 151.029 160.59C150.944 160.908 150.87 161.226 150.796 161.523L150.69 161.947L150.35 161.671C147.934 159.647 146.079 157.559 144.743 156.075C143.418 154.58 142.623 153.647 142.676 153.594C142.729 153.541 143.619 154.389 145.019 155.82C146.428 157.24 148.326 159.276 150.7 161.258L150.255 161.406C150.329 161.11 150.403 160.791 150.488 160.473C151.283 157.24 152.269 154.294 153.605 152.481C154.262 151.58 154.961 150.965 155.523 150.679C156.085 150.361 156.435 150.308 156.435 150.329Z" fill="#263238"/>
<path d="M164.968 158.025C165.053 158.088 163.961 159.859 162.276 162.403L161.841 163.07L161.83 162.265C161.809 161.109 161.491 159.784 161.088 158.375C160.452 155.926 159.869 153.711 158.958 152.354C158.089 150.976 157.188 150.425 157.251 150.34C157.272 150.308 157.506 150.425 157.887 150.7C158.269 150.976 158.778 151.442 159.276 152.142C160.315 153.52 160.982 155.799 161.608 158.237C162 159.636 162.329 161.014 162.307 162.275L161.852 162.127C163.622 159.625 164.883 157.961 164.968 158.025Z" fill="#263238"/>
<path d="M159.498 189.295C159.35 189.306 158.661 180.645 157.972 169.95C157.283 159.255 156.848 150.573 156.997 150.563C157.145 150.552 157.834 159.212 158.523 169.908C159.212 180.614 159.647 189.284 159.498 189.295Z" fill="#263238"/>
<path d="M132.786 107.177C132.659 107.24 132.193 106.074 132.659 104.686C133.115 103.297 134.175 102.64 134.249 102.767C134.355 102.894 133.571 103.647 133.189 104.855C132.765 106.074 132.945 107.145 132.786 107.177Z" fill="#E0E0E0"/>
<path d="M150.276 107.77C150.16 107.866 149.46 106.965 149.471 105.618C149.46 104.283 150.16 103.382 150.276 103.467C150.414 103.541 150.011 104.442 150.022 105.618C150.011 106.795 150.414 107.696 150.276 107.77Z" fill="#E0E0E0"/>
</svg>
