<svg width="796" height="778" viewBox="0 0 796 778" fill="none" xmlns="http://www.w3.org/2000/svg">
<path fill-rule="evenodd" clip-rule="evenodd" d="M649.119 224.744C678.615 275.176 657.644 337.033 653.542 394.996C649.317 454.719 663.045 522.212 624.86 567.58C586.47 613.192 519.468 617.586 460.231 624.672C405.711 631.194 352.948 622.351 300.031 606.437C238.803 588.024 166.964 578.899 130.755 525.589C93.9992 471.475 96.5296 397.184 115.883 335.323C133.272 279.741 188.756 250.745 229.57 209.735C267.38 171.743 293.886 118.065 345.714 104.389C398.485 90.4648 451.79 117.278 502.991 137.589C556.897 158.972 619.648 174.356 649.119 224.744Z" fill="#8C63A9"/>
<path d="M572.063 492.851H379.363V381.308H572.063V492.851ZM380.539 491.675H570.887V382.484H380.539V491.675Z" fill="#F7CA15"/>
<path d="M532.302 440.79H405.141V444.517H532.302V440.79Z" fill="#F5F5F5"/>
<path d="M541.063 454.69H405.141V458.759H541.063V454.69Z" fill="#F5F5F5"/>
<path d="M541.063 468.755H405.141V472.824H541.063V468.755Z" fill="#F5F5F5"/>
<path d="M449.582 420.598H405.141V430.276H449.582V420.598Z" fill="#F5F5F5"/>
<path d="M571.475 381.907H379.951V399.665H571.475V381.907Z" fill="#F7CA15"/>
<path d="M556.739 397.007C556.492 396.772 558.962 393.797 562.254 390.363C565.547 386.929 568.405 384.33 568.652 384.565C568.899 384.8 566.429 387.776 563.136 391.209C559.844 394.643 556.986 397.242 556.739 397.007Z" fill="white"/>
<path d="M568.641 397.007C568.394 397.242 565.536 394.643 562.243 391.209C558.95 387.776 556.481 384.8 556.728 384.565C556.975 384.33 559.832 386.929 563.125 390.363C566.418 393.797 568.888 396.772 568.641 397.007Z" fill="white"/>
<path d="M334.899 161.043H143.375V271.41H334.899V161.043Z" fill="#F2EDF4"/>
<path d="M295.738 219.937H168.577V223.665H295.738V219.937Z" fill="#F5F5F5"/>
<path d="M304.499 233.837H168.577V237.906H304.499V233.837Z" fill="#F5F5F5"/>
<path d="M304.499 247.902H168.577V251.971H304.499V247.902Z" fill="#F5F5F5"/>
<path d="M213.018 199.745H168.577V209.423H213.018V199.745Z" fill="#F5F5F5"/>
<path d="M334.899 161.043H143.375V178.8H334.899V161.043Z" fill="#F7CA15"/>
<path d="M319.516 176.06C319.269 175.825 321.739 172.85 325.032 169.416C328.324 165.982 331.182 163.383 331.429 163.618C331.676 163.853 329.206 166.829 325.914 170.262C322.621 173.696 319.751 176.295 319.516 176.06Z" fill="white"/>
<path d="M331.418 176.06C331.171 176.295 328.313 173.696 325.02 170.262C321.728 166.829 319.258 163.853 319.505 163.618C319.752 163.383 322.61 165.982 325.902 169.416C329.195 172.85 331.665 175.837 331.418 176.06Z" fill="white"/>
<path d="M262.363 366.067H69.6638V254.523H262.363V366.067ZM70.8398 364.891H261.187V255.699H70.8398V364.891Z" fill="#F7CA15"/>
<path d="M222.614 314.005H95.4534V317.733H222.614V314.005Z" fill="#F5F5F5"/>
<path d="M231.376 327.905H95.4534V331.974H231.376V327.905Z" fill="#F5F5F5"/>
<path d="M231.376 341.97H95.4534V346.039H231.376V341.97Z" fill="#F5F5F5"/>
<path d="M139.894 293.813H95.4534V303.491H139.894V293.813Z" fill="#F5F5F5"/>
<path d="M261.775 255.111H70.2518V272.868H261.775V255.111Z" fill="#F7CA15"/>
<path d="M484.756 391.621H258.612V594.081H484.756V391.621Z" fill="#F2EDF4"/>
<path d="M269.984 327.847H92.8309V511.902H269.984V327.847Z" fill="#F5F5F5"/>
<path d="M269.984 327.847H92.8309V347.897H269.984V327.847Z" fill="#F7CA15"/>
<path d="M107.46 337.666C107.46 339.818 105.79 341.559 103.744 341.559C101.686 341.559 100.028 339.818 100.028 337.666C100.028 335.514 101.698 333.774 103.744 333.774C105.79 333.785 107.46 335.526 107.46 337.666Z" fill="white"/>
<path d="M122.548 337.666C122.548 339.818 120.878 341.559 118.832 341.559C116.774 341.559 115.116 339.818 115.116 337.666C115.116 335.514 116.786 333.774 118.832 333.774C120.878 333.785 122.548 335.526 122.548 337.666Z" fill="white"/>
<path d="M137.637 337.666C137.637 339.818 135.967 341.559 133.92 341.559C131.862 341.559 130.204 339.818 130.204 337.666C130.204 335.514 131.874 333.774 133.92 333.774C135.967 333.785 137.637 335.526 137.637 337.666Z" fill="white"/>
<path d="M546.767 201.297H320.622V426.689H546.767V201.297Z" fill="#F5F5F5"/>
<path d="M546.767 201.297H320.622V227.698H546.767V201.297Z" fill="#F7CA15"/>
<path d="M339.885 214.233C339.885 217.055 337.698 219.349 334.993 219.349C332.288 219.349 330.101 217.055 330.101 214.233C330.101 211.411 332.288 209.117 334.993 209.117C337.686 209.117 339.885 211.411 339.885 214.233Z" fill="white"/>
<path d="M358.313 210.776C360.312 212.775 360.383 215.95 358.466 217.855C356.549 219.772 353.386 219.702 351.386 217.702C349.387 215.703 349.317 212.528 351.233 210.623C353.139 208.706 356.314 208.776 358.313 210.776Z" fill="white"/>
<path d="M379.61 214.233C379.61 217.055 377.423 219.349 374.718 219.349C372.013 219.349 369.826 217.055 369.826 214.233C369.826 211.411 372.013 209.117 374.718 209.117C377.411 209.117 379.61 211.411 379.61 214.233Z" fill="white"/>
<path d="M497.916 653.881C497.916 654.046 416.255 654.187 315.542 654.187C214.794 654.187 133.156 654.046 133.156 653.881C133.156 653.716 214.794 653.575 315.542 653.575C416.255 653.575 497.916 653.716 497.916 653.881Z" fill="#272443"/>
<path d="M418.348 509.915C400.178 497.226 396.062 473.659 396.78 452.491C396.897 448.951 396.509 445.235 398.191 442.13C399.873 439.026 403.801 436.909 406.964 438.402C409.586 439.637 410.739 442.695 412.197 445.212C414.149 448.575 417.066 451.35 420.488 453.126C422.734 454.29 425.521 455.008 427.744 453.785C430.79 452.103 431.154 447.893 431.131 444.377C431.084 437.826 431.048 431.276 431.013 424.714C430.99 421.198 430.978 417.611 432.072 414.271C433.165 410.931 435.576 407.838 438.928 406.897C442.267 405.957 446.407 407.885 447.113 411.331C447.407 412.766 447.113 414.247 447.207 415.706C447.301 417.164 447.983 418.775 449.371 419.187C450.77 419.598 452.181 418.599 453.228 417.576C456.862 414.024 459.32 409.449 461.624 404.91C463.929 400.371 466.164 395.702 469.457 391.833C472.749 387.964 477.301 384.894 482.334 384.612C487.367 384.33 492.73 387.435 494.012 392.374C495.282 397.325 492.4 402.358 489.249 406.368C484.58 412.319 479.053 417.587 472.914 421.938C471.809 422.726 470.609 423.573 470.186 424.878C469.421 427.219 471.644 429.547 473.961 430.323C476.583 431.194 479.429 430.923 482.169 431.252C484.909 431.57 487.885 432.781 488.919 435.38C490.354 438.979 487.355 442.742 484.392 445.212C478.465 450.151 471.703 454.055 464.494 456.701C461.907 457.642 459.19 458.477 457.097 460.3C455.015 462.122 453.757 465.274 455.015 467.755C456.274 470.237 459.508 471.025 462.224 470.519C464.929 470.013 467.363 468.543 469.939 467.567C474.772 465.744 481.005 466.074 484.11 470.249C486.144 472.989 486.32 476.811 485.297 480.092C484.274 483.361 482.181 486.183 479.97 488.782C472.232 497.873 462.318 505.188 451.099 509.068C439.868 512.937 429.484 513.996 418.348 509.915Z" fill="#77BED0"/>
<path d="M488.931 387.552C488.943 387.564 488.825 387.67 488.59 387.882C488.331 388.117 487.99 388.422 487.543 388.811C486.626 389.622 485.262 390.822 483.557 392.421C480.135 395.596 475.337 400.382 470.127 406.921C467.516 410.178 464.788 413.871 461.942 417.881C459.108 421.903 456.097 426.219 453.098 430.876C450.111 435.533 447.113 440.519 444.42 445.905C443.067 448.598 441.856 451.409 440.621 454.278C439.398 457.148 438.151 460.053 436.893 462.993C431.895 474.788 427.509 486.183 424.369 496.826C421.205 507.469 419.335 517.324 418.512 525.673C417.666 534.035 417.842 540.856 418.183 545.536C418.371 547.876 418.548 549.699 418.712 550.922C418.783 551.51 418.83 551.969 418.877 552.322C418.912 552.639 418.924 552.804 418.912 552.804C418.9 552.804 418.865 552.651 418.818 552.333C418.759 551.992 418.689 551.534 418.595 550.946C418.383 549.723 418.171 547.912 417.948 545.56C417.524 540.879 417.289 534.035 418.077 525.638C418.842 517.253 420.688 507.34 423.816 496.662C426.932 485.972 431.319 474.541 436.317 462.746C437.575 459.806 438.822 456.889 440.057 454.02C441.291 451.162 442.514 448.328 443.879 445.623C446.583 440.214 449.606 435.216 452.616 430.559C455.627 425.902 458.661 421.586 461.519 417.576C464.388 413.565 467.14 409.884 469.786 406.639C475.054 400.112 479.923 395.373 483.404 392.244C485.133 390.68 486.52 389.504 487.473 388.728C487.932 388.352 488.284 388.07 488.555 387.846C488.802 387.635 488.931 387.54 488.931 387.552Z" fill="#272443"/>
<path d="M444.055 445.576C444.008 445.588 443.89 445.047 443.714 444.071C443.526 443.095 443.314 441.683 443.067 439.931C442.573 436.427 442.044 431.57 441.491 426.219C440.939 420.857 440.351 416.023 439.798 412.542C439.527 410.802 439.292 409.391 439.128 408.426C438.963 407.45 438.892 406.909 438.928 406.897C438.975 406.886 439.128 407.415 439.375 408.367C439.622 409.32 439.927 410.719 440.257 412.46C440.927 415.941 441.585 420.786 442.138 426.149C442.667 431.441 443.15 436.227 443.526 439.872C443.702 441.519 443.855 442.918 443.973 444.035C444.067 445.023 444.102 445.576 444.055 445.576Z" fill="#272443"/>
<path d="M489.261 437.132C489.261 437.179 488.614 437.25 487.461 437.344C486.297 437.45 484.627 437.591 482.557 437.826C478.418 438.273 472.714 439.096 466.47 440.272C460.225 441.46 454.616 442.777 450.594 443.847C448.571 444.365 446.948 444.835 445.831 445.153C444.714 445.47 444.079 445.623 444.067 445.588C444.055 445.541 444.655 445.306 445.76 444.906C446.866 444.518 448.465 443.977 450.476 443.4C454.486 442.213 460.096 440.825 466.364 439.625C472.632 438.449 478.359 437.697 482.522 437.368C484.604 437.191 486.297 437.121 487.461 437.085C488.614 437.074 489.261 437.085 489.261 437.132Z" fill="#272443"/>
<path d="M424.369 495.815C424.345 495.827 424.239 495.638 424.063 495.262C423.851 494.815 423.604 494.286 423.287 493.627C422.617 492.204 421.711 490.123 420.629 487.536C418.454 482.361 415.666 475.105 412.691 467.073C409.716 459.029 407.011 451.762 404.941 446.552C403.93 444.012 403.095 441.93 402.472 440.378C402.201 439.708 401.99 439.155 401.813 438.696C401.672 438.308 401.601 438.097 401.625 438.097C401.648 438.085 401.754 438.273 401.931 438.649C402.142 439.096 402.389 439.625 402.707 440.284C403.377 441.707 404.283 443.789 405.365 446.376C407.54 451.55 410.327 458.806 413.303 466.85C416.266 474.894 418.983 482.15 421.052 487.371C422.064 489.911 422.899 491.993 423.522 493.545C423.793 494.215 424.004 494.78 424.181 495.227C424.322 495.591 424.392 495.803 424.369 495.815Z" fill="#272443"/>
<path d="M484.439 476.446C484.439 476.47 484.239 476.552 483.839 476.693C483.369 476.846 482.793 477.046 482.099 477.281C480.488 477.798 478.312 478.504 475.666 479.363C470.233 481.127 462.765 483.643 454.51 486.442C446.254 489.241 438.751 491.687 433.283 493.345C430.543 494.168 428.332 494.815 426.791 495.227C426.074 495.415 425.486 495.568 425.016 495.697C424.604 495.791 424.392 495.838 424.381 495.815C424.381 495.791 424.581 495.709 424.98 495.568C425.451 495.415 426.027 495.215 426.721 494.98C428.332 494.462 430.508 493.757 433.154 492.898C438.587 491.134 446.054 488.618 454.31 485.819C462.565 483.02 470.068 480.574 475.537 478.927C478.277 478.104 480.488 477.457 482.028 477.046C482.745 476.858 483.333 476.705 483.804 476.575C484.215 476.47 484.427 476.434 484.439 476.446Z" fill="#272443"/>
<path d="M459.931 191.184L453.875 193.347L451.288 185.433C446.513 170.839 431.26 163.03 417.301 168.016C403.342 173.014 395.874 188.949 400.661 203.543L403.248 211.458L397.168 213.633C392.44 215.327 389.877 220.772 391.5 225.723L408.363 277.22C410.01 282.241 415.231 284.923 419.959 283.229L482.722 260.779C487.52 259.062 490.084 253.594 488.437 248.572L471.574 197.075C469.962 192.124 464.741 189.467 459.931 191.184ZM412.091 199.451C409.469 191.454 413.561 182.716 421.217 179.976C428.861 177.236 437.223 181.529 439.833 189.525L442.42 197.44L414.679 207.365L412.091 199.451ZM447.383 245.15L451.687 258.298C451.864 258.851 451.546 259.427 451.017 259.615L444.996 261.767C444.537 261.932 443.949 261.685 443.761 261.132L439.457 247.984C434.788 247.785 430.461 244.692 428.838 239.752C426.756 233.39 430.014 226.44 436.117 224.253C442.221 222.065 448.865 225.476 450.946 231.838C452.569 236.789 450.958 241.999 447.383 245.15Z" fill="#77BED0"/>
<path d="M453.604 193.206C453.663 193.371 442.373 197.593 428.391 202.65C414.408 207.707 403.024 211.67 402.966 211.517C402.907 211.352 414.196 207.13 428.179 202.073C442.174 197.017 453.545 193.054 453.604 193.206Z" fill="#272443"/>
<path d="M466.94 195.37C466.952 195.37 466.999 195.476 467.081 195.676C467.175 195.911 467.281 196.217 467.422 196.593C467.728 197.452 468.14 198.639 468.681 200.156C469.762 203.308 471.303 207.789 473.196 213.304C475.09 218.878 477.324 225.487 479.817 232.826C481.04 236.507 482.393 240.34 483.675 244.386C484.274 246.42 484.768 248.584 484.557 250.842C484.451 251.959 484.145 253.076 483.604 254.1C483.051 255.111 482.275 255.993 481.381 256.722C479.57 258.169 477.454 259.015 475.407 259.768C473.349 260.509 471.327 261.226 469.339 261.943C465.364 263.366 461.53 264.742 457.873 266.048C450.57 268.647 443.996 270.987 438.457 272.963C432.954 274.903 428.485 276.467 425.345 277.573C423.828 278.09 422.628 278.502 421.77 278.796C421.382 278.925 421.076 279.019 420.841 279.101C420.629 279.172 420.523 279.195 420.512 279.184C420.512 279.172 420.606 279.125 420.817 279.043C421.053 278.948 421.358 278.831 421.735 278.678C422.581 278.36 423.769 277.914 425.274 277.349C428.403 276.197 432.848 274.562 438.316 272.551C443.843 270.54 450.406 268.165 457.697 265.519C461.342 264.201 465.176 262.814 469.151 261.379C471.138 260.662 473.161 259.933 475.207 259.192C477.23 258.439 479.3 257.604 481.005 256.24C481.852 255.558 482.569 254.735 483.075 253.806C483.58 252.865 483.863 251.83 483.957 250.783C484.157 248.666 483.686 246.561 483.11 244.562C481.84 240.564 480.499 236.695 479.288 233.014C476.842 225.664 474.643 219.031 472.797 213.445C470.986 207.906 469.504 203.402 468.469 200.239C467.987 198.71 467.599 197.499 467.316 196.64C467.199 196.252 467.105 195.946 467.034 195.699C466.952 195.488 466.928 195.382 466.94 195.37Z" fill="#272443"/>
<path d="M433.824 179.153C433.789 179.2 433.201 178.836 432.048 178.377C430.884 177.93 429.132 177.413 426.909 177.342C424.698 177.26 422.017 177.601 419.336 178.777C416.666 179.929 414.032 181.987 412.15 184.786C410.233 187.573 409.387 190.796 409.387 193.712C409.363 196.652 409.986 199.263 410.586 201.403C411.209 203.555 411.844 205.249 412.256 206.436C412.679 207.624 412.903 208.271 412.868 208.295C412.832 208.306 412.526 207.683 412.033 206.519C411.55 205.355 410.845 203.673 410.175 201.521C409.516 199.369 408.834 196.723 408.822 193.7C408.787 190.69 409.657 187.315 411.645 184.433C413.597 181.541 416.337 179.424 419.112 178.248C421.899 177.06 424.675 176.766 426.933 176.907C429.214 177.036 430.99 177.636 432.142 178.154C432.707 178.436 433.142 178.659 433.424 178.847C433.695 179.036 433.836 179.141 433.824 179.153Z" fill="#272443"/>
<path d="M434.365 225.17C434.353 225.158 434.565 225.052 434.965 224.876C435.364 224.688 435.964 224.453 436.776 224.217C437.575 223.97 438.61 223.782 439.833 223.712C441.045 223.653 442.479 223.782 443.961 224.323C446.96 225.382 449.735 228.451 451.099 232.52C451.758 234.578 451.817 236.965 451.158 239.27C450.453 241.563 449.171 243.774 447.313 245.632L447.395 245.315C448.959 249.596 450.652 254.264 452.428 259.121L452.534 259.415L452.24 259.509C451.393 259.791 450.476 260.097 449.547 260.415C447.571 261.073 445.607 261.732 443.691 262.379L443.397 262.473L443.302 262.179C441.691 257.298 439.927 252.712 438.646 248.314L438.904 248.514C436.493 248.349 434.33 247.338 432.613 246.02C430.884 244.692 429.555 243.045 428.661 241.305C427.779 239.564 427.344 237.718 427.415 236.013C427.462 234.308 427.85 232.767 428.403 231.473C429.496 228.851 431.131 227.204 432.342 226.299C433.565 225.405 434.365 225.17 434.365 225.17C434.388 225.217 433.624 225.523 432.436 226.452C431.284 227.381 429.72 229.027 428.697 231.603C427.673 234.119 427.227 237.73 429.061 241.105C429.943 242.775 431.237 244.351 432.907 245.621C434.577 246.879 436.646 247.82 438.916 247.961L439.116 247.973L439.175 248.161C440.468 252.524 442.244 257.098 443.867 262.002L443.479 261.814C445.396 261.167 447.348 260.521 449.324 259.85C450.241 259.544 451.158 259.239 452.017 258.945L451.828 259.333C450.064 254.476 448.383 249.807 446.83 245.515L446.772 245.338L446.913 245.197C448.677 243.457 449.959 241.305 450.629 239.117C451.276 236.906 451.229 234.637 450.629 232.661C449.347 228.71 446.701 225.711 443.832 224.653C442.42 224.1 441.033 223.947 439.845 223.982C438.657 224.029 437.634 224.17 436.834 224.394C435.2 224.829 434.377 225.229 434.365 225.17Z" fill="#272443"/>
<path d="M398.015 564.728L280.556 564.187C266.432 564.128 255.025 552.615 255.084 538.492L256.33 244.021C256.389 229.886 267.902 218.479 282.038 218.537L399.496 219.078C413.62 219.149 425.027 230.65 424.969 244.774L423.722 539.244C423.663 553.38 412.15 564.787 398.015 564.728Z" fill="#455A64"/>
<path d="M399.332 229.239L376.553 229.133C373.495 229.121 371.014 231.697 371.002 234.884L370.978 239.012C370.967 242.198 368.474 244.786 365.428 244.762L321.034 244.562C317.976 244.55 315.518 241.952 315.53 238.753L315.554 234.625C315.565 231.438 313.107 228.827 310.05 228.816L302.041 228.78L282.108 228.686C272.206 228.639 264.151 236.636 264.104 246.526L262.892 533.952C262.845 543.842 270.83 551.898 280.732 551.945L397.956 552.486C407.858 552.533 415.913 544.548 415.96 534.646L417.172 247.22C417.207 237.342 409.222 229.286 399.332 229.239Z" fill="white"/>
<path d="M383.55 514.16L296.385 513.76C295.479 513.76 294.75 512.773 294.762 511.561L294.856 488.759C294.856 487.547 295.597 486.571 296.502 486.583L383.668 486.983C384.573 486.983 385.302 487.971 385.29 489.182L385.196 511.985C385.196 513.196 384.455 514.172 383.55 514.16Z" fill="#77BED0"/>
<path d="M322.542 501.437C322.12 501.435 321.714 501.366 321.325 501.229C320.941 501.091 320.644 500.912 320.434 500.689L320.672 500.227C320.876 500.434 321.149 500.603 321.489 500.734C321.83 500.86 322.181 500.924 322.544 500.926C323.052 500.928 323.434 500.838 323.689 500.655C323.945 500.467 324.073 500.224 324.074 499.926C324.075 499.699 324.005 499.517 323.865 499.381C323.731 499.246 323.563 499.142 323.363 499.071C323.163 498.994 322.885 498.912 322.528 498.823C322.101 498.713 321.761 498.609 321.507 498.51C321.253 498.406 321.034 498.251 320.851 498.044C320.674 497.838 320.586 497.559 320.587 497.207C320.588 496.92 320.665 496.661 320.818 496.429C320.97 496.192 321.204 496.003 321.518 495.864C321.833 495.725 322.222 495.656 322.688 495.658C323.012 495.66 323.329 495.707 323.637 495.801C323.95 495.889 324.22 496.012 324.447 496.17L324.242 496.648C324.005 496.49 323.751 496.372 323.481 496.295C323.21 496.213 322.945 496.171 322.686 496.17C322.188 496.167 321.811 496.263 321.556 496.457C321.306 496.645 321.181 496.891 321.18 497.194C321.179 497.421 321.246 497.605 321.38 497.747C321.52 497.883 321.693 497.989 321.898 498.066C322.109 498.137 322.39 498.217 322.742 498.305C323.158 498.41 323.493 498.514 323.747 498.618C324.006 498.717 324.225 498.869 324.402 499.076C324.58 499.277 324.668 499.55 324.667 499.897C324.665 500.183 324.586 500.445 324.428 500.683C324.275 500.915 324.039 501.1 323.719 501.24C323.4 501.373 323.007 501.439 322.542 501.437ZM325.993 495.722L326.594 495.725L326.57 501.407L325.969 501.404L325.993 495.722ZM332.432 498.593L333.008 498.596L332.999 500.763C332.733 500.994 332.418 501.172 332.055 501.294C331.692 501.417 331.31 501.478 330.91 501.476C330.342 501.473 329.831 501.346 329.378 501.095C328.924 500.844 328.568 500.499 328.31 500.059C328.053 499.615 327.925 499.119 327.927 498.572C327.929 498.026 328.061 497.534 328.323 497.097C328.585 496.654 328.943 496.31 329.399 496.063C329.854 495.816 330.369 495.694 330.943 495.697C331.376 495.699 331.773 495.771 332.135 495.913C332.497 496.05 332.802 496.254 333.05 496.526L332.675 496.906C332.227 496.46 331.657 496.236 330.965 496.232C330.505 496.23 330.088 496.331 329.713 496.535C329.345 496.734 329.054 497.014 328.841 497.375C328.629 497.731 328.522 498.131 328.52 498.575C328.518 499.019 328.622 499.42 328.831 499.778C329.041 500.136 329.329 500.419 329.696 500.626C330.063 500.833 330.477 500.938 330.937 500.94C331.521 500.943 332.017 500.799 332.424 500.509L332.432 498.593ZM339.469 495.785L339.445 501.466L338.95 501.464L335.316 496.837L335.297 501.447L334.696 501.445L334.72 495.763L335.215 495.765L338.857 500.392L338.876 495.782L339.469 495.785ZM347.837 501.554C347.101 501.551 346.528 501.337 346.119 500.913C345.709 500.489 345.506 499.874 345.509 499.068L345.523 495.813L346.124 495.815L346.11 499.046C346.107 499.706 346.254 500.199 346.55 500.525C346.847 500.851 347.276 501.016 347.839 501.018C348.407 501.021 348.841 500.861 349.14 500.537C349.439 500.214 349.59 499.722 349.592 499.062L349.606 495.831L350.19 495.834L350.177 499.089C350.173 499.895 349.965 500.509 349.552 500.929C349.144 501.349 348.573 501.557 347.837 501.554ZM354.127 495.852C354.852 495.856 355.42 496.032 355.829 496.38C356.239 496.728 356.443 497.205 356.44 497.811C356.438 498.417 356.23 498.892 355.817 499.237C355.405 499.576 354.836 499.744 354.111 499.74L352.585 499.733L352.577 501.527L351.976 501.524L352 495.843L354.127 495.852ZM354.097 499.213C354.659 499.215 355.09 499.096 355.389 498.853C355.687 498.606 355.838 498.258 355.84 497.808C355.842 497.348 355.694 496.996 355.398 496.751C355.101 496.501 354.671 496.374 354.109 496.372L352.599 496.365L352.587 499.206L354.097 499.213Z" fill="white"/>
<path d="M313.758 313.712L283.511 313.573L283.486 319.123L313.733 319.263L313.758 313.712Z" fill="#77BED0"/>
<path opacity="0.1" d="M313.758 313.712L283.511 313.573L283.486 319.123L313.733 319.263L313.758 313.712Z" fill="black"/>
<path d="M402.437 347.768C402.437 347.744 402.684 347.78 403.13 347.603C403.542 347.439 404.201 346.945 404.271 346.016C404.271 344.146 404.259 341.417 404.259 337.913C404.259 336.149 404.259 334.197 404.259 332.057C404.259 331.516 404.259 330.975 404.259 330.422C404.271 329.846 404.271 329.316 403.93 328.881C403.624 328.446 403.095 328.164 402.542 328.164C401.943 328.164 401.319 328.164 400.696 328.164C395.698 328.152 389.995 328.14 383.715 328.129C358.525 328.035 323.75 327.905 285.354 327.764C284.848 327.764 284.354 328.011 284.06 328.423C283.731 328.834 283.743 329.328 283.755 329.963C283.755 331.151 283.743 332.351 283.743 333.527C283.731 335.902 283.719 338.254 283.708 340.594C283.708 341.759 283.696 342.935 283.696 344.087C283.719 344.64 283.637 345.31 283.743 345.745C283.86 346.216 284.213 346.615 284.66 346.804C284.895 346.898 285.107 346.933 285.389 346.933H286.248L287.965 346.945C289.105 346.945 290.246 346.956 291.375 346.956C300.43 347.003 309.168 347.051 317.494 347.098C334.134 347.203 349.117 347.286 361.712 347.368C374.283 347.462 384.467 347.544 391.523 347.603C395.028 347.639 397.756 347.674 399.626 347.697C400.531 347.709 401.237 347.733 401.731 347.733C402.201 347.744 402.437 347.768 402.437 347.768C402.437 347.768 402.19 347.791 401.719 347.791C401.225 347.791 400.52 347.803 399.614 347.815C397.733 347.815 395.004 347.827 391.512 347.838C384.456 347.827 374.271 347.815 361.7 347.803C349.105 347.768 334.123 347.721 317.482 347.662C309.156 347.627 300.419 347.591 291.363 347.556C290.234 347.556 289.094 347.544 287.953 347.544L286.236 347.533H285.378C285.084 347.544 284.719 347.497 284.413 347.356C283.802 347.098 283.308 346.545 283.143 345.898C283.049 345.569 283.073 345.228 283.073 344.957V344.087C283.073 342.923 283.084 341.759 283.084 340.594C283.096 338.254 283.108 335.902 283.108 333.527C283.108 332.339 283.12 331.151 283.12 329.963C283.131 329.657 283.108 329.387 283.155 329.022C283.202 328.681 283.343 328.352 283.543 328.07C283.943 327.505 284.637 327.153 285.33 327.164C323.727 327.376 358.501 327.564 383.691 327.705C389.983 327.752 395.675 327.788 400.684 327.835C401.308 327.835 401.919 327.846 402.531 327.846C403.189 327.858 403.812 328.187 404.177 328.705C404.577 329.211 404.577 329.904 404.553 330.434C404.553 330.986 404.542 331.539 404.542 332.08C404.518 334.22 404.506 336.173 404.495 337.937C404.448 341.441 404.412 344.169 404.401 346.051C404.295 347.027 403.589 347.533 403.166 347.686C402.695 347.827 402.437 347.768 402.437 347.768Z" fill="#F7CA15"/>
<path d="M346.944 335.174L291.625 334.918L291.601 340.104L346.92 340.36L346.944 335.174Z" fill="#77BED0"/>
<path opacity="0.2" d="M346.944 335.174L291.625 334.918L291.601 340.104L346.92 340.36L346.944 335.174Z" fill="white"/>
<path d="M313.547 364.352L283.3 364.212L283.274 369.763L313.521 369.902L313.547 364.352Z" fill="#77BED0"/>
<path opacity="0.1" d="M313.547 364.352L283.3 364.212L283.274 369.763L313.521 369.902L313.547 364.352Z" fill="black"/>
<path d="M401.66 398.407C401.66 398.383 401.907 398.407 402.354 398.277C402.778 398.136 403.471 397.783 403.848 396.948C404.048 396.537 404.071 396.031 404.048 395.455C404.048 394.879 404.048 394.255 404.036 393.585C404.036 392.233 404.036 390.669 404.024 388.928C404.024 387.176 404.024 385.224 404.024 383.095C404.024 382.566 404.024 382.013 404.024 381.46C404.048 380.896 403.977 380.379 403.683 379.908C403.401 379.449 402.942 379.085 402.401 378.92C401.872 378.756 401.249 378.85 400.625 378.814C395.639 378.803 389.971 378.791 383.691 378.779C358.583 378.685 323.939 378.556 285.671 378.415C284.613 378.391 283.625 379.261 283.519 380.308C283.484 381.425 283.496 382.66 283.484 383.824C283.472 386.188 283.461 388.54 283.449 390.868C283.449 392.033 283.437 393.197 283.437 394.349C283.461 394.926 283.378 395.525 283.508 395.996C283.637 396.478 283.955 396.913 284.366 397.207C284.801 397.501 285.26 397.607 285.824 397.583L287.53 397.595C288.67 397.595 289.799 397.607 290.928 397.607C299.948 397.654 308.662 397.701 316.953 397.748C333.535 397.854 348.47 397.936 361.018 398.019C373.542 398.113 383.691 398.195 390.724 398.254C394.216 398.301 396.933 398.324 398.803 398.348C399.708 398.371 400.402 398.383 400.908 398.383C401.425 398.383 401.66 398.407 401.66 398.407C401.66 398.407 401.413 398.43 400.943 398.43C400.449 398.43 399.755 398.442 398.838 398.454C396.968 398.454 394.252 398.465 390.759 398.477C383.726 398.465 373.577 398.454 361.053 398.442C348.505 398.407 333.57 398.36 316.988 398.301C308.698 398.265 299.983 398.23 290.963 398.195C289.835 398.195 288.706 398.183 287.565 398.183L285.86 398.171C285.283 398.207 284.578 398.066 284.06 397.689C283.531 397.325 283.131 396.772 282.955 396.149C282.779 395.49 282.884 394.914 282.861 394.349C282.861 393.197 282.873 392.033 282.873 390.868C282.884 388.54 282.896 386.188 282.896 383.824C282.908 382.625 282.884 381.496 282.931 380.237C283.061 378.885 284.319 377.768 285.695 377.803C323.962 378.015 358.607 378.203 383.715 378.344C389.983 378.391 395.651 378.426 400.637 378.473C401.249 378.509 401.872 378.403 402.507 378.603C403.119 378.791 403.636 379.214 403.954 379.743C404.295 380.261 404.365 380.919 404.33 381.46C404.33 382.013 404.318 382.566 404.318 383.095C404.295 385.224 404.283 387.176 404.271 388.928C404.248 390.68 404.236 392.233 404.224 393.585C404.212 394.255 404.212 394.879 404.201 395.455C404.212 396.019 404.177 396.572 403.954 396.995C403.542 397.866 402.813 398.218 402.366 398.336C401.907 398.442 401.66 398.407 401.66 398.407Z" fill="#F7CA15"/>
<path d="M313.323 417.178L283.076 417.039L283.051 422.589L313.297 422.728L313.323 417.178Z" fill="#77BED0"/>
<path opacity="0.1" d="M313.323 417.178L283.076 417.039L283.051 422.589L313.297 422.728L313.323 417.178Z" fill="black"/>
<path d="M401.437 451.221C401.437 451.197 401.684 451.221 402.131 451.091C402.554 450.95 403.248 450.597 403.624 449.762C403.824 449.351 403.848 448.845 403.824 448.269C403.824 447.693 403.824 447.069 403.813 446.399C403.813 445.047 403.812 443.482 403.801 441.742C403.801 439.99 403.801 438.038 403.801 435.909C403.801 435.38 403.801 434.827 403.801 434.274C403.824 433.71 403.754 433.193 403.46 432.722C403.177 432.263 402.719 431.899 402.178 431.734C401.649 431.57 401.025 431.664 400.402 431.628C395.416 431.617 389.748 431.605 383.479 431.593C358.372 431.499 323.727 431.37 285.46 431.229C284.401 431.205 283.414 432.064 283.308 433.122C283.272 434.239 283.284 435.474 283.272 436.638C283.261 439.002 283.249 441.354 283.237 443.682C283.237 444.847 283.225 446.011 283.225 447.163C283.249 447.74 283.167 448.339 283.296 448.81C283.425 449.292 283.743 449.727 284.154 450.021C284.59 450.315 285.048 450.421 285.613 450.397L287.318 450.409C288.459 450.409 289.588 450.421 290.717 450.421C299.736 450.468 308.451 450.515 316.741 450.562C333.323 450.668 348.258 450.75 360.806 450.832C373.331 450.927 383.479 451.009 390.512 451.068C394.005 451.115 396.721 451.138 398.591 451.162C399.497 451.174 400.202 451.197 400.696 451.197C401.202 451.197 401.437 451.221 401.437 451.221C401.437 451.221 401.19 451.244 400.72 451.244C400.226 451.244 399.532 451.256 398.615 451.268C396.745 451.268 394.028 451.279 390.535 451.291C383.503 451.279 373.354 451.268 360.83 451.256C348.282 451.221 333.347 451.174 316.765 451.115C308.474 451.079 299.76 451.044 290.74 451.009C289.611 451.009 288.482 450.997 287.341 450.997L285.636 450.985C285.06 451.021 284.354 450.88 283.837 450.503C283.308 450.139 282.908 449.586 282.732 448.963C282.555 448.304 282.661 447.728 282.637 447.152C282.637 445.999 282.649 444.835 282.649 443.671C282.661 441.342 282.673 438.99 282.673 436.626C282.684 435.427 282.661 434.298 282.708 433.04C282.837 431.687 284.096 430.57 285.472 430.605C323.739 430.817 358.384 431.005 383.491 431.146C389.759 431.193 395.428 431.229 400.414 431.276C401.025 431.311 401.649 431.205 402.284 431.405C402.895 431.593 403.413 432.017 403.73 432.546C404.071 433.063 404.142 433.722 404.107 434.263C404.107 434.815 404.095 435.368 404.095 435.897C404.071 438.026 404.059 439.978 404.048 441.73C404.024 443.483 404.012 445.035 404.001 446.387C403.989 447.058 403.989 447.681 403.977 448.257C403.989 448.822 403.954 449.374 403.73 449.798C403.319 450.668 402.589 451.021 402.143 451.138C401.696 451.268 401.437 451.221 401.437 451.221Z" fill="#F7CA15"/>
<path d="M346.733 385.813L291.414 385.557L291.39 390.744L346.709 390.999L346.733 385.813Z" fill="#77BED0"/>
<path opacity="0.2" d="M346.733 385.813L291.414 385.557L291.39 390.744L346.709 390.999L346.733 385.813Z" fill="white"/>
<path d="M296.432 441.625C296.42 443.048 295.338 444.2 293.998 444.188C292.657 444.177 291.587 443.024 291.587 441.601C291.599 440.178 292.68 439.026 294.021 439.037C295.362 439.037 296.444 440.202 296.432 441.625Z" fill="#77BED0"/>
<path d="M303.923 441.66C303.911 443.083 302.829 444.235 301.489 444.224C300.148 444.224 299.078 443.059 299.078 441.636C299.078 440.213 300.172 439.061 301.512 439.073C302.853 439.073 303.935 440.225 303.923 441.66Z" fill="#77BED0"/>
<path d="M311.426 441.695C311.426 443.118 310.332 444.271 308.992 444.259C307.651 444.259 306.581 443.095 306.581 441.672C306.593 440.249 307.675 439.096 309.015 439.108C310.356 439.108 311.426 440.26 311.426 441.695Z" fill="#77BED0"/>
<path d="M318.917 441.73C318.917 443.153 317.823 444.306 316.483 444.294C315.142 444.294 314.072 443.13 314.072 441.707C314.072 440.284 315.166 439.131 316.506 439.143C317.847 439.143 318.929 440.296 318.917 441.73Z" fill="#77BED0"/>
<path d="M326.408 441.754C326.408 443.177 325.314 444.329 323.974 444.318C322.633 444.318 321.563 443.154 321.563 441.731C321.575 440.308 322.657 439.155 323.997 439.167C325.338 439.179 326.42 440.331 326.408 441.754Z" fill="#77BED0"/>
<path d="M333.911 441.789C333.911 443.212 332.817 444.365 331.477 444.353C330.136 444.353 329.066 443.189 329.066 441.766C329.066 440.343 330.16 439.19 331.5 439.202C332.829 439.214 333.911 440.366 333.911 441.789Z" fill="#77BED0"/>
<path d="M341.402 441.825C341.39 443.248 340.309 444.4 338.968 444.388C337.627 444.377 336.557 443.224 336.557 441.801C336.557 440.378 337.651 439.226 338.991 439.237C340.332 439.249 341.402 440.402 341.402 441.825Z" fill="#77BED0"/>
<path d="M348.893 441.86C348.893 443.283 347.8 444.435 346.459 444.423C345.118 444.412 344.048 443.259 344.048 441.836C344.048 440.413 345.142 439.261 346.483 439.273C347.823 439.273 348.905 440.437 348.893 441.86Z" fill="#77BED0"/>
<path d="M356.384 441.895C356.384 443.318 355.291 444.471 353.95 444.459C352.609 444.459 351.539 443.295 351.539 441.872C351.551 440.449 352.633 439.296 353.974 439.308C355.314 439.308 356.396 440.472 356.384 441.895Z" fill="#77BED0"/>
<g opacity="0.2">
<g opacity="0.2">
<path opacity="0.2" d="M296.432 441.625C296.42 443.048 295.338 444.2 293.998 444.188C292.657 444.177 291.587 443.024 291.587 441.601C291.599 440.178 292.68 439.026 294.021 439.037C295.362 439.037 296.444 440.202 296.432 441.625Z" fill="white"/>
</g>
<g opacity="0.2">
<path opacity="0.2" d="M303.923 441.66C303.911 443.083 302.829 444.235 301.489 444.224C300.148 444.224 299.078 443.059 299.078 441.636C299.078 440.213 300.172 439.061 301.512 439.073C302.853 439.073 303.935 440.225 303.923 441.66Z" fill="white"/>
</g>
<g opacity="0.2">
<path opacity="0.2" d="M311.426 441.695C311.426 443.118 310.332 444.271 308.992 444.259C307.651 444.259 306.581 443.095 306.581 441.672C306.593 440.249 307.675 439.096 309.015 439.108C310.356 439.108 311.426 440.26 311.426 441.695Z" fill="white"/>
</g>
<g opacity="0.2">
<path opacity="0.2" d="M318.917 441.73C318.917 443.153 317.823 444.306 316.483 444.294C315.142 444.294 314.072 443.13 314.072 441.707C314.072 440.284 315.166 439.131 316.506 439.143C317.847 439.143 318.929 440.296 318.917 441.73Z" fill="white"/>
</g>
<g opacity="0.2">
<path opacity="0.2" d="M326.408 441.754C326.408 443.177 325.314 444.329 323.974 444.318C322.633 444.318 321.563 443.154 321.563 441.731C321.575 440.308 322.657 439.155 323.997 439.167C325.338 439.179 326.42 440.331 326.408 441.754Z" fill="white"/>
</g>
<g opacity="0.2">
<path opacity="0.2" d="M333.911 441.789C333.911 443.212 332.817 444.365 331.477 444.353C330.136 444.353 329.066 443.189 329.066 441.766C329.066 440.343 330.16 439.19 331.5 439.202C332.829 439.214 333.911 440.366 333.911 441.789Z" fill="white"/>
</g>
<g opacity="0.2">
<path opacity="0.2" d="M341.402 441.825C341.39 443.248 340.309 444.4 338.968 444.388C337.627 444.377 336.557 443.224 336.557 441.801C336.557 440.378 337.651 439.226 338.991 439.237C340.332 439.249 341.402 440.402 341.402 441.825Z" fill="white"/>
</g>
<g opacity="0.2">
<path opacity="0.2" d="M348.893 441.86C348.893 443.283 347.8 444.435 346.459 444.423C345.118 444.412 344.048 443.259 344.048 441.836C344.048 440.413 345.142 439.261 346.483 439.273C347.823 439.273 348.905 440.437 348.893 441.86Z" fill="white"/>
</g>
<g opacity="0.2">
<path opacity="0.2" d="M356.384 441.895C356.384 443.318 355.291 444.471 353.95 444.459C352.609 444.459 351.539 443.295 351.539 441.872C351.551 440.449 352.633 439.296 353.974 439.308C355.314 439.308 356.396 440.472 356.384 441.895Z" fill="white"/>
</g>
</g>
<path d="M345.742 272.128C347.329 271.469 348.446 269.834 348.458 267.906C348.47 265.389 346.565 263.331 344.201 263.319C341.837 263.308 339.92 265.342 339.909 267.859C339.897 269.799 341.038 271.446 342.637 272.116C336.051 273.104 336.357 280.266 336.357 280.266L351.916 280.336C351.916 280.336 352.269 273.104 345.742 272.128Z" fill="#77BED0"/>
<path opacity="0.1" d="M345.742 272.128C347.329 271.469 348.446 269.834 348.458 267.906C348.47 265.389 346.565 263.331 344.201 263.319C341.837 263.308 339.92 265.342 339.909 267.859C339.897 269.799 341.038 271.446 342.637 272.116C336.051 273.104 336.357 280.266 336.357 280.266L351.916 280.336C351.916 280.336 352.269 273.104 345.742 272.128Z" fill="black"/>
<path d="M371.032 285.029L315.537 284.773L315.506 291.405L371.002 291.661L371.032 285.029Z" fill="#77BED0"/>
<path opacity="0.2" d="M371.032 285.029L315.537 284.773L315.506 291.405L371.002 291.661L371.032 285.029Z" fill="white"/>
<path d="M167.025 319.368C167.025 319.379 166.837 319.403 166.484 319.427C166.096 319.45 165.567 319.497 164.884 319.544C164.179 319.556 163.32 319.709 162.309 319.885C161.803 319.991 161.251 320.026 160.674 320.191C160.098 320.356 159.498 320.52 158.852 320.697C156.311 321.496 153.254 322.766 150.184 325.001C147.115 327.212 144.046 330.375 141.647 334.503C140.388 336.526 139.471 338.878 138.66 341.335C137.989 343.84 137.401 346.498 137.354 349.309C137.225 350.708 137.366 352.131 137.425 353.578C137.46 354.295 137.613 355.012 137.707 355.741C137.801 356.471 137.907 357.2 138.119 357.917C138.718 360.845 139.906 363.703 141.412 366.455C144.422 371.97 149.479 376.721 155.735 379.473C158.863 380.849 162.321 381.602 165.837 381.743C169.353 381.966 172.964 381.402 176.386 380.226L177.421 379.849L177.562 379.802L177.691 379.861C182.748 382.425 187.711 384.953 192.52 387.388L192.074 387.764C190.486 382.848 188.957 378.085 187.487 373.511L187.428 373.334L187.558 373.205C191.297 369.465 193.896 364.914 195.343 360.257C196.789 355.589 197.036 350.837 196.472 346.475C195.907 342.112 194.484 338.137 192.579 334.797C190.674 331.445 188.31 328.717 185.888 326.6C183.43 324.495 180.878 323.06 178.597 321.967C176.256 320.991 174.175 320.367 172.446 320.026C171.576 319.873 170.812 319.744 170.141 319.638C169.471 319.591 168.906 319.556 168.436 319.521C168.001 319.485 167.648 319.462 167.389 319.438C167.142 319.391 167.025 319.379 167.025 319.368C167.025 319.356 167.142 319.356 167.378 319.356C167.636 319.368 167.989 319.368 168.424 319.391C168.895 319.415 169.471 319.438 170.141 319.462C170.823 319.568 171.599 319.673 172.47 319.803C174.222 320.109 176.327 320.708 178.702 321.673C181.019 322.755 183.606 324.178 186.111 326.294C188.593 328.423 191.003 331.163 192.956 334.562C194.908 337.937 196.378 341.97 196.966 346.404C197.554 350.826 197.33 355.659 195.872 360.422C194.414 365.161 191.78 369.806 187.969 373.628L188.04 373.323C189.522 377.897 191.062 382.66 192.65 387.564L192.885 388.281L192.215 387.94C187.405 385.506 182.442 382.989 177.374 380.414L177.632 380.426L176.574 380.814C173.081 382.013 169.389 382.589 165.79 382.366C162.191 382.213 158.663 381.449 155.465 380.038C149.079 377.215 143.928 372.358 140.871 366.737C139.342 363.938 138.142 361.01 137.542 358.035C137.331 357.305 137.225 356.565 137.131 355.824C137.037 355.083 136.884 354.354 136.849 353.625C136.79 352.155 136.66 350.708 136.79 349.297C136.849 346.451 137.46 343.746 138.154 341.206C139.001 338.713 139.942 336.337 141.223 334.291C143.681 330.116 146.809 326.941 149.938 324.73C153.066 322.508 156.17 321.249 158.746 320.485C159.393 320.32 160.016 320.156 160.592 320.003C161.168 319.838 161.733 319.815 162.238 319.721C163.262 319.556 164.132 319.427 164.837 319.438C165.52 319.415 166.06 319.403 166.449 319.379C166.837 319.356 167.025 319.356 167.025 319.368Z" fill="#77BED0"/>
<path d="M173.728 346.827H171.552L166.813 340.218V335.879C166.813 335.879 163.45 335.667 163.85 341.347C164.249 347.027 163.814 345.581 163.814 345.581C163.814 345.581 156.676 345.604 156.088 346.228C155.653 346.674 155.465 353.766 155.382 357.611C155.347 359.552 156.535 361.339 158.334 361.798C158.593 361.868 158.852 361.904 159.099 361.904C160.874 361.904 169.965 360.457 169.965 360.457H173.716V346.827H173.728Z" fill="#77BED0"/>
<path d="M179.949 345.628L178.608 360.492H174.892V345.933L179.949 345.628Z" fill="#77BED0"/>
<path d="M224.273 648.248V638.181L206.244 638.064L206.092 653.258L207.209 653.34C212.183 653.657 232.516 654.128 235.844 653.093C239.572 651.952 224.273 648.248 224.273 648.248Z" fill="#77BED0"/>
<path d="M236.279 652.164C236.279 652.329 229.541 652.47 221.215 652.47C212.901 652.47 206.15 652.329 206.15 652.164C206.15 651.999 212.889 651.858 221.215 651.858C229.529 651.858 236.279 651.999 236.279 652.164Z" fill="#272443"/>
<path d="M224.59 650.306C224.437 650.223 224.567 649.694 224.955 649.177C225.343 648.648 225.813 648.377 225.931 648.495C226.048 648.612 225.801 649.059 225.449 649.541C225.096 650.012 224.743 650.388 224.59 650.306Z" fill="#272443"/>
<path d="M225.743 650.964C225.59 650.906 225.672 650.306 226.025 649.683C226.378 649.047 226.848 648.671 226.977 648.777C227.107 648.883 226.883 649.4 226.554 649.977C226.225 650.565 225.895 651.023 225.743 650.964Z" fill="#272443"/>
<path d="M211.583 652.117C211.513 652.164 211.242 651.905 210.854 651.458C210.466 651.023 209.949 650.4 209.278 649.871C208.608 649.353 207.867 649.083 207.326 649.024C206.774 648.953 206.421 649.036 206.386 648.942C206.35 648.871 206.691 648.624 207.338 648.589C207.973 648.542 208.879 648.789 209.643 649.389C210.407 649.977 210.89 650.694 211.195 651.2C211.513 651.729 211.654 652.07 211.583 652.117Z" fill="#272443"/>
<path d="M224.649 648.412C224.743 648.554 224.425 648.906 223.908 649.094C223.39 649.283 222.932 649.224 222.908 649.047C222.885 648.883 223.249 648.683 223.696 648.518C224.143 648.354 224.555 648.271 224.649 648.412Z" fill="#272443"/>
<path d="M224.367 647.436C224.378 647.601 223.908 647.754 223.297 647.754C222.685 647.766 222.203 647.636 222.215 647.46C222.226 647.295 222.708 647.142 223.285 647.142C223.861 647.142 224.343 647.272 224.367 647.436Z" fill="#272443"/>
<path d="M268.666 648.248V638.181L250.638 638.064L250.485 653.105L251.603 653.187C256.577 653.505 276.91 654.128 280.238 653.105C283.966 651.952 268.666 648.248 268.666 648.248Z" fill="#77BED0"/>
<path d="M280.673 652.187C280.673 652.352 273.935 652.493 265.609 652.493C257.295 652.493 250.544 652.352 250.544 652.187C250.544 652.023 257.283 651.882 265.609 651.882C273.935 651.882 280.673 652.023 280.673 652.187Z" fill="#272443"/>
<path d="M268.984 650.306C268.831 650.223 268.96 649.694 269.349 649.177C269.737 648.648 270.207 648.377 270.325 648.495C270.442 648.612 270.195 649.059 269.842 649.541C269.49 650.012 269.137 650.388 268.984 650.306Z" fill="#272443"/>
<path d="M270.136 650.964C269.983 650.906 270.066 650.306 270.419 649.683C270.771 649.047 271.242 648.671 271.371 648.777C271.501 648.883 271.277 649.4 270.948 649.977C270.619 650.565 270.301 651.023 270.136 650.964Z" fill="#272443"/>
<path d="M255.977 652.117C255.907 652.164 255.636 651.905 255.248 651.458C254.86 651.023 254.343 650.4 253.672 649.871C253.002 649.353 252.261 649.083 251.72 649.024C251.168 648.953 250.815 649.036 250.779 648.942C250.744 648.871 251.085 648.624 251.732 648.589C252.367 648.542 253.273 648.789 254.037 649.389C254.801 649.977 255.284 650.694 255.589 651.2C255.907 651.729 256.048 652.07 255.977 652.117Z" fill="#272443"/>
<path d="M269.043 648.412C269.125 648.554 268.819 648.906 268.302 649.094C267.784 649.283 267.326 649.224 267.302 649.047C267.279 648.883 267.643 648.683 268.09 648.518C268.549 648.354 268.949 648.271 269.043 648.412Z" fill="#272443"/>
<path d="M268.76 647.436C268.772 647.601 268.302 647.754 267.69 647.754C267.079 647.766 266.597 647.636 266.608 647.46C266.62 647.295 267.102 647.142 267.679 647.142C268.255 647.142 268.737 647.272 268.76 647.436Z" fill="#272443"/>
<path d="M335.087 349.661C334.617 349.179 333.464 349.403 333.464 349.403C333.464 349.403 333.664 348.027 333.452 347.368C333.241 346.698 331.759 346.827 331.759 346.827C331.759 346.827 331.665 346.192 331.794 345.157C331.829 344.899 331.688 344.71 331.453 344.569C330.747 344.146 329.242 344.169 329.242 344.169C328.337 343.523 332.006 338.383 333.37 336.737C334.711 335.114 334.487 333.809 333.276 333.809C332.453 333.809 328.16 338.748 326.855 340.406C325.55 342.064 322.033 346.674 321.916 342.993C321.798 339.313 320.316 336.525 319.399 336.055C318.47 335.585 317.482 336.69 317.988 337.713C318.399 338.536 318.658 340.136 318.811 341.335C318.929 342.323 318.893 343.334 318.67 344.311C318.058 347.062 317.4 348.862 317.082 349.626L316.988 349.579C316.988 349.579 291.316 374.193 289.47 375.945C287.8 377.521 254.449 374.075 247.769 373.369C245.946 373.17 243.241 372.793 240.889 372.899C237.996 373.028 237.479 373.44 234.574 373.475C225.695 373.593 218.287 374.463 212.783 375.392C206.127 376.521 200.658 381.26 198.6 387.693C191.862 408.744 176.597 458.571 173.881 486.559C171.741 490.581 169.341 495.285 168.377 497.931C166.484 503.082 166.942 503.247 167.577 503.376C169.283 503.694 171.247 494.45 171.976 496.685C172.705 498.919 168.271 507.704 170.071 507.963C172.423 508.304 174.292 498.59 174.504 497.779C174.716 496.991 175.904 497.261 175.668 497.978C175.327 499.013 172.023 509.985 174.316 510.338C175.598 510.538 175.727 508.21 175.727 508.21C175.727 508.21 178.067 497.72 179.149 497.92C180.243 498.12 179.079 504.329 178.538 506.399C177.997 508.445 178.761 509.527 179.855 509.009C180.608 508.657 182.407 502.377 182.901 500.319C183.383 498.261 184.629 492.604 186.288 495.885C187.946 499.166 190.462 501.071 191.497 501.118C192.532 501.154 192.967 499.731 192.074 499.013C191.344 498.437 190.439 497.108 189.804 496.073C189.275 495.227 188.887 494.298 188.675 493.321C187.852 489.558 187.852 487.371 187.852 487.371L187.664 486.16C190.298 473.118 197.883 434.839 208.796 410.39L213.289 419.633L215.241 426.478L203.269 456.042L254.319 455.372L246.711 426.043L255.954 395.467C265.962 395.69 291.669 396.066 295.985 394.138C301.371 391.727 329.242 356.6 329.242 356.6C331.124 355.106 333.041 353.483 334.452 352.084C334.44 352.06 336.11 350.72 335.087 349.661Z" fill="#FFBE9D"/>
<path d="M201.035 434.275C202.516 429.218 210.125 404.216 210.125 404.216C210.125 404.216 213.865 424.596 212.877 427.054C211.748 429.888 209.667 433.122 209.667 433.122C201.035 446.27 202.164 452.844 202.164 452.844L254.308 451.256C254.437 443.965 250.121 427.007 249.215 424.302C248.31 421.597 251.309 412.73 251.309 412.73C251.309 412.73 257.2 406.744 256.977 403.663C256.518 397.454 255.954 395.455 255.954 395.455L287.682 396.619L286.683 375.087L241.078 370.524C239.502 375.016 225.131 372.817 225.131 372.817C209.62 373.323 208.69 376.18 202.222 381.19C195.754 386.2 185.112 429.194 185.112 429.194L201.035 434.275Z" fill="#77BED0"/>
<path d="M231.869 429.183C231.869 429.265 230.823 429.335 229.118 429.324C227.424 429.312 225.072 429.206 222.497 428.947C219.921 428.689 217.593 428.324 215.935 427.995C214.265 427.665 213.253 427.395 213.265 427.313C213.277 427.23 214.324 427.348 216.005 427.571C217.687 427.783 219.992 428.077 222.556 428.336C225.119 428.595 227.448 428.771 229.129 428.889C230.835 429.018 231.881 429.1 231.869 429.183Z" fill="#272443"/>
<path d="M235.444 424.749C235.468 424.82 234.386 425.231 232.599 425.725C230.811 426.207 228.294 426.748 225.472 427.089C222.65 427.418 220.074 427.489 218.228 427.442C216.37 427.395 215.229 427.242 215.229 427.16C215.229 427.066 216.381 427.066 218.228 427.007C220.074 426.948 222.614 426.819 225.401 426.478C228.189 426.148 230.693 425.678 232.504 425.302C234.304 424.925 235.421 424.667 235.444 424.749Z" fill="#272443"/>
<path d="M252.99 404.969C253.073 404.98 252.943 406.003 252.638 407.626C252.332 409.249 251.861 411.484 251.262 413.942C250.662 416.399 250.05 418.598 249.568 420.174C249.086 421.762 248.733 422.726 248.651 422.703C248.569 422.679 248.769 421.68 249.145 420.068C249.592 418.234 250.097 416.129 250.662 413.8C251.238 411.472 251.756 409.379 252.214 407.544C252.614 405.933 252.896 404.957 252.99 404.969Z" fill="#272443"/>
<path d="M201.588 431.276C201.54 431.441 197.942 430.606 193.555 429.406C189.157 428.207 185.641 427.101 185.688 426.936C185.735 426.772 189.334 427.619 193.72 428.806C198.107 430.006 201.635 431.111 201.588 431.276Z" fill="#272443"/>
<path d="M256.518 395.185C256.518 395.208 256.036 395.267 255.166 395.173C254.308 395.079 253.037 394.879 251.579 394.314C250.121 393.762 248.451 392.856 246.899 391.468C245.346 390.092 243.959 388.187 243.077 385.953C242.183 383.719 241.877 381.39 242.018 379.32C242.159 377.251 242.7 375.381 243.629 374.075C244.547 372.746 245.758 372.111 246.605 371.888C247.028 371.77 247.381 371.747 247.604 371.759C247.84 371.77 247.957 371.794 247.957 371.806C247.957 371.864 247.475 371.841 246.675 372.111C245.899 372.394 244.794 373.052 243.982 374.322C242.383 376.839 241.936 381.437 243.641 385.729C244.5 387.882 245.805 389.704 247.275 391.045C248.745 392.397 250.333 393.326 251.732 393.914C254.578 395.09 256.542 395.043 256.518 395.185Z" fill="#272443"/>
<path d="M283.931 396.196C283.766 396.196 283.637 391.339 283.649 385.365C283.66 379.379 283.802 374.522 283.978 374.522C284.143 374.522 284.272 379.379 284.26 385.365C284.248 391.339 284.107 396.196 283.931 396.196Z" fill="#272443"/>
<path d="M240.795 371.841C240.925 369.218 241.195 366.255 241.195 366.255C241.195 366.255 247.687 365.537 248.075 358.834C248.463 352.131 248.075 336.667 248.075 336.667L236.256 330.646L223.261 340.912L225.237 374.428L237.197 375.192C239.078 375.31 240.701 373.805 240.795 371.841Z" fill="#FFBE9D"/>
<path d="M241.959 353.531C241.983 353.531 241.983 353.66 241.854 353.825C241.736 353.977 241.477 354.166 241.113 354.154C240.36 354.119 239.631 353.284 239.372 352.272C239.243 351.755 239.243 351.237 239.337 350.779C239.419 350.332 239.678 349.885 240.043 349.767C240.219 349.697 240.407 349.709 240.536 349.779C240.678 349.85 240.76 349.956 240.807 350.05C240.889 350.25 240.83 350.367 240.807 350.355C240.783 350.355 240.783 350.25 240.689 350.12C240.595 349.991 240.372 349.873 240.137 350.003C239.89 350.12 239.713 350.438 239.654 350.838C239.584 351.237 239.584 351.708 239.713 352.166C239.948 353.072 240.583 353.825 241.136 353.895C241.418 353.93 241.642 353.825 241.771 353.719C241.889 353.613 241.936 353.519 241.959 353.531Z" fill="#EB996E"/>
<path d="M252.108 333.056C251.203 329.975 247.922 328.435 244.935 327.588C240.384 326.294 235.456 325.73 231.023 327.364C226.577 328.999 221.238 331.88 221.238 336.784C218.616 336.573 217.122 338.866 216.076 341.712C215.464 343.393 215.053 345.263 214.958 347.121L214.911 347.11C214.57 353.53 212.783 362.386 208.62 367.137C206.315 369.759 203.01 371.57 201.67 374.84C200.505 377.686 201.105 381.037 200.012 383.907C199.035 386.435 196.883 388.234 195.343 390.433C191.979 395.231 191.756 402.005 194.226 407.356C196.695 412.707 201.587 416.623 207.02 418.422C212.454 420.221 218.381 420.021 223.908 418.575C227.989 417.517 231.963 415.753 235.221 412.966C238.478 410.19 240.972 406.321 241.712 402.005C242.536 397.195 241.195 392.327 240.207 387.552C237.079 372.452 237.973 371.676 241.924 357.67C242.018 357.423 242.065 357.164 242.136 356.917C242.183 356.729 242.242 356.553 242.289 356.365H242.277C242.383 355.812 242.465 355.259 242.465 354.695C241.324 355.142 239.937 354.848 239.066 353.954C238.184 353.072 237.867 351.637 238.267 350.438C238.725 349.05 239.996 348.133 241.301 347.58C242.606 347.027 244.006 346.757 245.288 346.145C248.004 344.852 249.886 342.17 251.168 339.36C252.05 337.384 252.72 335.138 252.108 333.056Z" fill="#272443"/>
<path d="M242.43 353.813C242.465 353.801 242.7 354.236 243.053 354.977C243.406 355.718 243.876 356.764 244.394 357.976L244.488 358.199L244.241 358.223C243.853 358.258 243.453 358.293 243.041 358.329C242.218 358.387 241.536 358.481 240.736 358.47C240.607 358.446 240.466 358.329 240.431 358.199C240.384 358.07 240.395 357.964 240.407 357.87C240.442 357.682 240.478 357.552 240.513 357.388L240.725 356.553C240.983 355.541 241.172 354.918 241.219 354.93C241.266 354.942 241.172 355.588 240.972 356.612L240.807 357.458C240.748 357.741 240.642 358.164 240.795 358.14C241.383 358.117 242.218 358.023 242.994 357.964C243.406 357.929 243.794 357.905 244.194 357.87L244.041 358.117C243.535 356.906 243.112 355.835 242.818 355.071C242.536 354.307 242.383 353.836 242.43 353.813Z" fill="#77BED0"/>
<path d="M202.164 452.832L254.308 451.244L276.981 539.844L272.806 641.474H245.205L248.627 542.008L228.459 480.327L231.564 645.414L203.704 645.825L200.764 490.652C200.647 486.336 199.224 476.611 199.753 472.33L202.164 452.832Z" fill="#272443"/>
<path d="M235.409 481.585C235.397 481.668 234.421 481.621 232.857 481.432C231.293 481.244 229.129 480.915 226.766 480.445C224.402 479.962 222.285 479.433 220.768 478.998C219.251 478.563 218.334 478.234 218.345 478.151C218.392 477.987 222.179 478.904 226.883 479.845C231.587 480.786 235.433 481.409 235.409 481.585Z" fill="#455A64"/>
<path d="M272.559 635.9C272.559 636.065 266.315 636.206 258.6 636.206C250.885 636.206 244.641 636.065 244.641 635.9C244.641 635.735 250.885 635.594 258.6 635.594C266.315 635.594 272.559 635.724 272.559 635.9Z" fill="#455A64"/>
<path d="M231.328 641.121C231.328 641.286 225.272 641.427 217.793 641.427C210.313 641.427 204.257 641.286 204.257 641.121C204.257 640.957 210.313 640.815 217.793 640.815C225.26 640.815 231.328 640.957 231.328 641.121Z" fill="#455A64"/>
<path d="M227.73 640.698C227.565 640.698 226.824 604.63 226.095 560.142C225.354 515.642 224.908 479.562 225.072 479.562C225.237 479.562 225.978 515.63 226.707 560.13C227.448 604.618 227.906 640.698 227.73 640.698Z" fill="#455A64"/>
<path d="M268.855 635.9C268.843 635.9 268.843 635.735 268.843 635.418C268.855 635.077 268.855 634.606 268.866 634.007C268.902 632.737 268.961 630.914 269.019 628.597C269.184 623.858 269.419 617.072 269.713 608.687C270.36 591.847 271.242 568.645 272.23 543.008C272.242 542.772 272.253 542.537 272.253 542.314L272.265 542.396C266.079 517.653 260.493 495.286 256.448 479.069C254.46 470.989 252.849 464.451 251.732 459.888C251.191 457.642 250.78 455.89 250.486 454.667C250.356 454.09 250.25 453.643 250.18 453.302C250.109 452.997 250.086 452.832 250.097 452.832C250.109 452.832 250.156 452.985 250.239 453.291C250.333 453.62 250.45 454.067 250.603 454.631C250.921 455.854 251.379 457.595 251.967 459.829C253.132 464.38 254.813 470.907 256.871 478.963C260.964 495.168 266.609 517.524 272.865 542.255L272.877 542.302V542.349C272.865 542.561 272.853 542.808 272.853 543.043C271.806 568.668 270.854 591.882 270.16 608.711C269.784 617.096 269.49 623.881 269.278 628.609C269.16 630.937 269.066 632.748 269.008 634.018C268.972 634.618 268.937 635.077 268.925 635.43C268.89 635.735 268.866 635.9 268.855 635.9Z" fill="#455A64"/>
<path d="M259.858 540.244C259.882 540.409 257.153 541.02 253.767 541.596C251.226 542.031 249.039 542.337 248.087 542.384V542.149C248.404 542.231 248.58 542.302 248.569 542.349C248.557 542.396 248.381 542.408 248.051 542.396L247.334 542.361L248.039 542.149C248.957 541.879 251.121 541.432 253.661 540.997C257.059 540.409 259.835 540.079 259.858 540.244Z" fill="#455A64"/>
<path d="M259.341 543.619C259.317 543.784 256.871 543.596 253.849 543.372C250.827 543.137 248.38 542.937 248.38 542.772C248.38 542.608 250.85 542.525 253.896 542.761C256.93 542.996 259.353 543.454 259.341 543.619Z" fill="#455A64"/>
<path opacity="0.2" d="M201.94 454.702C203.199 456.478 204.998 457.101 207.091 457.442C209.184 457.783 211.313 457.559 213.418 457.324C226.883 455.831 241.136 454.455 254.319 451.244C237.256 452.197 219.239 451.879 202.176 452.832C202.176 452.832 202.034 454.008 201.999 454.29" fill="black"/>
<g opacity="0.2">
<path opacity="0.2" d="M219.521 478.751L229.141 516.077L228.471 480.327L219.521 478.751Z" fill="black"/>
</g>
</svg>
