<svg width="265" height="136" viewBox="0 0 265 136" fill="none" xmlns="http://www.w3.org/2000/svg">
<path d="M23.657 135.017C23.657 135.017 -6.30365 102.849 18.5901 68.0217C40.6775 37.1213 66.4301 39.2329 85.3232 51.7729C93.3706 57.1142 116.571 52.4312 136.318 20.9889C163.247 -21.8905 256.593 4.11627 239.573 70.0867C231.337 102.012 264.64 103.173 247.671 135.085L23.657 135.017Z" fill="#DAF7FF"/>
<path d="M92.9681 21.6802L65.9407 47.3253L91.5858 74.3527L118.613 48.7076L92.9681 21.6802Z" fill="#FCF0BE"/>
<path d="M92.9675 21.6803L87.5244 26.845L113.17 53.8724L118.613 48.7077L92.9675 21.6803Z" fill="#F7CA15"/>
<path d="M90.7193 53.0596L54.2729 60.7945L62.0078 97.2409L98.4542 89.506L90.7193 53.0596Z" fill="#F2EDF4"/>
<path d="M90.7191 53.0599L54.2727 60.7947L55.8304 68.1347L92.2768 60.3998L90.7191 53.0599Z" fill="#8C63A9"/>
<path d="M195.022 62.4585C195.022 62.4585 191.695 56.1814 196.68 53.7912C196.68 53.7912 200.192 52.6154 202.68 53.3345C202.68 53.3345 197.76 58.5209 198.782 59.3766C199.803 60.2324 203.846 53.2028 203.846 53.2028C203.846 53.2028 211.035 54.1032 213.053 55.7003C213.053 55.7003 205.932 59.2693 207.133 59.8466C208.334 60.4248 215.917 57.0554 215.917 57.0554C215.917 57.0554 222.214 59.643 220.966 63.5583C219.718 67.4737 217.185 68.1998 216.217 67.8707C215.249 67.5415 209.947 64.0222 209.638 64.8061C209.33 65.5899 212.224 69.0313 214.64 69.7058C214.64 69.7058 208.879 73.7579 206.141 71.5987C203.404 69.4395 203.666 67.0514 201.95 65.7469C200.233 64.4425 198.6 64.0779 199.19 65.1464C199.779 66.2148 203.045 67.8596 203.704 70.04C204.362 72.2205 205.05 73.7467 201.983 72.5547C198.916 71.3627 194.279 67.8798 194.651 65.1686C195.022 62.4585 195.022 62.4585 195.022 62.4585Z" fill="#77BED0"/>
<path d="M217.724 62.9426C217.724 62.9426 200.094 58.2566 195.022 62.4585C195.022 62.4585 193.568 64.8649 190.362 66.6321L189.69 67.6743C189.69 67.6743 193.503 65.1181 194.649 65.1697C194.65 65.1687 194.343 58.4794 217.724 62.9426Z" fill="#77BED0"/>
<path d="M190.362 66.6319C190.362 66.6319 185.91 68.5956 184.51 73.5804L185.188 73.7982C185.188 73.7982 187.58 68.8569 190.243 67.3124C192.906 65.769 190.362 66.6319 190.362 66.6319Z" fill="#77BED0"/>
<path d="M176.232 43.0662C176.232 43.0662 164.134 36.7567 169.417 27.5466C169.417 27.5466 173.695 21.861 178.412 20.2912C178.412 20.2912 176.276 33.8541 178.824 34.0951C181.372 34.3372 180.115 18.8105 180.115 18.8105C180.115 18.8105 192.471 12.4078 197.404 12.737C197.404 12.737 190.021 26.1379 192.551 25.7449C195.08 25.352 203.41 11.7637 203.41 11.7637C203.41 11.7637 216.192 9.00087 218.48 16.5561C220.77 24.1113 217.552 28.0186 215.662 28.5513C213.772 29.084 201.549 29.2896 201.914 30.8665C202.278 32.4433 210.605 34.7362 215.164 33.1715C215.164 33.1715 210.459 45.8574 203.776 45.4219C197.093 44.9854 194.907 40.9212 190.772 40.7267C186.637 40.5323 183.656 41.7324 185.751 42.7816C187.846 43.8309 194.806 42.8758 198.222 45.6093C201.638 48.3427 204.388 50.0077 198.237 51.462C192.087 52.9154 180.957 52.4535 178.593 47.7594C176.232 43.0662 176.232 43.0662 176.232 43.0662Z" fill="#77BED0"/>
<path d="M212.682 19.1107C212.682 19.1107 179.682 30.8932 176.233 43.0656C176.233 43.0656 176.552 48.4555 173.405 54.7428L173.475 57.1228C173.475 57.1228 176.725 48.9264 178.596 47.7587C178.596 47.7597 170.826 37.5096 212.682 19.1107Z" fill="white"/>
<path d="M173.404 54.7426C173.404 54.7426 168.498 62.6988 171.71 72.1105L173.022 71.7165C173.022 71.7165 171.427 61.2921 173.959 55.9498C176.49 50.6074 173.404 54.7426 173.404 54.7426Z" fill="white"/>
<path d="M138.23 94.5327C138.23 94.5327 138.117 84.3301 130.188 84.7373C130.188 84.7373 124.949 85.666 122.307 88.2799C122.307 88.2799 132.074 91.4438 131.373 93.2253C130.672 95.0067 120.744 88.9149 120.744 88.9149C120.744 88.9149 112.293 94.9875 110.844 98.3883C110.844 98.3883 122.278 98.0004 121.16 99.554C120.042 101.108 108.163 102.065 108.163 102.065C108.163 102.065 101.997 109.652 106.259 113.736C110.522 117.818 114.217 116.995 115.211 115.914C116.206 114.835 120.478 106.754 121.406 107.531C122.335 108.307 121.047 114.635 118.46 117.146C118.46 117.146 128.511 118.301 130.482 113.697C132.452 109.093 130.482 106.261 131.751 103.438C133.02 100.615 134.829 99.0324 134.82 100.786C134.811 102.539 131.819 106.856 132.486 110.058C133.152 113.261 133.333 115.658 136.383 112.048C139.433 108.439 142.891 100.86 140.561 97.6966C138.23 94.5327 138.23 94.5327 138.23 94.5327Z" fill="#77BED0"/>
<path d="M109.923 110.732C109.923 110.732 128.946 92.7141 138.229 94.5331C138.229 94.5331 141.715 96.5697 146.972 96.5981L148.535 97.4508C148.535 97.4508 141.97 96.8442 140.558 97.6969C140.56 97.6969 136.354 89.0479 109.923 110.732Z" fill="#77BED0"/>
<path d="M146.973 96.5979C146.973 96.5979 153.939 96.0186 159.128 101.345L158.421 102.086C158.421 102.086 152.01 97.4952 147.59 97.3757C143.173 97.2572 146.973 96.5979 146.973 96.5979Z" fill="#77BED0"/>
<path d="M133.712 61.3212C133.712 61.3212 139.761 58.1664 137.119 53.5614C137.119 53.5614 134.98 50.7185 132.621 49.9336C132.621 49.9336 133.69 56.7151 132.416 56.8356C131.142 56.9561 131.77 49.1933 131.77 49.1933C131.77 49.1933 125.592 45.992 123.126 46.157C123.126 46.157 126.817 52.8575 125.552 52.661C124.287 52.4645 120.123 45.6699 120.123 45.6699C120.123 45.6699 113.732 44.2885 112.587 48.0661C111.443 51.8437 113.052 53.7973 113.997 54.0637C114.942 54.3301 121.053 54.4323 120.87 55.2213C120.688 56.0102 116.525 57.1567 114.245 56.3738C114.245 56.3738 116.596 62.7168 119.939 62.499C123.28 62.2813 124.372 60.2486 126.441 60.1514C128.508 60.0542 129.998 60.6548 128.951 61.1794C127.903 61.704 124.423 61.227 122.716 62.5932C121.007 63.9604 119.633 64.7929 122.708 65.5191C125.782 66.2462 131.348 66.0143 132.529 63.6677C133.712 61.3212 133.712 61.3212 133.712 61.3212Z" fill="#77BED0"/>
<path d="M115.488 49.344C115.488 49.344 131.988 55.2352 133.712 61.3209C133.712 61.3209 133.552 64.0159 135.126 67.1595L135.091 68.3495C135.091 68.3495 133.466 64.2519 132.53 63.6675C132.53 63.6685 136.415 58.5429 115.488 49.344Z" fill="white"/>
<path d="M135.126 67.1595C135.126 67.1595 137.579 71.1376 135.973 75.8439L135.318 75.6464C135.318 75.6464 136.115 70.4348 134.849 67.7631C133.584 65.0924 135.126 67.1595 135.126 67.1595Z" fill="white"/>
<path d="M148.842 24.2993L148.246 23.8051C147.61 23.2774 147.52 22.3305 148.048 21.6945L152.195 16.6924C152.723 16.0564 153.67 15.9673 154.306 16.4949L155.16 17.2028C155.284 17.3061 155.302 17.4915 155.198 17.6161C155.095 17.7406 154.91 17.7578 154.785 17.6545L153.931 16.9466C153.544 16.6256 152.967 16.6793 152.646 17.0661L148.499 22.0682C148.178 22.455 148.231 23.0323 148.618 23.3534L149.215 23.8476C149.602 24.1686 150.179 24.115 150.5 23.7271L153.253 20.4062C153.356 20.2817 153.541 20.2644 153.666 20.3677C153.79 20.471 153.808 20.6564 153.704 20.7809L150.952 24.1018C150.425 24.7388 149.478 24.8269 148.842 24.2993Z" fill="#EE9849"/>
<path d="M144.862 29.6243L143.793 28.7381C142.801 27.9158 142.711 26.3814 143.593 25.318L149.828 17.7982C149.932 17.6737 150.117 17.6565 150.242 17.7598C150.366 17.8631 150.383 18.0484 150.28 18.173L144.044 25.6927C143.37 26.507 143.425 27.6707 144.168 28.2864L145.236 29.1726C145.98 29.7884 147.133 29.6273 147.808 28.8141L154.91 20.2481C155.585 19.4339 155.53 18.2702 154.787 17.6544C154.662 17.5511 154.645 17.3658 154.748 17.2412C154.852 17.1167 155.037 17.0994 155.162 17.2027C156.154 18.0251 156.244 19.5594 155.362 20.6228L148.26 29.1888C147.377 30.2512 145.853 30.4467 144.862 29.6243Z" fill="#EE9849"/>
<path d="M77.538 32.7674L76.8757 33.1685C76.1688 33.5969 75.2451 33.37 74.8167 32.6631L71.4493 27.1061C71.0209 26.3992 71.2477 25.4755 71.9547 25.0471L72.9036 24.4719C73.0424 24.3878 73.2226 24.4324 73.3067 24.5711C73.3908 24.7099 73.3462 24.8901 73.2074 24.9742L72.2585 25.5495C71.8281 25.8107 71.6903 26.3728 71.9506 26.8033L75.318 32.3603C75.5793 32.7907 76.1414 32.9285 76.5719 32.6682L77.2342 32.2671C77.6646 32.0068 77.8024 31.4437 77.5421 31.0133L75.3069 27.3248C75.2228 27.1861 75.2674 27.0058 75.4062 26.9218C75.5449 26.8377 75.7252 26.8823 75.8092 27.021L78.0454 30.7095C78.4708 31.4154 78.2449 32.339 77.538 32.7674Z" fill="#86D1CD"/>
<path d="M81.2651 38.2729L80.0782 38.9919C78.9763 39.6604 77.4966 39.2431 76.7806 38.0612L71.7178 29.7069C71.6337 29.5682 71.6783 29.3879 71.817 29.3038C71.9558 29.2198 72.1361 29.2643 72.2201 29.4031L77.2829 37.7574C77.8308 38.6618 78.9489 38.9899 79.7743 38.4896L80.9613 37.7706C81.7867 37.2702 82.0125 36.1279 81.4646 35.2235L75.6969 25.7075C75.149 24.8031 74.0309 24.475 73.2055 24.9753C73.0668 25.0593 72.8865 25.0148 72.8025 24.876C72.7184 24.7373 72.763 24.557 72.9017 24.473C74.0036 23.8045 75.4832 24.2218 76.1993 25.4037L81.967 34.9196C82.682 36.1005 82.368 37.6045 81.2651 38.2729Z" fill="#86D1CD"/>
<path d="M241.135 134.732H185.061C184.398 134.732 183.857 134.19 183.857 133.528V78.9474C183.857 78.2851 184.399 77.7443 185.061 77.7443H241.135C241.798 77.7443 242.338 78.2861 242.338 78.9474V133.528C242.338 134.19 241.798 134.732 241.135 134.732Z" fill="#8C63A9"/>
<path d="M238.807 133.231H182.681C182.033 133.231 181.503 132.701 181.503 132.053V79.8559C181.503 79.2087 182.032 78.678 182.681 78.678H238.807C239.454 78.678 239.985 79.2077 239.985 79.8559V132.053C239.985 132.7 239.455 133.231 238.807 133.231Z" fill="#FCF0BE"/>
<path d="M235.276 78.9476V133.528C235.276 134.19 234.734 134.731 234.073 134.731H177.999C177.336 134.731 176.795 134.189 176.795 133.528V78.9476C176.795 78.2853 177.337 77.7444 177.999 77.7444H234.073C234.735 77.7444 235.276 78.2863 235.276 78.9476Z" fill="#8C63A9"/>
<path d="M200.501 40.4747H132.153V134.738H200.501V40.4747Z" fill="#F7CA15"/>
<path d="M198.741 40.4747H130.393V134.738H198.741V40.4747Z" fill="#F7CA15"/>
<path d="M194.053 46.939H135.08V128.272H194.053V46.939Z" fill="#EBF3FA"/>
<path d="M176.278 49.7209H152.855C152.157 49.7209 151.584 49.1487 151.584 48.4499V40.6364C151.584 39.9376 152.157 39.3654 152.855 39.3654H176.278C176.977 39.3654 177.549 39.9376 177.549 40.6364V48.4499C177.548 49.1487 176.977 49.7209 176.278 49.7209Z" fill="#8C63A9"/>
<path d="M194.053 50.6274H135.08V50.8756H194.053V50.6274Z" fill="#D8E8FD"/>
<path d="M194.053 54.9015H135.08V55.1496H194.053V54.9015Z" fill="#D8E8FD"/>
<path d="M194.053 59.1752H135.08V59.4234H194.053V59.1752Z" fill="#D8E8FD"/>
<path d="M194.053 63.4502H135.08V63.6983H194.053V63.4502Z" fill="#D8E8FD"/>
<path d="M194.053 67.7239H135.08V67.9731H194.053V67.7239Z" fill="#D8E8FD"/>
<path d="M194.053 71.9989H135.08V72.247H194.053V71.9989Z" fill="#D8E8FD"/>
<path d="M194.053 76.2726H135.08V76.5208H194.053V76.2726Z" fill="#D8E8FD"/>
<path d="M194.053 80.5466H135.08V80.7958H194.053V80.5466Z" fill="#D8E8FD"/>
<path d="M194.053 84.8214H135.08V85.0695H194.053V84.8214Z" fill="#D8E8FD"/>
<path d="M194.053 89.4731H135.08V89.7213H194.053V89.4731Z" fill="#D8E8FD"/>
<path d="M194.053 93.7466H135.08V93.9957H194.053V93.7466Z" fill="#D8E8FD"/>
<path d="M194.053 98.0206H135.08V98.2687H194.053V98.0206Z" fill="#D8E8FD"/>
<path d="M194.053 102.295H135.08V102.543H194.053V102.295Z" fill="#D8E8FD"/>
<path d="M194.053 106.57H135.08V106.818H194.053V106.57Z" fill="#D8E8FD"/>
<path d="M194.053 110.843H135.08V111.091H194.053V110.843Z" fill="#D8E8FD"/>
<path d="M194.053 115.118H135.08V115.367H194.053V115.118Z" fill="#D8E8FD"/>
<path d="M194.053 119.392H135.08V119.64H194.053V119.392Z" fill="#D8E8FD"/>
<path d="M194.053 123.666H135.08V123.915H194.053V123.666Z" fill="#D8E8FD"/>
<path d="M59.998 91.9414C60.312 91.7196 61.0229 91.2325 61.0604 91.3408C61.0867 91.4188 61.0493 91.5515 60.9632 91.6902C61.3936 91.5292 61.8301 91.4239 62.8641 91.6224C63.0707 91.6619 63.2591 91.7794 63.3725 91.9566C63.4779 92.1207 63.5174 92.3252 63.2541 92.4893C62.7264 92.8174 62.8793 92.621 62.1471 93.098C61.4139 93.575 60.5176 93.6975 59.9808 93.3623L59.2617 93.2428L59.1726 92.0599C59.1716 92.0599 59.5808 92.0113 59.998 91.9414Z" fill="#FFB27D"/>
<path d="M41.1477 82.0173C41.1477 82.0173 42.8441 84.0296 45.0033 83.188C45.0033 83.188 45.4682 82.0649 45.4742 81.2364C45.4753 81.1341 45.4763 81.0359 45.4783 80.9417C45.4894 80.009 45.5208 79.4854 45.5208 79.4854C45.5208 79.4854 45.5198 79.4854 45.5188 79.4854C45.4206 79.4448 42.2172 78.1293 42.2202 78.2386C42.2749 80.7594 41.1477 82.0173 41.1477 82.0173Z" fill="#FFB27D"/>
<path d="M42.5412 78.8394C42.85 79.4116 43.9104 80.5317 45.4772 80.9409C45.4883 80.0081 45.5197 79.4845 45.5197 79.4845C45.5197 79.4845 45.5187 79.4845 45.5177 79.4845C45.4296 79.4602 42.449 78.6703 42.5412 78.8394Z" fill="#ED975D"/>
<path d="M46.191 79.3871C46.191 79.3871 42.5886 80.2338 42.0953 77.9824C41.6021 75.7311 40.8061 74.3243 43.0848 73.6883C45.3635 73.0523 46.0006 73.8129 46.3479 74.5249C46.6953 75.2368 47.1156 79.1096 46.191 79.3871Z" fill="#FFB27D"/>
<path d="M42.2188 78.5962C42.1692 78.6276 41.3944 78.8656 39.9269 75.9418C39.696 75.483 39.5391 74.4895 40.0768 73.6124C40.6136 72.7354 42.5186 72.0447 44.1005 71.7449C45.6835 71.4451 46.0633 72.3353 46.436 73.2296C46.8269 74.1694 47.9572 74.9422 47.9572 74.9422C46.593 75.7048 44.9492 74.614 44.3801 74.7933C43.8109 74.9726 43.6094 75.8699 43.5668 76.1575C43.5243 76.4451 43.4585 76.6841 42.7424 76.4269C42.0264 76.1697 42.4183 77.4417 42.5328 77.6847C42.5328 77.6858 42.63 78.3329 42.2188 78.5962Z" fill="#A9453D"/>
<path d="M32.9401 134.743H30.7586C30.3018 134.743 29.7934 134.285 29.6658 133.446C29.5382 132.608 28.5983 132.15 28.3948 131.464C28.1912 130.778 29.2333 129.813 29.2333 129.813L29.4075 129.589L29.5888 129.356L31.3166 129.762C31.3166 129.762 31.3591 130.173 31.3855 130.698C31.4037 131.077 31.4138 131.514 31.3926 131.897C31.3419 132.812 31.6488 133.797 32.462 133.975C33.2763 134.153 32.9401 134.743 32.9401 134.743Z" fill="#77BED0"/>
<path d="M48.1242 134.743H42.3423C42.2866 134.732 42.2451 134.719 42.2198 134.707C41.8339 134.514 41.9545 133.036 42.001 132.579C42.0102 132.494 42.0162 132.445 42.0162 132.445C42.0162 132.445 44.0489 130.818 44.3294 132.064C44.3385 132.102 44.3486 132.141 44.3588 132.178V132.179C44.7112 133.344 46.2891 133.874 47.2006 134.021C47.8974 134.135 48.0776 134.54 48.1242 134.743Z" fill="#77BED0"/>
<path d="M46.9598 101.401C46.9598 101.401 46.6509 105.253 46.2883 109.884C45.7951 116.174 45.2016 123.901 45.1429 125.365C45.0416 127.907 44.6345 131.973 44.6345 131.973C44.6345 131.973 43.6693 132.939 41.7369 132.532C41.7369 132.532 40.0152 126.728 39.5241 120.587C39.516 120.486 39.5089 120.384 39.5008 120.283C39.043 114.031 38.332 100.867 38.332 100.867L46.9598 101.401Z" fill="#8C63A9"/>
<path d="M46.9598 101.401C46.9598 101.401 46.6509 105.253 46.2883 109.884L39.5241 120.587C39.516 120.486 39.5089 120.384 39.5008 120.283C39.043 114.031 38.332 100.867 38.332 100.867L46.9598 101.401Z" fill="#8C63A9"/>
<path d="M45.5488 101.858C45.5488 101.858 39.9836 115.81 36.3235 122.367C32.6644 128.923 31.52 130.753 31.52 130.753C31.52 130.753 29.4236 129.915 29.2332 129.343C29.2332 129.343 30.6328 116.685 33.0837 113.599C34.4681 111.855 36.0956 106.623 36.1716 104.793C36.2476 102.963 36.6668 99.3416 36.6668 99.3416L45.5488 101.858Z" fill="#8C63A9"/>
<path d="M32.857 99.3234L32.7982 100.221C32.7982 100.221 33.3897 101.815 31.7318 102.632C31.7318 102.632 31.0218 102.919 30.9935 102.366C30.9651 101.813 31.0553 102.021 30.9975 101.243C30.9398 100.465 31.2456 99.7295 31.7601 99.4813L32.1825 98.9942L32.857 99.3234Z" fill="#FFB27D"/>
<path d="M32.2085 99.9766C32.8243 100.174 32.9235 100.13 32.9235 100.13C32.9235 100.13 35.9223 94.6708 36.2251 94.1715C36.529 93.6722 42.5914 88.0503 42.5914 88.0503L41.0338 82.2411C41.0338 82.2411 34.1389 91.1696 33.3945 92.4508C32.164 94.5675 31.4429 99.4854 31.4429 99.4854C31.4429 99.4854 31.7254 99.8207 32.2085 99.9766Z" fill="#77BED0"/>
<path d="M48.1346 90.3301C48.1133 91.5231 48.0434 92.8641 47.9503 94.2262C47.9442 94.3072 47.9391 94.3872 47.933 94.4683C47.8733 95.3119 47.8085 96.1576 47.7335 96.983C47.7042 97.3141 47.6717 97.6403 47.6383 97.9613L47.6333 98.0048C47.6302 98.1254 47.616 98.255 47.6029 98.3745C47.299 101.463 46.98 103.904 46.9213 103.942C46.8504 103.988 46.7714 104.013 46.6843 104.002C45.8741 103.901 43.4566 104.084 41.4777 103.654C39.8076 103.302 38.3695 102.634 36.8463 101.734C36.6438 101.614 36.1829 101.297 36.2204 101.061C36.2569 100.801 36.3257 100.425 36.4118 99.9534C36.7116 98.3097 37.2301 95.4831 37.4074 92.1754C37.4418 91.5596 37.4914 90.9509 37.5573 90.3524C37.7274 88.7938 37.9988 87.3131 38.3644 85.9985C39.043 83.5547 40.4781 81.7247 41.7288 80.9924C41.8919 80.9013 42.3335 81.4198 43.1406 81.9383C43.887 82.4164 44.594 82.1986 45.3576 82.1318L46.108 83.2256C46.9223 84.1715 47.7892 85.4314 48.0252 87.223C48.0434 87.3556 48.0586 87.4954 48.0708 87.6453C48.1366 88.3724 48.1528 89.2961 48.1346 90.3301Z" fill="#77BED0"/>
<path d="M48.1344 90.3299C48.1131 91.5229 48.0432 92.8639 47.9501 94.226C47.944 94.307 47.9389 94.387 47.9328 94.4681C43.3055 91.5716 42.5925 86.2708 42.5925 86.2708C44.8692 86.371 46.678 86.8936 48.0716 87.642C48.1364 88.3722 48.1526 89.2959 48.1344 90.3299Z" fill="#77BED0"/>
<path d="M59.8271 92.612C59.8747 91.9253 59.5192 91.8119 59.5192 91.8119C59.5192 91.8119 52.5413 90.5469 51.9488 90.3606C51.3553 90.1742 46.2834 84.8977 46.2834 84.8977C46.2834 84.8977 44.3389 82.7051 42.7478 83.1892C41.3644 83.6095 40.8236 84.6891 40.6393 85.7171C40.4195 86.9425 40.9846 88.175 42.045 88.8252C44.426 90.2856 49.1931 93.1629 50.3162 93.4921C52.8147 94.2243 59.5283 93.5508 59.5283 93.5508C59.5283 93.5508 59.7896 93.1518 59.8271 92.612Z" fill="#77BED0"/>
<path d="M114.409 102.295H58.9712V134.737H114.409V102.295Z" fill="#FCF0BE"/>
<path d="M61.8813 104.812H58.1685C57.9619 104.812 57.7927 104.643 57.7927 104.437V104.277C57.7927 104.07 57.9619 103.901 58.1685 103.901H61.8813C62.0879 103.901 62.257 104.07 62.257 104.277V104.437C62.258 104.643 62.0879 104.812 61.8813 104.812Z" fill="#8C63A9"/>
<path d="M61.881 106.557H58.1682C57.9616 106.557 57.7925 106.387 57.7925 106.181V106.021C57.7925 105.814 57.9616 105.645 58.1682 105.645H61.881C62.0876 105.645 62.2567 105.814 62.2567 106.021V106.181C62.2578 106.387 62.0876 106.557 61.881 106.557Z" fill="#8C63A9"/>
<path d="M61.881 111.256H58.1682C57.9616 111.256 57.7925 111.087 57.7925 110.88V110.72C57.7925 110.513 57.9616 110.344 58.1682 110.344H61.881C62.0876 110.344 62.2567 110.513 62.2567 110.72V110.88C62.2578 111.087 62.0876 111.256 61.881 111.256Z" fill="#8C63A9"/>
<path d="M61.881 113H58.1682C57.9616 113 57.7925 112.831 57.7925 112.624V112.463C57.7925 112.256 57.9616 112.087 58.1682 112.087H61.881C62.0876 112.087 62.2567 112.256 62.2567 112.463V112.623C62.2578 112.831 62.0876 113 61.881 113Z" fill="#8C63A9"/>
<path d="M61.881 117.7H58.1682C57.9616 117.7 57.7925 117.531 57.7925 117.324V117.164C57.7925 116.958 57.9616 116.789 58.1682 116.789H61.881C62.0876 116.789 62.2567 116.958 62.2567 117.164V117.324C62.2578 117.53 62.0876 117.7 61.881 117.7Z" fill="#8C63A9"/>
<path d="M61.881 119.444H58.1682C57.9616 119.444 57.7925 119.275 57.7925 119.068V118.908C57.7925 118.702 57.9616 118.532 58.1682 118.532H61.881C62.0876 118.532 62.2567 118.702 62.2567 118.908V119.068C62.2578 119.274 62.0876 119.444 61.881 119.444Z" fill="#8C63A9"/>
<path d="M61.881 124.143H58.1682C57.9616 124.143 57.7925 123.974 57.7925 123.768V123.608C57.7925 123.401 57.9616 123.232 58.1682 123.232H61.881C62.0876 123.232 62.2567 123.401 62.2567 123.608V123.768C62.2578 123.974 62.0876 124.143 61.881 124.143Z" fill="#8C63A9"/>
<path d="M61.881 125.887H58.1682C57.9616 125.887 57.7925 125.718 57.7925 125.511V125.351C57.7925 125.145 57.9616 124.976 58.1682 124.976H61.881C62.0876 124.976 62.2567 125.145 62.2567 125.351V125.511C62.2578 125.718 62.0876 125.887 61.881 125.887Z" fill="#8C63A9"/>
<path d="M61.881 130.586H58.1682C57.9616 130.586 57.7925 130.417 57.7925 130.211V130.051C57.7925 129.844 57.9616 129.675 58.1682 129.675H61.881C62.0876 129.675 62.2567 129.844 62.2567 130.051V130.211C62.2578 130.417 62.0876 130.586 61.881 130.586Z" fill="#8C63A9"/>
<path d="M61.881 132.33H58.1682C57.9616 132.33 57.7925 132.161 57.7925 131.955V131.795C57.7925 131.588 57.9616 131.419 58.1682 131.419H61.881C62.0876 131.419 62.2567 131.588 62.2567 131.795V131.955C62.2578 132.161 62.0876 132.33 61.881 132.33Z" fill="#8C63A9"/>
<path d="M132.501 97.4794V134.738H95.2422V123.418V104.521V97.4794H132.501Z" fill="#8C63A9"/>
<path d="M137.194 97.4789V104.521C137.194 104.521 137.403 117.561 137.869 122.016C138.749 130.426 141.324 134.737 141.324 134.737H103.966C103.966 134.737 100.804 130.035 99.9354 122.57C99.4139 118.088 99.9354 104.521 99.9354 104.521V97.4789H137.194Z" fill="#F2EDF4"/>
<path d="M137.195 97.4789H99.9368V104.521H137.195V97.4789Z" fill="#8C63A9"/>
<path d="M264.703 135.345H0.297753C0.133685 135.345 0 135.212 0 135.048V134.951C0 134.787 0.133685 134.654 0.297753 134.654H264.702C264.866 134.654 265 134.787 265 134.951V135.048C265.001 135.211 264.867 135.345 264.703 135.345Z" fill="#2E3552"/>
<path d="M154.47 84.7201L154.048 83.9241C154.048 83.9241 154.258 82.5062 152.482 81.6099C152.482 81.6099 151.832 81.3456 151.466 81.8752C151.129 82.3634 152.109 82.2753 152.056 83.1088C152.004 83.9433 152.4 84.4325 152.951 84.7049L153.406 85.2326L154.47 84.7201Z" fill="#FFB27D"/>
<path d="M171.257 82.8183C171.257 82.8183 169.732 90.3056 161.337 92.7515C158.716 93.5151 152.763 84.8873 152.763 84.8873C152.763 84.8873 152.973 84.0923 154.283 84.2746C154.283 84.2746 160.08 88.112 160.81 88.5293C161.457 88.8989 165.715 83.7743 167.657 82.9479C169.598 82.1215 171.257 82.8183 171.257 82.8183Z" fill="#8C63A9"/>
<path d="M148.914 81.3442L148.677 82.8937L156.472 84.091L156.71 82.5415L148.914 81.3442Z" fill="#77BED0"/>
<path d="M146.988 81.8446L148.682 82.8969L148.92 81.3474L146.988 81.8446Z" fill="#FFB27D"/>
<path d="M157.542 83.1972L157.467 83.6874C157.42 83.9892 157.139 84.1958 156.837 84.1492L156.477 84.0935L156.715 82.544L157.107 82.6038C157.391 82.6473 157.586 82.9127 157.542 83.1972Z" fill="#FFB27D"/>
<path d="M181.279 129.886C181.279 129.886 182.321 130.836 182.118 131.511C181.914 132.187 180.975 132.636 180.848 133.462C180.721 134.287 180.213 134.737 179.756 134.737C179.3 134.737 177.577 134.737 177.577 134.737C177.577 134.737 177.241 134.156 178.053 133.981C178.866 133.806 179.172 132.836 179.121 131.935C179.071 131.035 179.197 129.835 179.197 129.835L180.924 129.435L181.279 129.886Z" fill="#8C63A9"/>
<path d="M168.503 132.343C168.503 132.343 168.691 134.507 168.233 134.731L162.382 134.719C162.382 134.719 162.382 134.044 163.322 133.894C164.262 133.744 165.913 133.193 166.192 131.969C166.471 130.743 168.503 132.343 168.503 132.343Z" fill="#8C63A9"/>
<path d="M163.563 101.79C163.563 101.79 163.872 105.582 164.235 110.14C164.728 116.331 165.32 123.934 165.379 125.376C165.48 127.877 165.888 131.879 165.888 131.879C165.888 131.879 166.853 132.83 168.783 132.429C168.783 132.429 170.504 126.717 170.995 120.672C171.003 120.573 171.01 120.474 171.018 120.374C171.475 114.221 172.186 101.266 172.186 101.266L163.563 101.79Z" fill="#77BED0"/>
<path d="M163.563 101.79C163.563 101.79 163.872 105.582 164.235 110.14L170.995 120.672C171.003 120.573 171.01 120.474 171.018 120.374C171.475 114.221 172.186 101.266 172.186 101.266L163.563 101.79Z" fill="#77BED0"/>
<path d="M164.973 102.241C164.973 102.241 170.535 115.972 174.193 122.424C177.851 128.877 178.994 130.677 178.994 130.677C178.994 130.677 181.089 129.852 181.279 129.289C181.279 129.289 179.881 116.832 177.431 113.795C176.046 112.079 174.421 106.929 174.345 105.128C174.269 103.328 173.85 99.7639 173.85 99.7639L164.973 102.241Z" fill="#77BED0"/>
<path d="M172.291 81.0804C172.291 81.0804 168.528 82.8963 166.358 82.2228C166.358 82.2228 166.891 81.5493 167.826 81.048C167.751 80.6125 167.692 80.2347 167.659 79.9137C167.567 79.1744 167.567 78.7551 167.567 78.7551L169.019 77.6127L170.397 76.5199C170.289 79.5936 172.291 81.0804 172.291 81.0804Z" fill="#FFB27D"/>
<path d="M163.326 102.103C163.393 102.161 163.468 102.193 163.552 102.193C164.369 102.177 166.748 102.629 168.759 102.423C170.461 102.259 171.963 101.766 173.574 101.06C173.791 100.962 174.284 100.698 174.275 100.468C174.266 100.205 174.242 99.8355 174.208 99.3585C174.141 98.4196 174.046 97.0868 174.016 95.5059C173.994 94.3341 174.006 93.0267 174.091 91.6422C174.096 91.5491 174.101 91.4559 174.105 91.3617C174.129 90.8543 174.142 90.3429 174.142 89.8425C174.151 88.2323 174.034 86.6959 173.8 85.3236C173.39 82.9406 172.622 81.075 171.488 80.2446C171.337 80.1291 170.402 80.5808 169.536 81.0001C168.743 81.386 167.951 81.4275 167.199 81.2796L166.448 81.9369C165.537 82.7664 164.536 83.9088 164.094 85.6345C163.727 87.0979 163.511 89.7433 163.393 92.4879C163.335 93.7366 163.293 94.9854 163.277 96.1764V96.2179C163.268 96.3414 163.268 96.465 163.268 96.5886C163.226 99.638 163.268 102.063 163.326 102.103Z" fill="#8C63A9"/>
<path d="M170.422 77.6956C170.422 77.6956 169.471 79.4294 167.659 79.9145C167.567 79.1752 167.567 78.7559 167.567 78.7559L169.019 77.6135L170.422 77.6956Z" fill="#ED985F"/>
<path d="M166.906 78.7055C166.906 78.7055 170.497 79.2929 170.834 77.0851C171.171 74.8773 171.861 73.4675 169.583 72.9986C167.304 72.5307 166.73 73.3065 166.435 74.0164C166.141 74.7264 165.981 78.4959 166.906 78.7055Z" fill="#FFB27D"/>
<path d="M172.138 72.7342C172.171 72.6967 172.245 72.6663 172.414 72.6572C172.414 72.6572 172.28 72.5731 172.101 72.5691C172.066 72.3361 171.942 71.925 171.542 71.8247C171.542 71.8247 171.756 71.9391 171.785 72.1863C171.321 71.7103 170.327 71.3629 167.576 71.5806C163.949 71.8672 165.144 74.1885 165.614 74.466C166.084 74.7425 167.265 73.9839 168.14 74.0538C169.015 74.1237 169.181 75.3876 169.478 75.5608C169.774 75.734 169.658 75.4271 170.059 75.2458C170.46 75.0645 170.498 75.7299 170.383 76.1624C170.268 76.5948 170.818 77.166 170.818 77.166C170.818 77.166 170.818 77.166 171.376 76.5655C171.933 75.9649 172.458 73.4218 172.205 72.88C172.184 72.8314 172.161 72.7838 172.138 72.7342Z" fill="#2C3A64"/>
<path d="M154.04 83.8867C154.04 83.8867 154.164 83.3986 153.825 83.1798C153.487 82.9611 153.175 82.3635 153.032 82.4446C152.737 82.6117 153.194 83.1322 153.11 83.7814C153.082 84.0093 153.611 84.6048 154.04 83.8867Z" fill="#FFB27D"/>
<path d="M174.016 95.5061C173.994 94.3343 174.006 93.0268 174.091 91.6424C174.096 91.5492 174.101 91.456 174.105 91.3618C173.764 89.6705 173.247 88.1706 172.488 88.122C172.488 88.122 170.223 91.6798 174.016 95.5061Z" fill="#8C63A9"/>
<path d="M177.011 101.641C177.011 101.641 176.822 103.477 176.615 103.823C176.408 104.17 175.526 105.279 175.15 105.497C174.775 105.715 175.379 104.036 175.303 103.709C175.227 103.382 174.994 104.306 174.828 104.327C174.663 104.349 174.706 103.518 174.7 103.216C174.694 102.913 175.505 102.168 175.791 101.524C176.077 100.88 177.011 101.641 177.011 101.641Z" fill="#FFB27D"/>
<path d="M171.486 80.2275C171.486 80.2275 173.758 81.303 174.847 82.9569C176.537 85.5222 178.495 94.871 178.532 95.737C178.568 96.6029 177.103 102.715 177.103 102.715C177.103 102.715 175.616 102.617 175.233 101.866C175.233 101.866 175.53 95.5861 175.342 95.182C175.153 94.7779 169.145 86.7578 169.82 85.0462C170.495 83.3357 171.486 80.2275 171.486 80.2275Z" fill="#8C63A9"/>
</svg>
