<svg width="61" height="61" viewBox="0 0 61 61" fill="none" xmlns="http://www.w3.org/2000/svg">
<path fill-rule="evenodd" clip-rule="evenodd" d="M43.4372 0.945068H17.7307C7.6558 0.945068 0.932129 8.17528 0.932129 18.5287V42.8059C0.932129 53.1691 7.63784 60.3895 17.7307 60.3895H43.4342C53.5301 60.3895 60.2388 53.169 60.2388 42.8059V18.5287C60.2388 8.16609 53.5306 0.945068 43.4372 0.945068ZM17.7307 5.40342H43.4372C51.0003 5.40342 55.7908 10.5601 55.7908 18.5288V42.8059C55.7908 50.7749 51 55.9312 43.4343 55.9312H17.7307C10.1684 55.9312 5.38014 50.7754 5.38014 42.8059V18.5288C5.38014 10.5702 10.185 5.40342 17.7307 5.40342ZM42.7131 22.0378C41.8445 21.1673 40.4364 21.1673 39.5679 22.0378L27.0643 34.5661L21.5996 29.0906L21.3501 28.8748C20.4793 28.2275 19.2438 28.2997 18.4544 29.0912C17.586 29.962 17.5863 31.3734 18.455 32.2438L25.4947 39.2968L25.7442 39.5126C26.6148 40.1599 27.8502 40.0878 28.6396 39.2965L42.7131 25.1903L42.9284 24.9403C43.5744 24.0677 43.5026 22.8292 42.7131 22.0378Z" fill="#272443"/>
</svg>
