<svg width="231" height="136" viewBox="0 0 231 136" fill="none" xmlns="http://www.w3.org/2000/svg">
<path d="M221.248 135.129C207.673 135.129 9.91881 135.173 9.80377 134.851L9.78412 134.809C9.78412 134.809 9.76448 134.769 9.76448 134.75C9.68872 134.588 -20.705 89.2394 26.5457 57.671C45.0358 45.3184 25.3906 37.1644 40.0918 23.4135C56.9881 7.61148 75.4267 25.0924 94.2142 17.927C97.5336 16.6624 100.865 14.6263 104.2 11.5024C106.077 9.74585 108.133 8.20914 110.336 6.88288C117.286 2.67961 125.495 0.713598 133.499 0.164573C154.492 -1.26645 178.117 6.7828 190.309 18.549C192.763 20.9181 203.925 33.1772 195.126 50.0258C189.572 60.6639 212.843 70.8242 221.113 82.9719C242.137 113.858 221.439 134.726 221.248 135.129Z" fill="#F2EDF4"/>
<g opacity="0.8">
<path opacity="0.8" d="M109.99 52.466C109.99 52.466 119.007 49.0559 116.074 42.1515C116.074 42.1515 113.552 37.8032 110.374 36.3058C110.374 36.3058 110.734 45.9993 108.926 45.9544C107.118 45.9095 109.304 35.1245 109.304 35.1245C109.304 35.1245 101.174 29.595 97.6861 29.4117C97.6861 29.4117 101.739 39.4325 99.9982 38.9443C98.2566 38.4561 93.5548 28.2248 93.5548 28.2248C93.5548 28.2248 84.8209 25.2131 82.58 30.3198C80.339 35.4275 82.2685 38.4383 83.5499 38.9705C84.8312 39.5027 93.3874 40.6737 92.9993 41.7493C92.6111 42.8249 86.5774 43.734 83.5106 42.2534C83.5106 42.2534 85.745 51.5476 90.4693 51.8038C95.1944 52.0592 97.0688 49.3917 99.986 49.6031C102.903 49.8135 104.894 50.9069 103.335 51.4662C101.777 52.0264 96.9752 50.7722 94.3489 52.4024C91.7226 54.0327 89.6537 54.9698 93.8467 56.5065C98.0387 58.0433 105.886 58.654 107.938 55.5591C109.99 52.466 109.99 52.466 109.99 52.466Z" fill="#77BED0"/>
<g opacity="0.8">
<path opacity="0.8" d="M86.4342 32.6001C86.4342 32.6001 108.593 43.6376 109.99 52.466C109.99 52.466 109.313 56.2203 110.993 60.895L110.743 62.5589C110.743 62.5589 109.152 56.5365 107.937 55.56C107.938 55.5609 114.249 49.0231 86.4342 32.6001Z" fill="white"/>
<path opacity="0.8" d="M110.993 60.896C110.993 60.896 113.766 66.8895 110.722 73.2215L109.836 72.8343C109.836 72.8343 111.83 65.6558 110.502 61.6957C109.175 57.7356 110.993 60.896 110.993 60.896Z" fill="white"/>
</g>
</g>
<path d="M77.8212 59.998C77.8212 59.998 74.9133 38.312 58.2761 34.3164C58.2761 34.3164 55.0343 33.5897 53.5846 37.0952C52.1348 40.6007 58.6577 41.2713 62.5476 43.1232C66.4375 44.9751 75.2322 52.0657 77.8212 59.998Z" fill="#77BED0"/>
<path d="M78.5956 56.0697C78.5956 56.0697 82.0824 38.6889 70.3883 31.2438C70.3883 31.2438 68.0958 29.8325 66.0615 32.1361C64.0273 34.4398 68.8478 36.6724 71.3395 39.1163C73.833 41.5603 78.7022 49.3102 78.5956 56.0697Z" fill="#77BED0"/>
<path d="M171.521 34.7821C169.605 35.522 156.895 36.9315 157.429 38.5383C157.962 40.1452 166.859 41.7184 171.454 39.6429C171.454 39.6429 169.742 46.0404 166.418 50.1455C162.303 50.1661 156.473 50.1932 149.272 50.2259C148.48 49.9902 147.669 49.8565 146.79 49.8967C145.744 49.9453 144.775 50.0735 143.942 50.2502C141.309 50.2643 138.528 50.2764 135.617 50.2905L126.425 50.3335C123.438 47.7296 120.796 43.6704 123.258 38.2596C123.258 38.2596 127.157 31.9201 131.916 29.8231C131.916 29.8231 131.019 44.1586 133.695 44.1614C136.373 44.1623 133.545 28.1153 133.545 28.1153C133.545 28.1153 145.788 20.2381 150.956 20.0988C150.956 20.0988 144.58 34.7784 147.175 34.1218C149.771 33.4643 157.116 18.4975 157.116 18.4975C157.116 18.4975 170.158 14.3691 173.281 22.0124C176.407 29.6585 173.438 34.0423 171.521 34.7821Z" fill="#77BED0"/>
<path d="M130.747 67.46C130.642 67.7985 130.556 68.0791 130.493 68.2849C130.566 68.0015 130.652 67.7247 130.747 67.46Z" fill="#77BED0"/>
<path d="M167.478 25.2487C146.923 36.6893 138.683 44.9023 135.617 50.2915L133.167 50.3027C139.738 38.3093 166.786 25.5732 167.478 25.2487Z" fill="#77BED0"/>
<path d="M69.1425 135.011L78.5751 134.967C79.0783 134.535 78.2187 133.566 77.3245 133.505C76.9364 133.478 76.4463 133.561 75.8861 133.682C75.7486 131.958 74.9713 124.212 72.1785 124.536C69.0387 124.899 72.1944 127.949 73.0904 129.759C73.7545 131.099 74.4569 133.023 74.7786 133.931C74.5242 133.987 74.2605 134.043 73.9902 134.094C73.5684 132.817 71.9989 128.525 70.0301 128.784C67.718 129.088 68.6561 130.808 70.3004 131.824C71.5069 132.571 72.9885 133.634 73.6928 134.147C73.0988 134.247 72.4787 134.316 71.8483 134.303C70.234 134.273 69.4474 134.752 69.1425 135.011Z" fill="#77BED0"/>
<path d="M126.188 120.639H99.3127V131.556H126.188V120.639Z" fill="#8C63A9"/>
<path d="M134.638 134.763H90.863C90.863 132.991 92.2997 131.555 94.0711 131.555H131.43C133.202 131.556 134.638 132.991 134.638 134.763Z" fill="#8C63A9"/>
<path d="M180.785 122.304H45.4812C43.4395 122.304 41.7849 120.649 41.7849 118.608V51.1679C41.7849 49.1261 43.4404 47.4716 45.4812 47.4716H180.784C182.825 47.4716 184.481 49.1271 184.481 51.1679V118.608C184.481 120.649 182.825 122.304 180.785 122.304Z" fill="#8C63A9"/>
<path d="M178.248 119.599H48.0177C45.976 119.599 44.3214 117.943 44.3214 115.901V53.8738C44.3214 51.832 45.9769 50.1774 48.0177 50.1774H178.247C180.289 50.1774 181.943 51.8329 181.943 53.8738V115.901C181.944 117.943 180.289 119.599 178.248 119.599Z" fill="#DAF7FF"/>
<path d="M171.834 103.51H49.8405V104.532H171.834V103.51Z" fill="#F7CA15"/>
<path d="M116.712 103.51H49.8282V104.532H116.712V103.51Z" fill="#8C63A9"/>
<path d="M114.275 104.021C114.275 103.062 115.053 102.283 116.012 102.283C116.973 102.283 117.751 103.062 117.751 104.021C117.751 104.981 116.973 105.759 116.012 105.759C115.053 105.76 114.275 104.981 114.275 104.021Z" fill="#8C63A9"/>
<path d="M127.761 91.8929C135.943 83.7104 135.943 70.444 127.761 62.2615C119.579 54.0791 106.312 54.0791 98.1296 62.2615C89.9472 70.444 89.9472 83.7104 98.1296 91.8929C106.312 100.075 119.579 100.075 127.761 91.8929Z" fill="#8C63A9"/>
<path d="M107.291 66.0859V88.0675C107.291 89.2525 108.648 89.9241 109.59 89.2048L123.993 78.214C124.743 77.6416 124.743 76.5118 123.993 75.9384L109.59 64.9476C108.648 64.2293 107.291 64.9009 107.291 66.0859Z" fill="#F7CA15"/>
<path d="M114.432 116.165C116.866 116.165 118.839 114.192 118.839 111.758C118.839 109.324 116.866 107.351 114.432 107.351C111.998 107.351 110.025 109.324 110.025 111.758C110.025 114.192 111.998 116.165 114.432 116.165Z" fill="#8C63A9"/>
<path d="M96.4021 111.758C96.4021 109.325 98.3756 107.351 100.809 107.351C103.243 107.351 105.216 109.325 105.216 111.758C105.216 114.192 103.243 116.166 100.809 116.166C98.3756 116.166 96.4021 114.192 96.4021 111.758Z" fill="#8C63A9"/>
<path d="M123.831 111.758C123.831 109.324 125.804 107.351 128.238 107.351C130.672 107.351 132.645 109.324 132.645 111.758C132.645 114.191 130.672 116.165 128.238 116.165C125.804 116.165 123.831 114.191 123.831 111.758Z" fill="#8C63A9"/>
<path d="M101.475 112.989V110.526C101.475 110.213 101.117 110.036 100.868 110.226L99.2549 111.456C99.0566 111.608 99.0566 111.905 99.2549 112.057L100.868 113.288C101.117 113.479 101.475 113.301 101.475 112.989Z" fill="#F7CA15"/>
<path d="M127.48 110.559V112.956C127.48 113.282 127.853 113.466 128.112 113.269L129.683 112.07C129.89 111.912 129.89 111.601 129.683 111.444L128.112 110.245C127.853 110.048 127.48 110.232 127.48 110.559Z" fill="#F7CA15"/>
<path d="M113.305 113.752C113.028 113.752 112.805 113.527 112.805 113.251V110.263C112.805 109.986 113.029 109.763 113.305 109.763C113.582 109.763 113.806 109.987 113.806 110.263V113.251C113.806 113.527 113.582 113.752 113.305 113.752Z" fill="#F7CA15"/>
<path d="M115.742 113.752C115.466 113.752 115.242 113.527 115.242 113.25V110.263C115.242 109.986 115.467 109.762 115.742 109.762C116.019 109.762 116.243 109.987 116.243 110.263V113.25C116.244 113.527 116.019 113.752 115.742 113.752Z" fill="#F7CA15"/>
<path d="M200.765 54.5486C199.236 53.7555 198.01 54.254 198.01 54.254C193.329 53.704 191.964 59.1625 192.028 61.0406C192.09 62.9187 192.305 64.9352 190.215 67.3754C184.177 74.4229 196.822 74.7335 196.822 74.7335C196.929 69.1029 203.679 71.1569 203.383 71.7274C212.036 73.8038 204.244 56.3528 200.765 54.5486Z" fill="#163560"/>
<path d="M183.039 78.2811C183.039 78.2811 182.059 76.7893 181.269 76.7593C180.478 76.7303 179.016 76.3207 179.132 76.6134C179.249 76.9062 180.157 76.9352 180.245 77.111C180.333 77.2868 178.899 77.5497 178.489 77.5787C178.079 77.6076 177.114 77.5787 177.143 77.7835C177.172 77.9883 178.884 78.8366 180.09 78.7197C181.298 78.6028 182.79 79.0705 182.79 79.0705L183.039 78.2811Z" fill="#FFB27D"/>
<path d="M194.615 78.428C194.615 78.428 194.167 79.3138 193.356 80.3314C192.377 81.5566 190.87 82.9718 188.976 83.2505C188.072 83.3842 187.187 83.1897 186.374 82.8277C186.373 82.8268 186.372 82.8268 186.372 82.8268C184.073 81.8064 182.343 79.4587 182.343 79.4587C181.938 78.3532 182.601 77.604 182.601 77.604C182.601 77.604 187.244 78.6478 187.687 78.4271C188.129 78.2064 190.709 70.7744 191.322 69.841C191.937 68.9075 194.03 68.4221 194.03 68.4221L194.615 78.428Z" fill="#8C63A9"/>
<path d="M193.356 80.3312C192.377 81.5565 190.87 82.9716 188.977 83.2503C188.072 83.3841 187.187 83.1895 186.375 82.8276C186.464 82.8397 188.761 83.1231 189.676 81.4854C190.61 79.8149 191.62 77.1615 193.007 78.0453C193.605 78.4288 193.579 79.3772 193.356 80.3312Z" fill="#8C63A9"/>
<path d="M211.937 128.549C211.937 128.549 213.354 129.842 213.078 130.761C212.801 131.68 211.522 132.292 211.35 133.416C211.177 134.538 210.486 135.151 209.864 135.151C209.242 135.151 206.898 135.151 206.898 135.151C206.898 135.151 206.44 134.36 207.546 134.122C208.652 133.883 209.069 132.564 209 131.339C208.93 130.114 209.103 128.481 209.103 128.481L211.453 127.937L211.937 128.549Z" fill="#8C63A9"/>
<path d="M199.946 129.098C199.946 129.098 200.456 134.576 199.834 134.882L191.873 134.866C191.873 134.866 191.873 133.948 193.152 133.744C194.43 133.54 196.677 132.791 197.057 131.124C197.436 129.456 199.946 129.098 199.946 129.098Z" fill="#8C63A9"/>
<path d="M205.619 89.8004C203.981 86.1265 202.978 85.0724 203.17 83.9323C203.312 83.084 202.736 68.1097 202.736 68.1097C202.541 68.0498 202.152 67.9956 201.939 67.9479C201.268 67.7992 200.711 67.3269 200.48 66.6787C200.201 65.8977 199.98 64.7445 199.984 63.3004L199.775 63.3415L196.247 64.0402C196.247 64.0402 196.327 65.1504 196.329 66.197C196.329 66.2054 196.329 66.2148 196.329 66.2232C196.334 67.1314 195.737 67.9339 194.864 68.1855C194.419 68.3136 194.031 68.424 194.031 68.424C194.031 68.424 192.736 72.1231 192.488 75.9223C192.24 79.7225 194.844 81.3733 192.468 88.9661C190.043 96.7207 206.523 91.8309 205.619 89.8004Z" fill="#FFB27D"/>
<path d="M196.246 64.0401C196.246 64.0401 196.326 65.1503 196.328 66.1969C198.302 66.1408 199.346 64.3403 199.774 63.3414L196.246 64.0401Z" fill="#E8945B"/>
<path d="M195.586 65.0307C195.586 65.0307 200.257 65.1074 200.261 62.1976C200.264 59.2879 200.869 57.3378 197.887 57.1657C194.905 56.9936 194.325 58.1029 194.087 59.0737C193.849 60.0455 194.372 64.9353 195.586 65.0307Z" fill="#FFB27D"/>
<path d="M195.76 57.0945C195.76 57.0945 197.038 60.5084 199.001 61.0134C200.964 61.5185 201.816 60.9919 201.816 60.9919C201.816 60.9919 200.31 59.7957 199.997 57.7081C199.997 57.7081 196.724 55.4699 195.76 57.0945Z" fill="#163560"/>
<path d="M196.077 57.3714C196.077 57.3714 195.128 57.7259 194.738 58.418C194.357 59.0943 194.031 59.9903 194.107 61.0893C194.107 61.0893 193.143 58.7688 194.227 57.4565C195.373 56.0648 196.077 57.3714 196.077 57.3714Z" fill="#163560"/>
<path d="M196.602 63.2255C196.602 63.2255 196.279 63.6501 195.635 63.6192C195.116 63.5949 194.915 63.1441 194.915 63.1441C194.915 63.1441 195.87 62.914 196.602 63.2255Z" fill="#EBF3FA"/>
<path d="M206.069 74.7335C206.069 74.7335 206.188 76.4059 206.069 78.413C205.991 79.743 204.645 81.5257 204.454 81.9663C203.975 83.0718 203.434 83.2514 203.434 83.2514L199.255 84.2755L197.785 84.6347L193.151 83.2504C193.151 83.2504 191.04 77.3589 191.887 74.0423C192.735 70.7258 194.03 68.423 194.03 68.423C194.03 68.423 197.811 72.1259 202.736 68.1088L206.069 74.7335Z" fill="#8C63A9"/>
<path d="M204.846 78.9554C204.767 80.2854 204.645 81.5247 204.454 81.9652C203.975 83.0708 203.435 83.2503 203.435 83.2503L199.255 84.2745L197.439 83.7404C197.439 83.7404 203.407 82.2552 204.129 75.3236L204.846 78.9554Z" fill="#8C63A9"/>
<path d="M193.446 84.1454C193.446 84.1454 191.15 91.2893 191.003 93.7211C190.856 96.1529 195.39 128.272 195.573 129.393C195.745 130.449 197.057 131.122 197.057 131.122C197.057 131.122 197.66 131.479 198.521 131.235C199.716 130.898 200.094 130.495 200.094 130.495C200.094 130.495 201.88 107.588 200.775 99.405C199.669 91.222 199.656 84.1454 199.656 84.1454H193.446Z" fill="#77BED0"/>
<path d="M203.169 83.9323C203.169 83.9323 206.67 88.6294 206.996 91.8048C207.323 94.9801 207.508 106.134 208.204 109.23C208.899 112.325 211.454 118.282 211.454 127.937C211.454 127.937 211.188 128.49 210.369 128.785C210.107 128.879 209.755 128.97 209.414 129.049C208.738 129.204 208.044 128.873 207.735 128.252C206.009 124.774 200.506 113.559 200.225 111.23C200.025 109.582 198.288 98.6784 194.499 92.2799C193.589 90.7441 195.057 84.6347 195.057 84.6347L203.169 83.9323Z" fill="#77BED0"/>
<path d="M196.498 63.3031C196.498 63.3031 196.418 63.6463 195.565 63.593C195.565 63.593 194.849 63.5491 194.871 63.1721C194.871 63.1721 195.565 62.9037 196.498 63.3031Z" fill="white"/>
<path d="M193.079 83.0426C193.079 83.0426 194 83.7712 195.831 83.8086C198.017 83.8526 203.434 83.2512 203.434 83.2512C203.434 83.2512 203.674 83.9237 203.665 84.6336C203.665 84.6336 197.048 86.3021 193.215 84.8777C193.215 84.8767 192.721 83.947 193.079 83.0426Z" fill="#233862"/>
<path d="M195.306 85.6926C194.756 85.6926 194.308 85.1857 194.308 84.5637C194.308 83.9417 194.756 83.4348 195.306 83.4348C195.856 83.4348 196.304 83.9417 196.304 84.5637C196.304 85.1857 195.856 85.6926 195.306 85.6926ZM195.306 83.7649C194.938 83.7649 194.639 84.1231 194.639 84.5637C194.639 85.0042 194.938 85.3624 195.306 85.3624C195.673 85.3624 195.973 85.0042 195.973 84.5637C195.973 84.1231 195.673 83.7649 195.306 83.7649Z" fill="white"/>
<path d="M201.371 89.3522C201.371 89.3522 200.273 89.9396 199.84 90.642C199.407 91.3444 198.916 91.6624 199.127 91.8355C199.34 92.0085 199.994 91.1228 199.994 91.3351C199.994 91.5474 199.435 92.3368 199.243 92.6829C199.05 93.0299 199.374 93.3376 200.224 93.1262C201.072 92.9148 201.843 92.0674 201.958 91.7971C202.073 91.5268 202.727 90.1987 202.727 90.1987L201.371 89.3522Z" fill="#FFB27D"/>
<path d="M202.736 68.1088C202.736 68.1088 206.052 68.3407 207.323 71.431C208.594 74.5212 208.914 78.3897 208.914 79.2623C208.914 82.549 208.524 87.1292 202.4 90.8694C202.4 90.8694 200.857 89.9753 200.902 89.3524C200.902 89.3524 206.564 79.9563 201.519 73.9937C200.534 72.8302 202.736 68.1088 202.736 68.1088Z" fill="#8C63A9"/>
<path d="M230.325 135.494H0.285267C0.128136 135.494 0 135.366 0 135.209V135.049C0 134.892 0.128136 134.764 0.285267 134.764H230.324C230.481 134.764 230.61 134.893 230.61 135.049V135.209C230.61 135.366 230.482 135.494 230.325 135.494Z" fill="#233862"/>
<path d="M51.757 77.9336C51.6943 77.0871 51.5915 76.9889 51.5915 76.9889C51.5915 76.9889 43.9603 76.2678 42.7182 75.9068C41.9812 75.6926 33.7215 70.7411 33.7215 70.7411L27.1556 74.7339C27.1556 74.7339 40.0947 79.9239 42.0195 80.1989C45.2005 80.6525 50.5869 78.9503 50.5869 78.9503C50.5869 78.9503 51.8066 78.5986 51.757 77.9336Z" fill="#F7CA15"/>
<path d="M31.4058 131.809C31.4058 131.809 31.5068 134.262 31.9782 134.859L38.5319 134.897C38.486 134.644 38.4589 134.059 37.5526 133.901C36.4078 133.702 35.0628 132.903 34.3698 131.39C33.6393 129.796 31.4058 131.809 31.4058 131.809Z" fill="#214C7F"/>
<path d="M18.5443 131.454C18.5443 131.454 18.087 134.714 18.708 134.771C18.7903 134.779 21.3493 134.82 22.4567 134.838C23.7596 134.86 25.9005 134.814 25.9005 134.814C26.1699 134.825 26.3457 134.534 26.2092 134.302C26.0586 134.047 25.7714 133.775 25.2243 133.67C24.0832 133.45 22.1808 132.612 21.5139 131.087C20.8125 129.482 18.5443 131.454 18.5443 131.454Z" fill="#214C7F"/>
<path d="M34.8131 98.0538C34.8131 98.0538 32.9911 104.431 27.7674 115.504C22.5447 126.577 22.3183 131.914 22.3183 131.914C22.3183 131.914 21.527 132.193 20.4786 132.081C19.344 131.961 18.5425 131.454 18.5425 131.454C18.5425 131.454 18.8811 118.273 21.3475 112.685C23.8148 107.096 24.3171 91.805 24.3171 91.805L34.8131 98.0538Z" fill="#8C63A9"/>
<path d="M37.7388 92.5674C37.7388 92.5674 37.8838 102.441 36.1759 114.565C34.4671 126.688 35.2659 132.326 35.2659 132.326C35.2659 132.326 34.8132 132.656 33.4205 132.651C31.7903 132.644 30.955 131.971 30.955 131.971C30.955 131.971 28.5102 119.843 29.2107 113.775C29.9122 107.706 25.8623 92.9518 25.8623 92.9518L37.7388 92.5674Z" fill="#8C63A9"/>
<path d="M33.7712 67.9538C33.7544 68.7283 33.6505 69.5719 33.341 69.9853L31.6022 70.8982L29.6746 69.469C29.6746 69.469 30.3807 67.9024 30.2086 65.6128C30.1918 65.4753 30.1226 64.597 30.1226 64.5802L31.0869 65.0619L33.7039 66.3704C33.7039 66.3704 33.7039 66.4218 33.7216 66.491C33.7366 66.7492 33.7712 67.3169 33.7712 67.9538Z" fill="#FFB27D"/>
<path d="M38.0969 93.6447C38.2736 95.4059 24.7678 96.6723 24.1374 93.7878C23.7249 91.9069 24.0925 82.3846 25.6816 75.6046C26.5309 71.9821 28.3267 69.1229 29.941 68.6487C30.5358 68.4738 33.1996 69.1696 33.5737 69.353C34.8083 69.959 35.8568 71.218 36.0289 71.7988C36.274 72.6228 36.5555 73.6797 36.7865 74.8441C37.0344 76.1068 37.2233 77.4957 37.2364 78.8547C37.2457 79.8817 37.3496 81.266 37.4889 82.7896C37.5619 83.5902 37.6451 84.4282 37.7274 85.2738C37.7274 85.2794 37.7293 85.2831 37.7293 85.2887C37.7405 85.4524 37.7948 86.7122 37.8593 88.2069C37.9089 89.3536 37.9631 90.6377 38.008 91.6712C38.0557 92.7702 38.0903 93.5858 38.0969 93.6447Z" fill="#F7CA15"/>
<path d="M33.7712 67.9538C32.7901 67.5581 30.913 66.6621 30.3967 65.6464C30.1731 65.1983 30.5173 65.0609 31.085 65.0609L33.702 66.3694C33.702 66.3694 33.702 66.4208 33.7198 66.49C33.7366 66.7491 33.7712 67.3168 33.7712 67.9538Z" fill="#FCA56B"/>
<path d="M34.9627 66.2094C34.9627 66.2094 30.2628 67.675 29.3948 64.7344C28.5269 61.7938 27.3362 60.0027 30.3002 58.9421C33.2642 57.8814 34.1808 58.8308 34.7092 59.7418C35.2377 60.6527 36.1627 65.752 34.9627 66.2094Z" fill="#FFB27D"/>
<path d="M34.5241 59.4583C34.5241 59.4583 34.2248 62.8806 33.5168 62.7319C32.8087 62.5832 32.1671 62.4728 32.2709 63.5045C32.3748 64.5361 32.4075 65.7763 30.2264 65.9587C28.0452 66.1411 25.8575 60.4675 26.4571 59.4022C28.1865 56.3297 37.0232 55.7096 34.5241 59.4583Z" fill="#163560"/>
<path d="M36.4573 93.8113C28.5269 90.4527 28.9571 78.8923 28.8177 78.578L37.3187 86.8489C37.2149 87.8824 37.113 88.9655 37.0101 90.0589C37.0092 90.0654 37.0101 90.072 37.0092 90.0785C36.983 90.2899 36.7426 91.9014 36.4573 93.8113Z" fill="#FCF0BE"/>
<path d="M44.4018 110.162L38.1053 106.276C33.9946 103.739 32.7067 98.2998 35.2442 94.1891L58.7279 56.1399C61.2654 52.0292 66.7042 50.7413 70.8148 53.2788L77.1113 57.165C81.222 59.7025 82.5099 65.1413 79.9724 69.252L56.4888 107.301C53.9513 111.412 48.5125 112.699 44.4018 110.162Z" fill="#77BED0"/>
<path d="M73.2672 65.8616C73.6984 65.1629 74.6132 64.9468 75.3118 65.378C76.0105 65.8092 76.2266 66.7248 75.7954 67.4226C75.3642 68.1213 74.4485 68.3373 73.7508 67.9061C73.0531 67.4759 72.8361 66.5602 73.2672 65.8616Z" fill="#F2EDF4"/>
<path d="M62.643 67.1662L60.9829 66.1411C60.6069 65.9092 60.489 65.4116 60.721 65.0356L61.241 64.1929C61.473 63.8169 61.9706 63.6991 62.3466 63.931L64.0067 64.9561C64.3827 65.1881 64.5006 65.6856 64.2686 66.0616L63.7486 66.9043C63.5166 67.2803 63.019 67.3982 62.643 67.1662Z" fill="#F2EDF4"/>
<path d="M66.5509 69.5774L64.8907 68.5523C64.5147 68.3204 64.3969 67.8228 64.6288 67.4468L65.1489 66.6041C65.3808 66.2281 65.8784 66.1102 66.2544 66.3422L67.9146 67.3664C68.2905 67.5983 68.4084 68.0959 68.1764 68.4719L67.6564 69.3146C67.4245 69.6925 66.9269 69.8103 66.5509 69.5774Z" fill="#F2EDF4"/>
<path d="M70.4583 71.9895L68.7982 70.9654C68.4222 70.7334 68.3043 70.2358 68.5363 69.8598L69.0563 69.0171C69.2883 68.6411 69.7859 68.5233 70.1619 68.7552L71.823 69.7803C72.199 70.0123 72.3168 70.5099 72.0848 70.8859L71.5648 71.7286C71.3319 72.1036 70.8343 72.2215 70.4583 71.9895Z" fill="#F2EDF4"/>
<path d="M60.5039 70.6315L58.8437 69.6073C58.4677 69.3754 58.3499 68.8778 58.5818 68.5018L59.1019 67.6591C59.3338 67.2831 59.8314 67.1652 60.2074 67.3972L61.8676 68.4223C62.2436 68.6542 62.3614 69.1518 62.1294 69.5278L61.6094 70.3705C61.3765 70.7465 60.8799 70.8634 60.5039 70.6315Z" fill="#F2EDF4"/>
<path d="M64.4118 73.0436L62.7517 72.0185C62.3757 71.7866 62.2578 71.289 62.4898 70.913L63.0098 70.0703C63.2418 69.6943 63.7394 69.5764 64.1154 69.8084L65.7755 70.8335C66.1515 71.0654 66.2694 71.563 66.0374 71.939L65.5174 72.7817C65.2854 73.1577 64.7878 73.2756 64.4118 73.0436Z" fill="#F2EDF4"/>
<path d="M68.3194 75.4559L66.6593 74.4308C66.2833 74.1989 66.1654 73.7013 66.3974 73.3253L66.9174 72.4826C67.1494 72.1066 67.6469 71.9887 68.0229 72.2207L69.6831 73.2458C70.0591 73.4777 70.177 73.9753 69.945 74.3513L69.425 75.194C69.193 75.57 68.6954 75.6879 68.3194 75.4559Z" fill="#F2EDF4"/>
<path d="M58.5622 73.776L56.9021 72.7509C56.5261 72.519 56.4082 72.0214 56.6402 71.6454L57.1602 70.8027C57.3922 70.4267 57.8897 70.3089 58.2657 70.5408L59.9259 71.5659C60.3019 71.7979 60.4198 72.2954 60.1878 72.6714L59.6678 73.5141C59.4358 73.8911 58.9382 74.0089 58.5622 73.776Z" fill="#F2EDF4"/>
<path d="M62.471 76.1881L60.8109 75.164C60.4349 74.932 60.317 74.4344 60.549 74.0584L61.069 73.2157C61.301 72.8397 61.7986 72.7219 62.1746 72.9538L63.8347 73.9789C64.2107 74.2109 64.3286 74.7085 64.0966 75.0845L63.5766 75.9272C63.3446 76.3032 62.847 76.4201 62.471 76.1881Z" fill="#F2EDF4"/>
<path d="M66.3788 78.6002L64.7186 77.5751C64.3426 77.3431 64.2248 76.8456 64.4567 76.4696L64.9767 75.6269C65.2087 75.2509 65.7063 75.133 66.0823 75.365L67.7424 76.3901C68.1184 76.622 68.2363 77.1196 68.0043 77.4956L67.4843 78.3383C67.2523 78.7143 66.7548 78.8321 66.3788 78.6002Z" fill="#F2EDF4"/>
<path d="M45.2895 102.667L43.9585 101.846C43.5133 101.571 43.3739 100.982 43.6489 100.537L43.836 100.233C44.111 99.788 44.6993 99.6486 45.1445 99.9236L46.4754 100.745C46.9206 101.02 47.06 101.608 46.785 102.053L46.598 102.356C46.323 102.802 45.7347 102.942 45.2895 102.667Z" fill="#F2EDF4"/>
<path d="M39.9218 99.4495L38.5908 98.6283C38.1456 98.3533 38.0063 97.765 38.2813 97.3198L38.4683 97.0167C38.7433 96.5715 39.3316 96.4322 39.7768 96.7072L41.1077 97.5284C41.553 97.8033 41.6923 98.3916 41.4173 98.8369L41.2303 99.1408C40.9562 99.5851 40.367 99.7245 39.9218 99.4495Z" fill="#F2EDF4"/>
<path d="M50.6636 106.08L49.3327 105.258C48.8875 104.983 48.7481 104.395 49.0231 103.95L49.2101 103.647C49.4851 103.202 50.0734 103.062 50.5186 103.337L51.8496 104.159C52.2948 104.434 52.4341 105.022 52.1592 105.467L51.9721 105.77C51.6971 106.214 51.1088 106.355 50.6636 106.08Z" fill="#F2EDF4"/>
<path d="M55.6529 87.092L53.3876 85.6938C52.9424 85.4188 52.803 84.8305 53.078 84.3853L54.4763 82.12C54.7513 81.6748 55.3396 81.5354 55.7848 81.8104L58.0492 83.2086C58.4944 83.4836 58.6337 84.0719 58.3587 84.5171L56.9605 86.7825C56.6864 87.2277 56.0981 87.367 55.6529 87.092Z" fill="#F2EDF4"/>
<path d="M50.2514 83.7585L47.9861 82.3602C47.5409 82.0852 47.4015 81.4969 47.6765 81.0517L49.0748 78.7864C49.3498 78.3412 49.9381 78.2018 50.3833 78.4768L52.6486 79.8751C53.0938 80.1501 53.2332 80.7384 52.9582 81.1836L51.5599 83.4489C51.2859 83.8932 50.6966 84.0325 50.2514 83.7585Z" fill="#8C63A9"/>
<path d="M60.8428 90.2953L58.5775 88.8971C58.1323 88.6221 57.993 88.0338 58.2679 87.5886L59.6662 85.3233C59.9412 84.8781 60.5295 84.7387 60.9747 85.0137L63.24 86.412C63.6852 86.6869 63.8246 87.2753 63.5496 87.7205L62.1513 89.9858C61.8773 90.431 61.2881 90.5703 60.8428 90.2953Z" fill="#8C63A9"/>
<path d="M58.9171 81.8037L56.6518 80.4054C56.2065 80.1304 56.0672 79.5421 56.3422 79.0969L57.7405 76.8316C58.0154 76.3864 58.6037 76.2471 59.0489 76.522L61.3143 77.9203C61.7595 78.1953 61.8988 78.7836 61.6238 79.2288L60.2256 81.4941C59.9506 81.9384 59.3613 82.0778 58.9171 81.8037Z" fill="#8C63A9"/>
<path d="M52.3886 92.3801L50.1233 90.9818C49.6781 90.7069 49.5387 90.1186 49.8137 89.6733L51.212 87.408C51.487 86.9628 52.0753 86.8235 52.5205 87.0985L54.7858 88.4967C55.231 88.7717 55.3704 89.36 55.0954 89.8052L53.6971 92.0705C53.4221 92.5157 52.8338 92.6551 52.3886 92.3801Z" fill="#8C63A9"/>
<path d="M57.8172 79.3401L59.4203 80.3296C59.5727 80.4231 59.7673 80.3072 59.7561 80.1285L59.6569 78.4955C59.6476 78.343 59.4904 78.2457 59.3501 78.3056L57.8462 78.9491C57.6816 79.0192 57.6647 79.2456 57.8172 79.3401Z" fill="white"/>
<path d="M53.682 89.6247L52.0789 88.6351C51.9265 88.5416 51.7319 88.6576 51.7431 88.8362L51.8423 90.4692C51.8516 90.6217 52.0088 90.719 52.1491 90.6591L53.653 90.0156C53.8176 89.9445 53.8345 89.7182 53.682 89.6247Z" fill="white"/>
<path d="M50.4217 82.2881L51.4113 80.685C51.5048 80.5325 51.3888 80.338 51.2102 80.3492L49.5771 80.4484C49.4247 80.4577 49.3274 80.6148 49.3873 80.7551L50.0308 82.2591C50.1009 82.4237 50.3282 82.4406 50.4217 82.2881Z" fill="white"/>
<path d="M60.9027 86.5438L59.9132 88.1469C59.8197 88.2994 59.9356 88.4939 60.1143 88.4827L61.7473 88.3836C61.8998 88.3742 61.997 88.2171 61.9372 88.0768L61.2937 86.5728C61.2226 86.4082 60.9963 86.3913 60.9027 86.5438Z" fill="white"/>
<path d="M62.2737 56.5618C63.4568 54.6453 65.9139 54.0168 67.7621 55.1569C69.6102 56.298 70.1499 58.7756 68.9667 60.6921C67.7836 62.6085 65.3265 63.237 63.4784 62.0969C61.6302 60.9568 61.0905 58.4782 62.2737 56.5618Z" fill="#8C63A9"/>
<path d="M64.42 60.5702C63.3865 59.9323 63.0834 58.5415 63.7456 57.4696C64.145 56.8233 64.825 56.4108 65.5667 56.3678C65.6836 56.3613 65.7809 56.452 65.7837 56.5708C65.7865 56.6896 65.6939 56.7915 65.577 56.7981C64.9765 56.8327 64.4256 57.1666 64.1029 57.6904C63.567 58.5583 63.812 59.6835 64.6491 60.2007C65.4862 60.717 66.602 60.4317 67.138 59.5638C67.4597 59.0428 67.5112 58.404 67.2773 57.8531C67.2315 57.7455 67.2811 57.6174 67.3886 57.5669C67.4962 57.5164 67.6206 57.5631 67.6664 57.6716C67.9554 58.3516 67.8909 59.141 67.4943 59.7845C66.8321 60.8554 65.4535 61.208 64.42 60.5702Z" fill="white"/>
<path d="M65.6201 58.6265C65.5219 58.5657 65.491 58.4357 65.5518 58.3375L66.9267 56.1096C66.9875 56.0114 67.1175 55.9805 67.2157 56.0413C67.3139 56.1021 67.3448 56.2321 67.284 56.3303L65.9091 58.5582C65.8474 58.6564 65.7183 58.6873 65.6201 58.6265Z" fill="white"/>
<path d="M47.6027 94.1992C47.6027 94.1992 48.3725 94.3648 48.7447 94.2619C48.8738 94.2263 49.5687 94.2132 49.9335 94.795C50.2664 95.3263 51.9986 95.4338 51.9986 95.4338C52.4307 95.8762 51.4356 97.3755 50.4236 97.1286C49.5977 96.9266 47.5484 95.851 46.4841 95.4525C45.3402 95.0251 47.6027 94.1992 47.6027 94.1992Z" fill="#FFB27D"/>
<path d="M48.3724 94.3634C48.3724 94.3634 49.1787 94.1089 49.6276 94.1398C50.0766 94.1707 50.6181 93.9266 50.5395 94.1473C50.4619 94.369 49.7604 94.5888 49.6099 94.8301C49.4602 95.0723 48.3724 94.3634 48.3724 94.3634Z" fill="#FFB27D"/>
<path d="M47.4081 93.409C47.4081 93.409 41.7812 89.7482 39.934 88.0479C39.0184 87.2051 35.6522 74.571 35.6522 74.571L34.9573 74.9218C33.3195 73.9893 31.1945 74.745 31.1945 74.745C31.1945 74.745 29.2014 75.6148 28.8946 77.2076C28.2146 80.7375 32.2926 88.0853 34.2099 89.8876C36.682 92.2128 46.0462 95.8764 46.0462 95.8764C46.0462 95.8764 47.423 96.0139 47.7045 94.7587C47.8982 93.8898 47.4081 93.409 47.4081 93.409Z" fill="#F7CA15"/>
</svg>
